<?xml version="1.0" encoding="UTF-8"?>
<svg version="1.1" xmlns="http://www.w3.org/2000/svg" width="250" height="250">
<path d="M0 0 C2.81410115 0.92664636 4.50480581 2.07882121 6.82421875 3.91015625 C33.29352813 22.95085591 65.26448692 23.76146689 96.57421875 21.84765625 C97.43450684 21.79673828 98.29479492 21.74582031 99.18115234 21.69335938 C103.31497834 21.44504068 107.44522727 21.16789156 111.57421875 20.84765625 C112.6111062 26.841967 112.75052251 32.69762786 112.77734375 38.7734375 C112.78440338 39.82552902 112.79146301 40.87762054 112.79873657 41.96159363 C113.02896046 86.39132725 113.02896046 86.39132725 109.57421875 104.84765625 C109.27620361 106.46655762 109.27620361 106.46655762 108.97216797 108.11816406 C102.39744475 142.66131661 90.50903832 176.39948729 66.57421875 202.84765625 C66.11354004 203.35748047 65.65286133 203.86730469 65.17822266 204.39257812 C49.4753776 221.53043588 25.10677944 238.73975814 1.07421875 240.47265625 C-9.6289394 239.75501155 -20.98595687 234.6178567 -30.42578125 229.84765625 C-31.30363281 229.4196875 -32.18148437 228.99171875 -33.0859375 228.55078125 C-67.99932787 210.66708776 -89.55307632 175.00935664 -101.42578125 138.84765625 C-106.0998744 124.13667548 -109.35446631 109.14088396 -111.42578125 93.84765625 C-111.51364899 93.2106781 -111.60151672 92.57369995 -111.69204712 91.91741943 C-113.46309544 78.68100093 -113.70681819 65.55824722 -113.6315918 52.21679688 C-113.61300486 48.79680125 -113.61108509 45.37707279 -113.61132812 41.95703125 C-113.60642304 39.77473723 -113.60059918 37.59244503 -113.59375 35.41015625 C-113.59263718 34.39155518 -113.59152435 33.3729541 -113.59037781 32.32348633 C-113.58080803 30.91425903 -113.58080803 30.91425903 -113.57104492 29.4765625 C-113.56723312 28.6522876 -113.56342133 27.8280127 -113.55949402 26.97875977 C-113.42578125 24.84765625 -113.42578125 24.84765625 -112.42578125 21.84765625 C-111.46260986 21.93853516 -111.46260986 21.93853516 -110.47998047 22.03125 C-75.0887972 25.29948216 -40.30765766 26.30130483 -9.42578125 5.84765625 C-8.0888537 4.7090641 -6.7723397 3.54555493 -5.48828125 2.34765625 C-2.42578125 -0.15234375 -2.42578125 -0.15234375 0 0 Z " fill="#030303" transform="translate(125.42578125,5.15234375)"/>
<path d="M0 0 C0.79809082 0.00902344 1.59618164 0.01804687 2.41845703 0.02734375 C3.02028809 0.03894531 3.62211914 0.05054687 4.2421875 0.0625 C4.36134867 13.77153428 4.19848041 27.38409605 3.2421875 41.0625 C8.1921875 41.0625 13.1421875 41.0625 18.2421875 41.0625 C18.0978125 39.35964844 17.9534375 37.65679687 17.8046875 35.90234375 C16.81916374 23.93376381 15.8853396 12.07637915 16.2421875 0.0625 C23.57032626 -0.41803369 29.73916564 0.45527678 36.2421875 4.0625 C38.81327313 6.43431435 40.89668379 8.8129816 42.2421875 12.0625 C41.92080735 13.39876483 41.58575834 14.73176788 41.2421875 16.0625 C41.7380073 19.15817813 41.7380073 19.15817813 42.6171875 22.4375 C44.5497992 30.14988499 45.38482709 37.12699845 45.33984375 45.0546875 C45.3384288 46.00062775 45.33701385 46.94656799 45.33555603 47.9211731 C45.32998234 50.92664829 45.3174347 53.93204753 45.3046875 56.9375 C45.2996691 58.98176975 45.29510679 61.02604068 45.29101562 63.0703125 C45.28002153 68.06773736 45.26277507 73.06510583 45.2421875 78.0625 C48.81198608 60.2033425 48.03667613 40.64668572 43.51171875 22.9375 C43.19474504 20.73246547 43.57840058 19.17155346 44.2421875 17.0625 C46.39691005 22.35136443 47.79825516 27.32173531 48.71484375 32.9609375 C49.10156991 35.26437952 49.10156991 35.26437952 51.2421875 37.0625 C50.9153914 39.39675788 50.58078709 41.72992506 50.2421875 44.0625 C50.29821961 46.8895746 50.67197718 49.25896591 51.2421875 52.0625 C52.7271875 53.0525 52.7271875 53.0525 54.2421875 54.0625 C54.49122479 56.90152508 54.50087038 59.25603484 54.2421875 62.0625 C54.18417969 62.71089844 54.12617188 63.35929687 54.06640625 64.02734375 C52.70711973 72.55973264 47.92576969 82.36396405 42.59765625 89.16015625 C40.78169169 91.70878663 40.22204199 94.1563696 39.4921875 97.1875 C39.09773438 98.76917969 39.09773438 98.76917969 38.6953125 100.3828125 C37.97748364 103.02482649 37.97748364 103.02482649 39.2421875 105.0625 C39.8351706 109.84872073 40.13972993 113.74610444 37.3671875 117.8125 C36.3359375 118.555 35.3046875 119.2975 34.2421875 120.0625 C33.56027344 120.57683594 32.87835938 121.09117187 32.17578125 121.62109375 C26.11928146 125.7818193 20.60244965 126.98987874 13.34375 127.73828125 C10.85916828 127.99800453 8.63328283 128.37344051 6.2421875 129.0625 C6.2421875 128.0725 6.2421875 127.0825 6.2421875 126.0625 C7.2321875 126.0625 8.2221875 126.0625 9.2421875 126.0625 C8.9121875 124.4125 8.5821875 122.7625 8.2421875 121.0625 C12.21338792 118.48544441 16.0659246 116.10356024 20.4296875 114.25 C24.38581891 112.35692931 25.99022673 109.91965796 27.94140625 106.0625 C29.2421875 104.0625 29.2421875 104.0625 31.71484375 102.296875 C34.97706562 99.41280868 35.86642529 96.37733267 36.9921875 92.3125 C37.19972656 91.63445312 37.40726562 90.95640625 37.62109375 90.2578125 C39.92264546 82.44738541 40.43990868 74.72168201 40.4921875 66.625 C40.5128125 65.83029297 40.5334375 65.03558594 40.5546875 64.21679688 C40.59113117 58.61813827 40.05617503 53.01742112 37.2421875 48.0625 C33.44355453 45.56604239 29.4103543 45.62484276 24.9921875 45.4375 C24.24710938 45.39882812 23.50203125 45.36015625 22.734375 45.3203125 C20.9040351 45.22644892 19.07314607 45.14340282 17.2421875 45.0625 C17.14679688 45.66707031 17.05140625 46.27164063 16.953125 46.89453125 C15.79986317 50.41134617 13.62815496 51.34546625 10.45703125 53.03125 C5.35604639 54.6675319 0.22397328 54.71043537 -5.10498047 54.78588867 C-5.90436035 54.7985376 -6.70374023 54.81118652 -7.52734375 54.82421875 C-8.24510986 54.82381592 -8.96287598 54.82341309 -9.70239258 54.82299805 C-12.18968246 54.99452833 -12.18968246 54.99452833 -15.7578125 57.0625 C-15.7578125 60.6925 -15.7578125 64.3225 -15.7578125 68.0625 C-12.56956682 69.65662284 -9.12884588 69.16424735 -5.6328125 69.125 C-4.50166016 69.11823242 -4.50166016 69.11823242 -3.34765625 69.11132812 C-1.48434123 69.09953499 0.37893305 69.08159942 2.2421875 69.0625 C2.9021875 65.7625 3.5621875 62.4625 4.2421875 59.0625 C4.9021875 59.0625 5.5621875 59.0625 6.2421875 59.0625 C5.9121875 65.3325 5.5821875 71.6025 5.2421875 78.0625 C4.2521875 78.0625 3.2621875 78.0625 2.2421875 78.0625 C1.9121875 78.7225 1.5821875 79.3825 1.2421875 80.0625 C2.86709704 80.08948189 4.49213383 80.10888757 6.1171875 80.125 C7.02210937 80.13660156 7.92703125 80.14820313 8.859375 80.16015625 C11.259046 80.22499257 11.259046 80.22499257 13.2421875 79.0625 C12.2521875 79.0625 11.2621875 79.0625 10.2421875 79.0625 C9.2521875 79.0625 8.2621875 79.0625 7.2421875 79.0625 C7.5721875 72.1325 7.9021875 65.2025 8.2421875 58.0625 C7.5821875 58.0625 6.9221875 58.0625 6.2421875 58.0625 C7.2421875 55.0625 7.2421875 55.0625 10.3671875 53.2734375 C11.65399398 52.65130379 12.94593162 52.03969761 14.2421875 51.4375 C18.53072852 49.66346371 18.53072852 49.66346371 22.2421875 47.0625 C24.5703125 46.82421875 24.5703125 46.82421875 27.4921875 46.75 C28.44609375 46.71261719 29.4 46.67523438 30.3828125 46.63671875 C34.31638481 47.22245561 35.71591375 47.94448646 38.2421875 51.0625 C38.90883623 54.78609922 38.80279061 58.41716553 38.6796875 62.1875 C38.67098633 63.70923828 38.67098633 63.70923828 38.66210938 65.26171875 C38.53717946 72.76750804 38.53717946 72.76750804 36.2421875 75.0625 C36.5721875 75.3925 36.9021875 75.7225 37.2421875 76.0625 C37.80198895 82.38179712 37.79222017 87.58953297 34.2421875 93.0625 C32.2421875 90.0625 32.2421875 90.0625 31.2421875 87.0625 C31.23960937 87.6915625 31.23703125 88.320625 31.234375 88.96875 C30.92102562 95.90421638 29.12561239 100.11045555 24.2421875 105.0625 C23.46101563 105.89974609 23.46101563 105.89974609 22.6640625 106.75390625 C18.72124789 108.88429801 14.71226638 108.57515636 10.3046875 108.5625 C9.41072266 108.59085937 8.51675781 108.61921875 7.59570312 108.6484375 C2.97896521 108.66214719 0.92983279 108.61386326 -2.7734375 105.64453125 C-3.42828125 104.79246094 -4.083125 103.94039063 -4.7578125 103.0625 C-5.3559375 102.464375 -5.9540625 101.86625 -6.5703125 101.25 C-7.158125 100.6621875 -7.158125 100.6621875 -7.7578125 100.0625 C-8.0878125 101.3825 -8.4178125 102.7025 -8.7578125 104.0625 C-10.2428125 103.5675 -10.2428125 103.5675 -11.7578125 103.0625 C-11.51612796 108.31024798 -11.51612796 108.31024798 -9.4453125 112.9375 C-7.59853049 114.16868801 -5.76687411 115.11377646 -3.7578125 116.0625 C-1.4107273 117.37261868 0.91380709 118.71920361 3.2421875 120.0625 C2.0546875 121.625 2.0546875 121.625 0.2421875 123.0625 C-2.74603943 122.83263639 -4.35796802 122.39706375 -6.671875 120.4609375 C-12.76587042 113.25388356 -15.33761807 107.53265771 -14.7578125 98.0625 C-16.2428125 98.5575 -16.2428125 98.5575 -17.7578125 99.0625 C-18.7578125 98.0625 -18.7578125 98.0625 -18.85546875 96.21484375 C-18.80664062 93.13867188 -18.80664062 93.13867188 -18.7578125 90.0625 C-20.0778125 90.0625 -21.3978125 90.0625 -22.7578125 90.0625 C-23.8900587 86.27295974 -25.0122514 82.4805104 -26.1328125 78.6875 C-26.44992188 77.62660156 -26.76703125 76.56570312 -27.09375 75.47265625 C-34.53743942 50.19512758 -34.53743942 50.19512758 -30.9296875 40.9375 C-29.4881503 38.69989002 -28.14768312 37.25743531 -25.7578125 36.0625 C-25.02488578 33.67976188 -25.02488578 33.67976188 -24.49609375 30.77734375 C-24.26341797 29.68873047 -24.03074219 28.60011719 -23.79101562 27.47851562 C-23.31677486 25.18956495 -22.8554676 22.89789004 -22.40820312 20.60351562 C-20.79787198 13.21161819 -18.67443733 7.98026645 -12.7578125 3.0625 C-8.5934347 0.5542447 -4.81634905 -0.0709591 0 0 Z " fill="#CDCECF" transform="translate(113.7578125,77.9375)"/>
<path d="M0 0 C2.81410115 0.92664636 4.50480581 2.07882121 6.82421875 3.91015625 C33.29352813 22.95085591 65.26448692 23.76146689 96.57421875 21.84765625 C97.43450684 21.79673828 98.29479492 21.74582031 99.18115234 21.69335938 C103.31497834 21.44504068 107.44522727 21.16789156 111.57421875 20.84765625 C112.6111062 26.841967 112.75052251 32.69762786 112.77734375 38.7734375 C112.78440338 39.82552902 112.79146301 40.87762054 112.79873657 41.96159363 C113.02896046 86.39132725 113.02896046 86.39132725 109.57421875 104.84765625 C109.27620361 106.46655762 109.27620361 106.46655762 108.97216797 108.11816406 C102.39744475 142.66131661 90.50903832 176.39948729 66.57421875 202.84765625 C66.11354004 203.35748047 65.65286133 203.86730469 65.17822266 204.39257812 C49.4753776 221.53043588 25.10677944 238.73975814 1.07421875 240.47265625 C-9.6289394 239.75501155 -20.98595687 234.6178567 -30.42578125 229.84765625 C-31.30363281 229.4196875 -32.18148437 228.99171875 -33.0859375 228.55078125 C-67.99932787 210.66708776 -89.55307632 175.00935664 -101.42578125 138.84765625 C-106.0998744 124.13667548 -109.35446631 109.14088396 -111.42578125 93.84765625 C-111.51364899 93.2106781 -111.60151672 92.57369995 -111.69204712 91.91741943 C-113.46309544 78.68100093 -113.70681819 65.55824722 -113.6315918 52.21679688 C-113.61300486 48.79680125 -113.61108509 45.37707279 -113.61132812 41.95703125 C-113.60642304 39.77473723 -113.60059918 37.59244503 -113.59375 35.41015625 C-113.59263718 34.39155518 -113.59152435 33.3729541 -113.59037781 32.32348633 C-113.58080803 30.91425903 -113.58080803 30.91425903 -113.57104492 29.4765625 C-113.56723312 28.6522876 -113.56342133 27.8280127 -113.55949402 26.97875977 C-113.42578125 24.84765625 -113.42578125 24.84765625 -112.42578125 21.84765625 C-111.46260986 21.93853516 -111.46260986 21.93853516 -110.47998047 22.03125 C-75.0887972 25.29948216 -40.30765766 26.30130483 -9.42578125 5.84765625 C-8.0888537 4.7090641 -6.7723397 3.54555493 -5.48828125 2.34765625 C-2.42578125 -0.15234375 -2.42578125 -0.15234375 0 0 Z M-4.45703125 11.4453125 C-5.62166742 12.25499588 -6.77747058 13.07748153 -7.92578125 13.91015625 C-14.1700736 18.16386749 -20.27229995 21.32185915 -27.42578125 23.84765625 C-28.61429687 24.27820312 -29.8028125 24.70875 -31.02734375 25.15234375 C-54.7133831 33.36982597 -80.70827894 33.60652088 -105.42578125 30.84765625 C-105.72484043 57.3834075 -105.58697659 83.37760688 -99.93603516 109.44238281 C-99.45162978 111.72580951 -99.01582668 114.01294575 -98.59375 116.30859375 C-91.4060899 153.84835534 -70.42539923 193.47170526 -38.48242188 215.52392578 C-26.56896285 223.19187151 -11.07174437 232.90143253 3.57421875 231.84765625 C6.68286704 231.06438893 9.64418995 229.99156324 12.63671875 228.84765625 C13.46872803 228.53368896 14.3007373 228.21972168 15.15795898 227.89624023 C26.8778336 223.33056711 37.06812839 217.12816801 46.57421875 208.84765625 C47.40566406 208.13738281 48.23710937 207.42710937 49.09375 206.6953125 C71.39792969 187.20056865 84.47566136 161.66763412 93.57421875 133.84765625 C93.82010742 133.11853027 94.06599609 132.3894043 94.31933594 131.63818359 C101.50608438 110.01129937 104.80453923 85.08409315 104.671875 62.3671875 C104.67046005 61.42832199 104.6690451 60.48945648 104.66758728 59.5221405 C104.66205773 56.56811121 104.6495192 53.61416204 104.63671875 50.66015625 C104.63169462 48.63867298 104.62713333 46.61718851 104.62304688 44.59570312 C104.61211152 39.67965735 104.59489699 34.76367031 104.57421875 29.84765625 C103.71441406 29.91694336 102.85460937 29.98623047 101.96875 30.05761719 C68.35344359 32.63283559 34.69385706 31.29652302 5.16796875 13.3984375 C4.31203125 12.88667969 3.45609375 12.37492187 2.57421875 11.84765625 C1.93484375 11.36554687 1.29546875 10.8834375 0.63671875 10.38671875 C-1.6639944 9.53758433 -1.6639944 9.53758433 -4.45703125 11.4453125 Z " fill="#FBFBFB" transform="translate(125.42578125,5.15234375)"/>
<path d="M0 0 C0.95390625 -0.03738281 1.9078125 -0.07476562 2.890625 -0.11328125 C6.82419731 0.47245561 8.22372625 1.19448646 10.75 4.3125 C11.41664873 8.03609922 11.31060311 11.66716553 11.1875 15.4375 C11.18169922 16.45199219 11.17589844 17.46648437 11.16992188 18.51171875 C11.04499196 26.01750804 11.04499196 26.01750804 8.75 28.3125 C9.08 28.6425 9.41 28.9725 9.75 29.3125 C10.30980145 35.63179712 10.30003267 40.83953297 6.75 46.3125 C4.75 43.3125 4.75 43.3125 3.75 40.3125 C3.74742187 40.9415625 3.74484375 41.570625 3.7421875 42.21875 C3.42883812 49.15421638 1.63342489 53.36045555 -3.25 58.3125 C-3.77078125 58.87066406 -4.2915625 59.42882812 -4.828125 60.00390625 C-8.77093961 62.13429801 -12.77992112 61.82515636 -17.1875 61.8125 C-18.52844727 61.85503906 -18.52844727 61.85503906 -19.89648438 61.8984375 C-24.51322229 61.91214719 -26.56235471 61.86386326 -30.265625 58.89453125 C-30.92046875 58.04246094 -31.5753125 57.19039062 -32.25 56.3125 C-32.848125 55.714375 -33.44625 55.11625 -34.0625 54.5 C-34.454375 54.108125 -34.84625 53.71625 -35.25 53.3125 C-35.58 54.6325 -35.91 55.9525 -36.25 57.3125 C-37.24 56.9825 -38.23 56.6525 -39.25 56.3125 C-39.25 54.6625 -39.25 53.0125 -39.25 51.3125 C-38.59 51.3125 -37.93 51.3125 -37.25 51.3125 C-37.25 47.0225 -37.25 42.7325 -37.25 38.3125 C-37.91 38.3125 -38.57 38.3125 -39.25 38.3125 C-39.25 40.6225 -39.25 42.9325 -39.25 45.3125 C-39.58 45.3125 -39.91 45.3125 -40.25 45.3125 C-40.559375 44.219375 -40.86875 43.12625 -41.1875 42 C-41.83337897 39.75842006 -42.5123117 37.5255649 -43.25 35.3125 C-42.26 35.3125 -41.27 35.3125 -40.25 35.3125 C-40.25 34.6525 -40.25 33.9925 -40.25 33.3125 C-41.24 33.3125 -42.23 33.3125 -43.25 33.3125 C-43.683125 31.9203125 -43.683125 31.9203125 -44.125 30.5 C-45.1375 27.21458333 -45.1375 27.21458333 -47.25 24.3125 C-47.4453125 21.61328125 -47.4453125 21.61328125 -47.375 18.625 C-47.35695313 17.63113281 -47.33890625 16.63726562 -47.3203125 15.61328125 C-47.29710938 14.85402344 -47.27390625 14.09476563 -47.25 13.3125 C-46.26 12.9825 -45.27 12.6525 -44.25 12.3125 C-44.17652344 13.26962891 -44.17652344 13.26962891 -44.1015625 14.24609375 C-44.02679688 15.07238281 -43.95203125 15.89867187 -43.875 16.75 C-43.80539063 17.57371094 -43.73578125 18.39742187 -43.6640625 19.24609375 C-43.52742188 19.92800781 -43.39078125 20.60992187 -43.25 21.3125 C-40.06175432 22.90662284 -36.62103338 22.41424735 -33.125 22.375 C-31.99384766 22.36823242 -31.99384766 22.36823242 -30.83984375 22.36132812 C-28.97652873 22.34953499 -27.11325445 22.33159942 -25.25 22.3125 C-24.59 19.0125 -23.93 15.7125 -23.25 12.3125 C-22.59 12.3125 -21.93 12.3125 -21.25 12.3125 C-21.58 18.5825 -21.91 24.8525 -22.25 31.3125 C-23.24 31.3125 -24.23 31.3125 -25.25 31.3125 C-25.58 31.9725 -25.91 32.6325 -26.25 33.3125 C-24.62509046 33.33948189 -23.00005367 33.35888757 -21.375 33.375 C-20.47007813 33.38660156 -19.56515625 33.39820313 -18.6328125 33.41015625 C-16.2331415 33.47499257 -16.2331415 33.47499257 -14.25 32.3125 C-15.24 32.3125 -16.23 32.3125 -17.25 32.3125 C-18.24 32.3125 -19.23 32.3125 -20.25 32.3125 C-19.92 25.3825 -19.59 18.4525 -19.25 11.3125 C-19.91 11.3125 -20.57 11.3125 -21.25 11.3125 C-20.25 8.3125 -20.25 8.3125 -17.125 6.5234375 C-15.83819352 5.90130379 -14.54625588 5.28969761 -13.25 4.6875 C-3.60219766 0.09149967 -3.60219766 0.09149967 0 0 Z " fill="#F1F1F1" transform="translate(141.25,124.6875)"/>
<path d="M0 0 C2.0625 0.4375 2.0625 0.4375 4 1 C4.12375 1.7425 4.2475 2.485 4.375 3.25 C5.31148219 7.37052165 7.23241628 10.37753332 9.625 13.8125 C12.06877125 17.74726264 12.83803495 20.30700428 12 25 C10.06843793 29.70485989 7.61545692 33.02762781 3.125 35.5 C-0.86246302 37.13359751 -3.67364863 37.87993587 -8 37 C-11.92421742 34.63965589 -15.4495352 31.8841019 -19 29 C-19.73476562 28.43023437 -20.46953125 27.86046875 -21.2265625 27.2734375 C-24.43637379 24.69766301 -26.28633578 23.07310796 -27 19 C-22.62140745 19.50522222 -20.18348776 22.17827222 -17 25 C-16.77183594 24.31421875 -16.54367188 23.6284375 -16.30859375 22.921875 C-14.67612971 19.27685083 -12.50592842 16.38802495 -10.0625 13.25 C-9.61970703 12.66089844 -9.17691406 12.07179688 -8.72070312 11.46484375 C-5.37302975 7.12434325 -5.37302975 7.12434325 -2 6 C-1.855625 5.195625 -1.71125 4.39125 -1.5625 3.5625 C-1 1 -1 1 0 0 Z " fill="#ECECEC" transform="translate(188,75)"/>
<path d="M0 0 C2.625 0.375 2.625 0.375 5 1 C5 1.99 5 2.98 5 4 C5.59780273 4.09748535 6.19560547 4.1949707 6.81152344 4.29541016 C9.45640312 5.14694103 10.29678859 6.11828108 12.015625 8.2734375 C12.54414062 8.9334375 13.07265625 9.5934375 13.6171875 10.2734375 C14.15601562 10.96695313 14.69484375 11.66046875 15.25 12.375 C15.80429688 13.06078125 16.35859375 13.7465625 16.9296875 14.453125 C21 19.60618073 21 19.60618073 21 23 C21.47050781 22.4946875 21.94101563 21.989375 22.42578125 21.46875 C23.04839844 20.8190625 23.67101562 20.169375 24.3125 19.5 C24.92738281 18.8503125 25.54226562 18.200625 26.17578125 17.53125 C28 16 28 16 31 16 C29.58943975 20.73053742 26.84516087 23.43319864 23.25 26.625 C22.73695312 27.10195312 22.22390625 27.57890625 21.6953125 28.0703125 C17.46523815 31.89651041 13.38741706 34.64630858 7.625 35.5 C1.89375933 34.70948405 -2.12416845 32.05169076 -6 27.8125 C-7.54847172 23.45742328 -7.87823595 19.55331562 -7 15 C-5.59367945 12.44955425 -4.05161743 10.26525316 -2.21484375 8.0078125 C-0.73281655 6.07242952 -0.73281655 6.07242952 -1.44140625 3.8671875 C-1.62574219 3.25101562 -1.81007813 2.63484375 -2 2 C-1.34 1.34 -0.68 0.68 0 0 Z " fill="#F0F0F0" transform="translate(56,78)"/>
<path d="M0 0 C2.55395487 -0.26711404 4.86274374 -0.34849029 7.4140625 -0.29296875 C8.50852188 -0.28660149 8.50852188 -0.28660149 9.62509155 -0.28010559 C11.95876759 -0.26329353 14.2915844 -0.22563868 16.625 -0.1875 C18.20571671 -0.17245634 19.78644693 -0.15876738 21.3671875 -0.14648438 C25.24512344 -0.11338201 29.12241598 -0.06158404 33 0 C32.17480469 3.81884766 32.17480469 3.81884766 30.6015625 5.44921875 C24.20724954 9.45514208 18.0045842 9.61929432 10.65283203 9.72338867 C9.85345215 9.7360376 9.05407227 9.74868652 8.23046875 9.76171875 C7.51270264 9.76131592 6.79493652 9.76091309 6.05541992 9.76049805 C2.95013565 10.12233245 0.75128627 11.44078465 -1.7265625 13.28515625 C-3.51859326 15.69835105 -3.3992323 17.46096623 -3.375 20.4375 C-3.38273437 21.38496094 -3.39046875 22.33242187 -3.3984375 23.30859375 C-2.9433176 26.38288404 -1.9326587 27.63109813 0 30 C0.1875 32.75 0.1875 32.75 0 35 C0.99 35 1.98 35 3 35 C3 35.66 3 36.32 3 37 C2.01 37 1.02 37 0 37 C0.99 38.65 1.98 40.3 3 42 C3.33 41.34 3.66 40.68 4 40 C4.66 40 5.32 40 6 40 C6.1080023 42.10304477 6.18558987 44.20766909 6.25 46.3125 C6.29640625 47.48425781 6.3428125 48.65601563 6.390625 49.86328125 C6 53 6 53 3.984375 54.91796875 C3.32953125 55.27503906 2.6746875 55.63210937 2 56 C1.7525 55.05125 1.505 54.1025 1.25 53.125 C0.38540949 50.04952803 -0.74322724 47.18559608 -2 44.25 C-6.23663768 33.7216392 -8.32709389 20.19971289 -5.171875 9.08203125 C-3.732052 5.78870476 -1.99430379 2.99145568 0 0 Z " fill="#1B1B1B" transform="translate(98,123)"/>
<path d="M0 0 C-0.14230808 1.41702513 -0.28900746 2.8336096 -0.4375 4.25 C-0.51871094 5.03890625 -0.59992188 5.8278125 -0.68359375 6.640625 C-1 9 -1 9 -1.59765625 11.171875 C-2.21962536 13.08492451 -2.21962536 13.08492451 -1 15 C-0.4070169 19.78622073 -0.10245757 23.68360444 -2.875 27.75 C-3.90625 28.4925 -4.9375 29.235 -6 30 C-6.68191406 30.51433594 -7.36382812 31.02867187 -8.06640625 31.55859375 C-14.12290604 35.7193193 -19.63973785 36.92737874 -26.8984375 37.67578125 C-29.38301922 37.93550453 -31.60890467 38.31094051 -34 39 C-34 38.01 -34 37.02 -34 36 C-33.01 36 -32.02 36 -31 36 C-31.33 34.35 -31.66 32.7 -32 31 C-28.02879958 28.42294441 -24.1762629 26.04106024 -19.8125 24.1875 C-15.78161661 22.25865932 -14.25022051 19.72073291 -12.15234375 15.87109375 C-11 14 -11 14 -8.375 12.0625 C-5.27856146 9.37348759 -4.71304476 6.81392853 -3.67578125 2.92578125 C-2.94806403 0.85199751 -2.35259891 0 0 0 Z " fill="#C4C5C6" transform="translate(154,168)"/>
<path d="M0 0 C12.05357143 -0.53571429 12.05357143 -0.53571429 15.625 1.8125 C19.93259804 5.78002451 19.93259804 5.78002451 20.1171875 9.12109375 C19.46244285 15.38340954 19.46244285 15.38340954 17.125 18.5 C11.9591173 22.14650543 6.06699246 21.06523648 0 21 C0 14.07 0 7.14 0 0 Z " fill="#F8F8F8" transform="translate(115,44)"/>
<path d="M0 0 C13.32132964 -0.49338258 13.32132964 -0.49338258 16.4609375 1.7890625 C18 4 18 4 17.875 7.625 C17 11 17 11 15 13 C15.66 13.94875 16.32 14.8975 17 15.875 C19 19 19 19 19 21 C17.72125 21.061875 16.4425 21.12375 15.125 21.1875 C14.04605469 21.23970703 14.04605469 21.23970703 12.9453125 21.29296875 C12.30335938 21.19628906 11.66140625 21.09960938 11 21 C10.34 20.01 9.68 19.02 9 18 C8.67 18.99 8.34 19.98 8 21 C5.36 21 2.72 21 0 21 C0 14.07 0 7.14 0 0 Z " fill="#EDEDED" transform="translate(165,44)"/>
<path d="M0 0 C13.32132964 -0.49338258 13.32132964 -0.49338258 16.4609375 1.7890625 C18 4 18 4 17.875 7.625 C17 11 17 11 15 13 C15.66 13.94875 16.32 14.8975 17 15.875 C19 19 19 19 19 21 C17.72125 21.061875 16.4425 21.12375 15.125 21.1875 C14.04605469 21.23970703 14.04605469 21.23970703 12.9453125 21.29296875 C12.30335937 21.19628906 11.66140625 21.09960938 11 21 C10.34 20.01 9.68 19.02 9 18 C8.67 18.99 8.34 19.98 8 21 C5.36 21 2.72 21 0 21 C0 14.07 0 7.14 0 0 Z " fill="#EFEFEF" transform="translate(43,45)"/>
<path d="M0 0 C2.05078125 0.03255208 4.1015625 0.06510417 6.15234375 0.09765625 C9.23071096 7.04160671 11.78054688 13.61512787 13.15234375 21.09765625 C10.51234375 21.09765625 7.87234375 21.09765625 5.15234375 21.09765625 C5.15234375 20.43765625 5.15234375 19.77765625 5.15234375 19.09765625 C3.17234375 19.09765625 1.19234375 19.09765625 -0.84765625 19.09765625 C-1.17765625 20.08765625 -1.50765625 21.07765625 -1.84765625 22.09765625 C-4.48765625 22.09765625 -7.12765625 22.09765625 -9.84765625 22.09765625 C-3.57444004 0.18892389 -3.57444004 0.18892389 0 0 Z " fill="#EAEAEA" transform="translate(77.84765625,43.90234375)"/>
<path d="M0 0 C0.66 0.33 1.32 0.66 2 1 C1.67 2.98 1.34 4.96 1 7 C-1.97 6.505 -1.97 6.505 -5 6 C-5 6.66 -5 7.32 -5 8 C-4.05125 8.12375 -3.1025 8.2475 -2.125 8.375 C1 9 1 9 3 11 C3.61237984 14.93672752 3.30777434 16.54330259 1.0625 19.875 C-2.94925797 22.65866879 -6.23525349 22.8476609 -11 22 C-11.99 21.34 -12.98 20.68 -14 20 C-13.34 18.02 -12.68 16.04 -12 14 C-9.69 14.66 -7.38 15.32 -5 16 C-5 15.34 -5 14.68 -5 14 C-6.7015625 13.566875 -6.7015625 13.566875 -8.4375 13.125 C-9.613125 12.75375 -10.78875 12.3825 -12 12 C-13.43735246 9.12529507 -13.38172649 7.18105412 -13 4 C-9.09475623 -0.63747697 -5.66136689 -0.46404647 0 0 Z " fill="#F3F3F3" transform="translate(205,43)"/>
<path d="M0 0 C4.62 0 9.24 0 14 0 C14 1.98 14 3.96 14 6 C12.02 6 10.04 6 8 6 C8 6.66 8 7.32 8 8 C9.98 8 11.96 8 14 8 C14 9.65 14 11.3 14 13 C12.02 13 10.04 13 8 13 C8 13.66 8 14.32 8 15 C10.31 15 12.62 15 15 15 C15 16.98 15 18.96 15 21 C10.05 21 5.1 21 0 21 C0 14.07 0 7.14 0 0 Z " fill="#F2F2F2" transform="translate(142,44)"/>
<path d="M0 0 C6 6 6 6 6.0625 8.5625 C6.041875 9.366875 6.02125 10.17125 6 11 C4.22934889 11.64633275 2.45847247 12.2920483 0.6875 12.9375 C-0.29863281 13.29714844 -1.28476563 13.65679687 -2.30078125 14.02734375 C-7.04832445 15.73810823 -11.04982125 16.18306792 -16.0625 16.1875 C-16.79533203 16.19974609 -17.52816406 16.21199219 -18.28320312 16.22460938 C-20.19026507 16.22986299 -22.09684886 16.12218272 -24 16 C-24.66 15.34 -25.32 14.68 -26 14 C-25.04480469 13.57589844 -24.08960937 13.15179688 -23.10546875 12.71484375 C-14.97085372 9.04471981 -7.38962526 5.05444223 0 0 Z " fill="#F2F2F2" transform="translate(92,176)"/>
<path d="M0 0 C3.28640284 1.57139056 6.42615713 3.36678527 9.5859375 5.17407227 C15.93648828 8.80306382 22.22275474 12.21648855 29 15 C25.27904679 17.3975214 21.53990157 17.38490854 17.25 17.375 C16.53497314 17.37338867 15.81994629 17.37177734 15.08325195 17.37011719 C8.19856323 17.2100264 4.06172215 15.78338377 -1.0625 11.125 C-2.76556123 7.26472789 -1.27722777 3.83168331 0 0 Z " fill="#F7F7F7" transform="translate(156,173)"/>
<path d="M0 0 C0 1.32 0 2.64 0 4 C1.65 4.33 3.3 4.66 5 5 C5.12375 5.928125 5.12375 5.928125 5.25 6.875 C5.81258459 9.18437567 5.81258459 9.18437567 8.0625 10.25 C8.701875 10.4975 9.34125 10.745 10 11 C10 12.32 10 13.64 10 15 C11.32 15 12.64 15 14 15 C12.25 18.875 12.25 18.875 10 20 C5.58494046 20.51941877 2.82478118 20.23065621 -0.8125 17.75 C-3.327396 15.73131666 -5.15306465 14.19953354 -6 11 C-6.65830721 4.85579937 -6.65830721 4.85579937 -4.125 1.5625 C-2 0 -2 0 0 0 Z " fill="#0E0E0E" transform="translate(59,88)"/>
<path d="M0 0 C2.46800047 1.15173355 4.04783565 2.04783565 6 4 C6.83058144 7.92130277 6.8307464 11.5650744 4.796875 15.078125 C2.18165815 18.22166849 -0.18571022 20.41883076 -4 22 C-8.09859246 22.33457898 -9.51195905 22.32536063 -13 20 C-13 19.34 -13 18.68 -13 18 C-12.01 17.67 -11.02 17.34 -10 17 C-9.835 16.34 -9.67 15.68 -9.5 15 C-9.335 14.34 -9.17 13.68 -9 13 C-8.01 12.67 -7.02 12.34 -6 12 C-4.77479736 8.99152582 -4.77479736 8.99152582 -4 6 C-3.01 6 -2.02 6 -1 6 C-0.67 4.02 -0.34 2.04 0 0 Z " fill="#060606" transform="translate(189,85)"/>
<path d="M0 0 C3.10662679 3.44411549 3.73910621 6.61750712 4.5625 11.125 C5.25940441 16.08605253 5.25940441 16.08605253 8 20 C7.6732039 22.33425788 7.33859959 24.66742506 7 27 C7.05603211 29.8270746 7.42978968 32.19646591 8 35 C8.99 35.66 9.98 36.32 11 37 C11.82973914 46.45902625 9.10024289 54.58056922 5 63 C4.01 63 3.02 63 2 63 C2.144375 62.2471875 2.28875 61.494375 2.4375 60.71875 C5.5525812 42.89356311 4.57933242 23.50120644 0.3671875 5.875 C0 4 0 4 0 0 Z " fill="#CBCCCD" transform="translate(157,95)"/>
<path d="M0 0 C0.99245476 0.00212242 0.99245476 0.00212242 2.00495911 0.00428772 C4.11402953 0.00987629 6.22299302 0.0224266 8.33203125 0.03515625 C9.76367034 0.04017273 11.1953111 0.04473538 12.62695312 0.04882812 C16.13284713 0.05984195 19.63867875 0.0770987 23.14453125 0.09765625 C16.4420448 6.98397928 10.73547934 7.56058729 1.45703125 7.72265625 C-0.60946946 7.77364948 -2.67588688 7.82817578 -4.7421875 7.88671875 C-5.65186279 7.90428223 -6.56153809 7.9218457 -7.4987793 7.93994141 C-10.00787996 8.00836236 -10.00787996 8.00836236 -12.85546875 9.09765625 C-12.30823192 5.7230291 -11.80056875 4.01530625 -9.85546875 1.09765625 C-6.37764292 -0.06161903 -3.66743618 -0.01547441 0 0 Z " fill="#F8F8F8" transform="translate(107.85546875,124.90234375)"/>
<path d="M0 0 C3.27375775 0.1785686 5.94906026 0.38393188 8.8125 2.0625 C12.32312167 7.7903564 12.32488675 14.73949208 12.25 21.25 C12.24540771 22.07757813 12.24081543 22.90515625 12.23608398 23.7578125 C12.12449479 31.34883395 11.4112863 38.76614111 9 46 C6.9375 47.1875 6.9375 47.1875 5 48 C5.309375 47.236875 5.61875 46.47375 5.9375 45.6875 C7.33802581 40.82685159 7.65979734 36.03141827 8 31 C7.34 30.67 6.68 30.34 6 30 C6.66 29.34 7.32 28.68 8 28 C8.47898442 24.37461122 8.3703783 20.7159522 8.375 17.0625 C8.39949219 16.04736328 8.42398438 15.03222656 8.44921875 13.98632812 C8.45308594 13.01244141 8.45695313 12.03855469 8.4609375 11.03515625 C8.46915527 10.1419165 8.47737305 9.24867676 8.48583984 8.32836914 C8.19787478 5.86100854 8.19787478 5.86100854 6.17431641 4.22827148 C3.47980726 2.70614308 1.05479574 2.34713588 -2 2 C-1.34 1.34 -0.68 0.68 0 0 Z M2 41 C4.41677686 44.86684298 4.78648606 48.51620723 5 53 C3.6875 55 3.6875 55 2 56 C1.34 56 0.68 56 0 56 C-0.33 55.01 -0.66 54.02 -1 53 C-0.67 52.67 -0.34 52.34 0 52 C0.20775561 50.33795513 0.36718255 48.66970509 0.5 47 C0.88888889 42.11111111 0.88888889 42.11111111 2 41 Z " fill="#1A1A1A" transform="translate(143,123)"/>
<path d="M0 0 C2.64 0 5.28 0 8 0 C8 7.26 8 14.52 8 22 C5.36 22 2.72 22 0 22 C0 14.74 0 7.48 0 0 Z " fill="#EAEAEA" transform="translate(98,44)"/>
<path d="M0 0 C0.33 0 0.66 0 1 0 C2.38879511 14.48314905 3.05939026 27.88878625 -1 42 C-1.33 42 -1.66 42 -2 42 C-1.88164153 36.66130986 -1.7573854 31.32280168 -1.62768555 25.984375 C-1.58440014 24.16865766 -1.54272056 22.35290129 -1.50268555 20.53710938 C-1.44482798 17.92566167 -1.38117828 15.31440923 -1.31640625 12.703125 C-1.29969376 11.89256653 -1.28298126 11.08200806 -1.26576233 10.24688721 C-1.17228604 6.68275277 -0.95375416 3.43312065 0 0 Z " fill="#323232" transform="translate(160,116)"/>
<path d="M0 0 C4.57629256 1.44514502 4.57629256 1.44514502 6.3125 3.71875 C7.31747976 7.05345557 6.15455905 8.69088189 4.625 11.75 C4.14289063 12.73484375 3.66078125 13.7196875 3.1640625 14.734375 C2.77992188 15.48203125 2.39578125 16.2296875 2 17 C1.67 17 1.34 17 1 17 C0.87882813 16.36191406 0.75765625 15.72382812 0.6328125 15.06640625 C0.46523437 14.24011719 0.29765625 13.41382812 0.125 12.5625 C-0.03742188 11.73878906 -0.19984375 10.91507813 -0.3671875 10.06640625 C-0.68042969 9.04353516 -0.68042969 9.04353516 -1 8 C-1.66 7.67 -2.32 7.34 -3 7 C-2.25 2.25 -2.25 2.25 0 0 Z " fill="#F1F1F1" transform="translate(167,105)"/>
<path d="M0 0 C0.66 0.33 1.32 0.66 2 1 C2.5625 3.3125 2.5625 3.3125 3 6 C3.226875 6.61875 3.45375 7.2375 3.6875 7.875 C4.19035314 11.29440135 3.235158 13.82387944 2 17 C-0.125 18.4375 -0.125 18.4375 -2 19 C-1.690625 18.236875 -1.38125 17.47375 -1.0625 16.6875 C0.33802581 11.82685159 0.65979734 7.03141827 1 2 C0.34 1.67 -0.32 1.34 -1 1 C-0.67 0.67 -0.34 0.34 0 0 Z M-5 12 C-2.58322314 15.86684298 -2.21351394 19.51620723 -2 24 C-3.3125 26 -3.3125 26 -5 27 C-5.66 27 -6.32 27 -7 27 C-7.33 26.01 -7.66 25.02 -8 24 C-7.67 23.67 -7.34 23.34 -7 23 C-6.79224439 21.33795513 -6.63281745 19.66970509 -6.5 18 C-6.11111111 13.11111111 -6.11111111 13.11111111 -5 12 Z " fill="#3E3E3E" transform="translate(150,152)"/>
<path d="M0 0 C0.33 0 0.66 0 1 0 C1.16435547 1.03060547 1.16435547 1.03060547 1.33203125 2.08203125 C1.49058594 2.98308594 1.64914063 3.88414062 1.8125 4.8125 C1.96332031 5.70582031 2.11414063 6.59914062 2.26953125 7.51953125 C3.06344618 10.21544559 3.83720323 11.26095731 6 13 C7.31403276 13.70394612 8.6520257 14.36345658 10 15 C12.3470852 16.31011868 14.67161959 17.65670361 17 19 C15.8125 20.5625 15.8125 20.5625 14 22 C11.01177307 21.77013639 9.39984448 21.33456375 7.0859375 19.3984375 C2.8124385 14.34439074 -0.65823679 9.93027696 -1.25 3.125 C-1 1 -1 1 0 0 Z " fill="#C2C3C4" transform="translate(100,179)"/>
<path d="M0 0 C2.55395487 -0.26711404 4.86274374 -0.34849029 7.4140625 -0.29296875 C8.50852188 -0.28660149 8.50852188 -0.28660149 9.62509155 -0.28010559 C11.95876759 -0.26329353 14.2915844 -0.22563868 16.625 -0.1875 C18.20571671 -0.17245634 19.78644693 -0.15876738 21.3671875 -0.14648438 C25.24512344 -0.11338201 29.12241598 -0.06158404 33 0 C33 0.66 33 1.32 33 2 C32.10692139 2.02505615 31.21384277 2.0501123 30.29370117 2.07592773 C26.97814546 2.17110186 23.66276271 2.27033283 20.34741211 2.37231445 C18.91288997 2.41560793 17.47831816 2.45728699 16.04370117 2.49731445 C13.9808048 2.55515267 11.91815717 2.61880753 9.85546875 2.68359375 C7.99378052 2.73858032 7.99378052 2.73858032 6.09448242 2.79467773 C2.96446653 2.87144121 2.96446653 2.87144121 0 4 C-1.20882096 6.00016466 -1.20882096 6.00016466 -2 8 C-2.66 8 -3.32 8 -4 8 C-2.87548273 5.0280615 -1.77706209 2.66559313 0 0 Z " fill="#313131" transform="translate(98,123)"/>
<path d="M0 0 C3.10662679 3.44411549 3.73910621 6.61750712 4.5625 11.125 C5.25940441 16.08605253 5.25940441 16.08605253 8 20 C7.51213868 25.26890224 6.93487481 29.59768778 4 34 C3.9498877 33.44650879 3.89977539 32.89301758 3.84814453 32.32275391 C2.7379823 19.00563842 2.7379823 19.00563842 0.3671875 5.875 C0 4 0 4 0 0 Z " fill="#B7B8B8" transform="translate(157,95)"/>
<path d="M0 0 C5.57142857 5.14285714 5.57142857 5.14285714 6 9 C4.02 10.32 2.04 11.64 0 13 C-1.65 11.02 -3.3 9.04 -5 7 C-3.70700306 4.11562221 -2.34058637 2.12780579 0 0 Z " fill="#EEEEEE" transform="translate(81,104)"/>
<path d="M0 0 C1.95294291 3.27291618 2.24471499 5.71340798 2.1875 9.5 C2.18105469 10.4384375 2.17460938 11.376875 2.16796875 12.34375 C2.01857816 14.70620585 1.66710889 16.73716665 1 19 C2.45880109 18.85892253 3.91703551 18.71197585 5.375 18.5625 C6.18710938 18.48128906 6.99921875 18.40007812 7.8359375 18.31640625 C10.04272805 18.10909886 10.04272805 18.10909886 12 17 C11.67 17.99 11.34 18.98 11 20 C10.195625 19.979375 9.39125 19.95875 8.5625 19.9375 C6.06645115 19.70366379 6.06645115 19.70366379 5 21 C3.30858344 20.91036938 1.62040398 20.75422324 -0.0625 20.5625 C-0.98160156 20.46066406 -1.90070313 20.35882813 -2.84765625 20.25390625 C-3.55792969 20.17011719 -4.26820312 20.08632812 -5 20 C-4.67 18.68 -4.34 17.36 -4 16 C-4 16.66 -4 17.32 -4 18 C-3.01 18 -2.02 18 -1 18 C-1.01160156 17.11957031 -1.02320312 16.23914063 -1.03515625 15.33203125 C-1.04417969 14.17058594 -1.05320312 13.00914062 -1.0625 11.8125 C-1.07410156 10.66394531 -1.08570312 9.51539063 -1.09765625 8.33203125 C-1.01192832 5.40699414 -0.67849023 2.83683709 0 0 Z " fill="#3B3B3B" transform="translate(120,138)"/>
<path d="M0 0 C3.96 0 7.92 0 12 0 C9.48823239 2.51176761 7.3770863 2.87430457 4 4 C1.16655438 5.29349926 -1.60257128 6.70619832 -4.375 8.125 C-5.11105469 8.49753906 -5.84710938 8.87007812 -6.60546875 9.25390625 C-8.40550358 10.1656122 -10.20301402 11.08229932 -12 12 C-12 11.34 -12 10.68 -12 10 C-12.66 9.67 -13.32 9.34 -14 9 C-12.96939453 8.60167969 -12.96939453 8.60167969 -11.91796875 8.1953125 C-11.01691406 7.84210938 -10.11585937 7.48890625 -9.1875 7.125 C-7.84751953 6.60292969 -7.84751953 6.60292969 -6.48046875 6.0703125 C-3.82288409 5.01167845 -3.82288409 5.01167845 -1 3 C-0.67 2.01 -0.34 1.02 0 0 Z " fill="#090909" transform="translate(131,123)"/>
<path d="M0 0 C0.66 0.33 1.32 0.66 2 1 C2.49230769 8.38461538 2.49230769 8.38461538 0 11.5 C-0.66 11.995 -1.32 12.49 -2 13 C-3.32 12.34 -4.64 11.68 -6 11 C-5.55530671 5.96014269 -3.28656638 3.62365012 0 0 Z " fill="#434444" transform="translate(148,185)"/>
<path d="M0 0 C1.051875 -0.00515625 2.10375 -0.0103125 3.1875 -0.015625 C6 0.25 6 0.25 9 2.25 C9 3.24 9 4.23 9 5.25 C8.2575 4.899375 7.515 4.54875 6.75 4.1875 C3.67307947 3.13854982 3.01048555 3.45310677 0 4.25 C-1.58211573 4.31548492 -3.16670081 4.33578381 -4.75 4.3125 C-5.54921875 4.30347656 -6.3484375 4.29445312 -7.171875 4.28515625 C-7.77515625 4.27355469 -8.3784375 4.26195312 -9 4.25 C-9 3.59 -9 2.93 -9 2.25 C-5.53767506 -0.05821663 -4.08201684 -0.02000989 0 0 Z " fill="#1E1E1E" transform="translate(138,131.75)"/>
<path d="M0 0 C0.33 0.99 0.66 1.98 1 3 C1.99 2.34 2.98 1.68 4 1 C6.1875 1.375 6.1875 1.375 8 2 C7.401875 2.268125 6.80375 2.53625 6.1875 2.8125 C3.85765426 4.0772734 2.60755103 4.89232198 1 7 C0.41907008 10.19245998 0.41907008 10.19245998 0.3125 13.6875 C0.21388672 15.45673828 0.21388672 15.45673828 0.11328125 17.26171875 C0.05720703 18.61716797 0.05720703 18.61716797 0 20 C-0.66 20 -1.32 20 -2 20 C-2.05407567 17.41638482 -2.093707 14.83390745 -2.125 12.25 C-2.14175781 11.52039063 -2.15851563 10.79078125 -2.17578125 10.0390625 C-2.21072239 6.1955376 -2.17499684 3.25393228 0 0 Z " fill="#202121" transform="translate(94,131)"/>
<path d="M0 0 C0.556875 0.226875 1.11375 0.45375 1.6875 0.6875 C1.4375 3.0625 1.4375 3.0625 0.6875 5.6875 C-1.0625 7.0625 -1.0625 7.0625 -3.3125 7.6875 C-6.0625 7.3125 -6.0625 7.3125 -8.3125 6.6875 C-8.125 4.875 -8.125 4.875 -7.3125 2.6875 C-3.3125 -0.44763514 -3.3125 -0.44763514 0 0 Z " fill="#848484" transform="translate(139.3125,195.3125)"/>
<path d="M0 0 C3.35107228 0.18278576 6.00231123 0.36813045 8.875 2.1875 C11.93794886 7.12225094 10.97094902 13.3351168 10.5625 18.875 C10.51029297 19.65875 10.45808594 20.4425 10.40429688 21.25 C10.27571149 23.1670912 10.13871383 25.08361503 10 27 C9.67 27 9.34 27 9 27 C8.98598145 26.06933716 8.98598145 26.06933716 8.97167969 25.11987305 C8.91799005 22.30827323 8.83434354 19.4983402 8.75 16.6875 C8.73582031 15.71103516 8.72164062 14.73457031 8.70703125 13.72851562 C8.67480469 12.79072266 8.64257812 11.85292969 8.609375 10.88671875 C8.58842773 10.02264404 8.56748047 9.15856934 8.54589844 8.26831055 C8.18122145 5.85708471 8.18122145 5.85708471 6.16503906 4.23754883 C3.47542686 2.70015096 1.05730344 2.34742085 -2 2 C-1.34 1.34 -0.68 0.68 0 0 Z " fill="#404040" transform="translate(143,123)"/>
<path d="M0 0 C1.98 0.99 1.98 0.99 4 2 C4.21824777 8.0018137 3.5056904 13.19233704 2 19 C-0.52775351 15.20836973 -0.22443035 12.19125969 -0.125 7.8125 C-0.11597656 7.06291016 -0.10695312 6.31332031 -0.09765625 5.54101562 C-0.07412578 3.69387346 -0.03825561 1.84689588 0 0 Z " fill="#737374" transform="translate(164,130)"/>
<path d="M0 0 C0.33 0 0.66 0 1 0 C1.125 7.75 1.125 7.75 0 10 C0.99 10 1.98 10 3 10 C2.1875 11.9375 2.1875 11.9375 1 14 C0.01 14.33 -0.98 14.66 -2 15 C-2.33 14.01 -2.66 13.02 -3 12 C-2.67 11.67 -2.34 11.34 -2 11 C-1.79224439 9.33795513 -1.63281745 7.66970509 -1.5 6 C-1.11111111 1.11111111 -1.11111111 1.11111111 0 0 Z " fill="#616262" transform="translate(145,164)"/>
<path d="M0 0 C2.475 0.495 2.475 0.495 5 1 C5.125 3.375 5.125 3.375 5 6 C4.34 6.66 3.68 7.32 3 8 C2.01 8 1.02 8 0 8 C0 5.36 0 2.72 0 0 Z " fill="#1F1F1F" transform="translate(121,51)"/>
<path d="M0 0 C0.4125 0.639375 0.825 1.27875 1.25 1.9375 C3.22214751 4.2618167 4.11218234 4.43317629 7 5 C5.37829621 6.00533667 3.75252763 7.00411907 2.125 8 C0.76761719 8.8353125 0.76761719 8.8353125 -0.6171875 9.6875 C-3 11 -3 11 -5 11 C-5 10.34 -5 9.68 -5 9 C-3.68 8.67 -2.36 8.34 -1 8 C-0.67 5.36 -0.34 2.72 0 0 Z " fill="#B5B6B6" transform="translate(141,193)"/>
<path d="M0 0 C3.26915556 4.90373335 4.22450809 7.05053549 4 13 C3.67 11.68 3.34 10.36 3 9 C2.01 9.33 1.02 9.66 0 10 C-1 9 -1 9 -1.125 5.5625 C-1 2 -1 2 0 0 Z " fill="#C6C7C8" transform="translate(96,167)"/>
<path d="M0 0 C1.98 0.495 1.98 0.495 4 1 C4.625 3.375 4.625 3.375 5 6 C4.34 6.66 3.68 7.32 3 8 C3 7.34 3 6.68 3 6 C1.68 5.67 0.36 5.34 -1 5 C-0.67 3.35 -0.34 1.7 0 0 Z " fill="#C8C8C8" transform="translate(188,75)"/>
<path d="M0 0 C0.33 0 0.66 0 1 0 C1.16435547 1.03060547 1.16435547 1.03060547 1.33203125 2.08203125 C1.49058594 2.98308594 1.64914063 3.88414062 1.8125 4.8125 C1.96332031 5.70582031 2.11414063 6.59914062 2.26953125 7.51953125 C3.06473447 10.21982025 3.82690155 11.26480552 6 13 C6.66 13.33 7.32 13.66 8 14 C6.02 14.99 6.02 14.99 4 16 C3.15415002 14.44424022 2.32381601 12.8800388 1.5 11.3125 C1.0359375 10.44238281 0.571875 9.57226562 0.09375 8.67578125 C-1.0552674 5.86479224 -1.29455566 4.00341575 -1 1 C-0.67 0.67 -0.34 0.34 0 0 Z " fill="#A2A3A3" transform="translate(100,179)"/>
<path d="M0 0 C1.32 0.33 2.64 0.66 4 1 C4.33 3.64 4.66 6.28 5 9 C4.01 9.66 3.02 10.32 2 11 C1.34 10.67 0.68 10.34 0 10 C0.185625 8.906875 0.37125 7.81375 0.5625 6.6875 C1.2578068 3.06375867 1.2578068 3.06375867 0 0 Z " fill="#363636" transform="translate(163,112)"/>
<path d="M0 0 C0.66 0.33 1.32 0.66 2 1 C2 1.66 2 2.32 2 3 C-3.445 5.475 -3.445 5.475 -9 8 C-9 7.34 -9 6.68 -9 6 C-9.66 5.67 -10.32 5.34 -11 5 C-9.93458984 4.58427734 -9.93458984 4.58427734 -8.84765625 4.16015625 C-7.46900391 3.61681641 -7.46900391 3.61681641 -6.0625 3.0625 C-5.14597656 2.70285156 -4.22945313 2.34320313 -3.28515625 1.97265625 C-1.07581467 1.2003782 -1.07581467 1.2003782 0 0 Z " fill="#262626" transform="translate(128,127)"/>
<path d="M0 0 C0.6875 1.625 0.6875 1.625 1 4 C-0.4375 7.25 -0.4375 7.25 -2 10 C-2.99 10 -3.98 10 -5 10 C-1.81818182 1.81818182 -1.81818182 1.81818182 0 0 Z " fill="#0E0E0E" transform="translate(150,169)"/>
<path d="M0 0 C1.231394 3.69418201 0.64432764 6.2056261 0 10 C-0.99 10 -1.98 10 -3 10 C-3.99928333 7.301935 -4.03624754 6.11989571 -3.1875 3.3125 C-2 1 -2 1 0 0 Z " fill="#191919" transform="translate(155,173)"/>
<path d="M0 0 C3.63 0 7.26 0 11 0 C11 0.99 11 1.98 11 3 C7.37 2.67 3.74 2.34 0 2 C0 1.34 0 0.68 0 0 Z " fill="#202020" transform="translate(134,138)"/>
<path d="M0 0 C0.556875 0.226875 1.11375 0.45375 1.6875 0.6875 C1.6875 1.3475 1.6875 2.0075 1.6875 2.6875 C0.945 2.831875 0.2025 2.97625 -0.5625 3.125 C-1.47 3.310625 -2.3775 3.49625 -3.3125 3.6875 C-4.055 3.831875 -4.7975 3.97625 -5.5625 4.125 C-6.42875 4.4034375 -6.42875 4.4034375 -7.3125 4.6875 C-7.6425 5.3475 -7.9725 6.0075 -8.3125 6.6875 C-8.125 4.875 -8.125 4.875 -7.3125 2.6875 C-3.3125 -0.44763514 -3.3125 -0.44763514 0 0 Z " fill="#181818" transform="translate(139.3125,195.3125)"/>
<path d="M0 0 C2.02558881 3.34939881 2.21738987 5.86962551 2.125 9.75 C2.10695313 10.73484375 2.08890625 11.7196875 2.0703125 12.734375 C2.04710938 13.48203125 2.02390625 14.2296875 2 15 C1.67 15 1.34 15 1 15 C0.7834375 13.63875 0.7834375 13.63875 0.5625 12.25 C0.09816667 9.1721709 0.09816667 9.1721709 -0.625 6.9375 C-1.1118389 4.42216567 -0.61560812 2.46243248 0 0 Z " fill="#5E5E5E" transform="translate(120,138)"/>
<path d="M0 0 C0.66 0 1.32 0 2 0 C2 1.98 2 3.96 2 6 C1.34 6 0.68 6 0 6 C0 7.98 0 9.96 0 12 C-0.33 12 -0.66 12 -1 12 C-1.02687279 10.18757948 -1.04633715 8.37504767 -1.0625 6.5625 C-1.07410156 5.55316406 -1.08570312 4.54382813 -1.09765625 3.50390625 C-1 1 -1 1 0 0 Z " fill="#DEDEDE" transform="translate(95,137)"/>
<path d="M0 0 C2 3 2 3 1.625 5.6875 C1.41875 6.450625 1.2125 7.21375 1 8 C0.01 7.67 -0.98 7.34 -2 7 C-2 5.35 -2 3.7 -2 2 C-1.34 2 -0.68 2 0 2 C0 1.34 0 0.68 0 0 Z " fill="#989898" transform="translate(104,174)"/>
<path d="M0 0 C0 1.98 0 3.96 0 6 C-1.9375 5.1875 -1.9375 5.1875 -4 4 C-4.33 3.01 -4.66 2.02 -5 1 C-2 0 -2 0 0 0 Z " fill="#1A1A1A" transform="translate(99,176)"/>
</svg>
