<?xml version="1.0" encoding="UTF-8"?>
<svg version="1.1" xmlns="http://www.w3.org/2000/svg" width="1280" height="818">
<path d="M0 0 C1.20060059 0.00547852 2.40120117 0.01095703 3.63818359 0.01660156 C19.19090432 0.36050465 34.3795272 3.4135816 49.63427734 6.24499512 C76.49042919 11.21545889 100.60482274 11.72644845 127.453125 6.81640625 C160.97721958 0.87281931 194.84657434 7.13119199 223.2421875 26.1484375 C232.03307077 31.45667053 241.21660278 31.13893507 251.06567383 29.9128418 C261.38029414 28.66107264 271.68178013 28.37789854 282.05993652 28.32543945 C283.66145348 28.31694674 285.26295331 28.3034402 286.86437988 28.28442383 C307.66695524 28.06371264 324.62230765 31.98208506 342.0390625 43.55078125 C353.27067771 51.00908927 364.53254404 58.10870083 377.0625 63.1875 C377.82151611 63.49776123 378.58053223 63.80802246 379.36254883 64.12768555 C394.353308 69.87390307 408.85125294 70.06951041 424.6875 70.125 C449.30341341 70.2112532 471.18623925 72.60936249 490.9375 89.0625 C508.58591055 103.27042618 535.25615769 111.57589623 557.55859375 111.87109375 C559.28581162 111.90407114 561.01302504 111.93728204 562.74023438 111.97070312 C565.41850338 112.01768176 568.09675977 112.06208114 570.77514648 112.10180664 C602.94041602 112.60060876 626.9328727 120.11262084 652.4375 140.125 C667.60401123 151.56882211 685.37559009 156.69040597 703.48120117 161.53515625 C715.40248057 164.73178811 726.67552327 168.0267325 737.6875 173.625 C738.32284668 173.93937012 738.95819336 174.25374023 739.61279297 174.57763672 C748.22349951 178.85002729 756.16408259 183.59239802 763.6875 189.625 C764.51636719 190.27726563 765.34523438 190.92953125 766.19921875 191.6015625 C772.07482523 196.52711016 776.37531466 202.05352504 780.79956055 208.24291992 C793.24563461 225.63836149 810.52231473 232.71809335 830.75 237.625 C850.50127007 242.41890958 866.16218778 250.11023027 877.5 267.875 C880.19531532 272.09017368 883.26734933 275.87985192 886.5 279.6875 C887.21023315 280.53586426 887.21023315 280.53586426 887.93481445 281.40136719 C894.86637544 289.4563071 902.59358884 295.48691944 911.75 300.8125 C919.41240132 305.3968369 926.34538545 310.33981775 933.1550293 316.10253906 C936.96148293 319.29908674 940.75835486 322.04012068 945.0625 324.5625 C953.08778627 329.26559794 960.21763161 335.09098959 967.48242188 340.87548828 C971.19482983 343.82091735 974.93312517 346.73327365 978.6875 349.625 C979.38472168 350.16890381 980.08194336 350.71280762 980.80029297 351.27319336 C982.67069992 352.73940078 982.67069992 352.73940078 985.0859375 353.5078125 C993.11377701 356.95520304 1000.03159086 365.8187636 1005.9375 372.1875 C1006.41525879 372.69974121 1006.89301758 373.21198242 1007.38525391 373.73974609 C1010.6875 377.37723318 1010.6875 377.37723318 1010.6875 379.625 C1011.265 379.83125 1011.8425 380.0375 1012.4375 380.25 C1016.35600794 382.64464374 1018.26333774 386.35251322 1019.6875 390.625 C1021.13088587 403.52082458 1014.86069955 412.47330928 1007.6875 422.625 C1006.91315348 423.75198012 1006.13973424 424.87959787 1005.3671875 426.0078125 C985.23995886 455.12004559 962.5023867 470.98327787 928.87207031 481.24462891 C905.95447161 488.2674665 889.37811787 499.04486016 876.8125 519.9375 C872.23846978 527.34375372 867.54809578 534.15999655 861.6875 540.625 C861.01847656 541.38683594 860.34945313 542.14867187 859.66015625 542.93359375 C855.42368216 547.48563388 850.7838511 551.22366901 845.6875 554.75 C844.88094971 555.32536499 844.88094971 555.32536499 844.05810547 555.91235352 C830.22237002 565.09038054 812.79810651 569.38745771 797.13134766 574.34912109 C777.86680725 580.47283204 759.3336929 587.43121272 744.47949219 601.59399414 C722.29937819 622.67242261 691.54299643 633.62454699 662.3125 640.6875 C643.2824648 645.28621143 628.76632769 652.131378 615.04541016 666.40014648 C601.59299523 680.11702324 585.0063038 686.85821902 566.10864258 688.61230469 C546.28851103 690.46249848 529.81033914 696.14212485 512.0546875 704.8984375 C491.7876092 714.86106446 471.62563949 718.67599778 449.359375 721.80859375 C413.23969112 726.89716312 383.6940321 737.04518832 352 755.625 C333.14827638 766.55251004 312.03442636 768.1612216 290.7265625 765.84375 C282.6991094 765.26593847 274.95864211 765.75299902 267 766.875 C266.03956787 767.00994873 265.07913574 767.14489746 264.08959961 767.28393555 C248.3080688 769.6146528 234.13991143 774.93513055 219.59375 781.28125 C198.58310804 790.40003874 178.94447733 797.00544717 155.8125 797.125 C155.15130157 797.12967285 154.49010315 797.1343457 153.80886841 797.13916016 C138.52748124 797.17865564 123.52413909 795.06959266 108.44384766 792.75976562 C95.10567952 790.76234662 82.16537881 790.20920499 68.6875 790.625 C67.95449677 790.64699463 67.22149353 790.66898926 66.46627808 790.69165039 C62.19980291 790.83474024 57.9457855 791.07802843 53.6875 791.375 C51.79777466 791.50479248 51.79777466 791.50479248 49.86987305 791.63720703 C38.3093873 792.51358885 27.03379723 794.28363403 15.6875 796.625 C14.34631104 796.90077881 14.34631104 796.90077881 12.97802734 797.18212891 C9.61076741 797.87958464 6.24472564 798.58035222 2.88598633 799.31787109 C-16.10322667 803.48065227 -35.19072686 803.46704981 -52.421875 793.58203125 C-59.53485257 788.76635319 -63.91983996 782.6432809 -65.859375 774.26171875 C-70.57030092 746.84900328 -54.45745915 712.30435044 -46.15841675 686.3197937 C-36.66556588 659.43905542 -36.66556588 659.43905542 -38.3125 631.625 C-41.14531768 626.35009812 -44.54867539 622.54627487 -50.3125 620.625 C-63.21505411 619.12864252 -73.38625043 621.38927166 -85.33056641 626.42333984 C-95.55218044 630.61116646 -104.55489257 630.58850764 -115.125 627.6875 C-134.14006989 622.71864979 -149.37827164 624.57488997 -166.9375 633.5625 C-180.70215187 640.50445005 -192.81792473 646.60486923 -208.5 642.5 C-216.48726233 639.72917447 -223.51304502 635.6741995 -228.3125 628.625 C-232.94136653 618.84013623 -230.13536538 608.22269655 -227.8125 598.1875 C-220.89925241 567.60459804 -229.00956551 538.44464852 -236.26953125 508.70214844 C-240.16294139 492.73712071 -243.60581598 476.98223814 -245.3125 460.625 C-245.44269531 459.48160156 -245.57289063 458.33820313 -245.70703125 457.16015625 C-246.717323 446.69353374 -246.48571693 436.12673716 -246.3125 425.625 C-246.29993164 424.79049316 -246.28736328 423.95598633 -246.27441406 423.09619141 C-245.50095998 383.97362107 -235.09189053 340.40390197 -213.74609375 307.1875 C-204.04068907 292.00912275 -200.35008301 270.32559171 -204.0703125 252.65234375 C-205.31858398 247.37445179 -206.81283336 242.18308213 -208.46875 237.01953125 C-213.57364042 220.30101513 -213.2622902 201.13639647 -206.14453125 184.97265625 C-202.1558154 178.04081025 -195.73778652 173.38063649 -188.3125 170.625 C-182.10242906 169.0262602 -176.96789452 169.45339361 -171.3125 172.625 C-168.4610086 174.53056396 -165.64215983 176.45576388 -162.87988281 178.48779297 C-157.48204341 182.42106433 -152.96021179 183.38342807 -146.3125 182.625 C-137.25536667 180.41755167 -129.09239981 176.8326472 -120.8125 172.625 C-96.10152894 160.06747509 -96.10152894 160.06747509 -82.82421875 163.21484375 C-73.50493946 166.35991934 -67.31990734 173.56103585 -60.625 180.4375 C-53.68426168 187.37823832 -47.29798739 190.23484665 -37.3125 190.625 C-30.09938243 189.78768526 -24.19310684 188.1156827 -19.3125 182.625 C-12.41021052 172.11051235 -12.51686746 160.85407578 -14.88232422 148.94132996 C-16.40130028 141.69843492 -18.68161702 134.74207803 -21.0401001 127.73617554 C-22.38982289 123.71937703 -23.70367893 119.69078354 -25.0234375 115.6640625 C-25.29493622 114.8380101 -25.56643494 114.0119577 -25.84616089 113.16087341 C-28.52782642 104.99476776 -31.16360731 96.81528527 -33.71899414 88.60873413 C-34.18926225 87.10582962 -34.66449627 85.60446778 -35.14526367 84.10488892 C-41.34813452 64.73630926 -45.73406416 41.32989527 -37.17578125 22.06640625 C-34.81102427 17.52338732 -32.18112083 14.03307073 -28.3125 10.625 C-27.79945313 10.13257813 -27.28640625 9.64015625 -26.7578125 9.1328125 C-18.71730535 1.68515381 -10.78868306 -0.10238003 0 0 Z " fill="#FEFEFE" transform="translate(253.3125,7.375)"/>
<path d="M0 0 C1.19925267 0.00368717 2.39850534 0.00737434 3.63409901 0.01117325 C4.30228132 0.00775555 4.97046363 0.00433785 5.65889388 0.00081658 C7.90259345 -0.00578325 10.14510219 0.01624632 12.3886919 0.03808975 C13.99502503 0.03921779 15.60136022 0.03858523 17.20769215 0.03631973 C21.57325764 0.03516992 25.93838541 0.05872213 30.30384898 0.08661556 C34.86423743 0.11158493 39.42463541 0.11396768 43.98508167 0.11871719 C52.6230332 0.13116013 61.26078273 0.16399951 69.89864522 0.20411515 C79.73163099 0.24879192 89.5646263 0.27080959 99.39768827 0.29089689 C119.62698005 0.33273103 139.85608986 0.40310864 160.08522511 0.49219131 C160.36951183 6.49715359 160.57420828 12.49808763 160.71007252 18.50824356 C160.76677521 20.54564097 160.8440257 22.58258619 160.94334888 24.61835098 C161.5080006 36.5019519 161.42716595 45.18688747 153.28289318 54.37805176 C148.472734 59.35976595 143.01016959 63.91173833 137.08522511 67.49219131 C136.42522511 67.49219131 135.76522511 67.49219131 135.08522511 67.49219131 C135.08522511 88.28219131 135.08522511 109.07219131 135.08522511 130.49219131 C148.87236739 122.62377173 162.65565039 114.75144968 176.39772511 106.80469131 C184.43632563 102.15735648 192.49507335 97.54918719 200.58522511 92.99219131 C212.02001681 86.55023613 223.38693129 79.99342744 234.74733448 73.42139053 C238.13416111 71.46390779 241.523362 69.51059956 244.91335011 67.55859756 C247.15814335 66.26563156 249.40293504 64.97266285 251.64772511 63.67969131 C253.26481373 62.74878677 253.26481373 62.74878677 254.91457081 61.79907608 C259.76711951 59.00129421 264.6106668 56.19113929 269.42506886 53.32812881 C270.22162891 52.85480118 271.01818897 52.38147354 271.83888721 51.89380264 C273.2913645 51.02793612 274.74156628 50.15823596 276.18898487 49.28393936 C280.86719568 46.49219131 280.86719568 46.49219131 283.08522511 46.49219131 C282.99096241 45.73825089 282.89669971 44.98431046 282.79958057 44.20752335 C282.41781396 40.68034349 282.18944963 37.15743669 281.96022511 33.61719131 C281.80940479 32.43254288 281.65858448 31.24789444 281.50319386 30.02734756 C281.07938136 21.22146569 284.07074745 15.56367543 289.82936573 9.10937881 C298.2303575 0.36316151 306.67330816 -1.31326233 318.27516651 -1.55126572 C324.26468378 -1.63430147 330.24183038 -1.5070639 336.22861624 -1.33289957 C340.80446114 -1.21922307 345.38059209 -1.20971465 349.95763111 -1.18844223 C358.59698571 -1.13282266 367.23216723 -0.98559069 375.86969602 -0.80415142 C385.71455639 -0.60190724 395.55963213 -0.50373233 405.4060576 -0.41363358 C425.63476293 -0.22623509 445.85972966 0.08969959 466.08522511 0.49219131 C466.43513241 6.35909859 466.68698571 12.21977362 466.85426807 18.09473038 C466.92406516 20.08571624 467.01915788 22.07600058 467.14137745 24.06445694 C468.18020119 41.41892417 468.18020119 41.41892417 463.15260792 47.80371475 C460.31669078 50.85180896 457.25178237 53.52242706 453.94508171 56.04695034 C451.42305555 58.00674419 449.09956462 60.16968617 446.76144791 62.34376621 C443.54449768 64.54778491 440.06828415 63.96076591 436.33913136 63.62891006 C434.61259807 63.5491844 432.88575921 63.47587789 431.15871143 63.40820694 C430.25939899 63.36735977 429.36008656 63.3265126 428.43352222 63.28442764 C406.22338323 62.4494033 392.31027187 68.13945825 374.61330128 81.00415421 C368.70552054 85.2522323 362.35935514 88.82012824 356.08522511 92.49219131 C354.50170645 93.43892664 352.91937726 94.38765957 351.33913136 95.33984756 C347.92116261 97.39062881 344.50319386 99.44141006 341.08522511 101.49219131 C341.96514065 102.65029322 342.86496847 103.79328061 343.77272511 104.92969131 C344.27159229 105.56777725 344.77045948 106.20586319 345.28444386 106.86328506 C347.68329608 109.03317959 348.83178662 109.35921699 352.08522511 109.49219131 C355.21585165 108.8543041 358.22800638 107.89017491 361.27272511 106.92969131 C391.40037346 97.93148912 421.55944609 93.26924881 453.02272511 93.24219131 C454.09863407 93.2411792 454.09863407 93.2411792 455.19627857 93.24014664 C476.35735549 93.2714825 496.50233639 96.76895181 517.08522511 101.49219131 C517.77455128 101.64768448 518.46387745 101.80317764 519.17409229 101.96338272 C537.33514041 106.13994206 555.16689312 112.89309156 572.14821339 120.48511124 C573.7032965 121.17932766 575.26470822 121.85958087 576.8327837 122.5239296 C578.34584757 123.17435354 579.83939079 123.87200484 581.31032276 124.61279678 C584.76848283 126.15017859 586.91805263 126.88675738 590.58546925 125.64697647 C593.29208075 124.19664899 595.79890071 122.59754516 598.33522511 120.86719131 C599.20663136 120.30644913 600.07803761 119.74570694 600.97585011 119.16797256 C602.60116275 118.11994322 604.21849308 117.05934324 605.82448292 115.98193741 C606.57052784 115.4903212 607.31657276 114.99870499 608.08522511 114.49219131 C608.73473133 113.97250778 609.38423756 113.45282425 610.05342579 112.91739273 C614.60418097 110.77815393 618.88969744 111.12251775 623.85475636 111.19922256 C625.40896542 111.20558983 625.40896542 111.20558983 626.99457264 111.21208572 C630.29589053 111.22884526 633.59659248 111.26649322 636.89772511 111.30469131 C639.13925273 111.31974164 641.38078995 111.33342944 643.62233448 111.34570694 C649.11017397 111.37873984 654.59765552 111.42891239 660.08522511 111.49219131 C660.29583936 127.11296799 660.45435431 142.73335893 660.55153465 158.35520458 C660.59786511 165.60943998 660.6609813 172.8627912 660.76418018 180.11645889 C660.85412817 186.44178125 660.91200523 192.76646312 660.93202156 199.09240729 C660.94371742 202.44010732 660.97579436 205.784531 661.03679562 209.13191414 C661.10231411 212.8767193 661.1111197 216.61775318 661.10695362 220.36304092 C661.15548985 222.01166374 661.15548985 222.01166374 661.2050066 223.69359207 C661.13062147 229.88926524 660.20208886 233.04449302 655.78699207 237.51588821 C654.24490317 238.8705204 652.67795825 240.19748375 651.08522511 241.49219131 C649.66653439 242.73989364 648.24949667 243.98948209 646.83522511 245.24219131 C645.93030323 246.00789444 645.93030323 246.00789444 645.00710011 246.78906631 C642.94629848 248.51472731 642.94629848 248.51472731 641.07521534 251.03516006 C636.91082255 254.45725928 633.57984073 254.38443436 628.32350636 254.50781631 C627.37767185 254.53631668 626.43183735 254.56481705 625.45734119 254.59418106 C623.45801524 254.64132259 621.45830459 254.67405866 619.45851612 254.69336319 C616.41886283 254.74185411 613.39627886 254.89675095 610.36061573 255.05469131 C596.60937109 255.42871198 596.60937109 255.42871198 592.21983814 252.06106949 C589.07422869 248.56517591 587.01304949 244.65132218 585.05054188 240.40739822 C572.06293694 214.63974202 543.71863533 195.62210847 518.08522511 184.49219131 C517.06042042 183.99719131 516.03561573 183.50219131 514.97975636 182.99219131 C509.47591893 180.64624303 503.534294 179.62423005 497.71022511 178.36719131 C495.93905323 177.9708046 495.93905323 177.9708046 494.13210011 177.56641006 C482.15299887 174.93847806 470.74930889 174.25619023 458.52272511 174.24219131 C457.36994068 174.23968369 457.36994068 174.23968369 456.19386768 174.2371254 C433.68421223 173.20866394 433.68421223 173.20866394 413.08522511 179.49219131 C417.81304415 184.9716451 422.66820038 190.3036347 427.64772511 195.55469131 C429.06204264 197.05184627 430.47610026 198.54924679 431.88991261 200.04687881 C432.59341846 200.79163467 433.29692432 201.53639053 434.02174854 202.30371475 C436.53656454 204.97087171 439.04267603 207.64595913 441.54225636 210.32739639 C442.69168696 211.55774769 443.84531555 212.78419107 445.00319386 214.00659561 C447.91336301 217.09119261 450.70954994 220.21668784 453.38991261 223.50391006 C453.93752247 224.1520668 454.48513233 224.80022354 455.04933643 225.46802139 C456.07328763 226.68465746 457.07102192 227.92415296 458.03322315 229.19018936 C461.60091943 233.35199442 464.53367818 233.94519144 469.98756886 234.37500381 C472.01941089 234.44142531 474.05229943 234.48953662 476.08522511 234.49219131 C476.41716996 241.67674473 476.64341734 248.85929953 476.79933643 256.0498085 C476.86437642 258.49066399 476.95284641 260.93101953 477.065938 263.370121 C478.0319009 284.75243119 478.0319009 284.75243119 473.41481495 290.56055069 C470.85372455 293.13850581 468.06800135 295.17232109 464.9802351 297.07452774 C462.99656413 298.43177643 462.99656413 298.43177643 461.5387516 300.45106506 C458.64510712 304.10806031 456.40502616 306.20197006 451.77323914 307.2204895 C447.59659169 307.47738173 443.48660354 307.48332167 439.30592823 307.40039444 C437.70871056 307.39813532 436.11148459 307.39940945 434.51427174 307.40393448 C430.19596604 307.40622248 425.87945137 307.35931381 421.56156063 307.30334282 C417.04264594 307.25320625 412.52368654 307.24862313 408.00453663 307.23913956 C399.45499409 307.2143112 390.90627355 307.14871255 382.35709238 307.06834364 C372.62081192 306.97880921 362.88449144 306.93490966 353.14790154 306.89478016 C333.12655126 306.81124269 313.10594004 306.67060126 293.08522511 306.49219131 C292.85595858 299.67929584 292.69898323 292.86740319 292.59084034 286.05151749 C292.54573669 283.73603523 292.48443393 281.42080708 292.40627003 279.10620499 C291.7361852 258.74526135 291.7361852 258.74526135 295.12868214 253.91748428 C297.34435674 251.70180968 299.35627344 250.01511248 302.08522511 248.49219131 C301.42522511 246.51219131 300.76522511 244.53219131 300.08522511 242.49219131 C290.51633158 250.0453027 282.96735615 260.16785243 281.08522511 272.49219131 C280.96867294 274.76089268 280.91024803 277.03303257 280.89772511 279.30469131 C280.88354542 280.46613663 280.86936573 281.62758194 280.85475636 282.82422256 C281.30558323 289.99924688 283.47095816 295.99798659 286.71022511 302.36719131 C287.06503956 303.06554092 287.41985401 303.76389053 287.78542042 304.48340225 C290.90366065 310.44141917 294.50618545 315.54998645 299.08522511 320.49219131 C299.54477589 320.99266983 300.00432667 321.49314835 300.47780323 322.00879288 C301.99566929 323.64638631 303.53488678 325.26033531 305.08522511 326.86719131 C305.55927784 327.36766983 306.03333057 327.86814835 306.52174854 328.38379288 C309.72834786 331.6034537 312.91391363 333.61630283 317.02760792 335.52685928 C319.06156892 336.48109301 320.99884553 337.53215525 322.95241261 338.64062881 C330.13463858 342.65742791 337.26566243 346.19931994 345.08522511 348.80469131 C345.73475147 349.02238174 346.38427784 349.24007217 347.05348682 349.46435928 C360.60266612 353.73979125 374.36117503 356.25718634 388.46022511 357.74219131 C389.23758015 357.82590988 390.01493519 357.90962845 390.81584644 357.99588394 C433.06207042 362.47792099 477.80921887 358.49942981 518.08522511 344.49219131 C518.92134327 344.20650284 519.75746143 343.92081436 520.61891651 343.62646866 C538.43860498 337.45773042 556.47693623 329.64141823 571.08522511 317.49219131 C571.94116261 316.79738663 572.79710011 316.10258194 573.67897511 315.38672256 C583.98830257 306.61447856 588.82814644 298.10918011 594.08522511 285.49219131 C615.86522511 285.49219131 637.64522511 285.49219131 660.08522511 285.49219131 C660.08522511 315.32161711 647.18140341 340.55443274 627.19460011 362.19531631 C625.30622698 364.25154482 623.50541928 366.3550554 621.71022511 368.49219131 C605.62425786 386.80825857 584.08369534 401.04732256 562.20680714 411.46973038 C560.06765168 412.50066053 557.94928914 413.5669322 555.83131886 414.64062881 C527.13256372 428.97577559 495.8003183 438.09858554 464.08522511 442.49219131 C463.16080616 442.62185287 462.23638721 442.75151443 461.28395557 442.88510513 C442.547021 445.43811505 424.141638 445.90284611 405.28011036 445.75647354 C402.33739789 445.73732517 399.39474679 445.73335715 396.45198059 445.72962189 C366.69501655 445.68826974 339.06385646 443.51432502 310.08522511 436.49219131 C308.27405201 436.0631752 308.27405201 436.0631752 306.42628956 435.6254921 C296.67309901 433.28340218 287.1534314 430.43794425 277.64772511 427.24219131 C276.56729939 426.88036758 276.56729939 426.88036758 275.46504688 426.51123428 C264.63162336 422.86640019 254.13062109 418.98797903 244.08522511 413.49219131 C242.94706348 412.88190079 242.94706348 412.88190079 241.7859087 412.25928116 C230.73197468 406.28639469 220.61076486 399.68934962 211.08522511 391.49219131 C210.31976368 390.83621964 210.31976368 390.83621964 209.53883839 390.166996 C192.40306231 375.34955709 179.8845354 357.71689065 172.08522511 336.49219131 C171.84884327 335.86087296 171.61246143 335.2295546 171.36891651 334.57910538 C166.15184927 320.51444394 164.66775015 306.85231214 164.71022511 291.86719131 C164.71043659 291.17175217 164.71064808 290.47631302 164.71086597 289.75979996 C164.74647091 277.96781515 165.84828456 266.86270968 169.08522511 255.49219131 C169.35810352 254.49179825 169.35810352 254.49179825 169.63649464 253.47119522 C172.50481054 243.18473257 177.03351994 233.84400648 182.08522511 224.49219131 C182.67561573 223.39519913 183.26600636 222.29820694 183.87428761 221.16797256 C187.67869803 214.38430923 192.02526988 208.38913162 197.08522511 202.49219131 C197.75038136 201.69297256 198.41553761 200.89375381 199.10085011 200.07031631 C208.00632415 189.71357983 218.67378253 180.95958692 230.08522511 173.49219131 C229.42522511 172.17219131 228.76522511 170.85219131 228.08522511 169.49219131 C223.84665824 169.49219131 222.63842276 170.03060497 219.06960011 172.06250381 C218.07855274 172.62179581 217.08750538 173.1810878 216.06642628 173.75732803 C215.00012989 174.37108292 213.9338335 174.9848378 212.83522511 175.61719131 C211.72058887 176.25028214 210.60595264 176.88337296 209.45753956 177.53564835 C201.05439558 182.32237686 192.69660382 187.18780134 184.35353565 192.07837296 C176.31441263 196.78932671 168.23883329 201.43383394 160.14772511 206.05469131 C159.55672016 206.39248611 158.96571522 206.73028091 158.35680103 207.07831192 C156.65341775 208.05164827 154.94940737 209.02388689 153.24538136 209.99609756 C152.19495655 210.60727432 151.14453175 211.21845108 150.06227589 211.84814835 C147.08522511 213.49219131 147.08522511 213.49219131 144.30739307 214.67920303 C141.48969574 215.81548291 141.48969574 215.81548291 138.08522511 218.49219131 C137.75522511 222.12219131 137.42522511 225.75219131 137.08522511 229.49219131 C145.00522511 229.49219131 152.92522511 229.49219131 161.08522511 229.49219131 C161.26658687 236.78572449 161.41307917 244.0780087 161.49972248 251.37332535 C161.54132643 254.76162418 161.5976645 258.14828962 161.68874073 261.53564835 C161.78612707 265.4382626 161.831234 269.33858096 161.86647511 273.24219131 C161.92841053 275.05046402 161.92841053 275.05046402 161.99159718 276.89526749 C161.99487273 283.07820895 161.65224341 286.67679732 157.19240284 291.17798233 C155.84825577 292.31289828 154.48164683 293.42225116 153.08522511 294.49219131 C152.26151417 295.24371475 151.43780323 295.99523819 150.58913136 296.76953506 C149.94846729 297.31738663 149.30780323 297.86523819 148.64772511 298.42969131 C146.31398352 300.4043201 146.31398352 300.4043201 144.08522511 302.49219131 C141.88297056 302.58919191 139.67753846 302.61405841 137.4731493 302.61244583 C136.77400742 302.61330026 136.07486554 302.61415468 135.35453755 302.615035 C132.9944776 302.61669182 130.63448757 302.61116515 128.27443409 302.60571671 C126.58957896 302.60543485 124.90472371 302.60559253 123.21986866 302.60615921 C118.63122058 302.60644725 114.0425984 302.60054943 109.45395637 302.59358525 C104.66397878 302.58735285 99.87400067 302.58674801 95.08401966 302.58555984 C86.00693479 302.58244619 76.9298619 302.57423235 67.85278231 302.56421036 C57.52163929 302.55305027 47.19049572 302.54753903 36.85934818 302.54251492 C15.60130046 302.53204976 -5.65673647 302.51444967 -26.91477489 302.49219131 C-27.11883087 295.83989698 -27.25821412 289.18841865 -27.35422802 282.53369522 C-27.39428075 280.27362284 -27.44874156 278.01375541 -27.51829052 275.75439835 C-28.15455451 254.54247983 -28.15455451 254.54247983 -23.09421825 248.20337296 C-21.73915095 246.92471265 -20.34784599 245.68277385 -18.91477489 244.49219131 C-17.76803648 243.17729979 -16.64015858 241.84537236 -15.54368114 240.48828506 C-14.52327501 239.30059924 -13.501179 238.11436286 -12.47727489 236.92969131 C-11.9494038 236.31545303 -11.42153271 235.70121475 -10.87766552 235.06836319 C-7.08602986 230.66344628 -7.08602986 230.66344628 -5.91477489 229.49219131 C-3.60477489 229.49219131 -1.29477489 229.49219131 1.08522511 229.49219131 C1.08522511 174.05219131 1.08522511 118.61219131 1.08522511 61.49219131 C-7.49477489 61.49219131 -16.07477489 61.49219131 -24.91477489 61.49219131 C-25.14639273 56.70284922 -25.34450775 51.93334332 -25.4640913 47.14282608 C-25.5139626 45.51975674 -25.58189525 43.89712693 -25.66916943 42.27563858 C-26.37322073 28.84482457 -26.37322073 28.84482457 -22.81785107 23.10962296 C-20.31390777 20.36844687 -17.71646605 17.92396574 -14.91477489 15.49219131 C-13.93885172 14.40451109 -12.98444127 13.29614197 -12.07493114 12.15234756 C-10.66038728 10.40063123 -9.2436708 8.6506674 -7.82493114 6.90234756 C-5.91605635 4.61845239 -5.91605635 4.61845239 -4.70469475 2.37162018 C-2.91477489 0.49219131 -2.91477489 0.49219131 0 0 Z " fill="#030202" transform="translate(308.91477489471436,180.50780868530273)"/>
<path d="M0 0 C1.20060059 0.00547852 2.40120117 0.01095703 3.63818359 0.01660156 C19.19090432 0.36050465 34.3795272 3.4135816 49.63427734 6.24499512 C76.49042919 11.21545889 100.60482274 11.72644845 127.453125 6.81640625 C160.97721958 0.87281931 194.84657434 7.13119199 223.2421875 26.1484375 C232.03307077 31.45667053 241.21660278 31.13893507 251.06567383 29.9128418 C261.38029414 28.66107264 271.68178013 28.37789854 282.05993652 28.32543945 C283.66145348 28.31694674 285.26295331 28.3034402 286.86437988 28.28442383 C307.66695524 28.06371264 324.62230765 31.98208506 342.0390625 43.55078125 C353.27067771 51.00908927 364.53254404 58.10870083 377.0625 63.1875 C377.82151611 63.49776123 378.58053223 63.80802246 379.36254883 64.12768555 C394.353308 69.87390307 408.85125294 70.06951041 424.6875 70.125 C449.30341341 70.2112532 471.18623925 72.60936249 490.9375 89.0625 C508.58591055 103.27042618 535.25615769 111.57589623 557.55859375 111.87109375 C559.28581162 111.90407114 561.01302504 111.93728204 562.74023438 111.97070312 C565.41850338 112.01768176 568.09675977 112.06208114 570.77514648 112.10180664 C602.94041602 112.60060876 626.9328727 120.11262084 652.4375 140.125 C667.60401123 151.56882211 685.37559009 156.69040597 703.48120117 161.53515625 C715.40248057 164.73178811 726.67552327 168.0267325 737.6875 173.625 C738.32284668 173.93937012 738.95819336 174.25374023 739.61279297 174.57763672 C748.22349951 178.85002729 756.16408259 183.59239802 763.6875 189.625 C764.51636719 190.27726563 765.34523438 190.92953125 766.19921875 191.6015625 C772.07482523 196.52711016 776.37531466 202.05352504 780.79956055 208.24291992 C793.24563461 225.63836149 810.52231473 232.71809335 830.75 237.625 C850.50127007 242.41890958 866.16218778 250.11023027 877.5 267.875 C880.19531532 272.09017368 883.26734933 275.87985192 886.5 279.6875 C887.21023315 280.53586426 887.21023315 280.53586426 887.93481445 281.40136719 C894.86637544 289.4563071 902.59358884 295.48691944 911.75 300.8125 C919.41240132 305.3968369 926.34538545 310.33981775 933.1550293 316.10253906 C936.96148293 319.29908674 940.75835486 322.04012068 945.0625 324.5625 C953.08778627 329.26559794 960.21763161 335.09098959 967.48242188 340.87548828 C971.19482983 343.82091735 974.93312517 346.73327365 978.6875 349.625 C979.38472168 350.16890381 980.08194336 350.71280762 980.80029297 351.27319336 C982.67069992 352.73940078 982.67069992 352.73940078 985.0859375 353.5078125 C993.11377701 356.95520304 1000.03159086 365.8187636 1005.9375 372.1875 C1006.41525879 372.69974121 1006.89301758 373.21198242 1007.38525391 373.73974609 C1010.6875 377.37723318 1010.6875 377.37723318 1010.6875 379.625 C1011.265 379.83125 1011.8425 380.0375 1012.4375 380.25 C1016.35600794 382.64464374 1018.26333774 386.35251322 1019.6875 390.625 C1021.13088587 403.52082458 1014.86069955 412.47330928 1007.6875 422.625 C1006.91315348 423.75198012 1006.13973424 424.87959787 1005.3671875 426.0078125 C985.23995886 455.12004559 962.5023867 470.98327787 928.87207031 481.24462891 C905.95447161 488.2674665 889.37811787 499.04486016 876.8125 519.9375 C872.23846978 527.34375372 867.54809578 534.15999655 861.6875 540.625 C861.01847656 541.38683594 860.34945313 542.14867187 859.66015625 542.93359375 C855.42368216 547.48563388 850.7838511 551.22366901 845.6875 554.75 C844.88094971 555.32536499 844.88094971 555.32536499 844.05810547 555.91235352 C830.22237002 565.09038054 812.79810651 569.38745771 797.13134766 574.34912109 C777.86680725 580.47283204 759.3336929 587.43121272 744.47949219 601.59399414 C722.29937819 622.67242261 691.54299643 633.62454699 662.3125 640.6875 C643.2824648 645.28621143 628.76632769 652.131378 615.04541016 666.40014648 C601.59299523 680.11702324 585.0063038 686.85821902 566.10864258 688.61230469 C546.28851103 690.46249848 529.81033914 696.14212485 512.0546875 704.8984375 C491.7876092 714.86106446 471.62563949 718.67599778 449.359375 721.80859375 C413.23969112 726.89716312 383.6940321 737.04518832 352 755.625 C333.14827638 766.55251004 312.03442636 768.1612216 290.7265625 765.84375 C282.6991094 765.26593847 274.95864211 765.75299902 267 766.875 C266.03956787 767.00994873 265.07913574 767.14489746 264.08959961 767.28393555 C248.3080688 769.6146528 234.13991143 774.93513055 219.59375 781.28125 C198.58310804 790.40003874 178.94447733 797.00544717 155.8125 797.125 C155.15130157 797.12967285 154.49010315 797.1343457 153.80886841 797.13916016 C138.52748124 797.17865564 123.52413909 795.06959266 108.44384766 792.75976562 C95.10567952 790.76234662 82.16537881 790.20920499 68.6875 790.625 C67.95449677 790.64699463 67.22149353 790.66898926 66.46627808 790.69165039 C62.19980291 790.83474024 57.9457855 791.07802843 53.6875 791.375 C51.79777466 791.50479248 51.79777466 791.50479248 49.86987305 791.63720703 C38.3093873 792.51358885 27.03379723 794.28363403 15.6875 796.625 C14.34631104 796.90077881 14.34631104 796.90077881 12.97802734 797.18212891 C9.61076741 797.87958464 6.24472564 798.58035222 2.88598633 799.31787109 C-16.10322667 803.48065227 -35.19072686 803.46704981 -52.421875 793.58203125 C-59.53485257 788.76635319 -63.91983996 782.6432809 -65.859375 774.26171875 C-70.57030092 746.84900328 -54.45745915 712.30435044 -46.15841675 686.3197937 C-36.66556588 659.43905542 -36.66556588 659.43905542 -38.3125 631.625 C-41.14531768 626.35009812 -44.54867539 622.54627487 -50.3125 620.625 C-63.21505411 619.12864252 -73.38625043 621.38927166 -85.33056641 626.42333984 C-95.55218044 630.61116646 -104.55489257 630.58850764 -115.125 627.6875 C-134.14006989 622.71864979 -149.37827164 624.57488997 -166.9375 633.5625 C-180.70215187 640.50445005 -192.81792473 646.60486923 -208.5 642.5 C-216.48726233 639.72917447 -223.51304502 635.6741995 -228.3125 628.625 C-232.94136653 618.84013623 -230.13536538 608.22269655 -227.8125 598.1875 C-220.89925241 567.60459804 -229.00956551 538.44464852 -236.26953125 508.70214844 C-240.16294139 492.73712071 -243.60581598 476.98223814 -245.3125 460.625 C-245.44269531 459.48160156 -245.57289063 458.33820313 -245.70703125 457.16015625 C-246.717323 446.69353374 -246.48571693 436.12673716 -246.3125 425.625 C-246.29993164 424.79049316 -246.28736328 423.95598633 -246.27441406 423.09619141 C-245.50095998 383.97362107 -235.09189053 340.40390197 -213.74609375 307.1875 C-204.04068907 292.00912275 -200.35008301 270.32559171 -204.0703125 252.65234375 C-205.31858398 247.37445179 -206.81283336 242.18308213 -208.46875 237.01953125 C-213.57364042 220.30101513 -213.2622902 201.13639647 -206.14453125 184.97265625 C-202.1558154 178.04081025 -195.73778652 173.38063649 -188.3125 170.625 C-182.10242906 169.0262602 -176.96789452 169.45339361 -171.3125 172.625 C-168.4610086 174.53056396 -165.64215983 176.45576388 -162.87988281 178.48779297 C-157.48204341 182.42106433 -152.96021179 183.38342807 -146.3125 182.625 C-137.25536667 180.41755167 -129.09239981 176.8326472 -120.8125 172.625 C-96.10152894 160.06747509 -96.10152894 160.06747509 -82.82421875 163.21484375 C-73.50493946 166.35991934 -67.31990734 173.56103585 -60.625 180.4375 C-53.68426168 187.37823832 -47.29798739 190.23484665 -37.3125 190.625 C-30.09938243 189.78768526 -24.19310684 188.1156827 -19.3125 182.625 C-12.41021052 172.11051235 -12.51686746 160.85407578 -14.88232422 148.94132996 C-16.40130028 141.69843492 -18.68161702 134.74207803 -21.0401001 127.73617554 C-22.38982289 123.71937703 -23.70367893 119.69078354 -25.0234375 115.6640625 C-25.29493622 114.8380101 -25.56643494 114.0119577 -25.84616089 113.16087341 C-28.52782642 104.99476776 -31.16360731 96.81528527 -33.71899414 88.60873413 C-34.18926225 87.10582962 -34.66449627 85.60446778 -35.14526367 84.10488892 C-41.34813452 64.73630926 -45.73406416 41.32989527 -37.17578125 22.06640625 C-34.81102427 17.52338732 -32.18112083 14.03307073 -28.3125 10.625 C-27.79945313 10.13257813 -27.28640625 9.64015625 -26.7578125 9.1328125 C-18.71730535 1.68515381 -10.78868306 -0.10238003 0 0 Z M-2.3125 43.625 C-7.54291019 51.47061528 -5.23732096 66.22455813 -3.71337891 75.12353516 C-1.9756584 83.06948375 0.32097089 90.84734853 2.6875 98.625 C3.23106567 100.47470342 3.7728506 102.32493147 4.3125 104.17578125 C5.50798009 108.24148884 6.73989358 112.29484278 7.98779297 116.34472656 C9.56655093 121.48973681 11.09798367 126.6483395 12.5859375 131.8203125 C13.25035684 134.11515094 13.93656034 136.40406074 14.6640625 138.6796875 C20.05413595 156.86488856 16.63961421 177.56167128 8.8125 194.5625 C2.41879621 205.89169443 -11.07264796 212.34121321 -23.1875 216.15234375 C-26.20937195 216.82448806 -29.24365337 217.22258195 -32.3125 217.625 C-33.35664063 217.78484375 -34.40078125 217.9446875 -35.4765625 218.109375 C-48.24140968 219.08906982 -59.17394308 213.95382746 -70.75 209.2265625 C-85.02656359 203.42494712 -95.71109919 203.36491068 -109.84375 209.21484375 C-114.55684247 211.13086445 -118.096807 211.78011646 -123.1875 211.8125 C-124.19554687 211.82667969 -125.20359375 211.84085938 -126.2421875 211.85546875 C-129.55799249 211.60657245 -132.17310379 210.68781643 -135.3125 209.625 C-146.00575542 208.30570225 -155.36739024 210.76248229 -164.125 217.0625 C-169.31601884 221.90915149 -174.95436585 232.53287412 -175.45776367 239.69042969 C-175.48244604 242.25208746 -175.49815964 244.81321419 -175.5 247.375 C-175.51836914 248.69757813 -175.51836914 248.69757813 -175.53710938 250.046875 C-175.54880629 255.28709416 -174.97994179 259.60421585 -173.3125 264.625 C-167.0780861 290.6402086 -174.45797084 313.50284483 -187.71484375 336.00537109 C-189.56183072 339.00160862 -191.4450314 341.97388951 -193.33081055 344.94580078 C-200.68335368 356.75971754 -205.89240519 370.15837667 -209.3125 383.625 C-209.49296875 384.29950195 -209.6734375 384.97400391 -209.859375 385.66894531 C-213.85517727 400.97043813 -213.75223251 415.90347423 -213.3125 431.625 C-213.26818712 433.85156166 -213.22391511 436.07812414 -213.1796875 438.3046875 C-212.72369856 456.6582423 -210.29183735 473.27235655 -204.80078125 490.77734375 C-197.2355163 515.04301534 -197.09533828 538.66731086 -197.42895508 563.89868164 C-197.47991803 567.84252119 -197.50703823 571.78640019 -197.53515625 575.73046875 C-197.55691422 576.93672409 -197.57867218 578.14297943 -197.60108948 579.38578796 C-197.64431868 586.66982663 -197.26259118 591.51101486 -192.0625 597 C-188.09735149 599.3430423 -184.63437846 599.15186146 -180.16064453 598.13671875 C-177.7564711 597.45113955 -175.37909825 596.70552059 -173 595.9375 C-171.22166358 595.38831997 -169.44301064 594.84016399 -167.6640625 594.29296875 C-165.05497283 593.48086487 -162.44646855 592.66696765 -159.83886719 591.85009766 C-142.57592711 586.50106756 -128.31649486 586.73746714 -111.15625 592.7265625 C-100.292584 596.15876467 -89.83523165 592.37916296 -79.42578125 589.1328125 C-70.86157289 586.52896768 -62.82867669 585.27847552 -53.875 585.375 C-52.49477661 585.38623901 -52.49477661 585.38623901 -51.08666992 585.39770508 C-38.83323876 585.59182528 -26.30239329 587.38538745 -17.3125 596.625 C-6.96608914 610.7916241 -6.41552783 627.04553103 -8.91601562 643.91308594 C-11.84170074 662.36619553 -15.86638225 680.64078788 -20.02734375 698.84765625 C-26.98028616 726.60687367 -26.98028616 726.60687367 -21.3125 753.625 C-18.57789202 757.67572947 -15.92811459 760.81856184 -11.3125 762.625 C-8.6796866 762.8298634 -6.15608214 762.92856721 -3.5234375 762.92578125 C-2.75610291 762.9313353 -1.98876831 762.93688934 -1.19818115 762.94261169 C1.30556991 762.95445925 3.80874833 762.94808669 6.3125 762.9375 C7.16829651 762.93600952 8.02409302 762.93451904 8.90582275 762.9329834 C23.66946867 762.8867251 38.08947325 761.9267441 52.6875 759.625 C54.31655273 759.36831543 54.31655273 759.36831543 55.97851562 759.10644531 C61.99177169 758.14397371 67.99474975 757.13395517 73.98876953 756.05810547 C80.84311064 754.95808727 87.40660334 754.47566031 94.33984375 754.4921875 C95.23941299 754.49123077 96.13898224 754.49027405 97.06581116 754.48928833 C98.95753042 754.48861157 100.84925207 754.49043048 102.7409668 754.49462891 C105.61317237 754.49997797 108.48522114 754.49466992 111.35742188 754.48828125 C113.20572951 754.48894224 115.05403704 754.49022384 116.90234375 754.4921875 C117.74949448 754.49016327 118.5966452 754.48813904 119.46946716 754.48605347 C124.20281178 754.50437469 128.78574391 754.82171467 133.48219299 755.39593506 C137.15248082 755.77716736 140.81286498 755.78752185 144.5 755.79296875 C145.31259277 755.79629715 146.12518555 755.79962555 146.96240234 755.80305481 C148.67333416 755.80808299 150.38427565 755.81046442 152.09521484 755.81030273 C154.65349432 755.81247118 157.21132876 755.83062137 159.76953125 755.84960938 C176.1018851 755.90660931 192.16899033 755.03003908 207.375 748.5625 C208.10428711 748.26158447 208.83357422 747.96066895 209.58496094 747.65063477 C213.58689642 745.98737776 217.53008698 744.24156626 221.44140625 742.375 C236.03909813 735.53698911 250.83190281 732.28024355 266.6875 729.625 C267.87641846 729.42269775 267.87641846 729.42269775 269.08935547 729.21630859 C278.04035448 727.76427198 287.08047826 727.42378016 296.12109375 726.93530273 C324.02257924 725.42439602 347.56969387 720.98974657 371.5625 705.6875 C390.63676753 693.58408516 410.33267245 685.86745261 433.16235352 685.38598633 C458.24675431 684.80081973 478.50953384 679.3630697 500.75 668.0625 C518.63942761 658.97771805 536.34741537 654.40484401 556.0390625 650.8203125 C576.56089274 647.03885724 591.89505049 637.14633505 608.29296875 624.88671875 C616.21105235 618.9802654 624.49174873 614.09666323 633.1875 609.4375 C633.95900391 609.02081055 634.73050781 608.60412109 635.52539062 608.17480469 C645.69461617 602.83317695 656.24608551 599.80942999 667.375 597.125 C669.22774536 596.66891357 669.22774536 596.66891357 671.11791992 596.20361328 C676.25450315 594.94012646 681.39505195 593.69379953 686.5390625 592.4609375 C708.51814561 587.16140575 727.46243612 579.38779802 744.0625 563.6875 C755.27563979 553.11600648 768.1780419 545.83521293 781.6875 538.625 C782.72648437 538.0578125 783.76546875 537.490625 784.8359375 536.90625 C794.69192783 531.71598058 805.29042857 528.22472928 815.77734375 524.5390625 C825.42690145 520.97192743 832.83810626 514.72031864 840.32421875 507.8046875 C842.38737368 505.90181072 844.48832625 504.06900128 846.625 502.25 C853.14299166 496.56325019 859.39682804 490.40613165 865 483.8125 C881.72572164 464.35932255 900.13946009 451.99477181 924.6875 444.625 C955.94924794 436.03935238 955.94924794 436.03935238 980.25 416.1875 C982.18749178 411.38588994 982.59164144 407.58890736 981.09765625 402.69140625 C977.46872886 394.3799919 970.30254382 387.51622921 963.1953125 382.07421875 C961.6875 380.625 961.6875 380.625 960.3828125 378.24609375 C958.26667393 374.97436799 955.61489999 373.13315935 952.4375 371 C951.17367278 370.12616512 949.91068009 369.25112229 948.6484375 368.375 C947.99584961 367.92511719 947.34326172 367.47523438 946.67089844 367.01171875 C943.4203882 364.73908234 940.24627742 362.36471605 937.0625 360 C932.65948272 356.74414844 928.2167862 353.61301493 923.625 350.625 C909.3631998 341.18085885 898.02190436 330.22002717 886.9375 317.25 C871.25602906 299.40425826 845.69590972 290.45780015 822.97729492 285.29614258 C805.43371305 281.21103104 794.40615937 267.04478124 784.46875 252.93017578 C771.14045441 234.0535186 753.99621595 217.24885609 730.45996094 212.97998047 C723.64248136 212.10708374 716.74128493 212.17677902 709.87817383 212.06274414 C683.04028304 211.44712419 665.62767275 204.03829127 645.03125 187.50537109 C635.74879706 180.05813645 626.45338753 172.62989341 616.5625 166 C615.69395386 165.41557129 615.69395386 165.41557129 614.80786133 164.81933594 C603.64531849 157.50122121 593.79455031 155.53144762 580.5625 154.75 C551.9217027 152.75526037 529.4305496 146.52697505 505.4375 130.9375 C486.10386482 118.39983444 466.62269052 114.4654944 443.88659668 114.33444214 C428.64271087 114.20758032 414.19199733 113.78263589 399.6875 108.625 C398.85992188 108.33705566 398.03234375 108.04911133 397.1796875 107.75244141 C382.59284796 102.56056215 368.94928695 95.63571337 355.875 87.375 C350.0139928 83.70826151 344.12257445 81.1083341 337.6875 78.625 C336.10560707 77.98071459 334.52497492 77.33332877 332.9453125 76.68359375 C327.88120948 74.60650707 322.79081894 72.60344103 317.6875 70.625 C316.51832031 70.16222656 315.34914063 69.69945313 314.14453125 69.22265625 C299.11097962 63.86850161 284.24975154 66.89498296 268.97360229 69.47824097 C242.05277452 73.98385668 221.72224493 72.29736521 198.5 57.4375 C193.03461812 53.95448993 188.06924403 51.05897679 181.6875 49.625 C180.11162109 49.23248047 180.11162109 49.23248047 178.50390625 48.83203125 C170.61976038 46.92587566 163.05695132 45.47320784 154.91479492 45.57495117 C153.60359177 45.58793747 152.29238861 45.60092377 150.94145203 45.61430359 C150.24721319 45.62328863 149.55297436 45.63227367 148.83769798 45.64153099 C146.61407593 45.66862542 144.3905608 45.68622111 142.16682434 45.70100403 C135.84515616 45.74320056 129.52367711 45.78900516 123.20239258 45.87182617 C97.67994533 46.19538564 73.12404028 44.31277737 47.90226746 40.25273132 C38.72090397 38.80905836 29.57732877 38.26781393 20.2930603 38.15222168 C18.90428824 38.13426698 17.51559023 38.10879813 16.12710571 38.07531738 C5.6340481 37.67830383 5.6340481 37.67830383 -2.3125 43.625 Z " fill="#010101" transform="translate(253.3125,7.375)"/>
<path d="M0 0 C48.84 0 97.68 0 148 0 C148 9.24 148 18.48 148 28 C139.75 28 131.5 28 123 28 C123.33 63.97 123.66 99.94 124 137 C139.1236786 128.59795634 154.13543486 120.21604915 169.0390625 111.46484375 C175.14767342 107.89494172 181.31762425 104.44013884 187.5 101 C195.72202901 96.42433427 203.88574354 91.76417548 212 87 C221.224351 81.58549301 230.52014472 76.31369306 239.86206055 71.10498047 C248.97359246 66.02367221 258.03579399 60.8600606 267.0859375 55.67041016 C272.82571704 52.38023157 278.56892264 49.09604285 284.3125 45.8125 C285.21199875 45.29819427 285.21199875 45.29819427 286.12966919 44.77349854 C295.39733841 39.47548333 304.68191429 34.20886779 314 29 C310.04 28.67 306.08 28.34 302 28 C302 18.76 302 9.52 302 0 C321.67068476 -0.02254579 341.34135911 -0.04097845 361.01205349 -0.05181217 C370.14484048 -0.05697544 379.2776189 -0.06401872 388.41040039 -0.07543945 C396.36757874 -0.08538535 404.32475088 -0.0918532 412.28193527 -0.09408849 C416.49785986 -0.09539576 420.71376668 -0.09848262 424.92968559 -0.10573006 C428.89322184 -0.11248879 432.85673289 -0.11461726 436.82027435 -0.11310768 C438.27922006 -0.11338408 439.73816657 -0.11539007 441.19710732 -0.11920547 C443.18046595 -0.12414036 445.16383792 -0.12239811 447.14720154 -0.12025452 C448.25980567 -0.12117631 449.3724098 -0.1220981 450.51872921 -0.12304783 C453 0 453 0 454 1 C454.08758003 2.99964982 454.10696576 5.0023611 454.09765625 7.00390625 C454.09443359 8.21884766 454.09121094 9.43378906 454.08789062 10.68554688 C454.07951172 11.96494141 454.07113281 13.24433594 454.0625 14.5625 C454.05798828 15.84576172 454.05347656 17.12902344 454.04882812 18.45117188 C454.03699545 21.63416022 454.02051068 24.81705762 454 28 C453.09161377 27.94126709 452.18322754 27.88253418 451.24731445 27.82202148 C427.59086068 26.59823234 412.5648887 30.27490251 393.19677734 43.80664062 C388.60526044 46.95695282 383.82330198 49.7240149 379 52.5 C377.24483623 53.53563215 375.49095327 54.5734377 373.73828125 55.61328125 C365.65409182 60.39023697 357.55092075 65.13495701 349.44604492 69.87670898 C344.10289999 73.00342705 338.76255406 76.13399965 333.4453125 79.3046875 C332.24805542 80.01685425 332.24805542 80.01685425 331.02661133 80.7434082 C329.59716127 81.59502565 328.16975607 82.45008924 326.74487305 83.30932617 C322.22222569 86 322.22222569 86 320 86 C322.1329051 89.89878432 324.55193001 92.73857869 327.75 95.8125 C331.42474917 99.3543573 334.81107798 103.03774584 338.14794922 106.8918457 C341.23751228 110.40863677 344.4657849 113.79215008 347.6875 117.1875 C354.02970111 123.89880842 360.32383634 130.6505677 366.57324219 137.44824219 C369.00472083 140.09274565 371.43933056 142.73435641 373.875 145.375 C374.36516602 145.90641602 374.85533203 146.43783203 375.36035156 146.98535156 C379.22529015 151.17090722 383.11013665 155.33761202 387 159.5 C393.85182202 166.8318621 400.66033123 174.20284957 407.45898438 181.58398438 C413.28563383 187.90850508 419.1285201 194.21705039 425 200.5 C428.92319382 204.69873227 432.84358076 208.89988125 436.74365234 213.12011719 C437.73719611 214.1951412 438.73228128 215.26874296 439.72900391 216.34082031 C442.12428182 218.9255598 444.47387946 221.53484298 446.7578125 224.21875 C447.19963867 224.72954102 447.64146484 225.24033203 448.09667969 225.76660156 C449.29134333 227.15292248 450.47050546 228.55255976 451.6484375 229.953125 C454.25215283 232.58018497 454.25215283 232.58018497 460 233 C460 243.56 460 254.12 460 265 C409.51 265 359.02 265 307 265 C307 254.44 307 243.88 307 233 C312.94 232.67 318.88 232.34 325 232 C322.9890625 230.02 322.9890625 230.02 320.9375 228 C318.01430467 225.08136504 315.18759041 222.1365761 312.5 219 C309.24955349 215.20781241 305.74550431 211.72864469 302.19140625 208.22265625 C299.57898932 205.5729856 297.16697379 202.78827197 294.74609375 199.96484375 C292.90384325 197.89179676 290.97598338 195.94564198 289 194 C286.40017817 191.44009866 283.93731602 188.8322046 281.5625 186.0625 C278.99334729 183.07198284 276.30682744 180.26883316 273.5 177.5 C270.0711721 174.11758601 266.87951482 170.61929558 263.74609375 166.96484375 C261.90384325 164.89179676 259.97598338 162.94564198 258 161 C254.77921853 157.82867391 251.81173926 154.51946496 248.87109375 151.08984375 C245.99554748 147.87811671 242.9092186 144.88795166 239.8203125 141.8828125 C238 140 238 140 237 138 C232.07884415 138.58289419 228.41106931 140.76920005 224.1875 143.1875 C223.40834229 143.62674805 222.62918457 144.06599609 221.82641602 144.51855469 C214.29905873 148.78207104 206.84137881 153.1667427 199.37963867 157.54370117 C192.13432997 161.78414823 184.83564224 165.91808852 177.5 170 C171.18965742 173.51182996 164.89454307 177.04386882 158.65234375 180.67578125 C157.61795166 181.27753174 156.58355957 181.87928223 155.51782227 182.49926758 C153.48147318 183.69796495 151.45432792 184.91245178 149.43725586 186.14331055 C145.02389517 188.81351394 140.91192062 191.17164054 135.9765625 192.71875 C129.40492015 194.91319354 129.40492015 194.91319354 125 200 C122.74706294 210.81761583 123.45396534 222.03587225 124 233 C131.92 233 139.84 233 148 233 C148 243.89 148 254.78 148 266 C99.16 266 50.32 266 0 266 C0 255.11 0 244.22 0 233 C8.25 233 16.5 233 25 233 C25 165.35 25 97.7 25 28 C16.75 28 8.5 28 0 28 C0 18.76 0 9.52 0 0 Z " fill="#E21736" transform="translate(316,193)"/>
<path d="M0 0 C1.74926758 1.4621582 1.74926758 1.4621582 3.33203125 3.48828125 C3.92838379 4.22127441 4.52473633 4.95426758 5.13916016 5.70947266 C6.06027588 6.84328369 6.06027588 6.84328369 7 8 C8.24048589 9.36001949 9.49445939 10.70786127 10.76171875 12.04296875 C11.39988525 12.71787354 12.03805176 13.39277832 12.69555664 14.08813477 C13.35289795 14.78092529 14.01023926 15.47371582 14.6875 16.1875 C16.09680934 17.67925762 17.50565905 19.17144958 18.9140625 20.6640625 C19.94901855 21.76089355 19.94901855 21.76089355 21.00488281 22.87988281 C28.14037024 30.46242966 35.21906529 38.09686835 42 46 C40.5097061 49.46689423 38.5036472 51.6913985 35.875 54.375 C23.55522195 67.84727342 19.08977577 82.01698427 19.87890625 100.02099609 C21.1090587 120.12506012 35.55814217 138.27518211 49.4453125 151.75390625 C66.13649413 166.42887481 85.97281692 175.74654271 107.0625 182.1875 C108.22990723 182.5446106 108.22990723 182.5446106 109.42089844 182.90893555 C154.69336232 196.24664099 205.52545937 193.29445547 251 182 C252.19496094 181.70609375 253.38992188 181.4121875 254.62109375 181.109375 C258.11483679 180.1685874 261.55729048 179.10929199 265 178 C266.46010498 177.5356958 266.46010498 177.5356958 267.94970703 177.06201172 C301.02742666 166.49128094 330.04626897 153.71512685 351.5703125 125.37890625 C352.14570015 124.62219887 352.14570015 124.62219887 352.73271179 123.85020447 C354.0521634 122.02320292 354.0521634 122.02320292 354.99085999 119.94749451 C357.75717405 114.42185979 357.75717405 114.42185979 361.06781006 113.29811096 C363.63897813 113.07288639 366.0974686 113.09952032 368.67578125 113.21875 C369.6009404 113.23006958 370.52609955 113.24138916 371.47929382 113.25305176 C374.42582913 113.29773466 377.36744387 113.39807332 380.3125 113.5 C382.3130806 113.54013785 384.31373773 113.5766381 386.31445312 113.609375 C391.21152285 113.69744294 396.10492822 113.83542786 401 114 C400.68921678 115.58852097 400.37650361 117.17666443 400.06298828 118.76464844 C399.80208908 120.09130524 399.80208908 120.09130524 399.53591919 121.44476318 C395.8161549 139.18041971 386.90814711 152.73092179 375 166 C373.79031744 167.3946642 372.58177983 168.79032335 371.375 170.1875 C370.25091261 171.45914063 369.12586011 172.72992859 368 174 C367.29230469 174.81210937 366.58460938 175.62421875 365.85546875 176.4609375 C361.19815175 181.74504843 356.45967183 186.55374551 351 191 C350.27151855 191.60497314 350.27151855 191.60497314 349.52832031 192.22216797 C341.40275188 198.94923415 333.04136418 204.78621469 323.84716797 209.95898438 C322.08771069 210.95056855 320.34224775 211.96686354 318.59765625 212.984375 C271.1488959 239.67096688 216.72178723 246.21226782 163.1875 246.25 C161.86629654 246.25101212 161.86629654 246.25101212 160.5184021 246.25204468 C126.65382568 246.21134343 92.70861266 241.89945008 60 233 C59.11393066 232.76087891 58.22786133 232.52175781 57.31494141 232.27539062 C13.13172572 220.13105506 -28.97962602 198.44641057 -53.375 158.125 C-61.49806192 143.27710813 -64.39780015 126.99413081 -64.25 110.1875 C-64.24178223 109.04458496 -64.23356445 107.90166992 -64.22509766 106.72412109 C-63.77303734 72.48905874 -50.6395844 41.73282649 -26.54980469 17.49755859 C-22.27517013 13.36702797 -17.67324407 9.66852965 -13 6 C-12.22269531 5.35675781 -11.44539062 4.71351563 -10.64453125 4.05078125 C-9.95746094 3.49777344 -9.27039063 2.94476563 -8.5625 2.375 C-7.69818359 1.67503906 -7.69818359 1.67503906 -6.81640625 0.9609375 C-4.35607987 -0.34065452 -2.75724417 -0.29549314 0 0 Z " fill="#E11736" transform="translate(560,364)"/>
<path d="M0 0 C1.04768555 0.1654834 2.09537109 0.3309668 3.17480469 0.50146484 C14.98995818 2.38490091 26.49089383 4.92025752 37.94433594 8.38085938 C39.87728989 8.96304123 41.81737111 9.52140793 43.7578125 10.078125 C53.75930977 13.04307826 63.42967468 16.77679165 73.12890625 20.61010742 C74.74152344 21.24396362 74.74152344 21.24396362 76.38671875 21.890625 C77.82857544 22.46345215 77.82857544 22.46345215 79.29956055 23.04785156 C83.07082657 24.39312044 83.07082657 24.39312044 87 25 C89.21410929 23.76287552 89.21410929 23.76287552 91.25390625 21.81640625 C111.06614288 5.94037557 116.71186748 10 146 10 C146 45.31 146 80.62 146 117 C132.8 117 119.6 117 106 117 C103.36 113.37 100.72 109.74 98 106 C71.59248473 73.65821163 28.15108001 56.22802687 -12.53851318 51.71867371 C-18.848798 51.12043116 -25.10422363 50.81560501 -31.44140625 50.76171875 C-32.87862534 50.74729988 -32.87862534 50.74729988 -34.34487915 50.73258972 C-37.41745624 50.70805373 -40.4898366 50.69535456 -43.5625 50.6875 C-44.60991364 50.68421692 -45.65732727 50.68093384 -46.73648071 50.67755127 C-64.03358678 50.66000302 -80.27163737 52.06059643 -97.20751953 55.68676758 C-98.2798584 55.89712646 -99.35219727 56.10748535 -100.45703125 56.32421875 C-101.92039917 56.62718872 -101.92039917 56.62718872 -103.41333008 56.9362793 C-106 57 -106 57 -107.99633789 55.65234375 C-109.5 53.9375 -109.5 53.9375 -111.1015625 51.67578125 C-113.43626429 48.38510075 -116.10865957 45.5531072 -118.875 42.625 C-119.9245885 41.49479869 -120.97277704 40.36329559 -122.01953125 39.23046875 C-122.52693848 38.68181152 -123.0343457 38.1331543 -123.55712891 37.56787109 C-126.29657674 34.59109716 -128.99252325 31.57558059 -131.6875 28.55859375 C-133.44239588 26.61694375 -135.21185625 24.69578333 -137 22.78515625 C-137.50845459 22.23931885 -138.01690918 21.69348145 -138.54077148 21.13110352 C-139.53879185 20.06134994 -140.54078589 18.99528687 -141.54711914 17.93334961 C-145 14.223188 -145 14.223188 -145 12 C-96.73639002 -3.20708158 -50.00483717 -8.21477345 0 0 Z " fill="#E11736" transform="translate(816,290)"/>
</svg>
