<?xml version="1.0" encoding="UTF-8"?>
<svg version="1.1" xmlns="http://www.w3.org/2000/svg" width="1200" height="1121">
<path d="M0 0 C0.66 0 1.32 0 2 0 C9.56645697 20.27998479 16.72004356 40.67066952 23.60119629 61.19232178 C25.48536041 66.80843719 27.37730836 72.42193974 29.26789284 78.0358963 C29.99410809 80.19308965 30.71956582 82.35053682 31.44499207 84.50799561 C34.03667972 92.21034705 36.64695095 99.90597219 39.28442383 107.59277344 C47.66591366 132.02412245 55.83123612 156.5212585 63.90148926 181.05709839 C67.69391753 192.58605603 71.49742082 204.11136393 75.30078125 215.63671875 C75.69414547 216.8288479 76.08750969 218.02097706 76.49279404 219.24923134 C85.07994833 245.27028232 93.70887691 271.27737459 102.36569214 297.27532959 C103.92973205 301.97248452 105.49233115 306.67011427 107.05349731 311.3682251 C119.68321852 349.36989214 132.62531667 387.25258251 146.32006836 424.88500977 C147 427 147 427 147 429 C147.96873438 428.99962028 148.93746877 428.99924056 149.93555874 428.99884933 C207.28650958 428.97645728 264.63746015 428.95932384 321.98841446 428.94893467 C328.86686942 428.94768728 335.74532436 428.94639073 342.6237793 428.94506836 C343.30828649 428.9449376 343.99279369 428.94480684 344.69804352 428.94467212 C366.90488382 428.94040697 389.11172159 428.93289283 411.31856035 428.92370278 C434.7753129 428.91401305 458.23206333 428.90800639 481.68881804 428.90591151 C495.74914701 428.90453594 509.80946871 428.90018355 523.86979545 428.89208353 C533.49728545 428.88681807 543.12477166 428.88519525 552.752263 428.88649862 C558.31579895 428.88714232 563.87932213 428.88612097 569.44285583 428.88079453 C574.52726029 428.87596203 579.61164328 428.87566036 584.69604868 428.87910111 C586.54396855 428.87952695 588.39188971 428.87822996 590.239807 428.87511682 C592.73463044 428.87115529 595.22937445 428.87323506 597.72419643 428.87695217 C598.45635963 428.87432516 599.18852283 428.87169814 599.94287279 428.86899152 C604.8858542 428.8858542 604.8858542 428.8858542 606 430 C606.5 432.1875 606.5 432.1875 606 435 C602.10880614 439.69270223 596.42813583 442.67049736 591.3203125 445.84375 C587.30116695 448.45383041 583.43477325 451.24081755 579.5625 454.0625 C573.06523348 458.79477185 566.52962059 463.4631538 559.9375 468.0625 C559.09993164 468.64700928 558.26236328 469.23151855 557.39941406 469.83374023 C555.73408512 470.99581931 554.06872107 472.15784807 552.40332031 473.31982422 C548.69825521 475.91005766 545.00447372 478.51615377 541.3125 481.125 C540.27790649 481.85601929 540.27790649 481.85601929 539.22241211 482.60180664 C537.84041899 483.57850604 536.45850131 484.55531218 535.07666016 485.53222656 C530.84190116 488.52533391 526.60452547 491.51473609 522.36767578 494.50488281 C518.86277671 496.97864556 515.35844533 499.45320299 511.85546875 501.9296875 C501.77370579 509.05528657 491.66585511 516.14304727 481.54833984 523.21777344 C477.3645694 526.14376733 473.18235476 529.0719831 469 532 C467.33334098 533.16667759 465.66667431 534.33334425 464 535.5 C462.7625 536.36625 462.7625 536.36625 461.5 537.25 C413.99999998 570.50000001 413.99999998 570.50000001 411.49926758 572.25048828 C409.83501172 573.41548364 408.17078639 574.5805226 406.5065918 575.74560547 C402.30329077 578.68820411 398.09943819 581.63000904 393.89453125 584.5703125 C383.93814598 591.53358032 373.99755616 598.51849276 364.07666016 605.53222656 C361.26260166 607.52118961 358.44727504 609.50835324 355.63183594 611.49536133 C354.21178781 612.49762388 352.7918657 613.50006501 351.37207031 614.50268555 C347.84522401 616.99310561 344.31683792 619.48128462 340.78515625 621.96484375 C332.72614162 627.63600219 324.71054836 633.36223312 316.73071289 639.14428711 C311.67939754 642.79988014 306.60040599 646.41327815 301.5 650 C289.39315882 658.52045916 277.40954826 667.20613773 265.5 676 C259.0119009 680.78717227 252.51882401 685.56721839 246 690.3125 C245.24009766 690.87001953 244.48019531 691.42753906 243.69726562 692.00195312 C242.99279297 692.51306641 242.28832031 693.02417969 241.5625 693.55078125 C240.94503906 694.00106689 240.32757812 694.45135254 239.69140625 694.9152832 C238 696 238 696 235 697 C240.8382419 716.34278946 247.05667629 735.54503756 253.39520264 754.72821045 C255.31689545 760.54568261 257.23423186 766.3645932 259.15162659 772.18348312 C259.64096948 773.66844564 260.1304214 775.15337224 260.61997986 776.6382637 C264.72772994 789.09921296 268.7955606 801.57290368 272.8515625 814.05078125 C279.61538193 834.8562162 286.45441619 855.63640173 293.31283188 876.41081619 C294.93169604 881.31522215 296.54946035 886.21999086 298.16723633 891.12475586 C298.49563539 892.1203889 298.82403444 893.11602194 299.16238499 894.14182568 C299.82829005 896.16071669 300.49419027 898.1796093 301.16008568 900.19850349 C302.15819302 903.22451672 303.15639475 906.25049878 304.15461731 909.276474 C320.09848434 957.60962071 336.02316234 1005.94931321 351.8334198 1054.32635498 C353.94763932 1060.79260754 356.07097148 1067.25577808 358.20214844 1073.71646118 C359.53621166 1077.76292391 360.86586569 1081.81082702 362.19470215 1085.85900879 C362.80500851 1087.71459319 363.41732686 1089.56951731 364.03186035 1091.42370605 C364.86249334 1093.93049801 365.68597214 1096.43953297 366.5078125 1098.94921875 C366.74845428 1099.6691954 366.98909607 1100.38917206 367.23703003 1101.13096619 C368.63877748 1105.44167529 369.48518126 1109.51815596 370 1114 C364.01365552 1110.81734257 358.42550994 1107.35034396 352.9375 1103.375 C351.44851681 1102.31035807 349.95891884 1101.2465755 348.46875 1100.18359375 C347.35113281 1099.38477783 347.35113281 1099.38477783 346.2109375 1098.56982422 C342.81131969 1096.15600548 339.37730398 1093.79355339 335.9375 1091.4375 C335.27975586 1090.98665039 334.62201172 1090.53580078 333.94433594 1090.07128906 C332.61999407 1089.16392977 331.29545069 1088.25686452 329.97070312 1087.35009766 C327.36330117 1085.56380766 324.75980197 1083.77187511 322.15625 1081.97998047 C317.30209538 1078.63913744 312.44545717 1075.30209408 307.578125 1071.98046875 C295.98592466 1064.06856693 284.45313871 1056.07401115 272.93945312 1048.04833984 C268.12844233 1044.69581654 263.31410105 1041.34808357 258.5 1038 C252.66692573 1033.94290231 246.83439806 1029.88502712 241.00390625 1025.82421875 C228.52249777 1017.13241173 228.52249777 1017.13241173 216 1008.5 C202.02185192 998.91195544 188.11217884 989.22356261 174.27490234 979.43334961 C166.38246513 973.85032043 158.45791031 968.31331744 150.53515625 962.7734375 C148.0538408 961.03766367 145.57359426 959.30037486 143.09375 957.5625 C134.17877498 951.31579567 125.25216114 945.08633257 116.3125 938.875 C108.9481697 933.75739387 101.60079904 928.61741035 94.28051758 923.43701172 C88.86626927 919.60658476 83.43545439 915.80026438 78 912 C69.67590885 906.17886816 61.37081592 900.33145758 53.07666016 894.46777344 C49.55232485 891.97679015 46.02606434 889.48853486 42.5 887 C32.29610234 879.79801253 32.29610234 879.79801253 27.26660156 876.24267578 C25.81585977 875.21905757 24.36342661 874.19783159 22.90917969 873.17919922 C19.85881704 871.04021666 16.84779885 868.88370076 13.88671875 866.62109375 C12.58154297 865.63302734 12.58154297 865.63302734 11.25 864.625 C10.17492187 863.77808594 10.17492187 863.77808594 9.078125 862.9140625 C6.98935908 861.72126759 6.98935908 861.72126759 4.68481445 862.74267578 C1.92191454 864.03656816 -0.50102482 865.50555648 -3.03515625 867.203125 C-3.9991333 867.84660889 -4.96311035 868.49009277 -5.95629883 869.15307617 C-6.98134521 869.84506104 -8.0063916 870.5370459 -9.0625 871.25 C-10.12944092 871.96583252 -11.19638184 872.68166504 -12.2956543 873.41918945 C-20.67508869 879.06011624 -28.96214976 884.82595551 -37.21875 890.64453125 C-41.88760779 893.93111154 -46.59433312 897.15975176 -51.3125 900.375 C-61.2698579 907.16547591 -71.16015899 914.05079738 -81.04736328 920.94287109 C-84.95870468 923.66793828 -88.87320268 926.38845269 -92.78759766 929.10913086 C-109.20821928 940.52393746 -125.59365135 951.9876959 -141.92333984 963.53222656 C-145.44767516 966.02320986 -148.97394701 968.51144903 -152.5 971 C-153.91667568 971.99998722 -155.33334236 972.99998722 -156.75 974 C-182.25 992 -207.75 1010 -233.25 1028 C-233.9510083 1028.49483887 -234.6520166 1028.98967773 -235.37426758 1029.49951172 C-236.79333958 1030.50119043 -238.21244775 1031.5028179 -239.6315918 1032.50439453 C-243.13675274 1034.97829495 -246.64131515 1037.45303366 -250.14453125 1039.9296875 C-266.76064671 1051.67387821 -283.4434633 1063.32184175 -300.15234375 1074.93359375 C-304.00170925 1077.60898928 -307.84794514 1080.28878596 -311.69140625 1082.97265625 C-328.08432475 1094.41291653 -344.5144844 1105.82526423 -361.24462891 1116.76904297 C-363.13329391 1118.01798828 -363.13329391 1118.01798828 -365 1120 C-366 1118 -366 1118 -365.41722107 1115.65711975 C-365.08416458 1114.67206955 -364.75110809 1113.68701935 -364.40795898 1112.67211914 C-364.03209656 1111.54809189 -363.65623413 1110.42406464 -363.26898193 1109.26597595 C-362.84892883 1108.03480545 -362.42887573 1106.80363495 -361.99609375 1105.53515625 C-361.56157681 1104.24389257 -361.12777318 1102.95238866 -360.69464111 1101.66065979 C-359.76780133 1098.90079564 -358.83651602 1096.14248849 -357.90170288 1093.38531494 C-356.42973748 1089.04315967 -354.96812591 1084.69756969 -353.5090332 1080.35107422 C-353.26697742 1079.63008167 -353.02492163 1078.90908913 -352.77553082 1078.16624832 C-352.28713772 1076.71144947 -351.79877726 1075.25663966 -351.3104496 1073.80181885 C-350.57688626 1071.61740501 -349.84240247 1069.43330249 -349.10771179 1067.24926758 C-345.23407739 1055.72941259 -341.43195975 1044.18752403 -337.6875 1032.625 C-337.13649727 1030.92528562 -336.58547183 1029.22557861 -336.03442383 1027.52587891 C-335.20773467 1024.97549934 -334.38120538 1022.42506867 -333.55525208 1019.87445068 C-331.43328585 1013.32500599 -329.29538599 1006.78085713 -327.15234375 1000.23828125 C-320.0244306 978.4719779 -312.96073421 956.68722026 -306.00054932 934.8666687 C-301.0628261 919.39036448 -296.05748342 903.93756338 -291 888.5 C-285.75165117 872.47741877 -280.56153782 856.43776655 -275.4375 840.375 C-269.28188893 821.081084 -263.06754907 801.80666442 -256.82424927 782.54098511 C-255.57222973 778.67727393 -254.32148183 774.81315248 -253.07110691 770.94890881 C-248.61921763 757.19194481 -244.15931938 743.43847712 -239.60546875 729.71484375 C-238.68465156 726.92860466 -237.76434867 724.14219611 -236.84408569 721.35577393 C-236.02527586 718.88865747 -235.19527392 716.42551103 -234.36450195 713.96240234 C-233.88830263 712.52328791 -233.41259664 711.08401009 -232.9375 709.64453125 C-232.53402344 708.44159424 -232.13054687 707.23865723 -231.71484375 705.99926758 C-231.01348419 703.05657557 -230.75260284 701.71797687 -232 699 C-234.20794726 696.98687162 -236.38151855 695.17858919 -238.75 693.375 C-239.42957764 692.84503418 -240.10915527 692.31506836 -240.80932617 691.76904297 C-242.86538935 690.16937641 -244.93145066 688.58347174 -247 687 C-248.08506312 686.16201186 -249.16973404 685.32351548 -250.25390625 684.484375 C-252.33264873 682.88084951 -254.41420465 681.28176249 -256.5 679.6875 C-259.85190957 677.12107272 -263.1792464 674.52375833 -266.50634766 671.92529297 C-280.99893301 660.61168674 -295.75958028 649.67602692 -310.57226562 638.78662109 C-312.98252539 637.01285994 -315.39013424 635.23556356 -317.796875 633.45703125 C-327.74134398 626.11062094 -337.73182741 618.83207915 -347.76611328 611.60888672 C-351.51359798 608.90987861 -355.25650489 606.20453723 -359 603.5 C-359.74185547 602.96439453 -360.48371094 602.42878906 -361.24804688 601.87695312 C-365.01248772 599.15909879 -368.775311 596.43905269 -372.53515625 593.71484375 C-382.6367501 586.39959622 -392.79694291 579.17291485 -403 572 C-412.46699567 565.34454829 -421.89827044 558.64579328 -431.26928711 551.85571289 C-436.32060069 548.20012114 -441.39951229 544.58660382 -446.5 541 C-454.62966628 535.28107688 -462.68961173 529.4688872 -470.73828125 523.63671875 C-472.97939733 522.01490936 -475.22351315 520.39734868 -477.46875 518.78125 C-487.56781015 511.50957327 -497.60498699 504.15773392 -507.61328125 496.76171875 C-509.97950566 495.01512757 -512.34859761 493.27250623 -514.71875 491.53125 C-529.88380639 480.38739776 -545.03480042 469.22530841 -559.78515625 457.53515625 C-562.42899901 455.44194781 -565.09871728 453.38556119 -567.78051758 451.34130859 C-573.49214563 446.98434474 -579.14188334 442.55174056 -584.75 438.0625 C-585.45431152 437.50643066 -586.15862305 436.95036133 -586.88427734 436.37744141 C-587.86195068 435.58926025 -587.86195068 435.58926025 -588.859375 434.78515625 C-589.44170898 434.31988525 -590.02404297 433.85461426 -590.62402344 433.37524414 C-592 432 -592 432 -593 429 C-444.83 429 -296.66 429 -144 429 C-143.34 426.03 -142.68 423.06 -142 420 C-141.49282602 418.31756282 -140.95305925 416.64411154 -140.36206055 414.98925781 C-131.15863761 389.20348277 -122.04236507 363.38978075 -113.13256836 337.50097656 C-112.91233161 336.86135036 -112.69209485 336.22172416 -112.46518426 335.56271535 C-102.53934687 306.73322052 -92.85640866 277.8244179 -83.23854578 248.89095293 C-80.89253733 241.83399656 -78.54248474 234.7783885 -76.19228458 227.72282723 C-71.9883048 215.10178089 -67.7867702 202.47992221 -63.5871582 189.85742188 C-63.33953198 189.1131499 -63.09190576 188.36887792 -62.83677571 187.60205224 C-62.58886061 186.8569114 -62.34094551 186.11177056 -62.08551782 185.34404969 C-58.55773872 174.74087033 -55.02935484 164.13789249 -51.50024414 153.53515625 C-51.12610998 152.4111175 -51.12610998 152.4111175 -50.74441756 151.26437089 C-46.54337207 138.64303592 -42.34103157 126.02213234 -38.13806194 113.401438 C-35.80275661 106.38873204 -33.46820624 99.37577642 -31.13559151 92.36217499 C-20.88180399 61.53175906 -10.57296014 30.72271484 0 0 Z " fill="#0D254C" transform="translate(594,1)"/>
<path d="M0 0 C2.22177993 2.22177993 2.73675809 3.64649619 3.76147461 6.58666992 C4.10119293 7.55245972 4.44091125 8.51824951 4.79092407 9.51330566 C5.34107681 11.10580139 5.34107681 11.10580139 5.90234375 12.73046875 C6.29134857 13.84184204 6.68035339 14.95321533 7.08114624 16.0982666 C8.14840657 19.15163948 9.21039067 22.20678335 10.26974869 25.26290512 C11.3959782 28.50892728 12.52789902 31.75296486 13.65893555 34.99731445 C15.5334276 40.37704452 17.40328542 45.75836784 19.27050781 51.140625 C21.37020937 57.19254248 23.48071067 63.24061448 25.59646606 69.28694153 C45.49032924 126.16246994 64.07331611 183.4765845 82 241 C82.39766736 242.27491411 82.79537328 243.54981619 83.19311523 244.82470703 C86.01159753 253.85987563 88.8207735 262.89789665 91.625 271.9375 C92.00178894 273.14977264 92.37857788 274.36204529 92.76678467 275.61105347 C93.81891117 278.99888688 94.86715267 282.3878952 95.9140625 285.77734375 C96.22869446 286.78889526 96.54332642 287.80044678 96.86749268 288.84265137 C97.15050232 289.76203491 97.43351196 290.68141846 97.72509766 291.62866211 C98.09666489 292.8297184 98.09666489 292.8297184 98.47573853 294.05503845 C99 296 99 296 99 298 C99.63897972 297.99907821 100.27795944 297.99815641 100.93630219 297.99720669 C116.79513592 297.97470602 132.65396381 297.95837882 148.51280975 297.94818783 C156.18335053 297.94312326 163.85388029 297.9362513 171.52441406 297.92456055 C202.95276745 297.8776193 234.36431021 297.92502363 265.7877636 298.56647682 C287.89685254 299.01763082 309.9967314 299.15611428 332.11010742 299.13037109 C337.1398678 299.12457596 342.16957633 299.12813051 347.1993351 299.13382339 C367.60677885 299.15325409 387.97607157 299.03161618 408.36889648 298.21435547 C415.5811566 297.94032628 422.78360393 297.95547252 430 298 C427.68063488 300.34134141 425.42384934 302.55681633 422.77734375 304.5234375 C421.86106201 305.20780884 421.86106201 305.20780884 420.92626953 305.90600586 C420.26997559 306.39077393 419.61368164 306.87554199 418.9375 307.375 C418.23995605 307.89392822 417.54241211 308.41285645 416.82373047 308.94750977 C414.55191759 310.63543612 412.27622515 312.31802964 410 314 C409.23606934 314.56605957 408.47213867 315.13211914 407.68505859 315.71533203 C391.29550515 327.85892277 374.76830596 339.80071308 358.08251953 351.53369141 C356.04103003 352.97111063 354.00241328 354.4124995 351.96484375 355.85546875 C332.7528127 369.45792853 313.38075273 382.81730486 293.89941406 396.03076172 C287.34018806 400.48568905 280.80175736 404.97103914 274.26074219 409.45263672 C271.98005104 411.01365405 269.69734511 412.57168232 267.4140625 414.12890625 C255.88221257 421.99748398 244.41373479 429.95466783 232.96142578 437.93847656 C229.99672735 440.00227817 227.02826412 442.06054788 224.05859375 444.1171875 C213.66213407 451.32162329 203.32486783 458.59372699 193.09375 466.03125 C189.82135942 468.41004994 186.53086103 470.76176581 183.23120117 473.10253906 C177.37149968 477.25944177 171.62572126 481.52995338 166 486 C168.83291233 497.85724933 172.13587069 509.52693041 175.6875 521.1875 C175.96389313 522.09850464 176.24028625 523.00950928 176.52505493 523.94812012 C187.12163564 558.84104243 198.50231348 593.48971593 209.86132812 628.14007568 C235.86550141 707.47010628 235.86550141 707.47010628 247.6875 745.9375 C248.00214203 746.95656433 248.31678406 747.97562866 248.64096069 749.02557373 C249.52026181 751.87861994 250.39239226 754.73374456 251.26171875 757.58984375 C251.51276367 758.40348892 251.76380859 759.21713409 252.02246094 760.05543518 C253.70885247 765.64524787 254.94481089 771.25862558 256 777 C251.27808156 774.49645885 246.73687359 771.89882758 242.375 768.80078125 C241.50504395 768.185979 240.63508789 767.57117676 239.73876953 766.93774414 C238.38307861 765.97856079 238.38307861 765.97856079 237 765 C235.18607914 763.73267964 233.37095849 762.46707494 231.5546875 761.203125 C230.63091309 760.55996338 229.70713867 759.91680176 228.75537109 759.25415039 C219.71361552 752.96293396 210.660705 746.68915142 201.578125 740.45703125 C192.68439995 734.3540129 183.83101324 728.19336737 175 722 C174.26007812 721.48308594 173.52015625 720.96617187 172.7578125 720.43359375 C165.98634843 715.70268872 159.23860765 710.9383835 152.4921875 706.171875 C149.58292684 704.11665151 146.6715109 702.06455179 143.7578125 700.015625 C136.44797713 694.87185584 129.17140931 689.68760558 121.9375 684.4375 C116.3435988 680.37896784 110.71052855 676.392703 105 672.5 C98.51861991 668.08182969 92.14669181 663.52697486 85.79882812 658.91943359 C75.5127916 651.45784152 65.10729074 644.16550097 54.69140625 636.88671875 C47.35652728 631.74485149 40.04770387 626.56576929 32.73144531 621.39746094 C31.98733398 620.8718457 31.24322266 620.34623047 30.4765625 619.8046875 C29.74219971 619.28583984 29.00783691 618.76699219 28.2512207 618.23242188 C26.80523694 617.21176541 25.35847328 616.19221285 23.91088867 615.17382812 C20.88642648 613.04551603 17.8735529 610.90766347 14.88671875 608.7265625 C14.01660156 608.09492187 13.14648438 607.46328125 12.25 606.8125 C11.53328125 606.28269531 10.8165625 605.75289062 10.078125 605.20703125 C7.42361702 603.66522116 6.11860088 603.09668658 3 603 C-0.08160683 604.44744666 -2.79053245 606.39764294 -5.5703125 608.3515625 C-6.82387039 609.20637711 -6.82387039 609.20637711 -8.10275269 610.07846069 C-10.78667253 611.91342588 -13.45581749 613.76868077 -16.125 615.625 C-17.86754756 616.82168538 -19.61102908 618.01701198 -21.35546875 619.2109375 C-24.8402803 621.59942561 -28.31914263 623.99619828 -31.79296875 626.40063477 C-36.95654935 629.97380394 -42.13611809 633.52323158 -47.3203125 637.06640625 C-48.08086945 637.58631134 -48.84142639 638.10621643 -49.62503052 638.64187622 C-51.0602749 639.62295535 -52.49554599 640.60399542 -53.93084717 641.58499146 C-71.85306337 653.84125821 -89.66550441 666.25529656 -107.44702148 678.71459961 C-116.64141594 685.15458205 -125.8592173 691.5608448 -135.07666016 697.96777344 C-138.92853221 700.64549041 -142.77953135 703.32446084 -146.63037109 706.00366211 C-148.54849281 707.33805732 -150.46678802 708.67220318 -152.38525391 710.00610352 C-157.11836469 713.29732622 -161.8490211 716.5919559 -166.57421875 719.89453125 C-195.41808831 740.04009653 -224.70625569 759.51756826 -254 779 C-255.13740245 775.64240017 -254.86328664 773.7476036 -253.70947266 770.42553711 C-253.39418106 769.50020172 -253.07888947 768.57486633 -252.75404358 767.62149048 C-252.39434982 766.60042206 -252.03465607 765.57935364 -251.6640625 764.52734375 C-251.28644272 763.42667572 -250.90882294 762.32600769 -250.51976013 761.19198608 C-249.4564597 758.09602446 -248.384222 755.00330629 -247.30934525 751.91135025 C-245.39554567 746.39139697 -243.51154416 740.86112175 -241.62153053 735.33299065 C-240.83154295 733.02319992 -240.04036877 730.71381759 -239.24919128 728.4044342 C-232.0906693 707.48882532 -225.1215336 686.50951413 -218.13634491 665.53554153 C-216.73562992 661.33143109 -215.33286437 657.12800614 -213.93015003 652.92456245 C-206.87476126 631.77797297 -199.87900246 610.61406679 -193.00410461 589.40808868 C-188.72114933 576.20364655 -184.34782931 563.03211739 -179.91015625 549.87890625 C-179.33544523 548.17264982 -178.76084413 546.46635637 -178.18635559 544.76002502 C-175.88484973 537.92627992 -173.58325147 531.09261152 -171.26391602 524.26489258 C-169.80580984 519.97138704 -168.35784312 515.67458176 -166.91671562 511.37534904 C-166.37544986 509.76690656 -165.83042626 508.15972322 -165.28145027 506.55389595 C-164.52831086 504.34967593 -163.78818247 502.1414917 -163.05102539 499.93188477 C-162.62914444 498.6848024 -162.20726349 497.43772003 -161.77259827 496.15284729 C-161.03147275 493.12843516 -160.71335004 491.78583513 -162 489 C-164.08088101 486.97480453 -166.13464053 485.1429948 -168.375 483.3125 C-169.01131348 482.78068115 -169.64762695 482.2488623 -170.30322266 481.70092773 C-172.1944836 480.12440259 -174.09576592 478.56081389 -176 477 C-176.928125 476.23171875 -177.85625 475.4634375 -178.8125 474.671875 C-181.53077173 472.43427327 -184.26560161 470.21786078 -187 468 C-188.22575053 466.99278366 -189.45097692 465.98492924 -190.67578125 464.9765625 C-198.52857687 458.52781918 -206.50118107 452.29407149 -214.66015625 446.23828125 C-218.76715456 443.18652009 -222.83047182 440.0794882 -226.89233398 436.96801758 C-234.82324699 430.89353199 -242.79143897 424.90377051 -250.95703125 419.1484375 C-253.76295589 417.16736105 -256.54153673 415.15455456 -259.3125 413.125 C-263.18265749 410.29899057 -267.08735363 407.52779006 -271.01074219 404.77661133 C-277.44310354 400.26544539 -283.80294527 395.68596813 -290.0625 390.9375 C-295.28281404 386.97880996 -300.57777526 383.17717131 -306 379.5 C-312.08622786 375.37061558 -318.00110878 371.06195894 -323.86157227 366.61889648 C-328.83281529 362.85558519 -333.86937481 359.19402128 -338.9375 355.5625 C-347.02719403 349.75111736 -354.96678867 343.76392595 -362.84375 337.66796875 C-365.04899288 335.96210152 -367.25875328 334.26220234 -369.46875 332.5625 C-381.37713414 323.37889386 -393.10217002 313.97417041 -404.4921875 304.15234375 C-405.49934814 303.28403931 -405.49934814 303.28403931 -406.52685547 302.39819336 C-407.01299316 301.93678955 -407.49913086 301.47538574 -408 301 C-408 300.67 -408 300.34 -408 300 C-308.01 300 -208.02 300 -105 300 C-104.34 298.02 -103.68 296.04 -103 294 C-101.82518514 291.53730124 -100.62432635 289.11117505 -99.375 286.6875 C-98.6459514 285.24278438 -97.91812088 283.79745355 -97.19140625 282.3515625 C-95.05446191 278.10757423 -95.05446191 278.10757423 -94.05419922 276.13183594 C-70.10241124 228.43574703 -56.09474962 175.56226545 -41.05987549 124.59216309 C-33.17408623 97.86540001 -25.18408897 71.18768409 -16.5625 44.6875 C-16.23892517 43.68836578 -15.91535034 42.68923157 -15.58197021 41.65982056 C-12.14370003 31.06650196 -8.54391806 20.55755933 -4.58984375 10.14453125 C-4.24587051 9.2386174 -3.90189728 8.33270355 -3.54750061 7.39933777 C-1.13179098 1.13179098 -1.13179098 1.13179098 0 0 Z " fill="#0D254C" transform="translate(595,187)"/>
<path d="M0 0 C3.42464402 1.71232201 4.01029998 5.77994257 5.28125 9.21875 C5.60644623 10.08177231 5.93164246 10.94479462 6.26669312 11.83396912 C7.35174688 14.71997211 8.42610366 17.60982835 9.5 20.5 C10.26409855 22.54254395 11.02859118 24.58494052 11.79345703 26.62719727 C13.8067554 32.01100427 15.80938669 37.39871343 17.80822754 42.78790283 C18.95594253 45.88125511 20.10605999 48.97370332 21.25683594 52.06591797 C40.41720986 103.58843242 58.34928705 155.52390185 75.8638916 207.62420654 C77.21090912 211.62668811 78.56360687 215.62723104 79.91685486 219.62760925 C86.88537716 240.24118927 93.57135692 260.938314 100.125 281.6875 C100.48137543 282.81548004 100.83775085 283.94346008 101.20492554 285.10562134 C107.91492675 306.36986296 114.44234834 327.6876321 121 349 C248.71 349.33 376.42 349.66 508 350 C504.05620456 353.94379544 500.18467165 357.45193316 495.875 360.9375 C494.83436401 361.78066772 494.83436401 361.78066772 493.77270508 362.64086914 C486.1692691 368.74641557 478.31235691 374.49493339 470.42773438 380.22949219 C467.21398108 382.57323102 464.01597456 384.93795318 460.81787109 387.30297852 C445.21354599 398.83737554 429.45616921 410.13451369 413.53662109 421.22949219 C411.00706295 422.99507021 408.48140335 424.76607904 405.95703125 426.5390625 C395.43296104 433.92860782 384.85352354 441.2313654 374.22998047 448.47705078 C368.78366124 452.19657556 363.35397848 455.94037871 357.92089844 459.67919922 C356.03424168 460.97645558 354.14625084 462.27174505 352.2578125 463.56640625 C342.48058068 470.27234212 332.74380629 477.03563642 323.015625 483.8125 C319.02982791 486.5888317 315.04013989 489.3594209 311.046875 492.125 C275.52014556 516.74401233 239.93901189 542.05320442 206.875 569.9375 C206.34229492 570.38625488 205.80958984 570.83500977 205.26074219 571.29736328 C202.37671699 573.75203039 199.66156545 576.30822987 197 579 C200.14340067 588.60496415 203.28947846 598.20904949 206.4375 607.8125 C206.67443195 608.5353204 206.91136391 609.25814079 207.15547562 610.00286484 C214.3011295 631.80034513 221.48981948 653.58261755 228.78881836 675.3293457 C231.80251563 684.32205764 234.78766655 693.3232087 237.70800781 702.34667969 C245.43129122 726.20169689 253.3062489 750.00412182 261.2421875 773.7890625 C261.5160095 774.60981978 261.78983151 775.43057706 262.07195115 776.27620578 C266.33700794 789.06001424 270.60569587 801.84260949 274.875 814.625 C278.6166709 825.82774338 282.35779822 837.03066704 286.09599602 848.23456991 C287.44207821 852.26872294 288.78877636 856.30266786 290.13708115 860.33607864 C295.04810704 875.02786865 299.95021568 889.72249962 304.71533203 904.46240234 C305.22197042 906.01566443 305.22197042 906.01566443 305.73884392 907.60030556 C306.04030893 908.53991316 306.34177395 909.47952076 306.65237427 910.44760132 C306.91468401 911.26031683 307.17699375 912.07303234 307.44725227 912.9103756 C308 915 308 915 308 918 C303.67264766 916.483725 300.05055418 914.21180483 296.27734375 911.66015625 C295.62773682 911.22612488 294.97812988 910.79209351 294.30883789 910.34490967 C292.18195435 908.92201148 290.0596715 907.49241441 287.9375 906.0625 C286.45601826 905.06894477 284.97432632 904.07570289 283.49243164 903.08276367 C278.98976371 900.06285653 274.49382123 897.03305181 270 894 C269.32243652 893.54278564 268.64487305 893.08557129 267.94677734 892.61450195 C259.28228454 886.7658089 250.63430687 880.8931639 242 875 C241.21431641 874.46375 240.42863281 873.9275 239.61914062 873.375 C228.36433889 865.68369631 217.18691197 857.8802741 206.00097656 850.08935547 C203.04063629 848.02829201 200.07913819 845.96890457 197.1171875 843.91015625 C185.5511726 835.87060203 173.9999646 827.81037519 162.46484375 819.7265625 C159.94617913 817.9622998 157.42638072 816.19966774 154.90625 814.4375 C147.15477654 809.01666095 139.409074 803.58836038 131.6875 798.125 C124.06509514 792.73358718 116.40276447 787.40042061 108.73486328 782.07397461 C102.33361177 777.6266274 95.94407801 773.16302096 89.5625 768.6875 C83.15650235 764.19680063 76.73139995 759.73630605 70.27636719 755.31640625 C66.38230968 752.64707708 62.50243513 749.95856165 58.6328125 747.25390625 C48.2226964 739.97901606 37.77607273 732.77770425 27.17700195 725.7800293 C25.98143677 724.9897937 25.98143677 724.9897937 24.76171875 724.18359375 C23.9836084 723.67296387 23.20549805 723.16233398 22.40380859 722.63623047 C20.68956014 721.46937153 19.00776923 720.25422714 17.35009766 719.00830078 C16.47788574 718.35716309 15.60567383 717.70602539 14.70703125 717.03515625 C13.92432861 716.43195557 13.14162598 715.82875488 12.33520508 715.20727539 C10.06777053 713.78521088 10.06777053 713.78521088 7.50634766 714.13476562 C4.77792213 715.0766651 2.62052368 716.24928918 0.19140625 717.80859375 C-1.16549316 718.67411865 -1.16549316 718.67411865 -2.54980469 719.55712891 C-3.50274414 720.17765137 -4.45568359 720.79817383 -5.4375 721.4375 C-6.91911621 722.39148682 -6.91911621 722.39148682 -8.43066406 723.36474609 C-14.35933888 727.20704679 -20.18284993 731.15892836 -25.89038086 735.32128906 C-30.34793689 738.56673148 -34.90259515 741.64390097 -39.5 744.6875 C-56.87121703 756.19879421 -74.00556609 768.05181333 -91.09570312 779.97509766 C-94.98784022 782.68873124 -98.88410632 785.39640538 -102.78027344 788.10424805 C-113.38484031 795.47525913 -123.97211329 802.87062346 -134.54833984 810.28222656 C-138.69786428 813.1896209 -142.84902306 816.09468001 -147 819 C-148.66667431 820.16665575 -150.33334098 821.33332241 -152 822.5 C-155.33333333 824.83333333 -158.66666667 827.16666667 -162 829.5 C-162.82532227 830.0777417 -163.65064453 830.6554834 -164.50097656 831.25073242 C-166.16432683 832.41504511 -167.82773809 833.57927065 -169.49121094 834.7434082 C-173.70912809 837.69537196 -177.92590872 840.64893634 -182.140625 843.60546875 C-191.75775282 850.34936514 -201.40029492 857.05293263 -211.09082031 863.69091797 C-212.9866377 864.99083777 -214.88040404 866.29368623 -216.7734375 867.59765625 C-220.84592255 870.40286781 -224.9219735 873.20285082 -229 876 C-229.71075684 876.48758789 -230.42151367 876.97517578 -231.15380859 877.47753906 C-237.75705434 882.00292112 -244.37652697 886.50429291 -251 891 C-251.81158569 891.55107422 -252.62317139 892.10214844 -253.45935059 892.66992188 C-259.20839769 896.57286313 -264.96083168 900.47075665 -270.71640015 904.36407471 C-272.69559074 905.70364746 -274.67396596 907.0444257 -276.65151978 908.38641357 C-279.45681516 910.28963601 -282.26513685 912.18830982 -285.07421875 914.0859375 C-285.92954193 914.66754639 -286.78486511 915.24915527 -287.66610718 915.84838867 C-288.85171738 916.64732544 -288.85171738 916.64732544 -290.0612793 917.46240234 C-290.75215134 917.93012054 -291.44302338 918.39783875 -292.15483093 918.87973022 C-294 920 -294 920 -297 921 C-296.36939472 914.92802372 -294.68168255 909.47453899 -292.74609375 903.69921875 C-292.24817825 902.18893852 -292.24817825 902.18893852 -291.74020386 900.64814758 C-291.02155478 898.46993378 -290.30033033 896.29256832 -289.57681274 894.1159668 C-287.61430723 888.21031442 -285.67182296 882.29806903 -283.7265625 876.38671875 C-283.32699844 875.17418427 -282.92743439 873.96164978 -282.51576233 872.71237183 C-278.71386241 861.1629301 -275.00327066 849.58533775 -271.3125 838 C-264.30975309 816.04194157 -257.22571723 794.11073497 -250.12344551 772.18472481 C-248.94027495 768.5320348 -247.75721679 764.87930839 -246.57421875 761.2265625 C-246.22266157 760.14112719 -246.22266157 760.14112719 -245.86400223 759.03376389 C-242.55121483 748.8045101 -239.24920807 738.57184214 -235.95703125 728.3359375 C-225.83767197 696.87984425 -215.6037092 665.46408213 -205.25459003 634.08284187 C-203.47585174 628.68756015 -201.70536395 623.28959942 -199.93754864 617.8907299 C-198.62664376 613.89267709 -197.29984307 609.90027216 -195.9621439 605.91110802 C-195.30345101 603.94195541 -194.65003039 601.97114218 -193.998703 599.99954224 C-193.19559588 597.57023902 -192.38368725 595.14382131 -191.56147766 592.72091675 C-191.20820908 591.64399567 -190.85494049 590.56707458 -190.4909668 589.45751953 C-190.17749802 588.51989777 -189.86402924 587.582276 -189.5410614 586.61624146 C-188.92905318 583.65694462 -189.06550799 581.86436445 -190 579 C-192.01985699 576.93578305 -193.95415898 575.17510376 -196.1875 573.375 C-196.8175293 572.85212402 -197.44755859 572.32924805 -198.09667969 571.79052734 C-200.05185965 570.17743088 -202.02228285 568.58535637 -204 567 C-204.57508301 566.53787109 -205.15016602 566.07574219 -205.74267578 565.59960938 C-209.15566529 562.86921777 -212.59936613 560.18001204 -216.05615234 557.50537109 C-218.18290347 555.85835433 -220.30464428 554.20502139 -222.42578125 552.55078125 C-226.94541849 549.02726402 -231.47147873 545.51208896 -236 542 C-236.57572754 541.55301758 -237.15145508 541.10603516 -237.74462891 540.64550781 C-259.40466489 523.84249005 -281.51915325 507.62338694 -303.76611328 491.60888672 C-308.26523169 488.36853805 -312.75824119 485.11972298 -317.25244141 481.87255859 C-320.987945 479.17401978 -324.7248148 476.47742047 -328.46484375 473.78515625 C-336.25915847 468.17096822 -344.024536 462.52114617 -351.75 456.8125 C-357.16023076 452.81505567 -362.58170298 448.83774351 -368.0625 444.9375 C-368.61574951 444.54361084 -369.16899902 444.14972168 -369.73901367 443.74389648 C-370.88323875 442.92960033 -372.02752714 442.11539313 -373.171875 441.30126953 C-384.29180326 433.38604282 -395.2720206 425.32225247 -406.10498047 417.01757812 C-411.91695173 412.56767097 -417.77919521 408.19598084 -423.6875 403.875 C-437.89224058 393.46467642 -451.6628804 382.53585097 -465.29443359 371.38964844 C-467.62118176 369.49387824 -469.96530307 367.62036479 -472.3125 365.75 C-475.92464568 362.8639756 -479.53118877 359.97134085 -483.125 357.0625 C-484.05570312 356.31097656 -484.98640625 355.55945313 -485.9453125 354.78515625 C-486.62335938 354.19605469 -487.30140625 353.60695313 -488 353 C-488 352.67 -488 352.34 -488 352 C-366.23 351.67 -244.46 351.34 -119 351 C-103.52939808 309.06322414 -103.52939808 309.06322414 -88.5078125 266.96484375 C-88.15236359 265.9477684 -87.79691467 264.93069305 -87.43069458 263.88279724 C-65.34686708 200.52752996 -44.21752927 136.79147681 -23.57972717 72.95231628 C-21.1627851 65.48428233 -18.71910281 58.02507602 -16.2734375 50.56640625 C-15.86273514 49.31355835 -15.45203278 48.06071045 -15.02888489 46.76989746 C-13.39161404 41.77606189 -11.75411208 36.78230366 -10.11447144 31.78924561 C-8.98798495 28.35855138 -7.86301612 24.92736256 -6.73828125 21.49609375 C-6.40456512 20.48140518 -6.070849 19.46671661 -5.72702026 18.42127991 C-3.72444635 12.30724632 -1.81636599 6.17194775 0 0 Z M3 78 C-2.09047675 89.05235699 -6.03959952 100.50503441 -10 112 C-10.34294098 112.99537781 -10.34294098 112.99537781 -10.69281006 114.01086426 C-19.94690231 140.97231382 -28.00685979 168.28843313 -36.0625 195.625 C-76.1791512 331.74026764 -76.1791512 331.74026764 -101.10400391 374.25341797 C-102.15214763 375.96941805 -102.15214763 375.96941805 -102 378 C-201.99 378 -301.98 378 -405 378 C-401.16871965 382.79246526 -401.16871965 382.79246526 -396.87109375 386.640625 C-396.04049438 387.27883179 -396.04049438 387.27883179 -395.19311523 387.92993164 C-394.32408569 388.58336548 -394.32408569 388.58336548 -393.4375 389.25 C-392.18631256 390.21069507 -390.93633284 391.17296486 -389.6875 392.13671875 C-389.06617188 392.61544434 -388.44484375 393.09416992 -387.8046875 393.58740234 C-385.12709184 395.68325847 -382.53558762 397.86863611 -379.9375 400.0625 C-373.76817795 405.23467801 -367.42180791 410.14868179 -361 415 C-359.89325928 415.83772949 -359.89325928 415.83772949 -358.76416016 416.69238281 C-348.99940382 424.07602407 -339.17431494 431.36481216 -329.22998047 438.50488281 C-325.09463567 441.47644315 -320.9963677 444.48659618 -316.9375 447.5625 C-311.54019655 451.64029694 -306.02468745 455.53352349 -300.48803711 459.41821289 C-295.16050952 463.16247347 -289.90017556 466.98849642 -284.66259766 470.85717773 C-280.00877678 474.28472845 -275.29614347 477.62131768 -270.5625 480.9375 C-264.21394128 485.38906179 -257.98110624 489.97126651 -251.79785156 494.64916992 C-247.68434331 497.75554648 -243.5263472 500.781576 -239.3125 503.75 C-230.48902087 509.98395178 -221.9493202 516.5969139 -213.38085938 523.17431641 C-211.36686792 524.71867942 -209.34908622 526.25774934 -207.328125 527.79296875 C-199.35921172 533.86876954 -191.57801348 540.15984768 -183.82470703 546.50732422 C-182.21776304 547.82186202 -180.60720809 549.13198302 -178.99609375 550.44140625 C-171.91769308 556.20097827 -164.95091193 562.0878571 -158 568 C-159.37167087 574.69265019 -161.21667167 581.05993882 -163.40136719 587.52880859 C-163.74005325 588.54369858 -164.07873932 589.55858856 -164.4276886 590.60423279 C-165.54657258 593.95371471 -166.67176954 597.30104082 -167.796875 600.6484375 C-168.59047008 603.02106151 -169.38361318 605.39383675 -170.17633057 607.76675415 C-172.05821272 613.39702787 -173.94386306 619.02602957 -175.83160806 624.65433943 C-179.76407731 636.37934662 -183.68719295 648.10748583 -187.609375 659.8359375 C-188.01573244 661.05054216 -188.42208988 662.26514683 -188.84076118 663.51655769 C-193.97311808 678.86140277 -199.05542385 694.2207631 -204.04296875 709.61328125 C-211.61816813 732.99168335 -219.38431177 756.30584878 -227.16235352 779.61743164 C-229.18808453 785.68883422 -231.21104139 791.76115719 -233.23326206 797.83372974 C-234.81847518 802.59299287 -236.40512417 807.35177635 -237.99220085 812.11041832 C-238.7393164 814.35110556 -239.48599914 816.59193716 -240.23221016 818.8329258 C-241.26996509 821.94875799 -242.30961509 825.06395125 -243.34985352 828.17895508 C-243.82869413 829.61757007 -243.82869413 829.61757007 -244.31720829 831.08524799 C-245.70055155 835.22037306 -247.10583151 839.33951309 -248.63375854 843.42367554 C-248.87657783 844.07583133 -249.11939711 844.72798712 -249.36957455 845.3999052 C-249.99567 847.06154632 -250.63735301 848.71729266 -251.28062439 850.37236023 C-252.02698864 853.09858054 -251.98934829 854.39197425 -251 857 C-221.77946626 837.56559873 -192.61681726 818.07619236 -163.84277344 797.98388672 C-159.06583082 794.65020107 -154.28258299 791.32558616 -149.5 788 C-147.58330348 786.66670958 -145.6666368 785.33337626 -143.75 784 C-132.25000001 776.00000001 -132.25000001 776.00000001 -129.37426758 773.99951172 C-127.46001577 772.66784415 -125.54579046 771.3361385 -123.6315918 770.00439453 C-118.80319568 766.64526025 -113.97432293 763.28681497 -109.14453125 759.9296875 C-107.2004853 758.57817611 -105.25647472 757.22661384 -103.3125 755.875 C-102.35891602 755.21201904 -101.40533203 754.54903809 -100.42285156 753.8659668 C-95.02237673 750.10917494 -89.62986738 746.34133975 -84.24462891 742.56274414 C-75.52634791 736.44595451 -66.76872512 730.39115427 -57.97021484 724.39038086 C-53.38313207 721.26181234 -48.79794101 718.13049769 -44.21484375 714.99609375 C-43.40493988 714.44243134 -42.59503601 713.88876892 -41.7605896 713.31832886 C-36.55847232 709.75930653 -31.36859626 706.18313562 -26.18583679 702.59599304 C-22.71409883 700.19754873 -19.23363814 697.81197224 -15.75146484 695.42871094 C-13.97175107 694.20650185 -12.19581093 692.97878284 -10.42333984 691.74609375 C-7.81506567 689.93378067 -5.19436201 688.14093007 -2.5703125 686.3515625 C-1.78077179 685.79659088 -0.99123108 685.24161926 -0.17776489 684.66983032 C5.25758903 681.00269013 5.25758903 681.00269013 8.76245117 680.98999023 C11.17494163 682.07896711 13.21766279 683.26596983 15.37109375 684.80859375 C16.18594238 685.38601318 17.00079102 685.96343262 17.84033203 686.55834961 C18.69739746 687.17846924 19.55446289 687.79858887 20.4375 688.4375 C21.32550293 689.06986572 22.21350586 689.70223145 23.12841797 690.35375977 C25.75776916 692.22830624 28.37930187 694.11338382 31 696 C32.35743639 696.96964171 33.71544284 697.93848627 35.07421875 698.90625 C37.37750976 700.5473101 39.67823605 702.19183882 41.9765625 703.83984375 C45.42539486 706.30393198 48.89831817 708.73172188 52.375 711.15625 C55.5966369 713.4190664 58.79870457 715.70853743 62 718 C66.71200938 721.3720807 71.43971402 724.71911488 76.19140625 728.03515625 C85.72853888 734.70716976 95.22649647 741.43482712 104.69042969 748.21020508 C109.99907851 752.00738459 115.33315867 755.76812748 120.66821289 759.52807617 C125.85485164 763.18566152 131.02308451 766.86817571 136.18359375 770.5625 C140.23184017 773.4581207 144.30393312 776.31747219 148.38671875 779.1640625 C151.54287383 781.38139118 154.67747532 783.62794757 157.8125 785.875 C163.49369889 789.94436337 169.22001569 793.94257749 174.97265625 797.91015625 C180.12883867 801.4695854 185.25394577 805.07326031 190.3828125 808.671875 C200.56858274 815.81173967 210.80670516 822.87511485 221.06152344 829.9152832 C225.17634359 832.74139053 229.27871841 835.58454821 233.375 838.4375 C241.50428253 844.07571613 249.75478196 849.53334944 258 855 C259.09309053 851.72072842 258.95234409 851.06666515 257.97460938 847.90722656 C257.72199341 847.07613876 257.46937744 846.24505096 257.20910645 845.38877869 C256.780755 844.02844261 256.780755 844.02844261 256.34375 842.640625 C255.9042804 841.20977318 255.9042804 841.20977318 255.45593262 839.75001526 C254.4795755 836.580498 253.49014976 833.41523334 252.5 830.25 C251.80552374 828.01015415 251.11152042 825.77016161 250.41796875 823.5300293 C248.29334492 816.68205532 246.14876491 809.84043098 244 803 C243.69239746 802.01896301 243.38479492 801.03792603 243.06787109 800.02716064 C234.80193787 773.67008465 226.20089163 747.42420158 217.5625 721.1875 C205.3569801 684.1166427 193.31502317 647.00316976 181.875 609.6875 C181.56812256 608.68745941 181.26124512 607.68741882 180.94506836 606.65707397 C179.22294332 601.03698874 177.51991383 595.41161171 175.83679199 589.77972412 C174.96066696 586.8693403 174.06461554 583.9654571 173.16894531 581.06103516 C172.59355853 579.15162087 172.01898421 577.24196152 171.4453125 575.33203125 C171.16879852 574.45125412 170.89228455 573.57047699 170.60739136 572.66300964 C170.36586334 571.84584976 170.12433533 571.02868988 169.87548828 570.18676758 C169.65740509 569.47232986 169.4393219 568.75789215 169.21463013 568.02180481 C168.93814422 565.41732169 169.61881958 564.18772405 171 562 C172.59375 560.55883789 172.59375 560.55883789 174.5 559.22265625 C175.21244873 558.71629639 175.92489746 558.20993652 176.65893555 557.68823242 C177.81776245 556.88349487 177.81776245 556.88349487 179 556.0625 C180.65254898 554.89351923 182.30488718 553.72424046 183.95703125 552.5546875 C184.80088379 551.96139648 185.64473633 551.36810547 186.51416016 550.75683594 C189.53999313 548.61836667 192.53568981 546.44052929 195.5300293 544.25830078 C205.92003589 536.69359529 216.47475232 529.36956893 227.04003906 522.05273438 C229.96494773 520.02430877 232.8855831 517.98989288 235.8046875 515.953125 C247.94885617 507.48131016 260.14995819 499.09815902 272.39501953 490.77294922 C276.4974462 487.9808384 280.59277714 485.17839174 284.6875 482.375 C285.45779541 481.84769287 286.22809082 481.32038574 287.02172852 480.77709961 C288.56789936 479.71862853 290.11404201 478.66011626 291.66015625 477.6015625 C294.05423424 475.96287806 296.44890654 474.32506552 298.84375 472.6875 C302.82050168 469.968186 306.79641246 467.24764782 310.77148438 464.52587891 C312.20232688 463.54617189 313.63330478 462.56666255 315.06445312 461.58740234 C325.56890836 454.39728384 336.00597436 447.11348499 346.42675781 439.80273438 C348.9773035 438.01590047 351.53106421 436.23376445 354.0859375 434.453125 C364.38849098 427.26863306 374.61484096 419.98934104 384.77783203 412.60888672 C387.02271644 410.98355292 389.27398384 409.36746511 391.52734375 407.75390625 C399.80961475 401.81624546 407.9912567 395.77436753 416.06054688 389.54980469 C421.0303114 385.71982946 426.06834499 382.01406803 431.19140625 378.390625 C431.78824219 377.93171875 432.38507812 377.4728125 433 377 C433 376.67 433 376.34 433 376 C424.65314645 375.94849724 416.34064295 376.01510828 407.99928284 376.34939575 C387.71917588 377.16153384 367.44253735 377.15333995 347.14916992 377.13037109 C342.14789543 377.12477011 337.14667538 377.12800023 332.14540291 377.13382244 C309.86995164 377.15556226 287.61065177 376.95071217 265.33984375 376.49609375 C234.32109555 375.8670213 203.30875086 375.88068998 172.28525919 375.92797327 C164.58896101 375.9394852 156.89266152 375.9447307 149.19635677 375.94967639 C133.46422781 375.95991483 117.73211626 375.97730483 102 376 C101.80893771 375.21809359 101.61787542 374.43618717 101.42102337 373.63058662 C100.0181585 367.94462662 98.56633102 362.31412958 96.80200195 356.72998047 C96.60257555 356.09542466 96.40314915 355.46086885 96.19767952 354.80708408 C95.54793948 352.74269735 94.89318437 350.67994149 94.23828125 348.6171875 C93.77071038 347.1354321 93.30343783 345.65358254 92.83644104 344.17164612 C91.59110346 340.22317047 90.34122013 336.27614865 89.09017181 332.32947922 C88.04226301 329.02208099 86.99673482 325.7139321 85.95114899 322.40579891 C82.86587936 312.64485656 79.77234467 302.88654797 76.67562103 293.12923431 C75.68039998 289.99277362 74.68622927 286.85598005 73.69189453 283.71923828 C58.59352526 236.11758289 43.31475517 188.54315841 26.63970947 141.4671936 C24.46765658 135.33485426 22.31900021 129.19461368 20.1796875 123.05078125 C19.54551868 121.23111033 18.91132303 119.41144877 18.27709961 117.59179688 C17.37589145 115.00598027 16.47492422 112.42008255 15.57522583 109.83374023 C11.86189343 99.16549494 8.01526351 88.55845533 4 78 C3.67 78 3.34 78 3 78 Z " fill="#FDFDFD" transform="translate(592,109)"/>
<path d="" fill="#0E224B" transform="translate(0,0)"/>
<path d="" fill="#0E224B" transform="translate(0,0)"/>
<path d="" fill="#0E224B" transform="translate(0,0)"/>
</svg>
