<?xml version="1.0" encoding="UTF-8"?>
<!DOCTYPE svg PUBLIC "-//W3C//DTD SVG 1.1//EN" "http://www.w3.org/Graphics/SVG/1.1/DTD/svg11.dtd">
<svg xmlns="http://www.w3.org/2000/svg" version="1.1" width="2400px" height="2000px" style="shape-rendering:geometricPrecision; text-rendering:geometricPrecision; image-rendering:optimizeQuality; fill-rule:evenodd; clip-rule:evenodd" xmlns:xlink="http://www.w3.org/1999/xlink">
<g><path style="opacity:0.991" fill="#fefefe" d="M 1670.5,1668.5 C 1651.52,1644.67 1631.18,1621.84 1609.5,1600C 1602.65,1593.74 1594.99,1588.74 1586.5,1585C 1582.41,1583.77 1578.91,1584.61 1576,1587.5C 1572.88,1593.54 1570.54,1599.87 1569,1606.5C 1562.96,1639.56 1559.29,1672.9 1558,1706.5C 1556.63,1736.51 1555.3,1766.51 1554,1796.5C 1532.91,1745.99 1509.91,1696.33 1485,1647.5C 1476.36,1630.38 1465.86,1614.55 1453.5,1600C 1448.42,1595.8 1443.09,1595.47 1437.5,1599C 1429.94,1605.56 1423.44,1613.06 1418,1621.5C 1397.19,1659.27 1379.85,1698.6 1366,1739.5C 1357.61,1709.01 1347.61,1679.01 1336,1649.5C 1331.35,1638.85 1325.68,1628.85 1319,1619.5C 1315.45,1614.98 1310.95,1612.48 1305.5,1612C 1297.71,1617.46 1290.87,1623.96 1285,1631.5C 1256.07,1674.34 1229.4,1718.67 1205,1764.5C 1187,1799.17 1169,1833.83 1151,1868.5C 1152.14,1796.84 1152.47,1725.18 1152,1653.5C 1151.8,1632.42 1150.47,1611.42 1148,1590.5C 1147.4,1584.04 1145.24,1578.2 1141.5,1573C 1135.64,1572.05 1129.97,1572.71 1124.5,1575C 1104.52,1584.66 1085.86,1596.32 1068.5,1610C 1054.02,1621.64 1039.69,1633.48 1025.5,1645.5C 1025.17,1645 1024.83,1644.5 1024.5,1644C 1033.16,1604.8 1036.66,1565.3 1035,1525.5C 1034.35,1515.89 1031.68,1506.89 1027,1498.5C 1025.27,1496.38 1023.1,1494.88 1020.5,1494C 1007.14,1493.17 994.469,1495.84 982.5,1502C 944.483,1520.72 909.149,1543.39 876.5,1570C 857,1586.17 837.5,1602.33 818,1618.5C 841.361,1574.11 864.028,1529.11 886,1483.5C 889.61,1475.28 892.943,1466.95 896,1458.5C 897.108,1454.91 897.608,1451.25 897.5,1447.5C 748.169,1454.61 605.169,1427.44 468.5,1366C 416.856,1365.34 365.856,1359.34 315.5,1348C 236.094,1326.91 173.594,1282.41 128,1214.5C 115.94,1194.38 106.607,1173.04 100,1150.5C 96.1095,1134.47 101.276,1122.63 115.5,1115C 126.987,1110.94 137.987,1111.94 148.5,1118C 167.927,1140.56 192.261,1155.22 221.5,1162C 268.192,1169.01 313.525,1181.01 357.5,1198C 367.533,1202.43 377.367,1207.27 387,1212.5C 398.231,1204.53 410.731,1199.7 424.5,1198C 459.829,1198.79 495.162,1199.46 530.5,1200C 537.286,1199.78 543.953,1198.78 550.5,1197C 560.5,1192.33 570.5,1187.67 580.5,1183C 597.902,1180.72 608.402,1188.22 612,1205.5C 612.231,1236.87 602.398,1264.71 582.5,1289C 626.409,1291.13 669.076,1284.79 710.5,1270C 722.062,1264.45 731.895,1256.62 740,1246.5C 751.849,1231.81 760.849,1215.47 767,1197.5C 770.51,1188.35 767.676,1182.18 758.5,1179C 748.707,1175.57 738.707,1172.91 728.5,1171C 700.599,1166.25 672.599,1162.25 644.5,1159C 675.404,1132.76 703.57,1103.93 729,1072.5C 734.481,1064.88 738.314,1056.54 740.5,1047.5C 740.635,1045.19 739.969,1043.19 738.5,1041.5C 732.498,1036.34 725.832,1032.18 718.5,1029C 683.288,1015.26 647.288,1003.93 610.5,995C 571.589,985.189 532.589,975.855 493.5,967C 555.172,950.888 616.505,933.554 677.5,915C 703.525,907.103 728.858,897.437 753.5,886C 756,884.167 758.5,882.333 761,880.5C 761.706,878.029 761.373,875.695 760,873.5C 751.319,864.145 741.486,856.312 730.5,850C 696.194,830.347 661.194,812.014 625.5,795C 650.123,796.817 674.79,798.484 699.5,800C 719.833,800.667 740.167,800.667 760.5,800C 767.996,799.528 775.33,798.195 782.5,796C 787.084,794.778 789.25,791.944 789,787.5C 783.286,778.779 776.452,770.946 768.5,764C 729.546,734.051 689.212,706.051 647.5,680C 613.096,658.603 578.43,637.603 543.5,617C 604.931,627.515 666.598,636.849 728.5,645C 763.013,649.835 797.68,652.168 832.5,652C 836.988,652.391 840.321,650.725 842.5,647C 840.614,640.394 837.78,634.228 834,628.5C 816.354,605.178 796.854,583.344 775.5,563C 796.015,567.96 816.682,572.627 837.5,577C 857.304,581.181 877.304,582.847 897.5,582C 905.905,581.881 912.738,578.714 918,572.5C 918.934,563.381 918.267,554.381 916,545.5C 905.277,505.331 890.611,466.664 872,429.5C 848.976,382.447 824.143,336.447 797.5,291.5C 797.833,291.167 798.167,290.833 798.5,290.5C 858.61,335.058 919.943,377.891 982.5,419C 1002.07,431.536 1022.4,442.869 1043.5,453C 1048.6,455.483 1053.93,456.483 1059.5,456C 1061,454.509 1061.84,452.676 1062,450.5C 1062.64,437.317 1061.31,424.317 1058,411.5C 1051.44,383.171 1043.28,355.337 1033.5,328C 1034.17,327.333 1034.83,327.333 1035.5,328C 1060.46,353.608 1087.46,376.608 1116.5,397C 1123.34,401.418 1130.67,404.752 1138.5,407C 1142.51,408.098 1146.01,407.265 1149,404.5C 1153.91,395.775 1157.24,386.441 1159,376.5C 1165.11,342.084 1169.11,307.417 1171,272.5C 1172.85,239.839 1174.51,207.173 1176,174.5C 1196.7,223.237 1219.7,270.904 1245,317.5C 1253.25,332.339 1262.25,346.672 1272,360.5C 1277.76,368.265 1284.26,375.431 1291.5,382C 1298.34,388.311 1305.67,388.978 1313.5,384C 1324.27,373.644 1332.44,361.478 1338,347.5C 1349.99,315.885 1359.32,283.552 1366,250.5C 1374.72,288.978 1386.05,326.644 1400,363.5C 1403.3,372.107 1407.64,380.107 1413,387.5C 1415.55,391.36 1419.05,392.86 1423.5,392C 1426.96,389.537 1430.13,386.704 1433,383.5C 1448.44,360.299 1462.11,335.966 1474,310.5C 1502.26,250.985 1528.59,190.652 1553,129.5C 1553.22,167.738 1552.72,205.904 1551.5,244C 1551.82,276.463 1552.32,309.963 1553,344.5C 1553.23,361.321 1554.9,377.988 1558,394.5C 1558.76,397.196 1559.93,399.696 1561.5,402C 1564.17,402.667 1566.83,402.667 1569.5,402C 1582.93,395.233 1595.26,386.899 1606.5,377C 1645,342.162 1681.5,305.329 1716,266.5C 1716.72,265.549 1717.55,265.383 1718.5,266C 1697.37,315.037 1679.21,365.204 1664,416.5C 1660.74,428.645 1658.57,440.978 1657.5,453.5C 1657.08,464.914 1662.58,469.914 1674,468.5C 1690.4,467.109 1706.23,463.275 1721.5,457C 1751.54,445.482 1780.88,432.316 1809.5,417.5C 1809.83,417.833 1810.17,418.167 1810.5,418.5C 1798.09,442.238 1790.42,467.405 1787.5,494C 1787.67,496.5 1787.83,499 1788,501.5C 1788.52,502.516 1789.35,503.182 1790.5,503.5C 1859.9,492.598 1929.23,493.098 1998.5,505C 2020.48,508.788 2042.32,513.288 2064,518.5C 2095.12,508.128 2126.62,498.962 2158.5,491C 2190.18,482.785 2221.51,483.785 2252.5,494C 2288.03,508.861 2303.2,535.361 2298,573.5C 2293.64,587.068 2286.14,598.568 2275.5,608C 2239.55,636.277 2202.22,662.611 2163.5,687C 2118.16,717.992 2074.83,751.658 2033.5,788C 2018.19,801.969 2004.36,817.136 1992,833.5C 1981.13,847.906 1973.46,863.906 1969,881.5C 1967.66,890.157 1968.66,898.49 1972,906.5C 1980.39,914.45 1990.23,919.95 2001.5,923C 2028.06,930.913 2055.06,936.913 2082.5,941C 2130.07,948.1 2177.74,954.1 2225.5,959C 2171.88,971.431 2118.88,986.097 2066.5,1003C 2045.18,1010.11 2024.52,1018.77 2004.5,1029C 1999.74,1031.8 1995.24,1034.96 1991,1038.5C 1989.15,1041.65 1989.48,1044.65 1992,1047.5C 2009.41,1063.91 2028.24,1078.41 2048.5,1091C 2072.24,1105.73 2096.24,1120.06 2120.5,1134C 2121.83,1134.67 2121.83,1135.33 2120.5,1136C 2075.6,1140.32 2030.94,1146.32 1986.5,1154C 1974.34,1156.37 1962.34,1159.37 1950.5,1163C 1946.33,1164.58 1942.66,1166.92 1939.5,1170C 1942.09,1174.26 1945.09,1178.26 1948.5,1182C 1978.57,1207.53 2010.23,1230.86 2043.5,1252C 2100.69,1287.77 2159.02,1321.77 2218.5,1354C 2160.16,1343.07 2101.82,1331.73 2043.5,1320C 2000.82,1311.9 1957.82,1306.24 1914.5,1303C 1903.7,1301.93 1893.03,1302.6 1882.5,1305C 1880.95,1307.22 1879.95,1309.72 1879.5,1312.5C 1883.2,1329.91 1889.7,1346.24 1899,1361.5C 1914.78,1388.74 1932.78,1414.41 1953,1438.5C 1954.29,1440.05 1954.96,1441.72 1955,1443.5C 1905.93,1429.29 1855.93,1419.95 1805,1415.5C 1796.81,1415.33 1788.98,1416.83 1781.5,1420C 1779.26,1421.99 1778.26,1424.49 1778.5,1427.5C 1780.41,1439.82 1783.58,1451.82 1788,1463.5C 1795.28,1482 1802.94,1500.33 1811,1518.5C 1841.83,1584.49 1874.5,1649.49 1909,1713.5C 1909.67,1714.5 1909.67,1715.5 1909,1716.5C 1842.51,1658 1773.67,1602.5 1702.5,1550C 1695.5,1545.67 1688.5,1541.33 1681.5,1537C 1676.94,1534.87 1672.27,1533.04 1667.5,1531.5C 1663.89,1533.36 1661.72,1536.36 1661,1540.5C 1659.54,1547.92 1658.71,1555.42 1658.5,1563C 1660.41,1598.41 1664.41,1633.58 1670.5,1668.5 Z M 1540.5,422.5 C 1538.28,421.797 1536.45,420.464 1535,418.5C 1528.17,404.671 1524.5,390.004 1524,374.5C 1523.57,361.775 1523.07,349.275 1522.5,337C 1523.72,305.199 1525.38,273.365 1527.5,241.5C 1529.76,235.227 1531.92,228.894 1534,222.5C 1533.33,257.846 1532,293.179 1530,328.5C 1528.5,355.379 1530.17,382.046 1535,408.5C 1536.35,413.393 1538.18,418.06 1540.5,422.5 Z M 1258.5,384.5 C 1245.64,370.475 1234.48,355.141 1225,338.5C 1212.87,316.9 1202.37,294.567 1193.5,271.5C 1192.01,267.726 1192.18,264.059 1194,260.5C 1209,305.506 1230.5,346.84 1258.5,384.5 Z M 1398.5,410.5 C 1394.31,407.134 1390.81,403.134 1388,398.5C 1377.57,379.687 1369.4,360.02 1363.5,339.5C 1364.36,336.046 1365.53,332.712 1367,329.5C 1372.56,358.582 1383.06,385.582 1398.5,410.5 Z M 1670.5,341.5 C 1657.42,367.908 1646.58,395.241 1638,423.5C 1633,439.144 1631,455.144 1632,471.5C 1632.53,474.929 1633.37,478.262 1634.5,481.5C 1630.01,478.821 1627.18,474.821 1626,469.5C 1624.09,460.175 1624.09,450.842 1626,441.5C 1631.13,415.621 1638.96,390.621 1649.5,366.5C 1656.1,357.897 1663.1,349.563 1670.5,341.5 Z M 1579.5,496.5 C 1435.05,435.285 1290.38,434.119 1145.5,493C 1012.19,552.311 916.356,648.811 858,782.5C 809.245,903.374 803.245,1026.37 840,1151.5C 844.477,1166.1 849.644,1180.43 855.5,1194.5C 828.683,1215.43 799.85,1233.43 769,1248.5C 768.333,1247.83 768.333,1247.17 769,1246.5C 771.956,1242.21 775.123,1238.21 778.5,1234.5C 803.607,1221.86 826.94,1206.7 848.5,1189C 800.392,1064.43 796.892,938.599 838,811.5C 889.585,668.246 983.752,563.08 1120.5,496C 1247.26,438.787 1377.26,429.787 1510.5,469C 1534.36,476.334 1557.36,485.5 1579.5,496.5 Z M 1648.5,533.5 C 1683.8,519.922 1720.13,509.588 1757.5,502.5C 1755.88,491.036 1756.54,479.703 1759.5,468.5C 1763.49,466.009 1767.49,463.842 1771.5,462C 1764.86,476.392 1761.86,491.558 1762.5,507.5C 1725.97,514.883 1690.3,525.216 1655.5,538.5C 1652.85,537.164 1650.51,535.497 1648.5,533.5 Z M 1581.5,497.5 C 1584.91,498.042 1587.91,499.375 1590.5,501.5C 1587.09,500.958 1584.09,499.625 1581.5,497.5 Z M 2265.5,526.5 C 2272.16,531.854 2276.16,538.521 2277.5,546.5C 2275.86,545.304 2274.19,544.304 2272.5,543.5C 2270.98,537.461 2268.64,531.794 2265.5,526.5 Z M 2269.5,542.5 C 2255.49,541.115 2241.49,541.282 2227.5,543C 2157.24,555.982 2088.9,575.649 2022.5,602C 1923.19,645.973 1828.52,697.64 1738.5,757C 1695.56,786.272 1658.06,821.439 1626,862.5C 1613.25,880.321 1601.25,898.654 1590,917.5C 1563.9,964.711 1537.07,1011.38 1509.5,1057.5C 1504.5,1060.83 1499.5,1064.17 1494.5,1067.5C 1527.07,1013.38 1558.9,958.714 1590,903.5C 1619,853.424 1656.5,810.591 1702.5,775C 1742.29,745.26 1783.96,718.26 1827.5,694C 1828.25,693.329 1828.59,692.496 1828.5,691.5C 1889.13,656.853 1951.46,625.353 2015.5,597C 2080.25,571.417 2146.75,551.917 2215,538.5C 2215.33,538.833 2215.67,539.167 2216,539.5C 2229.32,536.711 2242.82,535.877 2256.5,537C 2261.56,537.399 2265.89,539.232 2269.5,542.5 Z M 2268.5,563.5 C 2272.57,563.973 2274.57,566.306 2274.5,570.5C 2273.42,576.58 2271.25,582.247 2268,587.5C 2242.42,611.87 2214.25,632.704 2183.5,650C 2121.23,690.154 2062.56,735.154 2007.5,785C 1949.76,839.949 1891.93,894.782 1834,949.5C 1811.11,1023.83 1781.78,1095.5 1746,1164.5C 1724.04,1202.14 1696.54,1235.31 1663.5,1264C 1656.04,1270.12 1648.04,1275.45 1639.5,1280C 1632.96,1283.84 1626.96,1283.34 1621.5,1278.5C 1627.19,1278.33 1632.52,1276.83 1637.5,1274C 1669.67,1251.17 1697.17,1223.67 1720,1191.5C 1734.69,1170.81 1747.35,1148.81 1758,1125.5C 1785.95,1066.92 1809.45,1006.59 1828.5,944.5C 1886.83,889.333 1945.17,834.167 2003.5,779C 2068.66,721.165 2138.32,669.499 2212.5,624C 2222.83,616.333 2233.17,608.667 2243.5,601C 2250.67,595.167 2257.17,588.667 2263,581.5C 2266.76,576.063 2268.59,570.063 2268.5,563.5 Z M 633.5,649.5 C 634.5,649.5 635.5,649.5 636.5,649.5C 637.29,650.401 638.29,651.068 639.5,651.5C 637.316,652.108 635.316,651.441 633.5,649.5 Z M 720.5,820.5 C 722.819,820.992 724.819,821.992 726.5,823.5C 723.414,823.31 721.414,822.31 720.5,820.5 Z M 1950.5,919.5 C 1945.39,916.196 1941.89,911.529 1940,905.5C 1939.5,897.507 1939.33,889.507 1939.5,881.5C 1943.08,878.426 1946.58,875.093 1950,871.5C 1947.41,881.065 1945.91,890.898 1945.5,901C 1945.53,907.64 1947.2,913.807 1950.5,919.5 Z M 1074.5,925.5 C 1053.59,917.654 1031.92,913.988 1009.5,914.5C 992.143,915.121 974.81,916.121 957.5,917.5C 953.5,917.333 949.5,917.167 945.5,917C 942.316,916.246 939.649,914.746 937.5,912.5C 941.24,912.723 944.74,913.056 948,913.5C 975.172,909.562 1002.01,908.728 1028.5,911C 1041.98,912.492 1054.98,915.825 1067.5,921C 1070.24,922.026 1072.57,923.526 1074.5,925.5 Z M 583.5,963.5 C 616.93,970.356 650.263,978.189 683.5,987C 701.331,991.66 718.331,998.16 734.5,1006.5C 713.282,998.373 691.616,991.539 669.5,986C 638.179,978.869 606.846,971.869 575.5,965C 578.168,964.433 580.834,963.933 583.5,963.5 Z M 2100.5,963.5 C 2107.22,963.626 2113.89,964.293 2120.5,965.5C 2071.04,975.261 2024.38,992.428 1980.5,1017C 1971.75,1022.41 1964.25,1029.25 1958,1037.5C 1954.95,1042.44 1954.78,1047.44 1957.5,1052.5C 1950.39,1048.28 1947.89,1042.28 1950,1034.5C 1956.87,1024.3 1965.71,1016.13 1976.5,1010C 2015.55,988.482 2056.89,972.982 2100.5,963.5 Z M 1638.5,1105.5 C 1637.7,1108.43 1637.37,1111.43 1637.5,1114.5C 1526.26,1196.49 1407.26,1266.33 1280.5,1324C 1261.56,1340.6 1241.23,1355.27 1219.5,1368C 1211.04,1372.49 1202.21,1375.99 1193,1378.5C 1189.75,1378.38 1187.25,1377.04 1185.5,1374.5C 1199.22,1371.47 1211.89,1365.97 1223.5,1358C 1241.35,1346.49 1258.35,1333.82 1274.5,1320C 1403.86,1260.87 1525.19,1189.37 1638.5,1105.5 Z M 2048.5,1116.5 C 2050.94,1118.23 2053.61,1119.73 2056.5,1121C 2021.32,1122.98 1986.65,1128.31 1952.5,1137C 1939.05,1140.37 1926.71,1146.03 1915.5,1154C 1909.53,1158.43 1907.37,1164.26 1909,1171.5C 1910.66,1175.3 1912.49,1178.97 1914.5,1182.5C 1906.09,1176.26 1901.92,1167.93 1902,1157.5C 1903.74,1153.76 1906.24,1150.59 1909.5,1148C 1922.73,1139.48 1937.06,1133.48 1952.5,1130C 1984.14,1122.55 2016.14,1118.05 2048.5,1116.5 Z M 692.5,1142.5 C 713.267,1143.68 733.933,1145.84 754.5,1149C 760.958,1150.2 767.291,1151.86 773.5,1154C 775.093,1154.95 776.426,1156.12 777.5,1157.5C 768.329,1154.97 758.996,1153.13 749.5,1152C 728.858,1149.67 708.192,1147.67 687.5,1146C 689.346,1144.97 691.013,1143.8 692.5,1142.5 Z M 1914.5,1182.5 C 1916.26,1183.26 1917.26,1184.6 1917.5,1186.5C 1915.74,1185.74 1914.74,1184.4 1914.5,1182.5 Z M 587.5,1202.5 C 589.752,1202.92 591.252,1204.25 592,1206.5C 593.189,1218.56 591.522,1230.23 587,1241.5C 579.593,1259.33 569.426,1275.33 556.5,1289.5C 539.839,1290.91 523.505,1289.07 507.5,1284C 487.738,1278.14 468.738,1270.64 450.5,1261.5C 471.144,1270.49 492.477,1277.49 514.5,1282.5C 515.347,1283.97 516.68,1284.8 518.5,1285C 528.783,1287.09 539.116,1287.59 549.5,1286.5C 565.945,1268.96 577.778,1248.62 585,1225.5C 586.725,1217.93 587.558,1210.26 587.5,1202.5 Z M 1218.5,1250.5 C 1217.64,1252.42 1216.97,1254.42 1216.5,1256.5C 1215.73,1257.17 1215.07,1258.01 1214.5,1259C 1135.36,1299.4 1053.03,1331.73 967.5,1356C 865.547,1384.5 762.881,1392.5 659.5,1380C 634.532,1376.71 610.198,1371.21 586.5,1363.5C 668.601,1383.57 751.601,1388.07 835.5,1377C 904.951,1368.05 972.618,1351.72 1038.5,1328C 1100.05,1305.76 1160.05,1279.93 1218.5,1250.5 Z M 387.5,1254.5 C 387.672,1255.49 387.338,1256.16 386.5,1256.5C 384.989,1254.16 385.323,1253.5 387.5,1254.5 Z M 439.5,1256.5 C 443.582,1257.38 447.249,1259.04 450.5,1261.5C 446.418,1260.62 442.751,1258.96 439.5,1256.5 Z M 2100.5,1308.5 C 2104.07,1310.29 2107.74,1312.12 2111.5,1314C 2051.55,1299.23 1990.89,1287.9 1929.5,1280C 1912.22,1277.91 1894.88,1277.24 1877.5,1278C 1872.05,1278.36 1866.71,1279.36 1861.5,1281C 1857.06,1283.11 1854.56,1286.61 1854,1291.5C 1853.2,1300.21 1853.54,1308.88 1855,1317.5C 1861.66,1345.47 1873.16,1371.14 1889.5,1394.5C 1886.17,1392 1883.33,1389 1881,1385.5C 1861.92,1358.43 1850.42,1328.43 1846.5,1295.5C 1846.48,1291.1 1846.98,1286.76 1848,1282.5C 1849.5,1279.67 1851.67,1277.5 1854.5,1276C 1863.99,1273.44 1873.65,1272.27 1883.5,1272.5C 1928.27,1274.92 1972.6,1280.75 2016.5,1290C 2044.59,1295.85 2072.59,1302.02 2100.5,1308.5 Z M 312.5,1302.5 C 346.276,1310.49 380.443,1315.83 415,1318.5C 421.785,1317.74 428.618,1317.07 435.5,1316.5C 438.14,1316.95 440.473,1318.12 442.5,1320C 407.087,1321.14 372.087,1317.81 337.5,1310C 328.844,1308.17 320.511,1305.67 312.5,1302.5 Z M 535.5,1350.5 C 547.065,1353.31 558.732,1355.64 570.5,1357.5C 573.433,1358.98 576.433,1360.32 579.5,1361.5C 564.334,1359.38 549.668,1355.71 535.5,1350.5 Z M 1895.5,1402.5 C 1897.54,1403.03 1899.21,1404.2 1900.5,1406C 1875.02,1398.84 1849.02,1393.84 1822.5,1391C 1808.4,1389.94 1794.4,1390.6 1780.5,1393C 1763.63,1396.53 1754.63,1406.86 1753.5,1424C 1756.55,1447.48 1763.05,1469.98 1773,1491.5C 1794.95,1538.07 1818.95,1583.4 1845,1627.5C 1847.81,1632.78 1850.31,1638.11 1852.5,1643.5C 1850.5,1641.83 1848.5,1640.17 1846.5,1638.5C 1828.28,1604.39 1809.78,1570.39 1791,1536.5C 1774.21,1505.45 1760.54,1473.12 1750,1439.5C 1740.01,1406.94 1751.85,1389.11 1785.5,1386C 1823.1,1385.32 1859.76,1390.82 1895.5,1402.5 Z M 1036.5,1475.5 C 1020.74,1471.36 1005.07,1471.86 989.5,1477C 965.328,1484.92 942.994,1496.25 922.5,1511C 904.756,1523.91 887.756,1537.74 871.5,1552.5C 874.308,1545.55 877.642,1538.88 881.5,1532.5C 908.519,1508.36 938.853,1489.19 972.5,1475C 990.068,1468.05 1008.07,1466.39 1026.5,1470C 1030.35,1471.09 1033.68,1472.92 1036.5,1475.5 Z M 1670.5,1504.5 C 1658.53,1498.03 1650.03,1501.03 1645,1513.5C 1640.5,1527.3 1638.67,1541.47 1639.5,1556C 1639.6,1572.66 1640.76,1589.16 1643,1605.5C 1641,1602.67 1638.83,1600 1636.5,1597.5C 1632.45,1573.29 1631.61,1548.96 1634,1524.5C 1634.74,1514.25 1638.58,1505.42 1645.5,1498C 1650.56,1496.22 1655.56,1496.56 1660.5,1499C 1664.06,1500.61 1667.39,1502.44 1670.5,1504.5 Z M 1153.5,1544.5 C 1135.65,1546.28 1118.98,1551.78 1103.5,1561C 1084.61,1571.39 1067.28,1583.89 1051.5,1598.5C 1051.93,1594.18 1052.26,1589.84 1052.5,1585.5C 1076.28,1565.77 1102.94,1550.94 1132.5,1541C 1138.52,1539.13 1144.52,1539.13 1150.5,1541C 1152.06,1541.72 1153.06,1542.89 1153.5,1544.5 Z M 1591.5,1559.5 C 1583.2,1557.18 1574.87,1557.01 1566.5,1559C 1560.01,1562.78 1555.51,1568.28 1553,1575.5C 1548.17,1590.81 1545.17,1606.47 1544,1622.5C 1542.04,1653.8 1540.7,1685.14 1540,1716.5C 1538.09,1711.03 1535.93,1705.69 1533.5,1700.5C 1533.97,1669.79 1535.47,1639.13 1538,1608.5C 1539.39,1595.56 1542.05,1582.89 1546,1570.5C 1550.99,1555.75 1561.16,1549.92 1576.5,1553C 1582.05,1554.11 1587.05,1556.28 1591.5,1559.5 Z M 1454.5,1564.5 C 1446.88,1564.2 1439.55,1566.03 1432.5,1570C 1422.75,1576.42 1414.25,1584.25 1407,1593.5C 1390.36,1615.43 1377.36,1639.43 1368,1665.5C 1366.5,1660.81 1365,1656.14 1363.5,1651.5C 1375.69,1621.63 1393.02,1595.13 1415.5,1572C 1422.98,1565.43 1431.64,1561.26 1441.5,1559.5C 1446.18,1560.34 1450.51,1562.01 1454.5,1564.5 Z M 1316.5,1581.5 C 1310.45,1580 1304.45,1580.17 1298.5,1582C 1288.73,1588.76 1280.23,1596.93 1273,1606.5C 1247.9,1641.67 1225.57,1678.67 1206,1717.5C 1193.79,1741.26 1182.12,1765.26 1171,1789.5C 1170.21,1782.75 1170.37,1776.09 1171.5,1769.5C 1197.06,1712.35 1227.23,1658.02 1262,1606.5C 1266.43,1600.65 1271.09,1594.98 1276,1589.5C 1280.88,1584.95 1286.04,1580.79 1291.5,1577C 1300.74,1574.06 1309.08,1575.56 1316.5,1581.5 Z"/></g>
<g><path style="opacity:0.993" fill="#f58221" d="M 1527.5,241.5 C 1525.38,273.365 1523.72,305.199 1522.5,337C 1523.07,349.275 1523.57,361.775 1524,374.5C 1524.5,390.004 1528.17,404.671 1535,418.5C 1536.45,420.464 1538.28,421.797 1540.5,422.5C 1547.22,430.794 1555.88,433.627 1566.5,431C 1575.94,428.614 1584.6,424.614 1592.5,419C 1612.9,402.939 1631.73,385.106 1649,365.5C 1649.4,365.728 1649.57,366.062 1649.5,366.5C 1638.96,390.621 1631.13,415.621 1626,441.5C 1624.09,450.842 1624.09,460.175 1626,469.5C 1627.18,474.821 1630.01,478.821 1634.5,481.5C 1634.5,482.167 1634.83,482.5 1635.5,482.5C 1642,489.247 1650,493.08 1659.5,494C 1695.17,494.249 1728.5,485.749 1759.5,468.5C 1756.54,479.703 1755.88,491.036 1757.5,502.5C 1720.13,509.588 1683.8,519.922 1648.5,533.5C 1642.5,530.167 1636.5,526.833 1630.5,523.5C 1629.1,522.11 1627.43,521.11 1625.5,520.5C 1625.16,519.662 1624.49,519.328 1623.5,519.5C 1623.5,518.833 1623.17,518.5 1622.5,518.5C 1622.16,517.662 1621.49,517.328 1620.5,517.5C 1620.16,516.662 1619.49,516.328 1618.5,516.5C 1618.16,515.662 1617.49,515.328 1616.5,515.5C 1616.5,514.833 1616.17,514.5 1615.5,514.5C 1615.16,513.662 1614.49,513.328 1613.5,513.5C 1613.16,512.662 1612.49,512.328 1611.5,512.5C 1611.16,511.662 1610.49,511.328 1609.5,511.5C 1609.16,510.662 1608.49,510.328 1607.5,510.5C 1607.16,509.662 1606.49,509.328 1605.5,509.5C 1605.5,508.833 1605.17,508.5 1604.5,508.5C 1604.16,507.662 1603.49,507.328 1602.5,507.5C 1602.16,506.662 1601.49,506.328 1600.5,506.5C 1600.16,505.662 1599.49,505.328 1598.5,505.5C 1598.16,504.662 1597.49,504.328 1596.5,504.5C 1596.16,503.662 1595.49,503.328 1594.5,503.5C 1594.16,502.662 1593.49,502.328 1592.5,502.5C 1592.16,501.662 1591.49,501.328 1590.5,501.5C 1587.91,499.375 1584.91,498.042 1581.5,497.5C 1581.16,496.662 1580.49,496.328 1579.5,496.5C 1557.36,485.5 1534.36,476.334 1510.5,469C 1377.26,429.787 1247.26,438.787 1120.5,496C 983.752,563.08 889.585,668.246 838,811.5C 796.892,938.599 800.392,1064.43 848.5,1189C 826.94,1206.7 803.607,1221.86 778.5,1234.5C 777.427,1233.75 777.26,1232.75 778,1231.5C 788.902,1214.45 793.902,1195.79 793,1175.5C 791.196,1166.53 786.029,1160.53 777.5,1157.5C 776.426,1156.12 775.093,1154.95 773.5,1154C 767.291,1151.86 760.958,1150.2 754.5,1149C 733.933,1145.84 713.267,1143.68 692.5,1142.5C 717.984,1124.52 740.484,1103.19 760,1078.5C 767.533,1068.62 771.699,1057.45 772.5,1045C 772.727,1040.92 771.893,1037.09 770,1033.5C 762.937,1023.91 754.103,1016.57 743.5,1011.5C 743.158,1010.66 742.492,1010.33 741.5,1010.5C 741.5,1009.83 741.167,1009.5 740.5,1009.5C 740.158,1008.66 739.492,1008.33 738.5,1008.5C 738.158,1007.66 737.492,1007.33 736.5,1007.5C 736.158,1006.66 735.492,1006.33 734.5,1006.5C 718.331,998.16 701.331,991.66 683.5,987C 650.263,978.189 616.93,970.356 583.5,963.5C 622.582,954.145 661.582,943.978 700.5,933C 722.152,926.326 743.152,918.326 763.5,909C 795.59,894.213 798.59,874.88 772.5,851C 765.15,845.328 757.483,840.161 749.5,835.5C 749.158,834.662 748.492,834.328 747.5,834.5C 747.158,833.662 746.492,833.328 745.5,833.5C 745.5,832.833 745.167,832.5 744.5,832.5C 744.158,831.662 743.492,831.328 742.5,831.5C 742.158,830.662 741.492,830.328 740.5,830.5C 740.158,829.662 739.492,829.328 738.5,829.5C 738.158,828.662 737.492,828.328 736.5,828.5C 736.158,827.662 735.492,827.328 734.5,827.5C 734.158,826.662 733.492,826.328 732.5,826.5C 732.158,825.662 731.492,825.328 730.5,825.5C 730.158,824.662 729.492,824.328 728.5,824.5C 728.158,823.662 727.492,823.328 726.5,823.5C 724.819,821.992 722.819,820.992 720.5,820.5C 720.917,819.876 721.584,819.543 722.5,819.5C 745.868,822.229 769.201,822.063 792.5,819C 822.433,810.203 827.599,793.703 808,769.5C 785.921,747.402 762.088,727.569 736.5,710C 720.283,698.728 703.616,688.228 686.5,678.5C 685.101,677.11 683.434,676.11 681.5,675.5C 680.101,674.11 678.434,673.11 676.5,672.5C 676.158,671.662 675.492,671.328 674.5,671.5C 673.101,670.11 671.434,669.11 669.5,668.5C 669.158,667.662 668.492,667.328 667.5,667.5C 667.5,666.833 667.167,666.5 666.5,666.5C 666.158,665.662 665.492,665.328 664.5,665.5C 664.158,664.662 663.492,664.328 662.5,664.5C 662.158,663.662 661.492,663.328 660.5,663.5C 660.158,662.662 659.492,662.328 658.5,662.5C 658.5,661.833 658.167,661.5 657.5,661.5C 657.158,660.662 656.492,660.328 655.5,660.5C 655.158,659.662 654.492,659.328 653.5,659.5C 653.158,658.662 652.492,658.328 651.5,658.5C 651.158,657.662 650.492,657.328 649.5,657.5C 649.158,656.662 648.492,656.328 647.5,656.5C 647.5,655.833 647.167,655.5 646.5,655.5C 646.158,654.662 645.492,654.328 644.5,654.5C 644.158,653.662 643.492,653.328 642.5,653.5C 642.158,652.662 641.492,652.328 640.5,652.5C 640.5,651.833 640.167,651.5 639.5,651.5C 638.29,651.068 637.29,650.401 636.5,649.5C 686.001,660.583 736.001,668.75 786.5,674C 808.21,676.234 829.877,675.901 851.5,673C 864.28,670.273 869.78,662.44 868,649.5C 861.99,629.832 851.49,612.999 836.5,599C 857.293,605.199 878.627,607.532 900.5,606C 916.653,605.336 930.153,599.169 941,587.5C 944.91,580.565 946.743,573.065 946.5,565C 945.131,550.555 942.298,536.389 938,522.5C 917.269,464.038 889.935,409.038 856,357.5C 855.333,356.833 855.333,356.167 856,355.5C 910.25,401.892 969.084,441.726 1032.5,475C 1040.69,478.397 1049.03,481.397 1057.5,484C 1068.16,487.312 1075.99,484.145 1081,474.5C 1084.75,466.241 1086.25,457.575 1085.5,448.5C 1084.81,425.613 1079.64,403.946 1070,383.5C 1085.78,399.782 1102.94,414.282 1121.5,427C 1132.43,433.453 1144.1,435.786 1156.5,434C 1162.59,428.581 1167.09,422.081 1170,414.5C 1178.59,389.201 1184.26,363.201 1187,336.5C 1189.15,314.673 1191.32,293.006 1193.5,271.5C 1202.37,294.567 1212.87,316.9 1225,338.5C 1234.48,355.141 1245.64,370.475 1258.5,384.5C 1258.5,385.167 1258.83,385.5 1259.5,385.5C 1259.5,386.167 1259.83,386.5 1260.5,386.5C 1260.5,387.167 1260.83,387.5 1261.5,387.5C 1261.5,388.167 1261.83,388.5 1262.5,388.5C 1262.5,389.167 1262.83,389.5 1263.5,389.5C 1263.5,390.167 1263.83,390.5 1264.5,390.5C 1264.5,391.167 1264.83,391.5 1265.5,391.5C 1296.05,424.106 1323.22,421.439 1347,383.5C 1353.8,369.25 1359.3,354.583 1363.5,339.5C 1369.4,360.02 1377.57,379.687 1388,398.5C 1390.81,403.134 1394.31,407.134 1398.5,410.5C 1398.5,411.167 1398.83,411.5 1399.5,411.5C 1399.5,412.167 1399.83,412.5 1400.5,412.5C 1404.09,416.576 1408.42,419.743 1413.5,422C 1420.46,424.038 1426.8,422.704 1432.5,418C 1444.91,405.93 1455.41,392.43 1464,377.5C 1471.14,363.743 1478.48,350.077 1486,336.5C 1500.44,304.968 1514.27,273.301 1527.5,241.5 Z M 1398.5,410.5 C 1394.31,407.134 1390.81,403.134 1388,398.5C 1377.57,379.687 1369.4,360.02 1363.5,339.5C 1364.36,336.046 1365.53,332.712 1367,329.5C 1372.56,358.582 1383.06,385.582 1398.5,410.5 Z M 1581.5,497.5 C 1584.91,498.042 1587.91,499.375 1590.5,501.5C 1587.09,500.958 1584.09,499.625 1581.5,497.5 Z"/></g>
<g><path style="opacity:1" fill="#008d97" d="M 2263.5,524.5 C 2263.5,525.167 2263.83,525.5 2264.5,525.5C 2264.5,526.167 2264.83,526.5 2265.5,526.5C 2268.64,531.794 2270.98,537.461 2272.5,543.5C 2271.83,543.5 2271.17,543.5 2270.5,543.5C 2270.5,542.833 2270.17,542.5 2269.5,542.5C 2265.89,539.232 2261.56,537.399 2256.5,537C 2242.82,535.877 2229.32,536.711 2216,539.5C 2215.67,539.167 2215.33,538.833 2215,538.5C 2146.75,551.917 2080.25,571.417 2015.5,597C 1951.46,625.353 1889.13,656.853 1828.5,691.5C 1825.51,690.968 1822.51,691.468 1819.5,693C 1755.29,719.253 1695.63,752.92 1640.5,794C 1610.55,820.598 1585.05,850.764 1564,884.5C 1533.67,936.5 1503.33,988.5 1473,1040.5C 1415.1,1131.28 1347.27,1214.45 1269.5,1290C 1245.99,1311.52 1221.33,1331.52 1195.5,1350C 1191.63,1352.6 1187.63,1354.6 1183.5,1356C 1186.13,1348.45 1188.96,1340.95 1192,1333.5C 1205.13,1307.07 1217.3,1280.23 1228.5,1253C 1224.61,1254.36 1220.78,1256.19 1217,1258.5C 1216.54,1257.91 1216.37,1257.24 1216.5,1256.5C 1216.97,1254.42 1217.64,1252.42 1218.5,1250.5C 1233.76,1214.09 1245.09,1176.75 1252.5,1138.5C 1253.47,1137.69 1254.3,1136.69 1255,1135.5C 1261.07,1112.98 1266.07,1090.32 1270,1067.5C 1269.59,1067.04 1269.09,1066.71 1268.5,1066.5C 1170.02,1152.04 1061.69,1223.21 943.5,1280C 858.249,1316.82 769.582,1341.82 677.5,1355C 659.698,1357 642.031,1358.83 624.5,1360.5C 606.46,1360.05 588.46,1359.05 570.5,1357.5C 558.732,1355.64 547.065,1353.31 535.5,1350.5C 534.791,1349.6 533.791,1349.26 532.5,1349.5C 531.791,1348.6 530.791,1348.26 529.5,1348.5C 528.791,1347.6 527.791,1347.26 526.5,1347.5C 525.791,1346.6 524.791,1346.26 523.5,1346.5C 523.5,1345.83 523.167,1345.5 522.5,1345.5C 522.158,1344.66 521.492,1344.33 520.5,1344.5C 520.167,1344.5 519.833,1344.5 519.5,1344.5C 519.158,1343.66 518.492,1343.33 517.5,1343.5C 517.167,1343.5 516.833,1343.5 516.5,1343.5C 516.158,1342.66 515.492,1342.33 514.5,1342.5C 514.158,1341.66 513.492,1341.33 512.5,1341.5C 512.167,1341.5 511.833,1341.5 511.5,1341.5C 472.355,1325.92 438.689,1302.42 410.5,1271C 404.208,1266.38 398.208,1261.38 392.5,1256C 390.975,1254.99 389.308,1254.49 387.5,1254.5C 385.323,1253.5 384.989,1254.16 386.5,1256.5C 386.833,1257.5 387.5,1258.17 388.5,1258.5C 388.5,1259.17 388.833,1259.5 389.5,1259.5C 389.5,1259.83 389.5,1260.17 389.5,1260.5C 389.833,1261.5 390.5,1262.17 391.5,1262.5C 391.5,1263.17 391.833,1263.5 392.5,1263.5C 392.5,1263.83 392.5,1264.17 392.5,1264.5C 392.833,1265.5 393.5,1266.17 394.5,1266.5C 394.5,1267.17 394.833,1267.5 395.5,1267.5C 395.5,1267.83 395.5,1268.17 395.5,1268.5C 396.512,1269.87 397.512,1271.2 398.5,1272.5C 410.273,1287.77 423.273,1301.94 437.5,1315C 436.584,1315.28 435.918,1315.78 435.5,1316.5C 428.618,1317.07 421.785,1317.74 415,1318.5C 380.443,1315.83 346.276,1310.49 312.5,1302.5C 311.791,1301.6 310.791,1301.26 309.5,1301.5C 309.5,1300.83 309.167,1300.5 308.5,1300.5C 307.791,1299.6 306.791,1299.26 305.5,1299.5C 304.791,1298.6 303.791,1298.26 302.5,1298.5C 301.791,1297.6 300.791,1297.26 299.5,1297.5C 299.167,1297.5 298.833,1297.5 298.5,1297.5C 298.158,1296.66 297.492,1296.33 296.5,1296.5C 295.791,1295.6 294.791,1295.26 293.5,1295.5C 293.158,1294.66 292.492,1294.33 291.5,1294.5C 291.167,1294.5 290.833,1294.5 290.5,1294.5C 290.158,1293.66 289.492,1293.33 288.5,1293.5C 288.167,1293.5 287.833,1293.5 287.5,1293.5C 286.486,1292.33 285.153,1291.66 283.5,1291.5C 283.167,1291.5 282.833,1291.5 282.5,1291.5C 216.065,1263.24 166.899,1216.57 135,1151.5C 131.962,1145.1 129.795,1138.43 128.5,1131.5C 133.996,1131.34 137.996,1133.67 140.5,1138.5C 140.5,1139.17 140.833,1139.5 141.5,1139.5C 157.973,1155.45 176.973,1167.61 198.5,1176C 232.987,1182.9 267.32,1190.56 301.5,1199C 327.818,1206.66 353.151,1216.66 377.5,1229C 399.333,1243.42 421.666,1257.09 444.5,1270C 520.028,1309.52 599.362,1319.19 682.5,1299C 733.086,1287.48 780.419,1268.14 824.5,1241C 850.672,1223.83 876.006,1205.49 900.5,1186C 974.441,1122.4 1044.94,1054.9 1112,983.5C 1109.88,967.265 1103.88,952.599 1094,939.5C 1089.24,934.902 1084.08,930.902 1078.5,927.5C 1078.16,926.662 1077.49,926.328 1076.5,926.5C 1076.16,925.662 1075.49,925.328 1074.5,925.5C 1072.57,923.526 1070.24,922.026 1067.5,921C 1054.98,915.825 1041.98,912.492 1028.5,911C 1002.01,908.728 975.172,909.562 948,913.5C 944.74,913.056 941.24,912.723 937.5,912.5C 934.697,909.796 933.863,906.463 935,902.5C 941.493,887.334 951.659,875.167 965.5,866C 973.917,860.124 982.917,855.291 992.5,851.5C 1020.41,842.344 1049.07,836.844 1078.5,835C 1093.65,833.982 1108.81,833.482 1124,833.5C 1150.17,834.22 1176.33,834.387 1202.5,834C 1220.65,832.637 1238.31,828.971 1255.5,823C 1265.17,812.997 1275.17,803.331 1285.5,794C 1285.27,793.601 1284.94,793.435 1284.5,793.5C 1291.73,791.018 1299.06,788.518 1306.5,786C 1385.77,713.696 1472.43,651.696 1566.5,600C 1642.45,559.349 1723.12,532.682 1808.5,520C 1894.87,510.208 1980.03,516.375 2064,538.5C 2094.69,528.787 2125.52,519.62 2156.5,511C 2183.03,503.298 2209.7,502.632 2236.5,509C 2247.12,511.636 2256.12,516.803 2263.5,524.5 Z M 692.5,1142.5 C 713.267,1143.68 733.933,1145.84 754.5,1149C 760.958,1150.2 767.291,1151.86 773.5,1154C 775.093,1154.95 776.426,1156.12 777.5,1157.5C 768.329,1154.97 758.996,1153.13 749.5,1152C 728.858,1149.67 708.192,1147.67 687.5,1146C 689.346,1144.97 691.013,1143.8 692.5,1142.5 Z M 587.5,1202.5 C 589.752,1202.92 591.252,1204.25 592,1206.5C 593.189,1218.56 591.522,1230.23 587,1241.5C 579.593,1259.33 569.426,1275.33 556.5,1289.5C 539.839,1290.91 523.505,1289.07 507.5,1284C 487.738,1278.14 468.738,1270.64 450.5,1261.5C 471.144,1270.49 492.477,1277.49 514.5,1282.5C 515.347,1283.97 516.68,1284.8 518.5,1285C 528.783,1287.09 539.116,1287.59 549.5,1286.5C 565.945,1268.96 577.778,1248.62 585,1225.5C 586.725,1217.93 587.558,1210.26 587.5,1202.5 Z M 387.5,1254.5 C 387.672,1255.49 387.338,1256.16 386.5,1256.5C 384.989,1254.16 385.323,1253.5 387.5,1254.5 Z M 439.5,1256.5 C 443.582,1257.38 447.249,1259.04 450.5,1261.5C 446.418,1260.62 442.751,1258.96 439.5,1256.5 Z"/></g>
<g><path style="opacity:1" fill="#005778" d="M 1874.5,606.5 C 1872.97,602.676 1873.3,599.01 1875.5,595.5C 1850.71,592.824 1827.71,597.99 1806.5,611C 1801.34,614.666 1796.34,618.499 1791.5,622.5C 1812.49,593.653 1840.82,576.487 1876.5,571C 1882.47,570.093 1888.47,569.427 1894.5,569C 1919.85,568.836 1945.18,568.169 1970.5,567C 1985.47,566.339 1999.8,563.006 2013.5,557C 2014.94,556.219 2016.28,556.386 2017.5,557.5C 2014.22,560.482 2010.55,562.982 2006.5,565C 1991.88,570.995 1977.21,576.995 1962.5,583C 1933.8,590.466 1905.3,598.633 1877,607.5C 1876.1,607.257 1875.26,606.923 1874.5,606.5 Z"/></g>
<g><path style="opacity:1" fill="#005778" d="M 2268.5,563.5 C 2268.59,570.063 2266.76,576.063 2263,581.5C 2257.17,588.667 2250.67,595.167 2243.5,601C 2233.17,608.667 2222.83,616.333 2212.5,624C 2138.32,669.499 2068.66,721.165 2003.5,779C 1945.17,834.167 1886.83,889.333 1828.5,944.5C 1809.45,1006.59 1785.95,1066.92 1758,1125.5C 1747.35,1148.81 1734.69,1170.81 1720,1191.5C 1697.17,1223.67 1669.67,1251.17 1637.5,1274C 1632.52,1276.83 1627.19,1278.33 1621.5,1278.5C 1619.18,1276.81 1618.18,1274.48 1618.5,1271.5C 1656.09,1239.42 1687.25,1202.09 1712,1159.5C 1742.02,1103.09 1766.35,1044.42 1785,983.5C 1737.44,1025.91 1688.6,1066.58 1638.5,1105.5C 1525.19,1189.37 1403.86,1260.87 1274.5,1320C 1258.35,1333.82 1241.35,1346.49 1223.5,1358C 1211.89,1365.97 1199.22,1371.47 1185.5,1374.5C 1183.58,1371.92 1181.75,1369.26 1180,1366.5C 985.547,1440.46 788.38,1448.63 588.5,1391C 548.291,1379.06 509.291,1364.06 471.5,1346C 414.872,1346.2 359.205,1339.2 304.5,1325C 230.336,1300.85 173.836,1255.01 135,1187.5C 129.423,1175.78 124.423,1163.78 120,1151.5C 118.607,1146.91 118.274,1142.24 119,1137.5C 120.812,1133.39 123.979,1131.39 128.5,1131.5C 129.795,1138.43 131.962,1145.1 135,1151.5C 166.899,1216.57 216.065,1263.24 282.5,1291.5C 282.833,1292.83 283.167,1292.83 283.5,1291.5C 285.153,1291.66 286.486,1292.33 287.5,1293.5C 287.833,1294.83 288.167,1294.83 288.5,1293.5C 289.492,1293.33 290.158,1293.66 290.5,1294.5C 289.817,1295.64 290.151,1295.64 291.5,1294.5C 292.492,1294.33 293.158,1294.66 293.5,1295.5C 294.791,1295.26 295.791,1295.6 296.5,1296.5C 297.492,1296.33 298.158,1296.66 298.5,1297.5C 297.817,1298.64 298.151,1298.64 299.5,1297.5C 300.791,1297.26 301.791,1297.6 302.5,1298.5C 303.791,1298.26 304.791,1298.6 305.5,1299.5C 306.791,1299.26 307.791,1299.6 308.5,1300.5C 306.15,1301.11 306.483,1301.44 309.5,1301.5C 310.209,1302.4 311.209,1302.74 312.5,1302.5C 320.511,1305.67 328.844,1308.17 337.5,1310C 372.087,1317.81 407.087,1321.14 442.5,1320C 440.473,1318.12 438.14,1316.95 435.5,1316.5C 435.918,1315.78 436.584,1315.28 437.5,1315C 423.273,1301.94 410.273,1287.77 398.5,1272.5C 397.512,1271.2 396.512,1269.87 395.5,1268.5C 396.833,1268.17 396.833,1267.83 395.5,1267.5C 394.833,1267.5 394.5,1267.17 394.5,1266.5C 393.5,1266.17 392.833,1265.5 392.5,1264.5C 393.833,1264.17 393.833,1263.83 392.5,1263.5C 391.833,1263.5 391.5,1263.17 391.5,1262.5C 390.5,1262.17 389.833,1261.5 389.5,1260.5C 390.833,1260.17 390.833,1259.83 389.5,1259.5C 388.833,1259.5 388.5,1259.17 388.5,1258.5C 387.5,1258.17 386.833,1257.5 386.5,1256.5C 387.338,1256.16 387.672,1255.49 387.5,1254.5C 389.308,1254.49 390.975,1254.99 392.5,1256C 398.208,1261.38 404.208,1266.38 410.5,1271C 438.689,1302.42 472.355,1325.92 511.5,1341.5C 511.833,1342.83 512.167,1342.83 512.5,1341.5C 513.492,1341.33 514.158,1341.66 514.5,1342.5C 515.492,1342.33 516.158,1342.66 516.5,1343.5C 516.833,1344.83 517.167,1344.83 517.5,1343.5C 518.492,1343.33 519.158,1343.66 519.5,1344.5C 518.817,1345.64 519.151,1345.64 520.5,1344.5C 521.492,1344.33 522.158,1344.66 522.5,1345.5C 521.443,1346.21 521.776,1346.54 523.5,1346.5C 524.209,1347.4 525.209,1347.74 526.5,1347.5C 527.209,1348.4 528.209,1348.74 529.5,1348.5C 530.209,1349.4 531.209,1349.74 532.5,1349.5C 533.209,1350.4 534.209,1350.74 535.5,1350.5C 549.668,1355.71 564.334,1359.38 579.5,1361.5C 579.833,1361.5 580.167,1361.5 580.5,1361.5C 581.209,1362.4 582.209,1362.74 583.5,1362.5C 584.209,1363.4 585.209,1363.74 586.5,1363.5C 610.198,1371.21 634.532,1376.71 659.5,1380C 762.881,1392.5 865.547,1384.5 967.5,1356C 1053.03,1331.73 1135.36,1299.4 1214.5,1259C 1215.07,1258.01 1215.73,1257.17 1216.5,1256.5C 1216.37,1257.24 1216.54,1257.91 1217,1258.5C 1220.78,1256.19 1224.61,1254.36 1228.5,1253C 1217.3,1280.23 1205.13,1307.07 1192,1333.5C 1188.96,1340.95 1186.13,1348.45 1183.5,1356C 1187.63,1354.6 1191.63,1352.6 1195.5,1350C 1221.33,1331.52 1245.99,1311.52 1269.5,1290C 1347.27,1214.45 1415.1,1131.28 1473,1040.5C 1503.33,988.5 1533.67,936.5 1564,884.5C 1585.05,850.764 1610.55,820.598 1640.5,794C 1695.63,752.92 1755.29,719.253 1819.5,693C 1822.51,691.468 1825.51,690.968 1828.5,691.5C 1828.59,692.496 1828.25,693.329 1827.5,694C 1783.96,718.26 1742.29,745.26 1702.5,775C 1656.5,810.591 1619,853.424 1590,903.5C 1558.9,958.714 1527.07,1013.38 1494.5,1067.5C 1499.5,1064.17 1504.5,1060.83 1509.5,1057.5C 1504.34,1065.14 1499.18,1072.8 1494,1080.5C 1493.31,1081.33 1493.48,1082 1494.5,1082.5C 1542.38,1045.05 1589.72,1006.89 1636.5,968C 1716.79,898.526 1797.46,829.526 1878.5,761C 1921.74,726.048 1966.41,693.048 2012.5,662C 2082.97,615.266 2159.63,582.266 2242.5,563C 2247.29,562.071 2252.12,561.571 2257,561.5C 2261.13,561.286 2264.97,561.952 2268.5,563.5 Z M 692.5,1142.5 C 713.267,1143.68 733.933,1145.84 754.5,1149C 760.958,1150.2 767.291,1151.86 773.5,1154C 775.093,1154.95 776.426,1156.12 777.5,1157.5C 768.329,1154.97 758.996,1153.13 749.5,1152C 728.858,1149.67 708.192,1147.67 687.5,1146C 689.346,1144.97 691.013,1143.8 692.5,1142.5 Z M 587.5,1202.5 C 589.752,1202.92 591.252,1204.25 592,1206.5C 593.189,1218.56 591.522,1230.23 587,1241.5C 579.593,1259.33 569.426,1275.33 556.5,1289.5C 539.839,1290.91 523.505,1289.07 507.5,1284C 487.738,1278.14 468.738,1270.64 450.5,1261.5C 471.144,1270.49 492.477,1277.49 514.5,1282.5C 515.347,1283.97 516.68,1284.8 518.5,1285C 528.783,1287.09 539.116,1287.59 549.5,1286.5C 565.945,1268.96 577.778,1248.62 585,1225.5C 586.725,1217.93 587.558,1210.26 587.5,1202.5 Z M 1218.5,1250.5 C 1217.64,1252.42 1216.97,1254.42 1216.5,1256.5C 1215.73,1257.17 1215.07,1258.01 1214.5,1259C 1135.36,1299.4 1053.03,1331.73 967.5,1356C 865.547,1384.5 762.881,1392.5 659.5,1380C 634.532,1376.71 610.198,1371.21 586.5,1363.5C 668.601,1383.57 751.601,1388.07 835.5,1377C 904.951,1368.05 972.618,1351.72 1038.5,1328C 1100.05,1305.76 1160.05,1279.93 1218.5,1250.5 Z M 387.5,1254.5 C 387.672,1255.49 387.338,1256.16 386.5,1256.5C 384.989,1254.16 385.323,1253.5 387.5,1254.5 Z M 439.5,1256.5 C 443.582,1257.38 447.249,1259.04 450.5,1261.5C 446.418,1260.62 442.751,1258.96 439.5,1256.5 Z M 312.5,1302.5 C 346.276,1310.49 380.443,1315.83 415,1318.5C 421.785,1317.74 428.618,1317.07 435.5,1316.5C 438.14,1316.95 440.473,1318.12 442.5,1320C 407.087,1321.14 372.087,1317.81 337.5,1310C 328.844,1308.17 320.511,1305.67 312.5,1302.5 Z M 535.5,1350.5 C 547.065,1353.31 558.732,1355.64 570.5,1357.5C 573.433,1358.98 576.433,1360.32 579.5,1361.5C 564.334,1359.38 549.668,1355.71 535.5,1350.5 Z"/></g>
<g><path style="opacity:0.997" fill="#fbfcfd" d="M 1874.5,606.5 C 1859.09,613.258 1843.42,619.758 1827.5,626C 1810.03,633.563 1793.69,642.896 1778.5,654C 1773.33,657.833 1768.83,662.333 1765,667.5C 1771.75,651.339 1780.58,636.339 1791.5,622.5C 1796.34,618.499 1801.34,614.666 1806.5,611C 1827.71,597.99 1850.71,592.824 1875.5,595.5C 1873.3,599.01 1872.97,602.676 1874.5,606.5 Z"/></g>
<g><path style="opacity:1" fill="#025878" d="M 1284.5,793.5 C 1284.94,793.435 1285.27,793.601 1285.5,794C 1275.17,803.331 1265.17,812.997 1255.5,823C 1238.31,828.971 1220.65,832.637 1202.5,834C 1176.33,834.387 1150.17,834.22 1124,833.5C 1108.81,833.482 1093.65,833.982 1078.5,835C 1049.07,836.844 1020.41,842.344 992.5,851.5C 1007.84,843.671 1023.84,837.171 1040.5,832C 1076.22,822.038 1112.55,815.038 1149.5,811C 1180.87,808.33 1212.2,805.33 1243.5,802C 1257.33,799.868 1270.99,797.035 1284.5,793.5 Z"/></g>
<g><path style="opacity:0.994" fill="#f58221" d="M 1939.5,881.5 C 1939.33,889.507 1939.5,897.507 1940,905.5C 1941.89,911.529 1945.39,916.196 1950.5,919.5C 1958.23,928.026 1967.56,934.526 1978.5,939C 1999.62,946.704 2021.28,952.371 2043.5,956C 2062.61,958.756 2081.61,961.256 2100.5,963.5C 2056.89,972.982 2015.55,988.482 1976.5,1010C 1965.71,1016.13 1956.87,1024.3 1950,1034.5C 1947.89,1042.28 1950.39,1048.28 1957.5,1052.5C 1957.5,1053.17 1957.83,1053.5 1958.5,1053.5C 1958.5,1054.17 1958.83,1054.5 1959.5,1054.5C 1959.5,1055.17 1959.83,1055.5 1960.5,1055.5C 1960.5,1056.17 1960.83,1056.5 1961.5,1056.5C 1961.5,1057.17 1961.83,1057.5 1962.5,1057.5C 1989.08,1080.13 2017.75,1099.8 2048.5,1116.5C 2016.14,1118.05 1984.14,1122.55 1952.5,1130C 1937.06,1133.48 1922.73,1139.48 1909.5,1148C 1906.24,1150.59 1903.74,1153.76 1902,1157.5C 1901.92,1167.93 1906.09,1176.26 1914.5,1182.5C 1914.74,1184.4 1915.74,1185.74 1917.5,1186.5C 1917.5,1187.17 1917.83,1187.5 1918.5,1187.5C 1918.5,1188.17 1918.83,1188.5 1919.5,1188.5C 1919.5,1189.17 1919.83,1189.5 1920.5,1189.5C 1920.5,1190.17 1920.83,1190.5 1921.5,1190.5C 1921.5,1191.17 1921.83,1191.5 1922.5,1191.5C 1922.5,1192.17 1922.83,1192.5 1923.5,1192.5C 1949.57,1215.39 1977.23,1236.23 2006.5,1255C 2037.12,1274.14 2068.45,1291.97 2100.5,1308.5C 2072.59,1302.02 2044.59,1295.85 2016.5,1290C 1972.6,1280.75 1928.27,1274.92 1883.5,1272.5C 1873.65,1272.27 1863.99,1273.44 1854.5,1276C 1851.67,1277.5 1849.5,1279.67 1848,1282.5C 1846.98,1286.76 1846.48,1291.1 1846.5,1295.5C 1850.42,1328.43 1861.92,1358.43 1881,1385.5C 1883.33,1389 1886.17,1392 1889.5,1394.5C 1889.5,1395.17 1889.83,1395.5 1890.5,1395.5C 1890.5,1396.17 1890.83,1396.5 1891.5,1396.5C 1891.5,1397.17 1891.83,1397.5 1892.5,1397.5C 1893.76,1398.98 1894.76,1400.65 1895.5,1402.5C 1859.76,1390.82 1823.1,1385.32 1785.5,1386C 1751.85,1389.11 1740.01,1406.94 1750,1439.5C 1760.54,1473.12 1774.21,1505.45 1791,1536.5C 1809.78,1570.39 1828.28,1604.39 1846.5,1638.5C 1805.74,1601.23 1763.07,1566.4 1718.5,1534C 1707.12,1525.98 1695.45,1518.48 1683.5,1511.5C 1683.16,1510.66 1682.49,1510.33 1681.5,1510.5C 1681.5,1509.83 1681.17,1509.5 1680.5,1509.5C 1680.16,1508.66 1679.49,1508.33 1678.5,1508.5C 1678.16,1507.66 1677.49,1507.33 1676.5,1507.5C 1676.16,1506.66 1675.49,1506.33 1674.5,1506.5C 1674.16,1505.66 1673.49,1505.33 1672.5,1505.5C 1672.16,1504.66 1671.49,1504.33 1670.5,1504.5C 1667.39,1502.44 1664.06,1500.61 1660.5,1499C 1655.56,1496.56 1650.56,1496.22 1645.5,1498C 1638.58,1505.42 1634.74,1514.25 1634,1524.5C 1631.61,1548.96 1632.45,1573.29 1636.5,1597.5C 1624.99,1583.66 1611.66,1571.99 1596.5,1562.5C 1596.16,1561.66 1595.49,1561.33 1594.5,1561.5C 1594.5,1560.83 1594.17,1560.5 1593.5,1560.5C 1593.16,1559.66 1592.49,1559.33 1591.5,1559.5C 1587.05,1556.28 1582.05,1554.11 1576.5,1553C 1561.16,1549.92 1550.99,1555.75 1546,1570.5C 1542.05,1582.89 1539.39,1595.56 1538,1608.5C 1535.47,1639.13 1533.97,1669.79 1533.5,1700.5C 1520.34,1667.51 1505.51,1635.18 1489,1603.5C 1483.78,1594.28 1477.78,1585.62 1471,1577.5C 1466.57,1573.23 1461.74,1569.57 1456.5,1566.5C 1456.5,1565.83 1456.17,1565.5 1455.5,1565.5C 1455.5,1564.83 1455.17,1564.5 1454.5,1564.5C 1450.51,1562.01 1446.18,1560.34 1441.5,1559.5C 1431.64,1561.26 1422.98,1565.43 1415.5,1572C 1393.02,1595.13 1375.69,1621.63 1363.5,1651.5C 1357.04,1628.75 1346.04,1608.58 1330.5,1591C 1325.95,1587.57 1321.28,1584.4 1316.5,1581.5C 1309.08,1575.56 1300.74,1574.06 1291.5,1577C 1286.04,1580.79 1280.88,1584.95 1276,1589.5C 1271.09,1594.98 1266.43,1600.65 1262,1606.5C 1227.23,1658.02 1197.06,1712.35 1171.5,1769.5C 1170.84,1766.85 1170.5,1764.02 1170.5,1761C 1173.14,1704.15 1172.97,1647.32 1170,1590.5C 1169.3,1578.28 1167.3,1566.28 1164,1554.5C 1162.61,1548.94 1159.11,1545.6 1153.5,1544.5C 1153.06,1542.89 1152.06,1541.72 1150.5,1541C 1144.52,1539.13 1138.52,1539.13 1132.5,1541C 1102.94,1550.94 1076.28,1565.77 1052.5,1585.5C 1055.59,1558.91 1055.76,1532.57 1053,1506.5C 1052.08,1498.08 1049.75,1490.08 1046,1482.5C 1043.25,1479.55 1040.08,1477.21 1036.5,1475.5C 1033.68,1472.92 1030.35,1471.09 1026.5,1470C 1008.07,1466.39 990.068,1468.05 972.5,1475C 938.853,1489.19 908.519,1508.36 881.5,1532.5C 891.198,1514.44 900.365,1496.1 909,1477.5C 913.283,1467.15 916.449,1456.49 918.5,1445.5C 957.457,1443.46 996.124,1438.96 1034.5,1432C 1037.17,1431.33 1039.83,1431.33 1042.5,1432C 1149.35,1507.47 1268.35,1540.81 1399.5,1532C 1554.81,1517.27 1681.98,1450.1 1781,1330.5C 1874.03,1210.28 1912.36,1073.95 1896,921.5C 1910.67,908.329 1925.17,894.996 1939.5,881.5 Z M 1670.5,1504.5 C 1658.53,1498.03 1650.03,1501.03 1645,1513.5C 1640.5,1527.3 1638.67,1541.47 1639.5,1556C 1639.6,1572.66 1640.76,1589.16 1643,1605.5C 1641,1602.67 1638.83,1600 1636.5,1597.5C 1632.45,1573.29 1631.61,1548.96 1634,1524.5C 1634.74,1514.25 1638.58,1505.42 1645.5,1498C 1650.56,1496.22 1655.56,1496.56 1660.5,1499C 1664.06,1500.61 1667.39,1502.44 1670.5,1504.5 Z M 1454.5,1564.5 C 1446.88,1564.2 1439.55,1566.03 1432.5,1570C 1422.75,1576.42 1414.25,1584.25 1407,1593.5C 1390.36,1615.43 1377.36,1639.43 1368,1665.5C 1366.5,1660.81 1365,1656.14 1363.5,1651.5C 1375.69,1621.63 1393.02,1595.13 1415.5,1572C 1422.98,1565.43 1431.64,1561.26 1441.5,1559.5C 1446.18,1560.34 1450.51,1562.01 1454.5,1564.5 Z"/></g>
<g><path style="opacity:1" fill="#028e97" d="M 1618.5,1271.5 C 1617.38,1269.71 1617.21,1267.71 1618,1265.5C 1632.93,1214.12 1642.27,1161.78 1646,1108.5C 1643.37,1110.89 1640.54,1112.89 1637.5,1114.5C 1637.37,1111.43 1637.7,1108.43 1638.5,1105.5C 1688.6,1066.58 1737.44,1025.91 1785,983.5C 1766.35,1044.42 1742.02,1103.09 1712,1159.5C 1687.25,1202.09 1656.09,1239.42 1618.5,1271.5 Z"/></g>
<g><path style="opacity:1" fill="#015778" d="M 1252.5,1138.5 C 1172.49,1192.6 1088.49,1240.1 1000.5,1281C 886.472,1333.67 766.472,1360.84 640.5,1362.5C 634.789,1362.49 629.456,1361.83 624.5,1360.5C 642.031,1358.83 659.698,1357 677.5,1355C 769.582,1341.82 858.249,1316.82 943.5,1280C 1061.69,1223.21 1170.02,1152.04 1268.5,1066.5C 1269.09,1066.71 1269.59,1067.04 1270,1067.5C 1266.07,1090.32 1261.07,1112.98 1255,1135.5C 1254.3,1136.69 1253.47,1137.69 1252.5,1138.5 Z"/></g>
<g><path style="opacity:0.992" fill="#fefefe" d="M 1252.5,1138.5 C 1245.09,1176.75 1233.76,1214.09 1218.5,1250.5C 1160.05,1279.93 1100.05,1305.76 1038.5,1328C 972.618,1351.72 904.951,1368.05 835.5,1377C 751.601,1388.07 668.601,1383.57 586.5,1363.5C 585.791,1362.6 584.791,1362.26 583.5,1362.5C 582.791,1361.6 581.791,1361.26 580.5,1361.5C 580.167,1361.5 579.833,1361.5 579.5,1361.5C 576.433,1360.32 573.433,1358.98 570.5,1357.5C 588.46,1359.05 606.46,1360.05 624.5,1360.5C 629.456,1361.83 634.789,1362.49 640.5,1362.5C 766.472,1360.84 886.472,1333.67 1000.5,1281C 1088.49,1240.1 1172.49,1192.6 1252.5,1138.5 Z"/></g>
<g><path style="opacity:1" fill="#005878" d="M 586.5,1201.5 C 586.5,1202.17 586.833,1202.5 587.5,1202.5C 587.558,1210.26 586.725,1217.93 585,1225.5C 577.778,1248.62 565.945,1268.96 549.5,1286.5C 539.116,1287.59 528.783,1287.09 518.5,1285C 516.68,1284.8 515.347,1283.97 514.5,1282.5C 515.552,1282.65 516.552,1282.48 517.5,1282C 534.29,1268.21 550.124,1253.38 565,1237.5C 571.818,1229.53 576.818,1220.53 580,1210.5C 580.497,1207.85 580.664,1205.19 580.5,1202.5C 582.379,1201.66 584.379,1201.33 586.5,1201.5 Z"/></g>
<g><path style="opacity:1" fill="#038d96" d="M 580.5,1202.5 C 580.664,1205.19 580.497,1207.85 580,1210.5C 576.818,1220.53 571.818,1229.53 565,1237.5C 550.124,1253.38 534.29,1268.21 517.5,1282C 516.552,1282.48 515.552,1282.65 514.5,1282.5C 492.477,1277.49 471.144,1270.49 450.5,1261.5C 447.249,1259.04 443.582,1257.38 439.5,1256.5C 439.158,1255.66 438.492,1255.33 437.5,1255.5C 437.158,1254.66 436.492,1254.33 435.5,1254.5C 435.158,1253.66 434.492,1253.33 433.5,1253.5C 433.158,1252.66 432.492,1252.33 431.5,1252.5C 431.158,1251.66 430.492,1251.33 429.5,1251.5C 429.158,1250.66 428.492,1250.33 427.5,1250.5C 427.158,1249.66 426.492,1249.33 425.5,1249.5C 425.158,1248.66 424.492,1248.33 423.5,1248.5C 423.158,1247.66 422.492,1247.33 421.5,1247.5C 421.158,1246.66 420.492,1246.33 419.5,1246.5C 419.158,1245.66 418.492,1245.33 417.5,1245.5C 417.158,1244.66 416.492,1244.33 415.5,1244.5C 415.5,1243.83 415.167,1243.5 414.5,1243.5C 414.158,1242.66 413.492,1242.33 412.5,1242.5C 412.158,1241.66 411.492,1241.33 410.5,1241.5C 410.158,1240.66 409.492,1240.33 408.5,1240.5C 408.158,1239.66 407.492,1239.33 406.5,1239.5C 406.158,1238.66 405.492,1238.33 404.5,1238.5C 404.158,1237.66 403.492,1237.33 402.5,1237.5C 402.5,1236.83 402.167,1236.5 401.5,1236.5C 401.158,1235.66 400.492,1235.33 399.5,1235.5C 399.158,1234.66 398.492,1234.33 397.5,1234.5C 397.158,1233.66 396.492,1233.33 395.5,1233.5C 395.082,1232.78 394.416,1232.28 393.5,1232C 407.016,1220.59 422.683,1215.42 440.5,1216.5C 475.472,1219.59 510.472,1220.09 545.5,1218C 558.427,1215.53 570.094,1210.37 580.5,1202.5 Z"/></g>
<g><path style="opacity:0.11" fill="#fdecde" d="M 1670.5,1668.5 C 1671.83,1669.17 1671.83,1669.17 1670.5,1668.5 Z"/></g>
</svg>
