<?xml version="1.0" encoding="UTF-8"?>
<svg version="1.1" xmlns="http://www.w3.org/2000/svg" width="1080" height="800">
<path d="M0 0 C73.92 0 147.84 0 224 0 C224.02578125 25.85988281 224.0515625 51.71976563 224.078125 78.36328125 C224.10328323 94.71940816 224.12942032 111.07552465 224.16015625 127.43164062 C224.17624831 136.02254178 224.19209177 144.61344333 224.20751953 153.2043457 C224.21043544 154.81941874 224.21043544 154.81941874 224.21341026 156.46711951 C224.2444228 173.8451653 224.26140322 191.22319788 224.27319422 208.60126612 C224.28560941 226.43860263 224.31311916 244.2758699 224.35461307 262.1131627 C224.37973787 273.11789624 224.39311802 284.12251495 224.39142957 295.12727758 C224.3913998 302.67577576 224.40604474 310.22415706 224.43216428 317.77260969 C224.44679797 322.12634339 224.45502369 326.47983739 224.44580269 330.83359146 C224.43749343 334.82447969 224.44773138 338.81488708 224.47233662 342.80570414 C224.47800323 344.24464151 224.47703126 345.68362471 224.46851245 347.12254802 C224.3989692 359.97692544 226.48267074 369.41046988 235.578125 378.7734375 C245.15836782 387.58108009 254.63866213 390.61841507 267.60546875 390.28125 C278.72362236 389.36006811 287.69943729 384.12826828 295.36328125 376.125 C301.26490918 368.46274322 304.11515697 360.38392361 304.1386652 350.80935955 C304.14687687 348.92906836 304.14687687 348.92906836 304.15525442 347.01079148 C304.15633056 345.62240333 304.15731526 344.23401511 304.15821838 342.84562683 C304.16278525 341.36875646 304.16778545 339.89188738 304.17318195 338.41501981 C304.1867583 334.35595752 304.19417997 330.29690361 304.20060861 326.23782456 C304.20861475 321.86090179 304.2223118 317.48399642 304.23532104 313.10708618 C304.25708074 305.52353142 304.2752271 297.93997489 304.29092598 290.35640526 C304.3136292 279.39180829 304.34177142 268.42723059 304.37124526 257.46264998 C304.4189156 239.67375759 304.46218131 221.88485731 304.50268555 204.09594727 C304.5420433 186.81469102 304.58348151 169.53344182 304.62768555 152.25219727 C304.63043505 151.17628867 304.63318456 150.10038008 304.63601738 148.9918682 C304.65753627 140.57767669 304.67917591 132.1634855 304.70085371 123.7492944 C304.80709605 82.49954379 304.90280546 41.24977483 305 0 C358.79 0 412.58 0 468 0 C468.06039235 72.94001622 468.06039235 72.94001622 468.07695007 95.51481628 C468.07783807 96.72248219 468.07783807 96.72248219 468.07874402 97.95454539 C468.09862739 125.06888246 468.11437601 152.18322028 468.12702942 179.29756165 C468.12744359 180.1827971 468.12785776 181.06803255 468.12828448 181.98009332 C468.13726422 201.2208814 468.14557462 220.4616697 468.15319599 239.70245836 C468.15693784 249.13879716 468.16082752 258.5751359 468.16479492 268.01147461 C468.1651872 268.95047957 468.16557948 269.88948452 468.16598364 270.85694417 C468.17875664 301.26630771 468.20128232 331.67565448 468.22889166 362.08500786 C468.25722359 393.34718028 468.27566425 424.60934342 468.28174497 455.87152845 C468.28260937 460.29199019 468.28358628 464.71245189 468.28463173 469.13291359 C468.284834 470.00288251 468.28503627 470.87285143 468.28524467 471.76918304 C468.28878315 485.74602013 468.30267928 499.72282844 468.3204961 513.69965382 C468.3382063 527.76758827 468.34489184 541.83549434 468.34050413 555.90343954 C468.33823079 564.25075463 468.34423006 572.59796544 468.36239263 580.94526161 C468.37505872 587.19634248 468.37183448 593.44732426 468.36269668 599.69840918 C468.3614364 602.21424678 468.36517829 604.73009338 468.37464955 607.24591347 C468.50741987 644.71562745 462.1784031 679.41729008 435 707 C416.01799623 726.01143323 392.84970441 735.50129631 366.75 740.1875 C365.89535156 740.3424292 365.04070313 740.4973584 364.16015625 740.65698242 C344.49315948 743.9533577 324.84133621 744.29170459 304.94849094 744.24453239 C301.05361651 744.23756912 297.15875215 744.24242334 293.26387531 744.24568737 C286.45794468 744.24980704 279.65204925 744.24659528 272.84612274 744.23841095 C262.7261722 744.22627548 252.60624357 744.22574538 242.48628708 744.22749493 C225.45790444 744.23011497 208.42953739 744.22346951 191.40115929 744.21146011 C174.55197764 744.19960768 157.7028025 744.19192451 140.85361671 744.18975449 C139.27950572 744.18954827 139.27950572 744.18954827 137.67359451 744.18933788 C132.34372861 744.18866117 127.01386269 744.18805842 121.68399677 744.18748413 C83.97707091 744.18328837 46.27015352 744.16982781 8.56323242 744.15087891 C-28.05818639 744.1324968 -64.67960288 744.11833606 -101.30102539 744.10986328 C-102.43075772 744.10960023 -103.56049005 744.10933718 -104.7244567 744.10906615 C-116.07016181 744.10642901 -127.41586694 744.1038774 -138.76157208 744.10138843 C-161.8720693 744.09631663 -184.98256636 744.09067412 -208.09306335 744.08468628 C-209.15554087 744.0844117 -210.21801838 744.08413712 -211.31269219 744.08385422 C-282.20846498 744.06546697 -353.10423308 744.03377823 -424 744 C-424.16555325 740.47508968 -424.32899111 736.95008426 -424.49206352 733.42505836 C-424.53869485 732.43274588 -424.58532618 731.44043339 -424.63337058 730.41805083 C-424.95547412 723.4248143 -425.14437375 716.44799604 -425.12939453 709.44677734 C-425.13114685 708.37353714 -425.13289917 707.30029694 -425.13470459 706.1945343 C-425.1390091 702.74165089 -425.13622681 699.28882118 -425.1328125 695.8359375 C-425.13348872 693.38180532 -425.13446138 690.92767321 -425.13571167 688.47354126 C-425.13717314 683.369073 -425.13508423 678.26462243 -425.13037109 673.16015625 C-425.12466869 666.67438032 -425.12796605 660.18864575 -425.13394356 653.70287132 C-425.13758621 648.64773252 -425.13639381 643.59260326 -425.13381577 638.53746414 C-425.13315702 636.14807759 -425.13393729 633.75869013 -425.13629532 631.36930466 C-425.1388843 628.01099151 -425.13489573 624.65274209 -425.12939453 621.29443359 C-425.13141876 620.34426865 -425.13344299 619.3941037 -425.13552856 618.41514587 C-425.11580363 611.79429685 -424.83492761 605.20121823 -424.49206352 598.59081459 C-424.44494112 597.66644641 -424.39781873 596.74207823 -424.34926838 595.7896989 C-424.23376016 593.52641746 -424.11731409 591.26318843 -424 589 C-423.09151073 588.9996337 -423.09151073 588.9996337 -422.16466813 588.99925999 C-356.22408521 588.97253133 -290.2835054 588.94086031 -224.34294128 588.88336182 C-223.35791975 588.88250431 -222.37289821 588.8816468 -221.35802753 588.8807633 C-199.95077087 588.8620976 -178.5435151 588.84254508 -157.13626008 588.82207905 C-146.63812211 588.81204788 -136.13998396 588.80221268 -125.6418457 588.79248047 C-124.59715569 588.79150866 -123.55246567 588.79053686 -122.47611838 588.7895356 C-88.61572027 588.75812934 -54.75533014 588.73966273 -20.89491998 588.72790753 C13.9015303 588.71575903 48.6979473 588.69055383 83.4943754 588.64892386 C88.40931381 588.64304978 93.32425237 588.63732494 98.23919106 588.63169098 C99.20651989 588.63057752 100.17384873 588.62946406 101.17049056 588.62831686 C116.74077411 588.61077822 132.31103205 588.60700027 147.88132415 588.60837079 C163.53535824 588.60945492 179.18932674 588.5960359 194.84333595 588.56783572 C204.14326259 588.55152233 213.4430408 588.5463061 222.7429764 588.55702825 C228.95866086 588.56309787 235.17421723 588.5546485 241.38987171 588.5345077 C244.92939511 588.52345073 248.46861708 588.51859817 252.00814118 588.53148755 C255.82846444 588.54202319 259.64795137 588.52792965 263.4682188 588.50780869 C264.55710943 588.51671239 265.64600007 588.5256161 266.76788738 588.53478962 C277.79968709 588.42344044 288.95235931 585.98802854 297 578 C302.54562681 570.99499772 303.29313133 564.62741736 303.1953125 556.0078125 C303.1924826 555.06187225 303.18965271 554.11593201 303.18673706 553.1413269 C303.17558932 550.13575306 303.15049465 547.13048298 303.125 544.125 C303.11496321 542.08073349 303.10583859 540.03646228 303.09765625 537.9921875 C303.07566767 532.99467556 303.04117509 527.9973892 303 523 C302.15522346 523.40349419 302.15522346 523.40349419 301.29338074 523.81513977 C284.91239124 531.61985252 268.14646878 537.89882993 250 540 C249.15308594 540.10957031 248.30617188 540.21914063 247.43359375 540.33203125 C199.53917591 545.68535664 146.06532452 533.54283607 108 503.5 C106.30837424 502.02820516 104.64267054 500.52624089 103 499 C102.49065918 498.53158691 101.98131836 498.06317383 101.45654297 497.58056641 C78.7017353 476.45736272 62.08729257 446.03731489 60.90698755 414.51600266 C60.86987882 411.64940418 60.86374944 408.78431744 60.86869812 405.91748047 C60.86552455 404.27410611 60.86552455 404.27410611 60.86228687 402.59753227 C60.85630966 398.93740721 60.85728538 395.27731684 60.8581543 391.6171875 C60.85512138 388.98862652 60.85159955 386.36006607 60.84762573 383.73150635 C60.83953287 378.07639575 60.83457595 372.42128963 60.83133507 366.76617432 C60.82582432 357.82440302 60.80891356 348.88266956 60.78999329 339.94091797 C60.78363749 336.87844855 60.77732896 333.81597903 60.77101612 330.75350952 C60.76943236 329.98828952 60.7678486 329.22306952 60.76621684 328.43466103 C60.74829932 319.73443818 60.73206248 311.03421269 60.71704102 302.33398438 C60.71497721 301.14169098 60.71497721 301.14169098 60.71287171 299.92531085 C60.69092907 287.03697207 60.68018128 274.14864312 60.67267027 261.26028895 C60.66459634 248.01620769 60.64130035 234.77221051 60.6047166 221.52817726 C60.58271196 213.36504512 60.57302066 205.20208594 60.57921693 197.03892565 C60.58276975 190.78389497 60.56551435 184.52907945 60.54053879 178.27410126 C60.53361447 175.71027292 60.5335137 173.1464157 60.54073906 170.5825882 C60.54960765 167.08223103 60.53396437 163.58280136 60.51225281 160.08251953 C60.52069534 159.06850508 60.52913788 158.05449062 60.53783625 157.00974846 C60.45953797 150.18147952 59.26676183 144.70917063 54.65898341 139.47737312 C41.76472987 127.62685424 9.50389667 133.22102085 0 133 C0 89.11 0 45.22 0 0 Z " fill="#FDFDFC" transform="translate(555,31)"/>
<path d="M0 0 C0.75749542 -0.00067474 1.51499084 -0.00134949 2.29544067 -0.00204468 C14.67982897 0.01544486 26.66375184 0.66288448 38.8125 3.25 C39.60575684 3.41628906 40.39901367 3.58257813 41.21630859 3.75390625 C62.93061181 8.48488214 83.95939899 17.59755185 100.8125 32.25 C101.64394531 32.94867188 102.47539062 33.64734375 103.33203125 34.3671875 C124.2604894 52.43445859 137.27731543 77.98013654 140.8125 105.25 C141.06656503 109.34841515 141.08184355 113.42949449 141.0640564 117.53485107 C141.0685116 119.29973322 141.0685116 119.29973322 141.07305682 121.10026956 C141.07932481 124.33001559 141.0768299 127.55961183 141.07053804 130.78935313 C141.06597024 134.28626899 141.07306185 137.78316373 141.07884216 141.28007507 C141.08744239 147.32854757 141.08929131 153.37699083 141.08689499 159.42546844 C141.08378713 168.17908441 141.09547113 176.93263618 141.11144479 185.68623593 C141.13735901 199.90263462 141.15740402 214.11903334 141.17089844 228.33544922 C141.17170881 229.18487116 141.17251918 230.03429309 141.1733541 230.90945509 C141.18458651 242.97575484 141.18985994 255.04204997 141.19274123 267.10835424 C141.19304721 268.38430629 141.19304721 268.38430629 141.19335938 269.68603516 C141.19355931 270.53562698 141.19375925 271.3852188 141.19396524 272.26055583 C141.19769897 286.43136491 141.21678522 300.60210394 141.24845374 314.77287793 C141.26735164 323.50440749 141.27334021 332.23575733 141.26263656 340.9673017 C141.25631465 346.94721268 141.26436578 352.92699472 141.28369068 358.90687743 C141.29436404 362.35506076 141.29853878 365.80293084 141.28521919 369.25111198 C141.27411639 372.99207131 141.28750983 376.73217645 141.30697632 380.4730835 C141.29328933 382.10090448 141.29328933 382.10090448 141.27932584 383.76161075 C141.3567875 391.40800021 142.85842 396.74203 147.8125 402.625 C156.80232458 407.49448832 168.27843975 406.47422057 178.1875 406.3125 C180.82032576 406.2758 183.45294417 406.24784601 186.0859375 406.22265625 C187.23497559 406.20468994 188.38401367 406.18672363 189.56787109 406.16821289 C192.74852932 406.2483875 195.68489918 406.69665839 198.8125 407.25 C198.83582889 423.79147069 198.85347912 440.33293606 198.86431217 456.87441921 C198.86947515 464.55438727 198.87651789 472.23434513 198.88793945 479.91430664 C198.89788623 486.60577989 198.90435341 493.29724576 198.90658849 499.9887262 C198.90789561 503.53395601 198.91098153 507.07916468 198.91823006 510.62438774 C198.9262438 514.57568645 198.92649114 518.5269642 198.92602539 522.47827148 C198.92962067 523.66222 198.93321594 524.84616852 198.93692017 526.06599426 C198.9355455 527.13596649 198.93417084 528.20593872 198.93275452 529.30833435 C198.93367631 530.24395423 198.9345981 531.17957411 198.93554783 532.1435461 C198.8125 534.25 198.8125 534.25 197.8125 535.25 C195.84674811 535.35326572 193.87723847 535.38522598 191.90878296 535.39044189 C190.62489182 535.39615204 189.34100067 535.40186218 188.01820374 535.40774536 C186.58163462 535.40899094 185.14506539 535.41011599 183.70849609 535.41113281 C182.20561094 535.41575905 180.70272696 535.42078345 179.19984436 535.42617798 C175.10192013 535.43933612 171.00401231 535.44575535 166.90607023 535.45018864 C164.34187442 535.45311822 161.77768309 535.45722315 159.21348953 535.46169281 C151.18039545 535.47538626 143.14731162 535.4850398 135.11420667 535.4888947 C125.86325913 535.49335862 116.61246059 535.51082072 107.36155832 535.5398953 C100.20212424 535.56160807 93.04273174 535.57160432 85.88326514 535.57293582 C81.61320311 535.57397844 77.34328077 535.57976745 73.07325363 535.59775543 C69.04311104 535.6143991 65.01321057 535.61631385 60.98304558 535.60761642 C59.5154613 535.60685426 58.04786316 535.61107832 56.58031273 535.62107468 C43.83505221 535.70268777 30.82885308 534.73162362 19.4375 528.5 C18.77177979 528.15074463 18.10605957 527.80148926 17.42016602 527.44165039 C12.09687879 524.57456593 7.30438975 521.31231194 2.8125 517.25 C1.89791016 516.45529297 1.89791016 516.45529297 0.96484375 515.64453125 C-11.50167922 504.10957264 -18.38609775 487.09203733 -19.35587192 470.34183455 C-19.61660463 462.42668931 -19.58864337 454.50872989 -19.56160367 446.59031534 C-19.55266116 442.98292277 -19.56127983 439.37556502 -19.56781006 435.76817322 C-19.57692125 429.53149383 -19.5756727 423.29488821 -19.56762505 417.05820847 C-19.5563389 408.02712106 -19.56548244 398.99613753 -19.58018685 389.96505912 C-19.60390292 375.29018443 -19.6173157 360.61532262 -19.62133789 345.94042969 C-19.62158276 345.06410966 -19.62182763 344.18778963 -19.62207992 343.28491445 C-19.62462656 333.50535206 -19.62519198 323.72579066 -19.62414551 313.94622803 C-19.62381244 310.39709473 -19.62352706 306.84796143 -19.62329102 303.29882812 C-19.62322823 302.42298153 -19.62316544 301.54713494 -19.62310075 300.64474754 C-19.62249506 286.0184313 -19.63740906 271.39217453 -19.66412407 256.76588309 C-19.6798866 247.76161376 -19.68223207 238.75753699 -19.66699005 229.75326575 C-19.65749774 223.58226471 -19.66232245 217.41137946 -19.67820387 211.24039195 C-19.68686428 207.68625141 -19.68912068 204.13241914 -19.67367744 200.57829475 C-19.65702363 196.7145935 -19.67155909 192.85134667 -19.68870544 188.98764038 C-19.67889867 187.88012747 -19.66909189 186.77261456 -19.65898794 185.63154066 C-19.75675971 174.92271791 -22.01196137 164.52317274 -29.14453125 156.25 C-37.61877384 147.95399196 -46.27511326 144.22700151 -58.0625 143.8125 C-70.8861404 144.13309101 -80.16686194 148.87018074 -88.9375 157.9375 C-96.34035163 166.77697809 -97.37165928 177.99991864 -97.27746582 189.11346436 C-97.27544002 189.87910973 -97.27341421 190.64475511 -97.27132702 191.43360186 C-97.26646867 193.12534299 -97.25938208 194.81707881 -97.25036526 196.50880289 C-97.22498433 201.42815715 -97.21873655 206.34756173 -97.20922852 211.26696777 C-97.20668611 212.35981653 -97.20414371 213.4526653 -97.20152426 214.57863069 C-97.17287771 228.55964195 -97.22448244 242.54045046 -97.2716943 256.52136356 C-97.28457866 260.37279073 -97.29675887 264.22422014 -97.30904388 268.07564926 C-97.33247857 275.38298469 -97.35663861 282.69031756 -97.3810443 289.9976498 C-97.40959869 298.55781261 -97.43731835 307.11797806 -97.46500319 315.67814371 C-97.51436095 330.93305468 -97.56434519 346.18796353 -97.61474609 361.44287109 C-97.6635882 376.22639864 -97.71211952 391.00992716 -97.76025391 405.79345703 C-97.76327141 406.72010859 -97.76628891 407.64676014 -97.76939785 408.60149205 C-97.79300834 415.85281368 -97.8166013 423.10413536 -97.84018874 430.35545707 C-97.95501278 465.65364119 -98.07136028 500.95182014 -98.1875 536.25 C-150.3275 536.25 -202.4675 536.25 -256.1875 536.25 C-257.3443029 477.253052 -257.3443029 477.253052 -257.31678963 453.58955002 C-257.31253429 448.83112296 -257.315591 444.07271201 -257.31913757 439.31428528 C-257.3231516 433.29244752 -257.32546542 427.2706136 -257.32555357 421.24877449 C-257.32576017 409.45629351 -257.33843008 397.66385168 -257.35516357 385.87138367 C-257.35776805 383.99505833 -257.36036688 382.11873298 -257.3629601 380.24240762 C-257.36689596 377.40437802 -257.37084297 374.56634844 -257.37482132 371.7283189 C-257.38962216 361.15099335 -257.40332909 350.57366678 -257.41552734 339.99633789 C-257.4166409 339.03439285 -257.41775447 338.0724478 -257.41890177 337.08135291 C-257.43661313 321.36986814 -257.43933469 305.65840905 -257.43767694 289.94691596 C-257.43639852 273.71372062 -257.45408799 257.48062063 -257.48869491 241.24746197 C-257.50928511 231.28110811 -257.51472824 221.31498316 -257.5003666 211.34861728 C-257.49191613 204.55049492 -257.50161604 197.75255176 -257.5256761 190.95446727 C-257.53897966 187.03813705 -257.54417605 183.12223695 -257.52755547 179.20590973 C-257.51250557 175.6204958 -257.52054172 172.03589257 -257.546725 168.45054951 C-257.55469045 166.54514894 -257.53811972 164.63969416 -257.52058244 162.73435766 C-257.58877524 156.66620083 -258.05455119 152.10146004 -261.33473659 146.92575902 C-278.30842511 131.57365773 -317.95866999 140.45726831 -330.1875 140.25 C-330.1875 96.03 -330.1875 51.81 -330.1875 6.25 C-253.6275 6.25 -177.0675 6.25 -98.1875 6.25 C-97.1875 23.25 -97.1875 23.25 -97.1875 30.25 C-96.68605469 29.86070313 -96.18460938 29.47140625 -95.66796875 29.0703125 C-68.1194666 8.70225469 -33.85967502 0.02705729 0 0 Z " fill="#FDFDFC" transform="translate(387.1875,24.75)"/>
<path d="M0 0 C73.92 0 147.84 0 224 0 C224.02578125 25.85988281 224.0515625 51.71976563 224.078125 78.36328125 C224.10328323 94.71940816 224.12942032 111.07552465 224.16015625 127.43164062 C224.17624831 136.02254178 224.19209177 144.61344333 224.20751953 153.2043457 C224.21043544 154.81941874 224.21043544 154.81941874 224.21341026 156.46711951 C224.2444228 173.8451653 224.26140322 191.22319788 224.27319422 208.60126612 C224.28560941 226.43860263 224.31311916 244.2758699 224.35461307 262.1131627 C224.37973787 273.11789624 224.39311802 284.12251495 224.39142957 295.12727758 C224.3913998 302.67577576 224.40604474 310.22415706 224.43216428 317.77260969 C224.44679797 322.12634339 224.45502369 326.47983739 224.44580269 330.83359146 C224.43749343 334.82447969 224.44773138 338.81488708 224.47233662 342.80570414 C224.47800323 344.24464151 224.47703126 345.68362471 224.46851245 347.12254802 C224.3989692 359.97692544 226.48267074 369.41046988 235.578125 378.7734375 C245.15836782 387.58108009 254.63866213 390.61841507 267.60546875 390.28125 C278.72362236 389.36006811 287.69943729 384.12826828 295.36328125 376.125 C301.26490918 368.46274322 304.11515697 360.38392361 304.1386652 350.80935955 C304.14687687 348.92906836 304.14687687 348.92906836 304.15525442 347.01079148 C304.15633056 345.62240333 304.15731526 344.23401511 304.15821838 342.84562683 C304.16278525 341.36875646 304.16778545 339.89188738 304.17318195 338.41501981 C304.1867583 334.35595752 304.19417997 330.29690361 304.20060861 326.23782456 C304.20861475 321.86090179 304.2223118 317.48399642 304.23532104 313.10708618 C304.25708074 305.52353142 304.2752271 297.93997489 304.29092598 290.35640526 C304.3136292 279.39180829 304.34177142 268.42723059 304.37124526 257.46264998 C304.4189156 239.67375759 304.46218131 221.88485731 304.50268555 204.09594727 C304.5420433 186.81469102 304.58348151 169.53344182 304.62768555 152.25219727 C304.63043505 151.17628867 304.63318456 150.10038008 304.63601738 148.9918682 C304.65753627 140.57767669 304.67917591 132.1634855 304.70085371 123.7492944 C304.80709605 82.49954379 304.90280546 41.24977483 305 0 C358.79 0 412.58 0 468 0 C468.06039235 72.94001622 468.06039235 72.94001622 468.07695007 95.51481628 C468.07783807 96.72248219 468.07783807 96.72248219 468.07874402 97.95454539 C468.09862739 125.06888246 468.11437601 152.18322028 468.12702942 179.29756165 C468.12744359 180.1827971 468.12785776 181.06803255 468.12828448 181.98009332 C468.13726422 201.2208814 468.14557462 220.4616697 468.15319599 239.70245836 C468.15693784 249.13879716 468.16082752 258.5751359 468.16479492 268.01147461 C468.1651872 268.95047957 468.16557948 269.88948452 468.16598364 270.85694417 C468.17875664 301.26630771 468.20128232 331.67565448 468.22889166 362.08500786 C468.25722359 393.34718028 468.27566425 424.60934342 468.28174497 455.87152845 C468.28260937 460.29199019 468.28358628 464.71245189 468.28463173 469.13291359 C468.284834 470.00288251 468.28503627 470.87285143 468.28524467 471.76918304 C468.28878315 485.74602013 468.30267928 499.72282844 468.3204961 513.69965382 C468.3382063 527.76758827 468.34489184 541.83549434 468.34050413 555.90343954 C468.33823079 564.25075463 468.34423006 572.59796544 468.36239263 580.94526161 C468.37505872 587.19634248 468.37183448 593.44732426 468.36269668 599.69840918 C468.3614364 602.21424678 468.36517829 604.73009338 468.37464955 607.24591347 C468.50741987 644.71562745 462.1784031 679.41729008 435 707 C416.01799623 726.01143323 392.84970441 735.50129631 366.75 740.1875 C365.89535156 740.3424292 365.04070313 740.4973584 364.16015625 740.65698242 C344.49315948 743.9533577 324.84133621 744.29170459 304.94849094 744.24453239 C301.05361651 744.23756912 297.15875215 744.24242334 293.26387531 744.24568737 C286.45794468 744.24980704 279.65204925 744.24659528 272.84612274 744.23841095 C262.7261722 744.22627548 252.60624357 744.22574538 242.48628708 744.22749493 C225.45790444 744.23011497 208.42953739 744.22346951 191.40115929 744.21146011 C174.55197764 744.19960768 157.7028025 744.19192451 140.85361671 744.18975449 C139.27950572 744.18954827 139.27950572 744.18954827 137.67359451 744.18933788 C132.34372861 744.18866117 127.01386269 744.18805842 121.68399677 744.18748413 C83.97707091 744.18328837 46.27015352 744.16982781 8.56323242 744.15087891 C-28.05818639 744.1324968 -64.67960288 744.11833606 -101.30102539 744.10986328 C-102.43075772 744.10960023 -103.56049005 744.10933718 -104.7244567 744.10906615 C-116.07016181 744.10642901 -127.41586694 744.1038774 -138.76157208 744.10138843 C-161.8720693 744.09631663 -184.98256636 744.09067412 -208.09306335 744.08468628 C-209.15554087 744.0844117 -210.21801838 744.08413712 -211.31269219 744.08385422 C-282.20846498 744.06546697 -353.10423308 744.03377823 -424 744 C-424.16555325 740.47508968 -424.32899111 736.95008426 -424.49206352 733.42505836 C-424.53869485 732.43274588 -424.58532618 731.44043339 -424.63337058 730.41805083 C-424.95547412 723.4248143 -425.14437375 716.44799604 -425.12939453 709.44677734 C-425.13114685 708.37353714 -425.13289917 707.30029694 -425.13470459 706.1945343 C-425.1390091 702.74165089 -425.13622681 699.28882118 -425.1328125 695.8359375 C-425.13348872 693.38180532 -425.13446138 690.92767321 -425.13571167 688.47354126 C-425.13717314 683.369073 -425.13508423 678.26462243 -425.13037109 673.16015625 C-425.12466869 666.67438032 -425.12796605 660.18864575 -425.13394356 653.70287132 C-425.13758621 648.64773252 -425.13639381 643.59260326 -425.13381577 638.53746414 C-425.13315702 636.14807759 -425.13393729 633.75869013 -425.13629532 631.36930466 C-425.1388843 628.01099151 -425.13489573 624.65274209 -425.12939453 621.29443359 C-425.13141876 620.34426865 -425.13344299 619.3941037 -425.13552856 618.41514587 C-425.11580363 611.79429685 -424.83492761 605.20121823 -424.49206352 598.59081459 C-424.44494112 597.66644641 -424.39781873 596.74207823 -424.34926838 595.7896989 C-424.23376016 593.52641746 -424.11731409 591.26318843 -424 589 C-423.09151073 588.9996337 -423.09151073 588.9996337 -422.16466813 588.99925999 C-356.22408521 588.97253133 -290.2835054 588.94086031 -224.34294128 588.88336182 C-223.35791975 588.88250431 -222.37289821 588.8816468 -221.35802753 588.8807633 C-199.95077087 588.8620976 -178.5435151 588.84254508 -157.13626008 588.82207905 C-146.63812211 588.81204788 -136.13998396 588.80221268 -125.6418457 588.79248047 C-124.59715569 588.79150866 -123.55246567 588.79053686 -122.47611838 588.7895356 C-88.61572027 588.75812934 -54.75533014 588.73966273 -20.89491998 588.72790753 C13.9015303 588.71575903 48.6979473 588.69055383 83.4943754 588.64892386 C88.40931381 588.64304978 93.32425237 588.63732494 98.23919106 588.63169098 C99.20651989 588.63057752 100.17384873 588.62946406 101.17049056 588.62831686 C116.74077411 588.61077822 132.31103205 588.60700027 147.88132415 588.60837079 C163.53535824 588.60945492 179.18932674 588.5960359 194.84333595 588.56783572 C204.14326259 588.55152233 213.4430408 588.5463061 222.7429764 588.55702825 C228.95866086 588.56309787 235.17421723 588.5546485 241.38987171 588.5345077 C244.92939511 588.52345073 248.46861708 588.51859817 252.00814118 588.53148755 C255.82846444 588.54202319 259.64795137 588.52792965 263.4682188 588.50780869 C264.55710943 588.51671239 265.64600007 588.5256161 266.76788738 588.53478962 C277.79968709 588.42344044 288.95235931 585.98802854 297 578 C302.54562681 570.99499772 303.29313133 564.62741736 303.1953125 556.0078125 C303.1924826 555.06187225 303.18965271 554.11593201 303.18673706 553.1413269 C303.17558932 550.13575306 303.15049465 547.13048298 303.125 544.125 C303.11496321 542.08073349 303.10583859 540.03646228 303.09765625 537.9921875 C303.07566767 532.99467556 303.04117509 527.9973892 303 523 C302.15522346 523.40349419 302.15522346 523.40349419 301.29338074 523.81513977 C284.91239124 531.61985252 268.14646878 537.89882993 250 540 C249.15308594 540.10957031 248.30617188 540.21914063 247.43359375 540.33203125 C199.53917591 545.68535664 146.06532452 533.54283607 108 503.5 C106.30837424 502.02820516 104.64267054 500.52624089 103 499 C102.49065918 498.53158691 101.98131836 498.06317383 101.45654297 497.58056641 C78.7017353 476.45736272 62.08729257 446.03731489 60.90698755 414.51600266 C60.86987882 411.64940418 60.86374944 408.78431744 60.86869812 405.91748047 C60.86552455 404.27410611 60.86552455 404.27410611 60.86228687 402.59753227 C60.85630966 398.93740721 60.85728538 395.27731684 60.8581543 391.6171875 C60.85512138 388.98862652 60.85159955 386.36006607 60.84762573 383.73150635 C60.83953287 378.07639575 60.83457595 372.42128963 60.83133507 366.76617432 C60.82582432 357.82440302 60.80891356 348.88266956 60.78999329 339.94091797 C60.78363749 336.87844855 60.77732896 333.81597903 60.77101612 330.75350952 C60.76943236 329.98828952 60.7678486 329.22306952 60.76621684 328.43466103 C60.74829932 319.73443818 60.73206248 311.03421269 60.71704102 302.33398438 C60.71497721 301.14169098 60.71497721 301.14169098 60.71287171 299.92531085 C60.69092907 287.03697207 60.68018128 274.14864312 60.67267027 261.26028895 C60.66459634 248.01620769 60.64130035 234.77221051 60.6047166 221.52817726 C60.58271196 213.36504512 60.57302066 205.20208594 60.57921693 197.03892565 C60.58276975 190.78389497 60.56551435 184.52907945 60.54053879 178.27410126 C60.53361447 175.71027292 60.5335137 173.1464157 60.54073906 170.5825882 C60.54960765 167.08223103 60.53396437 163.58280136 60.51225281 160.08251953 C60.52069534 159.06850508 60.52913788 158.05449062 60.53783625 157.00974846 C60.45953797 150.18147952 59.26676183 144.70917063 54.65898341 139.47737312 C41.76472987 127.62685424 9.50389667 133.22102085 0 133 C0 89.11 0 45.22 0 0 Z M23 23 C23 51.71 23 80.42 23 110 C31.25 110.66 39.5 111.32 48 112 C62.02861311 115.50715328 70.31995699 120.72717692 78 133 C82.46125732 141.76867819 83.29683579 150.41066002 83.25828552 160.11097717 C83.26196123 161.19768642 83.26563693 162.28439567 83.26942402 163.40403551 C83.27936704 167.02860137 83.27526047 170.6530127 83.27124023 174.27758789 C83.27562952 176.88346519 83.28093241 179.48934109 83.28707886 182.09521484 C83.29909456 187.7000945 83.30423028 193.30494579 83.30496025 198.90983772 C83.30629022 207.03087629 83.32144066 215.15184647 83.34045542 223.27286082 C83.37126674 236.47348402 83.39544388 249.67410896 83.41333008 262.87475586 C83.41440276 263.66396352 83.41547544 264.45317119 83.41658062 265.26629423 C83.42838968 274.06249704 83.43859681 282.85870054 83.44702148 291.65490723 C83.45009531 294.84082033 83.45318414 298.02673342 83.45629883 301.21264648 C83.45744684 302.39182177 83.45744684 302.39182177 83.45861804 303.59481878 C83.47173538 316.73951391 83.49642509 329.8841596 83.53004223 343.02881807 C83.55024507 351.12057249 83.56063372 359.21222084 83.55805302 367.30400067 C83.55688805 373.51796236 83.57113788 379.7318036 83.59086227 385.94573212 C83.59643354 388.48201587 83.59697326 391.01831682 83.59192467 393.55460167 C83.53693962 424.43060675 89.68892445 451.5915251 111 475 C111.66128906 475.75410156 112.32257812 476.50820313 113.00390625 477.28515625 C137.90937966 504.08098817 177.52534876 515.7599849 213 518 C218.04158061 518.18182397 223.08049728 518.24553872 228.125 518.25 C228.81353058 518.25067474 229.50206116 518.25134949 230.2114563 518.25204468 C240.46849586 518.23609051 250.06583576 517.79224549 260 515 C260.9892749 514.72663818 260.9892749 514.72663818 261.99853516 514.44775391 C266.72104024 513.12297336 271.39052905 511.67877401 276 510 C277.24704712 509.57062134 277.24704712 509.57062134 278.51928711 509.13256836 C288.60164875 505.34246134 297.18161362 499.28771342 306.0625 493.3125 C307.66799281 492.24319865 309.27410871 491.17483222 310.88085938 490.10742188 C314.39009111 487.77348706 317.89332607 485.43087593 321.39125061 483.08003235 C322.92533693 482.05012498 324.46259034 481.02493978 326 480 C326.04644459 490.92716891 326.08193069 501.85431414 326.10362434 512.78156185 C326.11403886 517.85611915 326.12815535 522.93060866 326.15087891 528.00512695 C326.17269059 532.90696945 326.18458615 537.80874693 326.18975449 542.71063423 C326.19343533 544.57602524 326.20062295 546.44141289 326.21146011 548.30677605 C326.22608581 550.92977319 326.22797334 553.55250543 326.22705078 556.17553711 C326.23424133 556.9379924 326.24143188 557.70044769 326.24884033 558.48600769 C326.19764802 572.03340542 321.24506295 585.14998149 312.03515625 595.12890625 C298.0488747 608.45760494 280.0283032 611.15653383 261.47389221 611.1386652 C260.32500922 611.14150742 259.17612623 611.14434964 257.9924286 611.14727798 C254.80757896 611.15415887 251.62276151 611.15661845 248.43790564 611.1572054 C244.97157077 611.15893892 241.50524751 611.16642678 238.03891945 611.17318195 C231.96526525 611.18422718 225.89161519 611.19160612 219.81795311 611.19658089 C210.78665303 611.2039948 201.75536737 611.21707978 192.7240758 611.23132664 C177.53169175 611.25513201 162.33930513 611.27433837 147.14691162 611.29092598 C132.10397998 611.30736542 117.06105314 611.32584752 102.01812744 611.34705925 C101.08289328 611.34837686 100.14765912 611.34969446 99.18408453 611.351052 C94.43452585 611.35775406 89.68496721 611.36449263 84.93540859 611.37124526 C51.29206741 611.41901159 17.64872175 611.46219568 -15.99462891 611.50268555 C-48.67920253 611.54203201 -81.36377245 611.58345371 -114.04833984 611.62768555 C-115.05577537 611.62904808 -116.06321091 611.63041061 -117.10117479 611.63181442 C-127.21823283 611.64549977 -137.33529081 611.65922731 -147.45234876 611.67298577 C-168.06206356 611.7010125 -188.67177873 611.7287576 -209.28149414 611.7563324 C-210.22910084 611.7576006 -211.17670755 611.7588688 -212.15302961 611.76017542 C-261.18617823 611.82577235 -310.21933199 611.88718777 -359.25248718 611.94764709 C-360.28715984 611.94892292 -360.28715984 611.94892292 -361.34273497 611.95022452 C-374.89515651 611.96692808 -388.44757827 611.98344634 -402 612 C-402 648.3 -402 684.6 -402 722 C-379.27056887 722.00563821 -379.27056887 722.00563821 -356.5411377 722.0111084 C-355.35467702 722.01138889 -355.35467702 722.01138889 -354.14424744 722.01167505 C-301.74998913 722.02404327 -249.35573087 722.03521458 -196.96147156 722.04234314 C-195.94935973 722.0424812 -194.93724789 722.04261925 -193.89446601 722.04276149 C-171.8966898 722.04575465 -149.89891357 722.04852479 -127.90113731 722.05106533 C-117.11288385 722.05231263 -106.3246304 722.05360919 -95.53637695 722.05493164 C-93.92606575 722.05512778 -93.92606575 722.05512778 -92.28322302 722.05532788 C-57.50870473 722.05958655 -22.73418808 722.06709586 12.04032922 722.07629722 C47.7861452 722.08573837 83.53196028 722.09188743 119.27777749 722.09391499 C124.33069599 722.09420313 129.38361448 722.09452877 134.43653297 722.09487724 C135.43098544 722.09494467 136.4254379 722.09501209 137.45002529 722.09508156 C153.43528975 722.09626165 169.42055142 722.10089535 185.40581475 722.10683203 C201.49011732 722.11273138 217.57441714 722.11496495 233.65872075 722.11350138 C243.20576264 722.11274284 252.75279441 722.11475025 262.29983446 722.12079754 C268.69042775 722.12456758 275.08101446 722.12464959 281.47160821 722.12183181 C285.10440559 722.12033267 288.73718394 722.12034264 292.36997923 722.12488318 C322.66046841 722.2639714 322.66046841 722.2639714 352.75 719.1875 C354.45857178 718.92247681 354.45857178 718.92247681 356.20166016 718.65209961 C384.42285267 714.14446474 408.67171873 705.23119513 426.8125 682.1875 C441.94888229 660.91992488 446.18543686 636.33402471 446.12698364 610.68817139 C446.12854505 609.61148927 446.13010646 608.53480715 446.13171518 607.42549831 C446.13568543 603.83671119 446.13255269 600.24796708 446.12939453 596.65917969 C446.13073164 594.05499212 446.1324911 591.45080473 446.13463593 588.8466177 C446.13904586 582.45832818 446.13801653 576.07005029 446.13516669 569.68176033 C446.13293525 564.3787083 446.1329111 559.07566007 446.13431931 553.7726078 C446.13452155 553.00645732 446.13472378 552.24030683 446.13493215 551.45093967 C446.13535289 549.88868473 446.13577756 548.3264298 446.13620608 546.76417487 C446.14023858 530.97782164 446.1366872 515.19147533 446.13056505 499.40512317 C446.12621851 488.11793178 446.12367677 476.83074164 446.12257662 465.54354947 C446.11371828 377.36446746 445.98694255 289.18613002 445.35595703 109.64941406 C445.35325785 108.95015932 445.35055867 108.25090458 445.34777769 107.5304603 C445.23890666 79.35360995 445.11838109 51.17681331 445 23 C406.39 23 367.78 23 328 23 C327.9906543 33.0340625 327.98130859 43.068125 327.97167969 53.40625 C327.93893978 85.5481467 327.88663167 117.68998508 327.82207905 149.831833 C327.81206215 154.82831806 327.80221792 159.82480345 327.79248047 164.82128906 C327.7905391 165.81595743 327.78859772 166.8106258 327.78659752 167.83543563 C327.75561571 183.91980761 327.73860754 200.00416535 327.72680578 216.08856153 C327.71437441 232.60494058 327.68682826 249.12124509 327.64538693 265.63757706 C327.62030833 275.82082009 327.6068786 286.00393943 327.60857043 296.18721378 C327.60860029 303.17976344 327.59388706 310.17218754 327.56783572 317.16468823 C327.55325529 321.192979 327.54493005 325.22101232 327.55419731 329.2493248 C327.60580627 354.63626493 326.34794603 376.54039364 308.046875 396.0859375 C296.59074402 407.16019745 280.17755574 412.97667213 264.375 413.4375 C245.76269981 412.74730345 229.28898731 405.80172282 216.25 392.4375 C213.21014419 388.69728525 210.96545685 384.57396666 208.75 380.3125 C208.42032227 379.68980225 208.09064453 379.06710449 207.75097656 378.42553711 C202.47901318 367.72107718 201.55830223 356.43857487 201.63923645 344.68083191 C201.63792489 343.28367748 201.63529206 341.88652379 201.63146895 340.48937398 C201.62482069 336.68771993 201.63667757 332.88632364 201.65180314 329.08470237 C201.66484189 324.97105532 201.66036854 320.85742108 201.65809631 316.74375916 C201.6565285 309.62903122 201.66588601 302.51438625 201.68280983 295.39967918 C201.70726233 285.11320831 201.71501148 274.82677728 201.7187738 264.5402805 C201.72532851 247.84836417 201.74526298 231.15649199 201.77368164 214.46459961 C201.80124765 198.256594 201.82243435 182.04860047 201.83520508 165.84057617 C201.83600907 164.83017912 201.83681306 163.81978207 201.83764142 162.77876693 C201.84388023 154.87599092 201.84975081 146.97321464 201.85550511 139.07043827 C201.88377099 100.38025164 201.94413419 61.69017564 202 23 C142.93 23 83.86 23 23 23 Z " fill="#A61A30" transform="translate(555,31)"/>
<path d="M0 0 C0.75749542 -0.00067474 1.51499084 -0.00134949 2.29544067 -0.00204468 C14.67982897 0.01544486 26.66375184 0.66288448 38.8125 3.25 C39.60575684 3.41628906 40.39901367 3.58257813 41.21630859 3.75390625 C62.93061181 8.48488214 83.95939899 17.59755185 100.8125 32.25 C101.64394531 32.94867188 102.47539062 33.64734375 103.33203125 34.3671875 C124.2604894 52.43445859 137.27731543 77.98013654 140.8125 105.25 C141.06656503 109.34841515 141.08184355 113.42949449 141.0640564 117.53485107 C141.0685116 119.29973322 141.0685116 119.29973322 141.07305682 121.10026956 C141.07932481 124.33001559 141.0768299 127.55961183 141.07053804 130.78935313 C141.06597024 134.28626899 141.07306185 137.78316373 141.07884216 141.28007507 C141.08744239 147.32854757 141.08929131 153.37699083 141.08689499 159.42546844 C141.08378713 168.17908441 141.09547113 176.93263618 141.11144479 185.68623593 C141.13735901 199.90263462 141.15740402 214.11903334 141.17089844 228.33544922 C141.17170881 229.18487116 141.17251918 230.03429309 141.1733541 230.90945509 C141.18458651 242.97575484 141.18985994 255.04204997 141.19274123 267.10835424 C141.19304721 268.38430629 141.19304721 268.38430629 141.19335938 269.68603516 C141.19355931 270.53562698 141.19375925 271.3852188 141.19396524 272.26055583 C141.19769897 286.43136491 141.21678522 300.60210394 141.24845374 314.77287793 C141.26735164 323.50440749 141.27334021 332.23575733 141.26263656 340.9673017 C141.25631465 346.94721268 141.26436578 352.92699472 141.28369068 358.90687743 C141.29436404 362.35506076 141.29853878 365.80293084 141.28521919 369.25111198 C141.27411639 372.99207131 141.28750983 376.73217645 141.30697632 380.4730835 C141.29328933 382.10090448 141.29328933 382.10090448 141.27932584 383.76161075 C141.3567875 391.40800021 142.85842 396.74203 147.8125 402.625 C156.80232458 407.49448832 168.27843975 406.47422057 178.1875 406.3125 C180.82032576 406.2758 183.45294417 406.24784601 186.0859375 406.22265625 C187.23497559 406.20468994 188.38401367 406.18672363 189.56787109 406.16821289 C192.74852932 406.2483875 195.68489918 406.69665839 198.8125 407.25 C198.83582889 423.79147069 198.85347912 440.33293606 198.86431217 456.87441921 C198.86947515 464.55438727 198.87651789 472.23434513 198.88793945 479.91430664 C198.89788623 486.60577989 198.90435341 493.29724576 198.90658849 499.9887262 C198.90789561 503.53395601 198.91098153 507.07916468 198.91823006 510.62438774 C198.9262438 514.57568645 198.92649114 518.5269642 198.92602539 522.47827148 C198.92962067 523.66222 198.93321594 524.84616852 198.93692017 526.06599426 C198.9355455 527.13596649 198.93417084 528.20593872 198.93275452 529.30833435 C198.93367631 530.24395423 198.9345981 531.17957411 198.93554783 532.1435461 C198.8125 534.25 198.8125 534.25 197.8125 535.25 C195.84674811 535.35326572 193.87723847 535.38522598 191.90878296 535.39044189 C190.62489182 535.39615204 189.34100067 535.40186218 188.01820374 535.40774536 C186.58163462 535.40899094 185.14506539 535.41011599 183.70849609 535.41113281 C182.20561094 535.41575905 180.70272696 535.42078345 179.19984436 535.42617798 C175.10192013 535.43933612 171.00401231 535.44575535 166.90607023 535.45018864 C164.34187442 535.45311822 161.77768309 535.45722315 159.21348953 535.46169281 C151.18039545 535.47538626 143.14731162 535.4850398 135.11420667 535.4888947 C125.86325913 535.49335862 116.61246059 535.51082072 107.36155832 535.5398953 C100.20212424 535.56160807 93.04273174 535.57160432 85.88326514 535.57293582 C81.61320311 535.57397844 77.34328077 535.57976745 73.07325363 535.59775543 C69.04311104 535.6143991 65.01321057 535.61631385 60.98304558 535.60761642 C59.5154613 535.60685426 58.04786316 535.61107832 56.58031273 535.62107468 C43.83505221 535.70268777 30.82885308 534.73162362 19.4375 528.5 C18.77177979 528.15074463 18.10605957 527.80148926 17.42016602 527.44165039 C12.09687879 524.57456593 7.30438975 521.31231194 2.8125 517.25 C1.89791016 516.45529297 1.89791016 516.45529297 0.96484375 515.64453125 C-11.50167922 504.10957264 -18.38609775 487.09203733 -19.35587192 470.34183455 C-19.61660463 462.42668931 -19.58864337 454.50872989 -19.56160367 446.59031534 C-19.55266116 442.98292277 -19.56127983 439.37556502 -19.56781006 435.76817322 C-19.57692125 429.53149383 -19.5756727 423.29488821 -19.56762505 417.05820847 C-19.5563389 408.02712106 -19.56548244 398.99613753 -19.58018685 389.96505912 C-19.60390292 375.29018443 -19.6173157 360.61532262 -19.62133789 345.94042969 C-19.62158276 345.06410966 -19.62182763 344.18778963 -19.62207992 343.28491445 C-19.62462656 333.50535206 -19.62519198 323.72579066 -19.62414551 313.94622803 C-19.62381244 310.39709473 -19.62352706 306.84796143 -19.62329102 303.29882812 C-19.62322823 302.42298153 -19.62316544 301.54713494 -19.62310075 300.64474754 C-19.62249506 286.0184313 -19.63740906 271.39217453 -19.66412407 256.76588309 C-19.6798866 247.76161376 -19.68223207 238.75753699 -19.66699005 229.75326575 C-19.65749774 223.58226471 -19.66232245 217.41137946 -19.67820387 211.24039195 C-19.68686428 207.68625141 -19.68912068 204.13241914 -19.67367744 200.57829475 C-19.65702363 196.7145935 -19.67155909 192.85134667 -19.68870544 188.98764038 C-19.67889867 187.88012747 -19.66909189 186.77261456 -19.65898794 185.63154066 C-19.75675971 174.92271791 -22.01196137 164.52317274 -29.14453125 156.25 C-37.61877384 147.95399196 -46.27511326 144.22700151 -58.0625 143.8125 C-70.8861404 144.13309101 -80.16686194 148.87018074 -88.9375 157.9375 C-96.34035163 166.77697809 -97.37165928 177.99991864 -97.27746582 189.11346436 C-97.27544002 189.87910973 -97.27341421 190.64475511 -97.27132702 191.43360186 C-97.26646867 193.12534299 -97.25938208 194.81707881 -97.25036526 196.50880289 C-97.22498433 201.42815715 -97.21873655 206.34756173 -97.20922852 211.26696777 C-97.20668611 212.35981653 -97.20414371 213.4526653 -97.20152426 214.57863069 C-97.17287771 228.55964195 -97.22448244 242.54045046 -97.2716943 256.52136356 C-97.28457866 260.37279073 -97.29675887 264.22422014 -97.30904388 268.07564926 C-97.33247857 275.38298469 -97.35663861 282.69031756 -97.3810443 289.9976498 C-97.40959869 298.55781261 -97.43731835 307.11797806 -97.46500319 315.67814371 C-97.51436095 330.93305468 -97.56434519 346.18796353 -97.61474609 361.44287109 C-97.6635882 376.22639864 -97.71211952 391.00992716 -97.76025391 405.79345703 C-97.76327141 406.72010859 -97.76628891 407.64676014 -97.76939785 408.60149205 C-97.79300834 415.85281368 -97.8166013 423.10413536 -97.84018874 430.35545707 C-97.95501278 465.65364119 -98.07136028 500.95182014 -98.1875 536.25 C-150.3275 536.25 -202.4675 536.25 -256.1875 536.25 C-257.3443029 477.253052 -257.3443029 477.253052 -257.31678963 453.58955002 C-257.31253429 448.83112296 -257.315591 444.07271201 -257.31913757 439.31428528 C-257.3231516 433.29244752 -257.32546542 427.2706136 -257.32555357 421.24877449 C-257.32576017 409.45629351 -257.33843008 397.66385168 -257.35516357 385.87138367 C-257.35776805 383.99505833 -257.36036688 382.11873298 -257.3629601 380.24240762 C-257.36689596 377.40437802 -257.37084297 374.56634844 -257.37482132 371.7283189 C-257.38962216 361.15099335 -257.40332909 350.57366678 -257.41552734 339.99633789 C-257.4166409 339.03439285 -257.41775447 338.0724478 -257.41890177 337.08135291 C-257.43661313 321.36986814 -257.43933469 305.65840905 -257.43767694 289.94691596 C-257.43639852 273.71372062 -257.45408799 257.48062063 -257.48869491 241.24746197 C-257.50928511 231.28110811 -257.51472824 221.31498316 -257.5003666 211.34861728 C-257.49191613 204.55049492 -257.50161604 197.75255176 -257.5256761 190.95446727 C-257.53897966 187.03813705 -257.54417605 183.12223695 -257.52755547 179.20590973 C-257.51250557 175.6204958 -257.52054172 172.03589257 -257.546725 168.45054951 C-257.55469045 166.54514894 -257.53811972 164.63969416 -257.52058244 162.73435766 C-257.58877524 156.66620083 -258.05455119 152.10146004 -261.33473659 146.92575902 C-278.30842511 131.57365773 -317.95866999 140.45726831 -330.1875 140.25 C-330.1875 96.03 -330.1875 51.81 -330.1875 6.25 C-253.6275 6.25 -177.0675 6.25 -98.1875 6.25 C-97.1875 23.25 -97.1875 23.25 -97.1875 30.25 C-96.68605469 29.86070313 -96.18460938 29.47140625 -95.66796875 29.0703125 C-68.1194666 8.70225469 -33.85967502 0.02705729 0 0 Z M-103.39624023 63.53393555 C-108.84036776 68.07278369 -114.40210058 72.04243679 -120.1875 76.25 C-120.1875 60.41 -120.1875 44.57 -120.1875 28.25 C-144.55200185 28.22745537 -168.91649529 28.20902223 -193.28100491 28.19818783 C-204.59302073 28.19302426 -215.90502963 28.18598042 -227.21704102 28.17456055 C-237.07277702 28.16461555 -246.92850801 28.15814701 -256.78424889 28.15591151 C-262.00621636 28.15460408 -267.22816948 28.15151626 -272.45013237 28.14426994 C-277.35920108 28.13751263 -282.26824946 28.13538245 -287.17732239 28.13689232 C-288.98458021 28.13661586 -290.79183867 28.13460903 -292.59909248 28.13079453 C-295.05542125 28.12586177 -297.51167196 28.12700015 -299.96800232 28.12974548 C-300.69269681 28.12683264 -301.4173913 28.1239198 -302.16404623 28.12091869 C-305.45794893 27.84551782 -305.45794893 27.84551782 -308.1875 29.25 C-308.28266211 31.9888842 -308.31304594 34.70247941 -308.30102539 37.44165039 C-308.30117142 38.30011063 -308.30131744 39.15857086 -308.3014679 40.04304504 C-308.30076847 42.89460738 -308.2929747 45.74610525 -308.28515625 48.59765625 C-308.28329218 50.56920842 -308.28186822 52.54076105 -308.28086853 54.51231384 C-308.27704251 59.71226267 -308.26721152 64.91218375 -308.25616455 70.11212158 C-308.24595222 75.41393661 -308.24137129 80.7157561 -308.23632812 86.01757812 C-308.22558933 96.42839763 -308.20851191 106.83919651 -308.1875 117.25 C-307.19532471 117.26458252 -306.20314941 117.27916504 -305.1809082 117.29418945 C-301.43627057 117.3529521 -297.6921864 117.43016545 -293.94799805 117.51245117 C-292.33936669 117.54533932 -290.73062991 117.57347859 -289.12182617 117.59643555 C-273.7665317 117.82133391 -258.71552089 118.93861938 -246.66015625 129.6171875 C-236.71100548 140.6483414 -234.73570807 151.7017291 -234.78877258 166.07521057 C-234.78332747 167.57616094 -234.77657355 169.07710703 -234.76863068 170.57804626 C-234.7506559 174.68513222 -234.75115621 178.79203689 -234.75476015 182.89915287 C-234.75538517 187.33464849 -234.73875293 191.7700839 -234.72424316 196.20555115 C-234.70147236 203.88453686 -234.68957467 211.56347725 -234.68511391 219.24249458 C-234.67864865 230.34497943 -234.65570461 241.44738241 -234.62877061 252.54983424 C-234.58551548 270.56389164 -234.55554144 288.5779456 -234.53393555 306.59204102 C-234.51292205 324.08847753 -234.4856437 341.58488583 -234.44995117 359.08129883 C-234.44775235 360.16022672 -234.44555352 361.2391546 -234.44328807 362.35077728 C-234.43221832 367.76357557 -234.42102553 373.17637361 -234.40977156 378.58917153 C-234.31660447 423.47609731 -234.24744779 468.36301515 -234.1875 513.25 C-196.5675 513.25 -158.9475 513.25 -120.1875 513.25 C-120.17291748 502.98293945 -120.15833496 492.71587891 -120.14331055 482.13769531 C-120.0945328 449.2713111 -120.03111804 416.40496966 -119.95851372 383.53862979 C-119.94724582 378.43184067 -119.93610732 373.32505129 -119.92504883 368.21826172 C-119.92284514 367.20160981 -119.92064146 366.18495789 -119.918371 365.13749835 C-119.88301736 348.68506999 -119.85814231 332.23264167 -119.83715298 315.78018942 C-119.81537554 298.89319581 -119.78230664 282.0062514 -119.73879844 265.11929965 C-119.71231524 254.70267409 -119.69459533 244.28610982 -119.68815396 233.86945227 C-119.68288989 226.72230129 -119.6666387 219.57522737 -119.64183434 212.42811772 C-119.62785427 208.30720132 -119.61863544 204.18642277 -119.62249184 200.06548119 C-119.62592115 196.28617175 -119.61542838 192.50715592 -119.59426448 188.72790655 C-119.58656552 186.72662057 -119.59340741 184.72529455 -119.60091704 182.72400784 C-119.46254767 164.99380608 -113.66378701 150.02100245 -101.1875 137.25 C-87.09381168 125.01459059 -70.60747738 120.0681648 -52.19140625 121.07714844 C-38.01036972 122.3003665 -22.65550691 129.61495523 -12.94140625 140.0546875 C-2.86592665 152.66586686 2.45586722 164.7556263 2.30456543 181.06393433 C2.30924442 182.29754232 2.31392341 183.53115031 2.31874418 184.80214036 C2.32772184 188.19160674 2.31904504 191.58016342 2.30266929 194.9695437 C2.28940725 198.63836208 2.29948213 202.30712739 2.30677795 205.97595215 C2.31642726 212.32402232 2.31203093 218.67195485 2.2983551 225.02001572 C2.27892304 234.21330023 2.28546378 243.40643135 2.29892892 252.59972002 C2.3204802 267.53800452 2.32723105 282.4762527 2.32177734 297.41455078 C2.32145671 298.30725808 2.32113608 299.19996537 2.32080573 300.11972441 C2.31809363 307.36097114 2.31466261 314.6022175 2.31120014 321.8434639 C2.30820502 328.17054483 2.30549669 334.4976258 2.30322266 340.82470703 C2.30273439 342.16121354 2.30273439 342.16121354 2.30223626 343.52472018 C2.29728567 358.40745302 2.3080046 373.29013553 2.32979441 388.17285264 C2.34245671 397.33738651 2.34110261 406.50171207 2.32134354 415.66623451 C2.30869087 421.9503301 2.31023918 428.23432047 2.32271707 434.51841603 C2.32939729 438.13747252 2.32965318 441.75622096 2.3121357 445.37524796 C2.29320824 449.31099931 2.30554411 453.24632272 2.32043457 457.18209839 C2.30994567 458.30819956 2.29945678 459.43430073 2.28865004 460.59452617 C2.41705096 475.92778388 7.47935143 489.62471176 17.97265625 500.81640625 C21.30459526 503.67169924 24.67481967 505.74359037 28.5625 507.75 C29.1810083 508.07621338 29.7995166 508.40242676 30.43676758 508.73852539 C40.45619385 513.52113153 51.96484368 513.54625758 62.85473633 513.47705078 C64.08558456 513.47734283 65.3164328 513.47763489 66.58457947 513.47793579 C69.91438287 513.4767927 73.24392889 513.46686015 76.57368684 513.45278788 C80.07033143 513.44016562 83.56698055 513.43910106 87.06364441 513.43673706 C93.66478005 513.4305557 100.26584834 513.41419086 106.86695451 513.39403808 C115.13069105 513.36936461 123.39443886 513.35851467 131.65820312 513.34765625 C146.37635436 513.32825666 161.09435892 513.28817935 175.8125 513.25 C175.8125 485.53 175.8125 457.81 175.8125 429.25 C167.5625 428.92 159.3125 428.59 150.8125 428.25 C142.91090449 425.85130136 142.91090449 425.85130136 138.8125 423.25 C138.00167969 422.755 137.19085937 422.26 136.35546875 421.75 C126.4739513 414.93290007 121.77524438 404.56959922 118.8125 393.25 C118.30338481 389.13423594 118.2801429 385.08641081 118.32043457 380.9430542 C118.31575558 379.76394352 118.31107659 378.58483284 118.30625582 377.36999154 C118.29728364 374.13271379 118.305948 370.89606312 118.32233071 367.65883327 C118.33560034 364.15357671 118.32551609 360.64837544 118.31822205 357.14311218 C118.30857491 351.07824411 118.31296658 345.01352013 118.3266449 338.9486618 C118.34608628 330.16267011 118.33953162 321.37683882 118.32607108 312.59084275 C118.30452129 298.31039114 118.29776835 284.02997753 118.30322266 269.74951172 C118.30354329 268.89620703 118.30386392 268.04290235 118.30419427 267.16373995 C118.3069059 260.2434342 118.31033632 253.32312885 118.31379986 246.40282345 C118.31679469 240.35920663 118.3195032 234.31558979 118.32177734 228.27197266 C118.32226561 226.99540877 118.32226561 226.99540877 118.32276374 225.69305572 C118.32771768 211.46797944 118.31698132 197.24295577 118.29520559 183.01789594 C118.28255597 174.26180031 118.2838757 165.50592275 118.30365646 156.74983916 C118.3163279 150.74278746 118.31474391 144.73584572 118.30228293 138.72879401 C118.29561548 135.27150577 118.29530047 131.81453976 118.3128643 128.35728264 C118.38358267 111.44126599 118.35696062 95.28611439 110.125 80 C109.60909302 79.01326294 109.60909302 79.01326294 109.08276367 78.0065918 C95.9580236 53.63630217 74.81780819 37.65356718 48.8125 29.25 C-6.7899652 12.61634647 -59.57125525 26.87405262 -103.39624023 63.53393555 Z " fill="#A61930" transform="translate(387.1875,24.75)"/>
</svg>
