<?xml version="1.0" encoding="UTF-8"?>
<svg version="1.1" xmlns="http://www.w3.org/2000/svg" width="193" height="204">
<path d="M0 0 C4.3713044 2.58982128 7.83085179 5.92930224 9.5625 10.83203125 C12.32372224 24.5148736 7.57839355 34.73501038 0.56738281 46.10546875 C-10.42349459 63.97798123 -22.32643982 87.04767903 -18.53515625 108.6484375 C-14.81335083 124.02015455 -5.91229223 137.98129561 7.49609375 146.60546875 C11.53630759 148.85563465 15.60228459 150.57930947 20 152 C20.6703125 152.22558594 21.340625 152.45117188 22.03125 152.68359375 C35.54421041 156.45163079 51.38274389 154.59562842 63.91015625 148.609375 C66.38649156 147.19005763 68.69244919 145.67783457 71 144 C71.62132812 143.56042969 72.24265625 143.12085938 72.8828125 142.66796875 C84.04846549 133.9807903 91.44340951 119.73424191 94 106 C96.58743918 83.98904478 83.28176401 59.27047101 71.5390625 41.46875 C65.80837783 32.27638271 64.08333491 23.79340871 65 13 C66.34842395 8.16108434 68.97331989 4.03416003 73.08203125 1.03125 C80.50005572 -2.9572601 88.69580565 -3.28287444 96.9375 -3.375 C97.75436279 -3.38893799 98.57122559 -3.40287598 99.4128418 -3.41723633 C104.05514264 -3.380328 107.29579703 -3.10218146 111 0 C113.73197888 4.42503622 114.54480061 9.90176683 115 15 C115.06445312 15.67289063 115.12890625 16.34578125 115.1953125 17.0390625 C115.40072273 20.69536461 115.1364911 22.77088994 113.25 25.9375 C111.04249331 27.9610478 109.93170364 28.6858889 107 29 C108.48206232 32.24099342 110.37436553 35.14881174 112.32543945 38.12426758 C128.53132065 63.07395693 137.44994031 92.63934098 131.41015625 122.35449219 C125.80416379 147.19354359 109.72733289 169.97531628 88.4453125 183.86328125 C66.39886188 197.75016918 40.10328931 201.52182236 14.703125 195.96875 C-11.41292482 189.13670321 -32.48217554 172.16121023 -46.15478516 149.04785156 C-59.49196074 125.38794743 -61.14295675 98.96796376 -54 73 C-49.68678618 58.46803673 -42.76199873 45.03034067 -33.46875 33.07421875 C-31.8073702 31.15155768 -31.8073702 31.15155768 -32 29 C-32.763125 28.7525 -33.52625 28.505 -34.3125 28.25 C-37.44463315 26.79319388 -38.48717792 26.10526637 -40 23 C-40.69717132 15.67970111 -40.24509293 5.16587688 -35.58203125 -0.8203125 C-27.59510317 -6.77599715 -8.37443184 -3.54149264 0 0 Z " fill="#05366B" transform="translate(59,4)"/>
<path d="M0 0 C4.3713044 2.58982128 7.83085179 5.92930224 9.5625 10.83203125 C12.32372224 24.5148736 7.57839355 34.73501038 0.56738281 46.10546875 C-10.42349459 63.97798123 -22.32643982 87.04767903 -18.53515625 108.6484375 C-14.81335083 124.02015455 -5.91229223 137.98129561 7.49609375 146.60546875 C11.53630759 148.85563465 15.60228459 150.57930947 20 152 C20.6703125 152.22558594 21.340625 152.45117188 22.03125 152.68359375 C35.54421041 156.45163079 51.38274389 154.59562842 63.91015625 148.609375 C66.38649156 147.19005763 68.69244919 145.67783457 71 144 C71.62132812 143.56042969 72.24265625 143.12085938 72.8828125 142.66796875 C84.04846549 133.9807903 91.44340951 119.73424191 94 106 C96.58743918 83.98904478 83.28176401 59.27047101 71.5390625 41.46875 C65.80837783 32.27638271 64.08333491 23.79340871 65 13 C66.34842395 8.16108434 68.97331989 4.03416003 73.08203125 1.03125 C80.50005572 -2.9572601 88.69580565 -3.28287444 96.9375 -3.375 C97.75436279 -3.38893799 98.57122559 -3.40287598 99.4128418 -3.41723633 C104.05514264 -3.380328 107.29579703 -3.10218146 111 0 C113.73197888 4.42503622 114.54480061 9.90176683 115 15 C115.06445312 15.67289063 115.12890625 16.34578125 115.1953125 17.0390625 C115.40072273 20.69536461 115.1364911 22.77088994 113.25 25.9375 C111.04249331 27.9610478 109.93170364 28.6858889 107 29 C108.48206232 32.24099342 110.37436553 35.14881174 112.32543945 38.12426758 C128.53132065 63.07395693 137.44994031 92.63934098 131.41015625 122.35449219 C125.80416379 147.19354359 109.72733289 169.97531628 88.4453125 183.86328125 C66.39886188 197.75016918 40.10328931 201.52182236 14.703125 195.96875 C-11.41292482 189.13670321 -32.48217554 172.16121023 -46.15478516 149.04785156 C-59.49196074 125.38794743 -61.14295675 98.96796376 -54 73 C-49.68678618 58.46803673 -42.76199873 45.03034067 -33.46875 33.07421875 C-31.8073702 31.15155768 -31.8073702 31.15155768 -32 29 C-32.763125 28.7525 -33.52625 28.505 -34.3125 28.25 C-37.44463315 26.79319388 -38.48717792 26.10526637 -40 23 C-40.69717132 15.67970111 -40.24509293 5.16587688 -35.58203125 -0.8203125 C-27.59510317 -6.77599715 -8.37443184 -3.54149264 0 0 Z M-33 5 C-34.71096566 10.31588797 -36.58775685 17.82448629 -34 23 C-31.64400765 23.46751788 -31.64400765 23.46751788 -28.9375 23.625 C-28.01839844 23.69976563 -27.09929688 23.77453125 -26.15234375 23.8515625 C-25.44207031 23.90054687 -24.73179688 23.94953125 -24 24 C-24.42861746 29.3375005 -26.51041452 32.61622428 -29.6875 36.75 C-30.60772568 38.00094705 -31.52569752 39.25355521 -32.44140625 40.5078125 C-32.88500488 41.11141602 -33.32860352 41.71501953 -33.78564453 42.33691406 C-48.62695293 62.66240518 -56.4061662 90.4982611 -52.62060547 115.50634766 C-49.37343859 132.5006444 -42.05430509 147.75493263 -31 161 C-30.41476563 161.73605469 -29.82953125 162.47210938 -29.2265625 163.23046875 C-15.48422819 179.90837212 5.66806497 190.6203019 27 193 C53.47669979 195.22552647 77.00313413 187.40378354 97.375 170.5625 C114.69749155 154.51758917 126.9145124 130.99802161 128.203125 107.2578125 C128.72678921 79.713742 118.70385951 55.17004628 102.49169922 33.16235352 C99.85540355 29.53660601 98.90902359 27.54511796 98 23 C101.63 23 105.26 23 109 23 C109.05425226 20.60385874 109.09379027 18.20896147 109.125 15.8125 C109.15013672 14.80219727 109.15013672 14.80219727 109.17578125 13.77148438 C109.21518588 9.73251022 108.92896579 6.58140152 107 3 C103.42873846 1.21436923 99.30798201 1.77250633 95.375 1.75 C94.49714844 1.729375 93.61929688 1.70875 92.71484375 1.6875 C85.49539343 1.64459093 79.80177684 2.6245805 74.125 7.4375 C70.75325761 11.50342465 69.49201659 14.13104879 69.7109375 19.57421875 C70.85165822 29.14702374 74.67077004 36.45746699 79.6875 44.5 C91.3582607 63.24638245 103.04193909 87.26634948 98.60449219 110.02880859 C96.41986631 119.33864212 92.80781155 127.34979445 87 135 C86.42765625 135.77730469 85.8553125 136.55460938 85.265625 137.35546875 C76.01648693 148.83783888 60.59540539 157.21316855 46 159 C27.35272734 160.21418156 11.27121087 157.25940805 -3.25 144.6875 C-10.29754158 137.96232231 -15.14817107 131.18214207 -19.375 122.4375 C-19.72127441 121.72916016 -20.06754883 121.02082031 -20.42431641 120.29101562 C-22.65975231 115.45485454 -23.59408471 111.31529611 -24 106 C-24.06703125 105.13375 -24.1340625 104.2675 -24.203125 103.375 C-24.65133048 80.6659222 -14.60259044 58.96703043 -2.3125 40.375 C2.87619633 32.32317169 6.61160506 23.73608829 5 14 C3.63220684 9.77521875 1.34392858 6.9367904 -2.4375 4.625 C-8.48784779 1.86519223 -14.07468269 1.78969889 -20.625 1.75 C-21.48351562 1.729375 -22.34203125 1.70875 -23.2265625 1.6875 C-24.0515625 1.68234375 -24.8765625 1.6771875 -25.7265625 1.671875 C-26.47502441 1.6625293 -27.22348633 1.65318359 -27.99462891 1.64355469 C-30.5535155 2.09838479 -31.41016566 2.98394312 -33 5 Z " fill="#F9FAFB" transform="translate(59,4)"/>
<path d="M0 0 C1.98 0.495 1.98 0.495 4 1 C3.67 2.32 3.34 3.64 3 5 C1.68 4.67 0.36 4.34 -1 4 C-0.67 2.68 -0.34 1.36 0 0 Z " fill="#C4D0DC" transform="translate(95,178)"/>
</svg>
