<?xml version="1.0" encoding="UTF-8"?>
<svg version="1.1" xmlns="http://www.w3.org/2000/svg" width="3840" height="2160">
<path d="M0 0 C2.05513433 0.0008558 4.11026841 0.00130331 6.16540289 0.00165749 C47.52997717 0.01043433 88.83641614 0.21324487 130.16325521 2.18834877 C131.59000213 2.25476576 133.01676034 2.32094041 134.44352865 2.38689613 C219.56556873 6.32721702 304.45805813 13.22814414 667.16325521 86.18834877 C668.04338278 86.45800453 668.92351034 86.72766029 669.83030844 87.00548744 C740.15425177 108.5765909 808.68213122 134.90457985 876.91716146 162.28600502 C891.13878612 167.98851033 905.38572437 173.62621501 919.65544271 179.20726967 C921.32235903 179.85938252 922.98902744 180.51212946 924.65544271 181.16552162 C1008.81861966 214.15719017 1095.08591174 240.54209295 1390.83122396 222.83288002 C1391.66162191 222.64534157 1392.49201986 222.45780312 1393.34758139 222.26458168 C1397.17266681 221.39464633 1400.99107735 220.50387578 1404.80241537 219.5755558 C1418.37733601 216.32836351 1431.29280376 215.35177942 1443.77263021 222.73131752 C1452.73770914 229.30470593 1457.92983823 237.71625366 1460.74919271 248.41100502 C1461.34743525 252.42374503 1461.42884993 256.38573224 1461.47575521 260.43834877 C1461.50475912 261.22725502 1461.53376303 262.01616127 1461.56364584 262.82897377 C1461.7261592 278.83028939 1455.25207103 294.46403431 1449.97575521 309.31334877 C1449.26327913 311.33751234 1448.55129511 313.36184916 1447.83976889 315.38634682 C1445.6301597 321.65937187 1443.39994848 327.92493632 1441.16325521 334.18834877 C1440.81762533 335.15673683 1440.47199545 336.12512489 1440.11589193 337.12285805 C1430.64802781 363.62892324 1420.9204546 390.03950242 1411.17228842 416.44347572 C1405.12052843 432.84090314 1399.1244339 449.25779298 1393.16325521 465.68834877 C1382.92865072 493.8915101 1372.56106798 522.04500577 1362.16325521 550.18834877 C1361.78747335 551.20547951 1361.41169149 552.22261024 1361.0245223 553.27056313 C1357.88499489 561.76775663 1354.74456628 570.26461675 1351.6024642 578.76085854 C1347.81068635 589.01523763 1344.02578089 599.27211501 1340.24919271 609.53209877 C1339.61481535 611.25549728 1339.61481535 611.25549728 1338.96762228 613.01371193 C1338.53967871 614.17631035 1338.11173513 615.33890877 1337.67082357 616.53673744 C1327.18061015 645.03534991 1316.63451286 673.51282226 1306.06475973 701.98200035 C1301.49836221 714.28157229 1296.9403081 726.58422606 1292.38514853 738.88796425 C1267.95236384 804.88192927 1243.46448404 870.85568084 1218.91124105 936.80492592 C1217.33690935 941.03394432 1215.76339589 945.26326527 1214.19108725 949.49303627 C1213.85838827 950.38796791 1213.5256893 951.28289955 1213.18290854 952.20495033 C1212.50531865 954.0283601 1211.82815443 955.85192811 1211.15141439 957.67565346 C1209.47565616 962.18939907 1207.79215847 966.69992229 1206.09050131 971.20397377 C1203.03230984 979.3195265 1200.04292958 987.43757927 1197.32330465 995.67386818 C1196.09747789 999.37070373 1194.82884136 1003.05218478 1193.55635214 1006.73317909 C1192.97082631 1008.46574733 1192.40609255 1010.20551259 1191.86464071 1011.95235634 C1187.26979029 1026.74902902 1187.26979029 1026.74902902 1179.62779379 1030.91393471 C1176.86131969 1032.20749074 1174.05890145 1033.34139847 1171.19694662 1034.40560341 C1168.11053327 1035.59352982 1165.19341874 1037.0889767 1162.24138021 1038.57506752 C1159.96620697 1039.67712259 1157.69014191 1040.77733812 1155.41325521 1041.87584877 C1154.79908743 1042.17237343 1154.18491964 1042.46889809 1153.55214071 1042.77440834 C1143.51346261 1047.61762883 1133.42444545 1052.3448066 1123.30534506 1057.01793861 C1113.35439022 1061.61903591 1103.44293889 1066.30106897 1093.53825521 1071.00084877 C1091.91937377 1071.76870274 1090.30047728 1072.53652499 1088.68156576 1073.30431557 C1087.87930059 1073.68480553 1087.07703543 1074.06529549 1086.25045919 1074.45731544 C1085.44824438 1074.83777519 1084.64602957 1075.21823494 1083.81950521 1075.61022377 C1083.01708899 1075.99080437 1082.21467276 1076.37138496 1081.38794088 1076.76349831 C1040.49446104 1096.1559349 1040.49446104 1096.1559349 1023.92180014 1103.51856422 C1023.21673834 1103.83182687 1022.51167654 1104.14508951 1021.78524923 1104.46784496 C1021.24999121 1104.70561122 1020.71473318 1104.94337748 1020.16325521 1105.18834877 C1021.54010934 1118.91092263 1023.18432155 1132.58571614 1024.9606185 1146.2618351 C1025.236973 1148.40263253 1025.51312042 1150.54345671 1025.78907919 1152.68430519 C1026.37822889 1157.25187578 1026.96869646 1161.81927326 1027.56020117 1166.38653946 C1028.49560715 1173.6102223 1029.42725286 1180.83438715 1030.35829306 1188.0586338 C1032.83673859 1207.28531383 1035.31977308 1226.51140051 1037.80562627 1245.73712415 C1039.44378915 1258.40684427 1041.07980055 1271.07683795 1042.71167314 1283.74736995 C1043.63679273 1290.92901092 1044.56536443 1298.11019444 1045.49651885 1305.29105532 C1046.07361693 1309.7476492 1046.64755583 1314.20464566 1047.22060156 1318.66176224 C1047.48694968 1320.72834202 1047.75460513 1322.79475379 1048.02366018 1324.86098289 C1048.39051828 1327.6797342 1048.75269888 1330.49904873 1049.11372519 1333.31855202 C1049.2213075 1334.13634142 1049.32888981 1334.95413083 1049.43973219 1335.79670173 C1049.96750077 1339.95963948 1050.2761062 1343.98086375 1050.16325521 1348.18834877 C1049.19653891 1348.6341227 1048.2298226 1349.07989662 1047.23381186 1349.53917885 C1025.14937666 1359.72342976 1025.14937666 1359.72342976 1003.07594442 1369.93149757 C1001.31522782 1370.74671632 999.55418167 1371.56122369 997.79280233 1372.37500954 C993.45258839 1374.38185255 989.1197603 1376.40232637 984.79948568 1378.4517765 C977.21458128 1382.03536994 969.69590232 1385.46420781 961.78044271 1388.25475502 C947.91584046 1393.2343068 947.91584046 1393.2343068 938.38981771 1403.95788002 C935.91316457 1409.3386968 934.10088255 1414.88761021 932.39169455 1420.54741859 C930.55082189 1426.46012067 928.06344921 1431.94805885 925.40934896 1437.53600502 C914.85247393 1457.94441841 914.85247393 1457.94441841 914.65422201 1480.00768471 C916.20137609 1483.95875194 917.96933791 1487.73648268 919.91911459 1491.50377846 C921.95623517 1495.89941777 922.7748347 1500.43985878 923.60075521 1505.18834877 C923.75052816 1505.97193764 923.90030111 1506.7555265 924.05461264 1507.56286049 C935.03896463 1566.81023129 912.62668692 1627.053613 879.51091146 1675.40709877 C865.18044993 1696.0190186 848.26492646 1715.85714893 829.16325521 1732.18834877 C828.13213671 1733.10369849 827.10226764 1734.02045692 826.07341146 1734.93834877 C787.97659843 1768.64151475 738.11526736 1795.89303455 686.97966146 1801.53991127 C684.16325521 1801.18834877 684.16325521 1801.18834877 682.03044271 1799.34459877 C681.37302084 1798.46803627 680.71559896 1797.59147377 680.03825521 1796.68834877 C679.26610678 1795.67901283 678.49395834 1794.6696769 677.69841146 1793.62975502 C676.85255685 1792.48321123 676.00753792 1791.33605056 675.16325521 1790.18834877 C674.2466838 1788.96724658 673.3286683 1787.74722725 672.40934896 1786.52819252 C670.91979645 1784.54933056 669.43308068 1782.56857074 667.95329428 1780.58239174 C662.39771037 1773.12566406 656.6751799 1765.80166949 650.94987631 1758.47496986 C647.99636289 1754.69489242 645.04773534 1750.91102096 642.10075521 1747.12584877 C641.52156332 1746.38238197 640.94237143 1745.63891518 640.34562826 1744.87291908 C636.94373734 1740.49953532 633.57127872 1736.10528459 630.21940756 1731.69347572 C624.87854284 1724.6649622 619.42172021 1717.75437771 613.82707357 1710.92614174 C610.5326602 1706.89825144 607.31797041 1702.82668276 604.16325521 1698.68834877 C598.80225047 1691.65966991 593.21316171 1684.8246923 587.62175131 1677.97887611 C584.43956273 1674.07225224 581.30261745 1670.12939364 578.16325521 1666.18834877 C572.55007386 1659.14369346 566.87669702 1652.15191118 561.16325521 1645.18834877 C559.66297205 1643.35524715 558.16297114 1641.5219145 556.66325521 1639.68834877 C555.91817709 1638.77827065 555.17309896 1637.86819252 554.40544271 1636.93053627 C552.92920661 1635.12510466 551.45518786 1633.31785736 549.98356771 1631.50866127 C545.46541418 1625.96146209 540.88205114 1620.47641016 536.249681 1615.02477455 C533.35105683 1611.60814145 530.49184942 1608.1634788 527.66325521 1604.68834877 C523.03772529 1599.00931736 518.30858477 1593.42242055 513.56608725 1587.8411808 C512.18847933 1586.2180681 510.81393764 1584.59241837 509.44059896 1582.96569252 C503.72661133 1576.19801799 497.9809596 1569.45839727 492.21013021 1562.73913002 C490.15359071 1560.34446578 488.10188208 1557.94578708 486.05388021 1555.54381752 C480.83223951 1549.42442394 475.56546694 1543.36101278 470.16325521 1537.39928627 C466.22633082 1533.04713938 462.37646119 1528.62431336 458.58903646 1524.14147377 C452.42439775 1516.85465185 446.08039016 1509.78796481 439.50309896 1502.8699894 C435.84708885 1499.019257 432.30314112 1495.0954443 428.82219076 1491.08580971 C426.42421701 1488.34305003 423.95596579 1485.66911598 421.47575521 1483.00084877 C420.42622538 1481.86808321 419.37674766 1480.73526937 418.32731771 1479.60241127 C417.80041342 1479.03425697 417.27350912 1478.46610268 416.73063803 1477.88073158 C415.23387678 1476.26460246 413.7407189 1474.64524659 412.24919271 1473.02428627 C397.0837937 1456.39575116 397.0837937 1456.39575116 381.28825521 1440.37584877 C379.58064157 1438.61801119 378.02257477 1436.84297917 376.44426107 1434.97374916 C370.48022488 1428.144308 363.95549879 1421.83708112 357.54216146 1415.43444252 C356.11386929 1414.0054755 354.68572549 1412.57636016 353.25772238 1411.14710426 C350.27464846 1408.1625619 347.2897886 1405.17982053 344.30363607 1402.19835854 C340.49312882 1398.39354802 336.68712936 1394.58426498 332.88246393 1390.77361393 C329.93732159 1387.82484289 326.98978288 1384.87847645 324.04153395 1381.93281174 C322.63790252 1380.52984319 321.23500189 1379.12614307 319.83287382 1377.72167206 C310.51567886 1368.32505317 310.51567886 1368.32505317 300.67837667 1359.4832859 C298.19188544 1357.35814286 295.94818687 1355.02833902 293.66325521 1352.68834877 C289.91175727 1348.87965543 286.05735752 1345.26868001 281.99138021 1341.79772377 C280.13387533 1340.16248443 278.39719512 1338.45353084 276.66325521 1336.68834877 C273.74194733 1333.72119076 270.68333848 1330.98775906 267.53044271 1328.27038002 C264.52603562 1325.62788995 261.59576212 1322.910104 258.66325521 1320.18834877 C254.53129675 1316.35703544 250.37285826 1312.57198592 246.10856771 1308.88756752 C243.82660231 1306.89428449 241.59096948 1304.8534185 239.35075521 1302.81334877 C235.90947317 1299.70306026 232.40004224 1296.72356565 228.78825521 1293.81334877 C224.77498706 1290.5688193 220.93914654 1287.20083412 217.16325521 1283.68834877 C212.58389762 1279.43309593 207.87040091 1275.41512654 202.99919271 1271.49303627 C199.90738163 1268.98040742 196.87881657 1266.40194812 193.85075521 1263.81334877 C188.80129999 1259.50864874 183.63327536 1255.38485856 178.39445639 1251.31383705 C174.40112001 1248.1972756 170.51075315 1244.98277984 166.66325521 1241.68834877 C160.6175059 1236.52101825 154.41018019 1231.58958145 148.12761068 1226.71422768 C145.98128046 1225.04699379 143.8396618 1223.37381991 141.69841146 1221.70006752 C128.67800255 1211.53181344 115.46453991 1201.6499234 102.15544271 1191.86413002 C98.90490043 1189.47335553 95.66022562 1187.07499148 92.42106771 1184.66881752 C81.9972522 1176.93473902 71.44579244 1169.41024475 60.78190756 1162.01110268 C58.11722157 1160.15630633 55.46170424 1158.28898296 52.80778646 1156.41881752 C29.40155303 1139.96370167 5.32175844 1124.51039214 -18.83674479 1109.18834877 C-19.80853678 1108.57040443 -20.78032877 1107.9524601 -21.781569 1107.31579018 C-36.64947159 1097.87604892 -51.74355913 1088.87082897 -66.96806192 1080.02355385 C-70.86845813 1077.75614167 -74.7543692 1075.46572939 -78.63264322 1073.16076088 C-96.45616668 1062.58110571 -114.66578068 1052.64060123 -132.89485025 1042.78063393 C-134.93150455 1041.67830535 -136.96690467 1040.57365758 -139.00129557 1039.46715736 C-155.8787167 1030.29231721 -172.92488078 1021.52946196 -190.1412797 1013.01070595 C-194.7130762 1010.74844459 -199.27617853 1008.46924591 -203.83674479 1006.18444252 C-227.1284646 994.52819521 -250.62080076 983.45999702 -274.47257853 972.99582863 C-278.97657991 971.0169973 -283.46329697 969.0053616 -287.93830729 966.96178627 C-360.73395084 933.7408448 -436.40787184 905.52928238 -512.42750406 880.62316322 C-517.72177174 878.88790651 -523.00889962 877.13222411 -528.29321146 875.36689186 C-568.65734927 861.89502927 -609.37184862 849.51070427 -650.31330729 837.91100502 C-651.54641893 837.56142487 -651.54641893 837.56142487 -652.80444193 837.20478249 C-656.33129201 836.20753146 -659.86017453 835.21952471 -663.39558268 834.25304604 C-669.79210788 832.47528779 -676.05180079 830.47551201 -682.27424479 828.16881752 C-682.92112757 827.93055244 -683.56801035 827.69228737 -684.23449564 827.44680214 C-701.89776669 820.7351325 -717.65403667 809.09533772 -726.14924479 791.93834877 C-734.06784304 773.5766945 -733.29581315 754.94505719 -726.14924479 736.50084877 C-723.2692549 729.45100704 -719.38569133 723.27509708 -714.83674479 717.18834877 C-714.34432291 716.51159096 -713.85190104 715.83483315 -713.34455729 715.13756752 C-710.53292648 711.55551811 -707.39406023 709.06715491 -703.64143229 706.48913002 C-702.74150553 705.86820473 -701.84157877 705.24727943 -700.9143815 704.60753822 C-700.22876139 704.1392057 -699.54314127 703.67087318 -698.83674479 703.18834877 C-700.01753107 703.29221901 -701.19831736 703.39608925 -702.41488504 703.50310707 C-848.27863088 716.32769184 -848.27863088 716.32769184 -901.19923258 718.09978676 C-903.73882298 718.18506077 -906.2782577 718.27413287 -908.81770182 718.36364174 C-961.40562191 720.17366755 -1014.24965179 719.84302787 -1066.83674479 718.18834877 C-1067.79907022 718.15912331 -1068.76139566 718.12989784 -1069.75288248 718.09978676 C-1167.57854043 715.12377369 -1266.76161299 708.68155601 -1477.30940104 636.68834877 C-1486.95629495 625.43664446 -1489.73907801 612.68900195 -1488.83674479 598.18834877 C-1487.6061685 590.27871363 -1485.55878958 582.70637725 -1482.83674479 575.18834877 C-1491.88906883 575.80932105 -1500.87423543 576.72336129 -1509.87971354 577.82506752 C-1512.63872767 578.15699263 -1515.39803011 578.48649904 -1518.15730143 578.81627846 C-1518.87339956 578.90210402 -1519.5894977 578.98792959 -1520.32729578 579.07635593 C-1591.11874841 587.5544034 -1662.15378012 593.53193263 -1733.41908121 596.09978676 C-1735.70416216 596.1834921 -1737.98895931 596.27255752 -1740.2737565 596.36364174 C-1842.3878086 600.37653561 -1945.31462465 595.85372502 -2167.33674479 562.43834877 C-2168.43218607 562.21182625 -2169.52762735 561.98530373 -2170.65626383 561.75191689 C-2181.42469685 559.51383472 -2192.16336847 557.18193773 -2202.84065104 554.53991127 C-2203.62979898 554.34576637 -2204.41894693 554.15162148 -2205.23200846 553.9515934 C-2231.02853849 547.42814933 -2254.73812962 533.90654318 -2268.78986979 510.78209877 C-2276.85696137 496.95702805 -2280.20505819 481.9387763 -2276.71174479 466.12584877 C-2273.50945317 454.87335183 -2268.12353256 446.36734093 -2259.83674479 438.18834877 C-2258.69399088 437.03012611 -2258.69399088 437.03012611 -2257.52815104 435.84850502 C-2233.96044391 413.20957453 -2198.84708688 409.11791452 -2167.83674479 406.18834877 C-2071.99596049 397.1209533 -1977.1859614 381.81211307 -1523.29915667 275.18836403 C-1517.53921766 273.64399201 -1511.77837391 272.10303788 -1506.01692057 270.56432533 C-1461.20910687 258.59670472 -1416.44065969 246.48516499 -1371.67976236 234.34337807 C-1340.41954849 225.86380749 -1309.15499264 217.40342337 -1277.85774088 209.06139565 C-1272.70627917 207.68787078 -1267.55570274 206.31107017 -1262.40559244 204.9324894 C-1190.50803511 185.68710157 -1118.50634644 166.90523179 -1046.31041574 148.8085041 C-1043.8961577 148.20324373 -1041.48200911 147.59754856 -1039.06788492 146.99175453 C-959.84969847 127.11818492 -880.29926565 108.54495943 -740.99666452 79.62207222 C-738.87520386 79.19607156 -736.7538805 78.76939289 -734.63258219 78.34258461 C-658.48126822 63.03030901 -581.86656098 49.67390834 -130.33674479 2.50084877 C-129.62882792 2.4701001 -128.92091105 2.43935143 -128.19154215 2.40767097 C-117.74152071 1.95430326 -107.29036272 1.54930889 -96.83674479 1.18834877 C-96.13084963 1.16359097 -95.42495447 1.13883316 -94.69766855 1.11332512 C-63.13845029 0.01467492 -31.57530792 -0.01460502 0 0 Z " fill="#002244" transform="translate(2316.836744785309,172.8116512298584)"/>
<path d="M0 0 C2.05513433 0.0008558 4.11026841 0.00130331 6.16540289 0.00165749 C47.52997717 0.01043433 88.83641614 0.21324487 130.16325521 2.18834877 C131.59000213 2.25476576 133.01676034 2.32094041 134.44352865 2.38689613 C219.56556873 6.32721702 304.45805813 13.22814414 667.16325521 86.18834877 C668.04338278 86.45800453 668.92351034 86.72766029 669.83030844 87.00548744 C740.15425177 108.5765909 808.68213122 134.90457985 876.91716146 162.28600502 C891.13878612 167.98851033 905.38572437 173.62621501 919.65544271 179.20726967 C921.32235903 179.85938252 922.98902744 180.51212946 924.65544271 181.16552162 C1008.81861966 214.15719017 1095.08591174 240.54209295 1390.83122396 222.83288002 C1391.66162191 222.64534157 1392.49201986 222.45780312 1393.34758139 222.26458168 C1397.17266681 221.39464633 1400.99107735 220.50387578 1404.80241537 219.5755558 C1418.37733601 216.32836351 1431.29280376 215.35177942 1443.77263021 222.73131752 C1452.73770914 229.30470593 1457.92983823 237.71625366 1460.74919271 248.41100502 C1461.34743525 252.42374503 1461.42884993 256.38573224 1461.47575521 260.43834877 C1461.50475912 261.22725502 1461.53376303 262.01616127 1461.56364584 262.82897377 C1461.7261592 278.83028939 1455.25207103 294.46403431 1449.97575521 309.31334877 C1449.26327913 311.33751234 1448.55129511 313.36184916 1447.83976889 315.38634682 C1445.6301597 321.65937187 1443.39994848 327.92493632 1441.16325521 334.18834877 C1440.81762533 335.15673683 1440.47199545 336.12512489 1440.11589193 337.12285805 C1430.64802781 363.62892324 1420.9204546 390.03950242 1411.17228842 416.44347572 C1405.12052843 432.84090314 1399.1244339 449.25779298 1393.16325521 465.68834877 C1382.92865072 493.8915101 1372.56106798 522.04500577 1362.16325521 550.18834877 C1361.78747335 551.20547951 1361.41169149 552.22261024 1361.0245223 553.27056313 C1357.88499489 561.76775663 1354.74456628 570.26461675 1351.6024642 578.76085854 C1347.81068635 589.01523763 1344.02578089 599.27211501 1340.24919271 609.53209877 C1339.61481535 611.25549728 1339.61481535 611.25549728 1338.96762228 613.01371193 C1338.53967871 614.17631035 1338.11173513 615.33890877 1337.67082357 616.53673744 C1327.18061015 645.03534991 1316.63451286 673.51282226 1306.06475973 701.98200035 C1301.49836221 714.28157229 1296.9403081 726.58422606 1292.38514853 738.88796425 C1267.95236384 804.88192927 1243.46448404 870.85568084 1218.91124105 936.80492592 C1217.33690935 941.03394432 1215.76339589 945.26326527 1214.19108725 949.49303627 C1213.85838827 950.38796791 1213.5256893 951.28289955 1213.18290854 952.20495033 C1212.50531865 954.0283601 1211.82815443 955.85192811 1211.15141439 957.67565346 C1209.47565616 962.18939907 1207.79215847 966.69992229 1206.09050131 971.20397377 C1203.03230984 979.3195265 1200.04292958 987.43757927 1197.32330465 995.67386818 C1196.09747789 999.37070373 1194.82884136 1003.05218478 1193.55635214 1006.73317909 C1192.97082631 1008.46574733 1192.40609255 1010.20551259 1191.86464071 1011.95235634 C1187.26979029 1026.74902902 1187.26979029 1026.74902902 1179.62779379 1030.91393471 C1176.86131969 1032.20749074 1174.05890145 1033.34139847 1171.19694662 1034.40560341 C1168.11053327 1035.59352982 1165.19341874 1037.0889767 1162.24138021 1038.57506752 C1159.96620697 1039.67712259 1157.69014191 1040.77733812 1155.41325521 1041.87584877 C1154.79908743 1042.17237343 1154.18491964 1042.46889809 1153.55214071 1042.77440834 C1143.51346261 1047.61762883 1133.42444545 1052.3448066 1123.30534506 1057.01793861 C1113.35439022 1061.61903591 1103.44293889 1066.30106897 1093.53825521 1071.00084877 C1091.91937377 1071.76870274 1090.30047728 1072.53652499 1088.68156576 1073.30431557 C1087.87930059 1073.68480553 1087.07703543 1074.06529549 1086.25045919 1074.45731544 C1085.44824438 1074.83777519 1084.64602957 1075.21823494 1083.81950521 1075.61022377 C1083.01708899 1075.99080437 1082.21467276 1076.37138496 1081.38794088 1076.76349831 C1040.49446104 1096.1559349 1040.49446104 1096.1559349 1023.92180014 1103.51856422 C1023.21673834 1103.83182687 1022.51167654 1104.14508951 1021.78524923 1104.46784496 C1021.24999121 1104.70561122 1020.71473318 1104.94337748 1020.16325521 1105.18834877 C1021.54010934 1118.91092263 1023.18432155 1132.58571614 1024.9606185 1146.2618351 C1025.236973 1148.40263253 1025.51312042 1150.54345671 1025.78907919 1152.68430519 C1026.37822889 1157.25187578 1026.96869646 1161.81927326 1027.56020117 1166.38653946 C1028.49560715 1173.6102223 1029.42725286 1180.83438715 1030.35829306 1188.0586338 C1032.83673859 1207.28531383 1035.31977308 1226.51140051 1037.80562627 1245.73712415 C1039.44378915 1258.40684427 1041.07980055 1271.07683795 1042.71167314 1283.74736995 C1043.63679273 1290.92901092 1044.56536443 1298.11019444 1045.49651885 1305.29105532 C1046.07361693 1309.7476492 1046.64755583 1314.20464566 1047.22060156 1318.66176224 C1047.48694968 1320.72834202 1047.75460513 1322.79475379 1048.02366018 1324.86098289 C1048.39051828 1327.6797342 1048.75269888 1330.49904873 1049.11372519 1333.31855202 C1049.2213075 1334.13634142 1049.32888981 1334.95413083 1049.43973219 1335.79670173 C1049.96750077 1339.95963948 1050.2761062 1343.98086375 1050.16325521 1348.18834877 C1049.19653891 1348.6341227 1048.2298226 1349.07989662 1047.23381186 1349.53917885 C1025.14937666 1359.72342976 1025.14937666 1359.72342976 1003.07594442 1369.93149757 C1001.31522782 1370.74671632 999.55418167 1371.56122369 997.79280233 1372.37500954 C993.45258839 1374.38185255 989.1197603 1376.40232637 984.79948568 1378.4517765 C977.21458128 1382.03536994 969.69590232 1385.46420781 961.78044271 1388.25475502 C947.91584046 1393.2343068 947.91584046 1393.2343068 938.38981771 1403.95788002 C935.91316457 1409.3386968 934.10088255 1414.88761021 932.39169455 1420.54741859 C930.55082189 1426.46012067 928.06344921 1431.94805885 925.40934896 1437.53600502 C914.85247393 1457.94441841 914.85247393 1457.94441841 914.65422201 1480.00768471 C916.20137609 1483.95875194 917.96933791 1487.73648268 919.91911459 1491.50377846 C921.95623517 1495.89941777 922.7748347 1500.43985878 923.60075521 1505.18834877 C923.75052816 1505.97193764 923.90030111 1506.7555265 924.05461264 1507.56286049 C935.03896463 1566.81023129 912.62668692 1627.053613 879.51091146 1675.40709877 C865.18044993 1696.0190186 848.26492646 1715.85714893 829.16325521 1732.18834877 C828.13213671 1733.10369849 827.10226764 1734.02045692 826.07341146 1734.93834877 C787.97659843 1768.64151475 738.11526736 1795.89303455 686.97966146 1801.53991127 C684.16325521 1801.18834877 684.16325521 1801.18834877 682.03044271 1799.34459877 C681.37302084 1798.46803627 680.71559896 1797.59147377 680.03825521 1796.68834877 C679.26610678 1795.67901283 678.49395834 1794.6696769 677.69841146 1793.62975502 C676.85255685 1792.48321123 676.00753792 1791.33605056 675.16325521 1790.18834877 C674.2466838 1788.96724658 673.3286683 1787.74722725 672.40934896 1786.52819252 C670.91979645 1784.54933056 669.43308068 1782.56857074 667.95329428 1780.58239174 C662.39771037 1773.12566406 656.6751799 1765.80166949 650.94987631 1758.47496986 C647.99636289 1754.69489242 645.04773534 1750.91102096 642.10075521 1747.12584877 C641.52156332 1746.38238197 640.94237143 1745.63891518 640.34562826 1744.87291908 C636.94373734 1740.49953532 633.57127872 1736.10528459 630.21940756 1731.69347572 C624.87854284 1724.6649622 619.42172021 1717.75437771 613.82707357 1710.92614174 C610.5326602 1706.89825144 607.31797041 1702.82668276 604.16325521 1698.68834877 C598.80225047 1691.65966991 593.21316171 1684.8246923 587.62175131 1677.97887611 C584.43956273 1674.07225224 581.30261745 1670.12939364 578.16325521 1666.18834877 C572.55007386 1659.14369346 566.87669702 1652.15191118 561.16325521 1645.18834877 C559.66297205 1643.35524715 558.16297114 1641.5219145 556.66325521 1639.68834877 C555.91817709 1638.77827065 555.17309896 1637.86819252 554.40544271 1636.93053627 C552.92920661 1635.12510466 551.45518786 1633.31785736 549.98356771 1631.50866127 C545.46541418 1625.96146209 540.88205114 1620.47641016 536.249681 1615.02477455 C533.35105683 1611.60814145 530.49184942 1608.1634788 527.66325521 1604.68834877 C523.03772529 1599.00931736 518.30858477 1593.42242055 513.56608725 1587.8411808 C512.18847933 1586.2180681 510.81393764 1584.59241837 509.44059896 1582.96569252 C503.72661133 1576.19801799 497.9809596 1569.45839727 492.21013021 1562.73913002 C490.15359071 1560.34446578 488.10188208 1557.94578708 486.05388021 1555.54381752 C480.83223951 1549.42442394 475.56546694 1543.36101278 470.16325521 1537.39928627 C466.22633082 1533.04713938 462.37646119 1528.62431336 458.58903646 1524.14147377 C452.42439775 1516.85465185 446.08039016 1509.78796481 439.50309896 1502.8699894 C435.84708885 1499.019257 432.30314112 1495.0954443 428.82219076 1491.08580971 C426.42421701 1488.34305003 423.95596579 1485.66911598 421.47575521 1483.00084877 C420.42622538 1481.86808321 419.37674766 1480.73526937 418.32731771 1479.60241127 C417.80041342 1479.03425697 417.27350912 1478.46610268 416.73063803 1477.88073158 C415.23387678 1476.26460246 413.7407189 1474.64524659 412.24919271 1473.02428627 C397.0837937 1456.39575116 397.0837937 1456.39575116 381.28825521 1440.37584877 C379.58064157 1438.61801119 378.02257477 1436.84297917 376.44426107 1434.97374916 C370.48022488 1428.144308 363.95549879 1421.83708112 357.54216146 1415.43444252 C356.11386929 1414.0054755 354.68572549 1412.57636016 353.25772238 1411.14710426 C350.27464846 1408.1625619 347.2897886 1405.17982053 344.30363607 1402.19835854 C340.49312882 1398.39354802 336.68712936 1394.58426498 332.88246393 1390.77361393 C329.93732159 1387.82484289 326.98978288 1384.87847645 324.04153395 1381.93281174 C322.63790252 1380.52984319 321.23500189 1379.12614307 319.83287382 1377.72167206 C310.51567886 1368.32505317 310.51567886 1368.32505317 300.67837667 1359.4832859 C298.19188544 1357.35814286 295.94818687 1355.02833902 293.66325521 1352.68834877 C289.91175727 1348.87965543 286.05735752 1345.26868001 281.99138021 1341.79772377 C280.13387533 1340.16248443 278.39719512 1338.45353084 276.66325521 1336.68834877 C273.74194733 1333.72119076 270.68333848 1330.98775906 267.53044271 1328.27038002 C264.52603562 1325.62788995 261.59576212 1322.910104 258.66325521 1320.18834877 C254.53129675 1316.35703544 250.37285826 1312.57198592 246.10856771 1308.88756752 C243.82660231 1306.89428449 241.59096948 1304.8534185 239.35075521 1302.81334877 C235.90947317 1299.70306026 232.40004224 1296.72356565 228.78825521 1293.81334877 C224.77498706 1290.5688193 220.93914654 1287.20083412 217.16325521 1283.68834877 C212.58389762 1279.43309593 207.87040091 1275.41512654 202.99919271 1271.49303627 C199.90738163 1268.98040742 196.87881657 1266.40194812 193.85075521 1263.81334877 C188.80129999 1259.50864874 183.63327536 1255.38485856 178.39445639 1251.31383705 C174.40112001 1248.1972756 170.51075315 1244.98277984 166.66325521 1241.68834877 C160.6175059 1236.52101825 154.41018019 1231.58958145 148.12761068 1226.71422768 C145.98128046 1225.04699379 143.8396618 1223.37381991 141.69841146 1221.70006752 C128.67800255 1211.53181344 115.46453991 1201.6499234 102.15544271 1191.86413002 C98.90490043 1189.47335553 95.66022562 1187.07499148 92.42106771 1184.66881752 C81.9972522 1176.93473902 71.44579244 1169.41024475 60.78190756 1162.01110268 C58.11722157 1160.15630633 55.46170424 1158.28898296 52.80778646 1156.41881752 C29.40155303 1139.96370167 5.32175844 1124.51039214 -18.83674479 1109.18834877 C-19.80853678 1108.57040443 -20.78032877 1107.9524601 -21.781569 1107.31579018 C-36.64947159 1097.87604892 -51.74355913 1088.87082897 -66.96806192 1080.02355385 C-70.86845813 1077.75614167 -74.7543692 1075.46572939 -78.63264322 1073.16076088 C-96.45616668 1062.58110571 -114.66578068 1052.64060123 -132.89485025 1042.78063393 C-134.93150455 1041.67830535 -136.96690467 1040.57365758 -139.00129557 1039.46715736 C-155.8787167 1030.29231721 -172.92488078 1021.52946196 -190.1412797 1013.01070595 C-194.7130762 1010.74844459 -199.27617853 1008.46924591 -203.83674479 1006.18444252 C-227.1284646 994.52819521 -250.62080076 983.45999702 -274.47257853 972.99582863 C-278.97657991 971.0169973 -283.46329697 969.0053616 -287.93830729 966.96178627 C-360.73395084 933.7408448 -436.40787184 905.52928238 -512.42750406 880.62316322 C-517.72177174 878.88790651 -523.00889962 877.13222411 -528.29321146 875.36689186 C-568.65734927 861.89502927 -609.37184862 849.51070427 -650.31330729 837.91100502 C-651.54641893 837.56142487 -651.54641893 837.56142487 -652.80444193 837.20478249 C-656.33129201 836.20753146 -659.86017453 835.21952471 -663.39558268 834.25304604 C-669.79210788 832.47528779 -676.05180079 830.47551201 -682.27424479 828.16881752 C-682.92112757 827.93055244 -683.56801035 827.69228737 -684.23449564 827.44680214 C-701.89776669 820.7351325 -717.65403667 809.09533772 -726.14924479 791.93834877 C-734.06784304 773.5766945 -733.29581315 754.94505719 -726.14924479 736.50084877 C-723.2692549 729.45100704 -719.38569133 723.27509708 -714.83674479 717.18834877 C-714.34432291 716.51159096 -713.85190104 715.83483315 -713.34455729 715.13756752 C-710.53292648 711.55551811 -707.39406023 709.06715491 -703.64143229 706.48913002 C-702.74150553 705.86820473 -701.84157877 705.24727943 -700.9143815 704.60753822 C-700.22876139 704.1392057 -699.54314127 703.67087318 -698.83674479 703.18834877 C-700.01753107 703.29221901 -701.19831736 703.39608925 -702.41488504 703.50310707 C-848.27863088 716.32769184 -848.27863088 716.32769184 -901.19923258 718.09978676 C-903.73882298 718.18506077 -906.2782577 718.27413287 -908.81770182 718.36364174 C-961.40562191 720.17366755 -1014.24965179 719.84302787 -1066.83674479 718.18834877 C-1067.79907022 718.15912331 -1068.76139566 718.12989784 -1069.75288248 718.09978676 C-1167.57854043 715.12377369 -1266.76161299 708.68155601 -1477.30940104 636.68834877 C-1486.95629495 625.43664446 -1489.73907801 612.68900195 -1488.83674479 598.18834877 C-1487.6061685 590.27871363 -1485.55878958 582.70637725 -1482.83674479 575.18834877 C-1491.88906883 575.80932105 -1500.87423543 576.72336129 -1509.87971354 577.82506752 C-1512.63872767 578.15699263 -1515.39803011 578.48649904 -1518.15730143 578.81627846 C-1518.87339956 578.90210402 -1519.5894977 578.98792959 -1520.32729578 579.07635593 C-1591.11874841 587.5544034 -1662.15378012 593.53193263 -1733.41908121 596.09978676 C-1735.70416216 596.1834921 -1737.98895931 596.27255752 -1740.2737565 596.36364174 C-1842.3878086 600.37653561 -1945.31462465 595.85372502 -2167.33674479 562.43834877 C-2168.43218607 562.21182625 -2169.52762735 561.98530373 -2170.65626383 561.75191689 C-2181.42469685 559.51383472 -2192.16336847 557.18193773 -2202.84065104 554.53991127 C-2203.62979898 554.34576637 -2204.41894693 554.15162148 -2205.23200846 553.9515934 C-2231.02853849 547.42814933 -2254.73812962 533.90654318 -2268.78986979 510.78209877 C-2276.85696137 496.95702805 -2280.20505819 481.9387763 -2276.71174479 466.12584877 C-2273.50945317 454.87335183 -2268.12353256 446.36734093 -2259.83674479 438.18834877 C-2258.69399088 437.03012611 -2258.69399088 437.03012611 -2257.52815104 435.84850502 C-2233.96044391 413.20957453 -2198.84708688 409.11791452 -2167.83674479 406.18834877 C-2071.99596049 397.1209533 -1977.1859614 381.81211307 -1523.29915667 275.18836403 C-1517.53921766 273.64399201 -1511.77837391 272.10303788 -1506.01692057 270.56432533 C-1461.20910687 258.59670472 -1416.44065969 246.48516499 -1371.67976236 234.34337807 C-1340.41954849 225.86380749 -1309.15499264 217.40342337 -1277.85774088 209.06139565 C-1272.70627917 207.68787078 -1267.55570274 206.31107017 -1262.40559244 204.9324894 C-1190.50803511 185.68710157 -1118.50634644 166.90523179 -1046.31041574 148.8085041 C-1043.8961577 148.20324373 -1041.48200911 147.59754856 -1039.06788492 146.99175453 C-959.84969847 127.11818492 -880.29926565 108.54495943 -740.99666452 79.62207222 C-738.87520386 79.19607156 -736.7538805 78.76939289 -734.63258219 78.34258461 C-658.48126822 63.03030901 -581.86656098 49.67390834 -130.33674479 2.50084877 C-129.62882792 2.4701001 -128.92091105 2.43935143 -128.19154215 2.40767097 C-117.74152071 1.95430326 -107.29036272 1.54930889 -96.83674479 1.18834877 C-96.13084963 1.16359097 -95.42495447 1.13883316 -94.69766855 1.11332512 C-63.13845029 0.01467492 -31.57530792 -0.01460502 0 0 Z M-137.64924479 78.43834877 C-139.61853159 78.53520097 -141.58781846 78.63205207 -143.55710745 78.7288599 C-151.44659759 79.11812628 -159.33490034 79.52864542 -167.22297525 79.94548988 C-170.35470365 80.11083587 -173.48653882 80.27390856 -176.61848307 80.43511391 C-219.67327552 82.6513495 -262.63946047 85.46631343 -305.58674479 89.25084877 C-307.01555161 89.37601686 -307.01555161 89.37601686 -308.47322321 89.50371361 C-330.25479131 91.41268656 -351.97774816 93.55160293 -373.66902018 96.31139565 C-380.94131357 97.22683333 -388.22700891 97.94262129 -395.52424479 98.62584877 C-407.59895267 99.79146781 -419.6214341 101.24131889 -431.64924479 102.81334877 C-432.50368174 102.92371468 -433.35811869 103.03408058 -434.23844767 103.14779091 C-436.65341983 103.46096989 -439.06746321 103.78043206 -441.48127604 104.10241127 C-442.5773971 104.24443222 -442.5773971 104.24443222 -443.69566202 104.38932228 C-447.05626864 104.60257638 -447.05626864 104.60257638 -449.83674479 106.18834877 C-449.63975465 113.91521625 -448.40823049 121.56802079 -447.08674479 129.16881752 C-446.91295801 130.19484581 -446.73917124 131.2208741 -446.5601182 132.27799416 C-446.18541424 134.48907488 -445.80864094 136.69980575 -445.42997599 138.91021156 C-444.39876395 144.93451841 -443.38508809 150.96176937 -442.37190104 156.98913002 C-442.16138605 158.24040688 -441.95087107 159.49168373 -441.73397684 160.78087807 C-439.48602537 174.19353531 -437.37528583 187.62703751 -435.27424479 201.06334877 C-432.15638325 220.97659528 -428.93045578 240.86836152 -425.59016275 260.74547768 C-425.26998185 262.65090864 -424.94983149 264.55634473 -424.62971354 266.46178627 C-424.39919291 267.83356529 -424.39919291 267.83356529 -424.16401529 269.23305702 C-422.48730945 279.23376339 -420.87855243 289.24529579 -419.2947526 299.26110268 C-419.02356607 300.96532387 -419.02356607 300.96532387 -418.74690104 302.70397377 C-418.59358316 303.67624916 -418.44026529 304.64852455 -418.28230143 305.65026283 C-417.89305857 307.86756078 -417.39542506 310.0095264 -416.83674479 312.18834877 C-415.77520685 312.19421501 -414.71366892 312.20008125 -413.61996317 312.20612526 C-403.40488292 312.26440874 -393.18999448 312.33766827 -382.97511244 312.42406368 C-377.72889273 312.46799497 -372.48273722 312.50739705 -367.23640299 312.53478432 C-305.01297406 312.86931208 -242.79671163 318.29901682 -181.83674479 331.18834877 C-180.68835123 331.43085365 -179.53995768 331.67335854 -178.35676432 331.92321205 C-155.10474321 336.87680778 -155.10474321 336.87680778 -144.25861979 340.15709877 C-141.71178893 340.92463684 -139.16900639 341.6501772 -136.60236979 342.34459877 C-101.55226331 351.91158954 -66.94868325 364.28188718 -33.83674479 379.18834877 C-41.04155229 379.23916255 -48.21714885 379.17532105 -55.41450357 378.84211159 C-73.83118468 377.99235107 -92.24977724 378.00087071 -110.68195963 378.00304604 C-114.42322042 378.00312666 -118.16435709 377.99626768 -121.90559244 377.98253822 C-159.37300036 377.84738795 -196.76628515 379.1967771 -234.11408854 382.27819252 C-234.95777491 382.34731346 -235.80146128 382.4164344 -236.6707139 382.48764992 C-276.1970145 385.78471381 -315.58822824 390.41734045 -354.75276041 396.69567299 C-358.05558691 397.22330946 -361.36007366 397.73960661 -364.66486979 398.25475502 C-366.90971473 398.60728048 -369.15450811 398.96013455 -371.39924479 399.31334877 C-372.9254545 399.55130165 -372.9254545 399.55130165 -374.48249674 399.79406166 C-380.32466534 400.72339768 -386.073789 401.85904521 -391.83674479 403.18834877 C-393.68941304 403.57068286 -395.54327392 403.94738268 -397.39924479 404.31334877 C-398.18291422 404.46787514 -398.96658365 404.6224015 -399.77400064 404.78161049 C-400.79505899 404.98294594 -400.79505899 404.98294594 -401.83674479 405.18834877 C-401.29076289 413.21134325 -400.31383651 421.03741485 -398.89533854 428.95006752 C-398.69589136 430.09113457 -398.49644419 431.23220161 -398.29095316 432.40784645 C-397.73887946 435.56630301 -397.18264546 438.72399816 -396.62537241 441.8815403 C-395.50757408 448.23032779 -394.40844921 454.58238742 -393.30940104 460.93444252 C-393.17701029 461.69895351 -393.04461954 462.46346451 -392.90821695 463.2511425 C-388.29490593 489.92320184 -383.96310796 516.64334071 -379.58668852 543.35505772 C-378.9031395 547.525547 -378.21844585 551.69584795 -377.53361559 555.86612701 C-377.05720915 558.77088632 -376.58277711 561.67596346 -376.10845804 564.58106422 C-375.8205488 566.33591607 -375.53255435 568.09075393 -375.24445963 569.84557533 C-375.0513226 571.03391739 -375.0513226 571.03391739 -374.85428381 572.24626637 C-374.30171059 575.60108947 -373.69181938 578.89820573 -372.83674479 582.18834877 C-364.2191973 582.4182537 -355.83462434 581.68979926 -347.27424479 580.75084877 C-338.29753992 579.79975349 -329.34376492 578.93876068 -320.32404947 578.53234291 C-313.51089646 578.21302613 -306.73019976 577.59919997 -299.94245768 576.9361515 C-283.01441366 575.35707195 -266.02310131 575.02058583 -249.03205729 574.98522377 C-248.08499792 574.98239639 -247.13793856 574.97956902 -246.16218042 574.97665596 C-241.13752088 574.96181756 -236.11288883 574.952495 -231.08820963 574.9481144 C-227.03603314 574.94376103 -222.98407333 574.92996883 -218.93195963 574.90709877 C-176.93638139 574.67498262 -135.85511792 577.89030539 -94.27424479 583.75084877 C-93.51808878 583.85685402 -92.76193277 583.96285927 -91.98286295 584.0720768 C-77.61660651 586.09688016 -77.61660651 586.09688016 -71.18366861 587.63195229 C-68.10199624 588.36253913 -65.00527409 589.0119931 -61.90705729 589.66881752 C-31.89834267 596.09031843 -2.80953745 604.06737733 26.16325521 614.18834877 C27.40172201 614.62050697 28.64018881 615.05266518 29.9161849 615.49791908 C55.77247717 624.60877046 80.75999783 635.70659047 105.34684896 647.80358315 C108.0103366 649.11316202 110.67987381 650.40956043 113.35075521 651.70397377 C129.74225692 659.7086403 145.56251999 668.74435488 161.16325521 678.18834877 C155.07111864 678.37321506 149.25002685 677.62527492 143.21794271 676.82116127 C128.63677357 674.9807827 114.01629436 674.05009611 99.3524642 673.18639565 C96.60656395 673.02271336 93.86118082 672.85114016 91.11576509 672.67955208 C59.93481189 670.73398696 28.83724789 669.9474617 -2.39924479 669.93834877 C-3.3281188 669.93775963 -4.25699282 669.93717049 -5.21401453 669.93656349 C-63.59503765 669.91053319 -121.64175017 673.27025839 -179.54438639 680.88756752 C-182.01616722 681.21189086 -184.48844002 681.53228841 -186.96076822 681.85241127 C-217.09249786 685.76544384 -246.98428726 690.53314611 -276.83674479 696.18834877 C-277.82112528 696.37438164 -277.82112528 696.37438164 -278.82539225 696.56417274 C-283.4139056 697.43166869 -288.00054697 698.30867846 -292.58674479 699.18834877 C-293.56635172 699.37397377 -293.56635172 699.37397377 -294.56574869 699.56334877 C-302.10872472 700.99336743 -309.56432726 702.57259973 -316.99885416 704.4871769 C-321.70160266 705.64910856 -326.45470208 706.53033616 -331.21174479 707.43834877 C-342.24688249 709.59002343 -353.1878112 712.07133344 -364.11945963 714.68932533 C-370.2441999 716.14907325 -376.36653537 717.51054746 -382.54768229 718.71178627 C-387.73285758 719.72804857 -392.78007796 720.94760896 -397.86018229 722.38903236 C-404.45981718 724.16127684 -411.16288654 725.53811768 -417.83674479 727.00084877 C-419.43975564 727.35447729 -421.04270082 727.70840361 -422.64558268 728.06261635 C-426.63570443 728.9438984 -430.62640016 729.82254509 -434.6173234 730.70018959 C-440.17047365 731.9215986 -445.72273511 733.1470032 -451.27424479 734.37584877 C-452.91828287 734.73900185 -452.91828287 734.73900185 -454.59553385 735.10949135 C-460.27665659 736.37134121 -465.93928543 737.68733506 -471.59065104 739.07604408 C-484.23981429 742.17894915 -497.00795736 744.60396226 -509.80006266 747.02861977 C-515.68883414 748.14962167 -521.56190519 749.34337193 -527.43513346 750.5430851 C-540.92375068 753.29417355 -554.42754253 755.68224392 -568.03645182 757.7528019 C-570.94250719 758.20479865 -573.84273165 758.68499753 -576.74299479 759.17272377 C-583.05797023 760.23185198 -589.38034438 761.23233327 -595.71174479 762.18834877 C-597.45101236 762.45107582 -597.45101236 762.45107582 -599.22541666 762.71911049 C-607.8367414 763.98208909 -616.4384823 764.90792726 -625.12141275 765.50475502 C-625.96590982 765.56791908 -626.81040689 765.63108315 -627.68049479 765.69616127 C-628.41461588 765.74401772 -629.14873697 765.79187416 -629.90510416 765.8411808 C-632.15603117 766.11320652 -632.15603117 766.11320652 -634.83674479 768.18834877 C-634.12357096 768.36897865 -633.41039713 768.54960854 -632.67561197 768.73571205 C-619.94541098 771.97036826 -607.26097086 775.26034944 -594.70710611 779.12829018 C-589.76034787 780.64263502 -584.80550729 781.98636636 -579.77424479 783.18834877 C-572.24757938 785.01322439 -564.92185279 787.31428583 -557.55158854 789.68444252 C-553.20545349 791.07999047 -548.84221823 792.40503325 -544.46174479 793.68834877 C-543.76702066 793.89242348 -543.07229654 794.09649818 -542.35652018 794.30675697 C-538.66776212 795.38350515 -534.97243109 796.43032749 -531.26643229 797.44616127 C-518.57814578 800.95035014 -506.11245047 805.01158131 -493.64729166 809.22985268 C-486.47908784 811.65416945 -479.29777799 814.00472111 -472.05695963 816.20543861 C-466.23804906 817.98155188 -460.44416396 819.83574504 -454.64924479 821.68834877 C-452.85970377 822.25489174 -452.85970377 822.25489174 -451.03401041 822.83288002 C-445.15951879 824.71245898 -439.40965824 826.71147907 -433.70759439 829.05846596 C-426.79285856 831.77990464 -419.72975659 834.12388787 -412.71174479 836.56334877 C-402.38057771 840.15643403 -392.07946274 843.80117225 -381.8494401 847.67370033 C-378.37551892 848.98871638 -374.89325137 850.2799808 -371.40807962 851.56484413 C-305.03588561 876.03545782 -239.52678234 903.53202937 -175.98713541 934.6536808 C-172.09850565 936.54797146 -168.19220574 938.40330363 -164.28327799 940.2552433 C-143.07181828 950.31196404 -122.00505612 960.76430153 -101.31623697 971.85875893 C-98.45323097 973.3940022 -95.58617808 974.92158496 -92.71955729 976.45006752 C-80.25585351 983.11283794 -67.88727901 989.92147438 -55.60627604 996.91491127 C-51.65790299 999.16206256 -47.69661295 1001.38373995 -43.72346354 1003.58678627 C-30.0190465 1011.18902513 -16.511943 1019.06327828 -3.11701822 1027.1981144 C-0.28019878 1028.91929273 2.55991654 1030.63475773 5.40199423 1032.34722328 C19.49973456 1040.8428469 33.49555011 1049.47656823 47.34147787 1058.37877846 C50.39508756 1060.33701994 53.45629314 1062.2829961 56.51872396 1064.22741127 C67.49610188 1071.20584025 78.37539747 1078.27294404 89.04167318 1085.71764565 C92.37478529 1088.02819424 95.7323508 1090.30253702 99.08732748 1092.58117104 C116.64412993 1104.50766241 134.01845103 1116.6764779 151.16325521 1129.18834877 C151.9405599 1129.75553627 152.71786459 1130.32272377 153.51872396 1130.90709877 C164.19681304 1138.71098768 174.76940422 1146.64151368 185.24675131 1154.71276283 C187.03581272 1156.09022617 188.82745324 1157.46423762 190.62028646 1158.83678627 C202.72197375 1168.1078175 214.6661203 1177.5568625 226.47966146 1187.19225502 C229.41928929 1189.5883093 232.37855531 1191.95774787 235.35075521 1194.31334877 C239.73508633 1197.80757239 244.01018543 1201.42145322 248.27946615 1205.05431557 C251.68832239 1207.95184337 255.12700383 1210.80598 258.60075521 1213.62584877 C264.61223723 1218.52215731 270.48368953 1223.57442801 276.35612631 1228.6356144 C278.14749666 1230.17480859 279.94521409 1231.70621996 281.74528646 1233.23522377 C288.45245977 1238.93922282 295.02701885 1244.75374347 301.49138021 1250.73131752 C304.34839461 1253.35860122 307.25625023 1255.91724568 310.18669271 1258.46178627 C320.98348113 1267.89297298 331.48136086 1277.67318395 341.97575521 1287.43834877 C342.58572348 1288.00448891 343.19569174 1288.57062904 343.82414389 1289.15392494 C346.81209948 1291.9404362 349.74575819 1294.76138038 352.61247396 1297.67272377 C354.83886046 1299.91903405 357.11315313 1302.02591449 359.53141928 1304.06261635 C365.92803758 1309.63179887 371.83488285 1315.71628117 377.82341146 1321.71569252 C379.14027734 1323.03188337 380.45729152 1324.34792587 381.77444601 1325.6638279 C384.52359595 1328.41151021 387.27094641 1331.16097567 390.01701498 1333.91173744 C393.51915525 1337.4195744 397.02576672 1340.92290184 400.5337472 1344.42489719 C403.25090377 1347.13842283 405.96565265 1349.85434722 408.67970228 1352.57098007 C409.97102766 1353.86296773 411.26308294 1355.15422632 412.55591154 1356.44470978 C424.75023153 1368.62175516 424.75023153 1368.62175516 429.82986593 1374.63477516 C431.9722729 1377.13096061 434.30983572 1379.39030385 436.66325521 1381.68834877 C440.40408754 1385.34116152 443.87580814 1389.11705629 447.29802084 1393.06920815 C450.49170851 1396.69763864 453.83290804 1400.18574226 457.16325521 1403.68834877 C461.71918431 1408.47992938 466.1879833 1413.31727385 470.51970053 1418.31286049 C472.96333701 1421.10133575 475.50179709 1423.79711414 478.03825521 1426.50084877 C482.51239186 1431.30372024 486.71052416 1436.25451007 490.81950521 1441.37584877 C493.49534014 1444.58685068 496.30688091 1447.6385951 499.16325521 1450.68834877 C503.66289077 1455.49376419 507.89429192 1460.43996384 512.01872396 1465.57506752 C514.16200477 1468.186825 516.38705852 1470.69200179 518.66325521 1473.18834877 C522.48815481 1477.38914367 526.08441666 1481.73216346 529.65544271 1486.14928627 C532.55156635 1489.65891896 535.53984845 1493.07873028 538.53825521 1496.50084877 C543.22800341 1501.86425118 547.70509959 1507.34413416 552.06242514 1512.97960854 C555.85658022 1517.86214332 559.85069699 1522.54926094 563.89616537 1527.22423744 C567.35451759 1531.22636634 570.70388793 1535.29552918 573.98356771 1539.44616127 C576.23087554 1542.27341951 578.50803386 1545.07440715 580.79094076 1547.87291908 C586.88502241 1555.34371038 592.89062992 1562.87679459 598.82487631 1570.47496986 C601.0797041 1573.36157721 603.33943784 1576.24432354 605.60075521 1579.12584877 C606.05353842 1579.70310707 606.50632162 1580.28036537 606.97282553 1580.87511635 C609.80771909 1584.48284397 612.66831975 1588.06868383 615.54435873 1591.64367104 C620.899584 1598.30116387 626.13090002 1605.04051299 631.30070639 1611.84288979 C635.4043399 1617.22948426 639.60569788 1622.52922945 643.8524642 1627.803339 C647.44815133 1632.27518099 650.96782556 1636.79906914 654.4540267 1641.35656166 C657.41119549 1645.21974164 660.40224981 1649.05450225 663.41325521 1652.87584877 C667.68433298 1658.2970968 671.92942712 1663.73796283 676.16325521 1669.18834877 C685.00499065 1680.56244332 693.86371949 1691.90700269 703.01310873 1703.0364933 C703.5396102 1703.67957436 704.06611166 1704.32265541 704.60856771 1704.98522377 C705.0779476 1705.55595619 705.54732748 1706.12668861 706.030931 1706.71471596 C707.16325521 1708.18834877 707.16325521 1708.18834877 708.16325521 1710.18834877 C714.33770075 1709.67035837 719.42173636 1706.97731769 724.91325521 1704.31334877 C725.93024496 1703.82229652 726.94723471 1703.33124428 727.99504232 1702.82531166 C751.88332555 1691.08976458 772.82758632 1675.38335231 792.16325521 1657.18834877 C793.15132162 1656.26409096 793.15132162 1656.26409096 794.15934896 1655.32116127 C821.16320343 1629.25277521 842.33257679 1589.10724149 843.42889547 1551.27665138 C843.47659692 1548.49495093 843.48759893 1545.71455861 843.47892904 1542.9324894 C843.47576808 1540.82193706 843.49934307 1538.71279207 843.52458334 1536.60241127 C843.61181048 1517.94475758 839.06832378 1500.1555358 829.16325521 1484.18834877 C828.2389974 1483.32596596 828.2389974 1483.32596596 827.29606771 1482.44616127 C825.91127629 1479.68612871 826.21427023 1479.08672501 827.10856771 1476.20788002 C829.38718767 1470.26675987 832.22559523 1464.57779437 835.03825521 1458.87584877 C836.20662287 1456.47951975 837.37363064 1454.08258719 838.53825521 1451.68444252 C838.83658255 1451.07106026 839.13490988 1450.45767799 839.44227743 1449.82570839 C844.30886007 1439.79648408 849.01811123 1429.68092239 853.58195639 1419.51085854 C855.16325521 1416.18834877 855.16325521 1416.18834877 857.05119467 1412.97326088 C863.86540755 1400.70628044 863.39024573 1388.00507061 863.60075521 1374.25084877 C863.66220124 1371.81392213 863.72663087 1369.37706881 863.79411459 1366.9403019 C863.95156222 1361.02338956 864.07218684 1355.10663579 864.16325521 1349.18834877 C898.31803973 1333.01759171 898.31803973 1333.01759171 914.53825521 1325.50084877 C915.63822836 1324.99094398 916.7382015 1324.4810392 917.87150717 1323.95568275 C921.96072709 1322.06080922 926.05025288 1320.16659663 930.14012289 1318.2731266 C934.29039855 1316.35140363 938.43932063 1314.42680351 942.58665609 1312.49874306 C943.91393197 1311.88232539 945.24168023 1311.26692368 946.56993246 1310.65261269 C948.41343035 1309.79991037 950.25517554 1308.94342196 952.09684896 1308.08678627 C953.14928793 1307.59871498 954.20172689 1307.11064369 955.28605795 1306.60778236 C958.01023344 1305.26384038 960.58487417 1303.79171177 963.16325521 1302.18834877 C962.64990003 1292.3966066 961.68187625 1282.75853095 960.29463339 1273.05016518 C959.72121627 1269.02784903 959.16827694 1265.00272873 958.61638021 1260.97741127 C958.49823462 1260.11617653 958.38008902 1259.25494179 958.25836325 1258.36760902 C956.80134153 1247.65519842 955.51991768 1236.92140314 954.22575521 1226.18834877 C952.1599033 1209.07972346 949.96519968 1191.99361514 947.65477133 1174.91637611 C946.02458739 1162.85180957 944.4852172 1150.78357375 943.10075521 1138.68834877 C941.49091215 1124.62428464 939.63645327 1110.60123917 937.7147994 1096.57666969 C937.61142263 1095.82203941 937.50804586 1095.06740913 937.40153646 1094.28991127 C937.29856253 1093.53854393 937.19558859 1092.78717659 937.08949423 1092.01304054 C935.96829524 1083.80602924 934.90496316 1075.59169579 933.85075521 1067.37584877 C933.76358236 1066.69688545 933.67640951 1066.01792213 933.58659506 1065.31838417 C933.11055981 1061.60857455 932.63610632 1057.89856552 932.16325521 1054.18834877 C933.28989584 1053.83772377 934.41653646 1053.48709877 935.57731771 1053.12584877 C943.37235673 1050.52446343 950.9352838 1047.29613898 958.53825521 1044.18834877 C960.2108429 1043.50702952 961.88353294 1042.82596148 963.55632162 1042.14513588 C966.89467838 1040.78591405 970.23239226 1039.42513315 973.56950521 1038.06286049 C977.45349145 1036.47745198 981.3391348 1034.89619457 985.22575521 1033.31725502 C999.23798849 1027.62244364 1013.23127359 1021.88169468 1027.22325277 1016.1373539 C1037.36440601 1011.97401965 1047.50871418 1007.81894253 1057.66325521 1003.68834877 C1061.49456581 1002.12811522 1065.32556973 1000.56713011 1069.15648031 999.00591469 C1070.59711076 998.41899767 1072.0378365 997.83231453 1073.47862387 997.24578285 C1078.72245512 995.11106334 1083.9648538 992.97287752 1089.20573568 990.8309269 C1090.94990694 990.11870485 1092.69452641 989.40757935 1094.4396224 988.69762611 C1096.89428988 987.69878788 1099.34729026 986.69595288 1101.79997396 985.69225502 C1102.52597296 985.39787041 1103.25197195 985.10348579 1103.99997091 984.80018044 C1106.0650881 983.95238476 1108.11608448 983.07854653 1110.16325521 982.18834877 C1110.89301062 981.8782235 1111.62276602 981.56809822 1112.37463522 981.24857521 C1116.60646275 979.33310897 1116.60646275 979.33310897 1119.73283529 976.00548744 C1120.02569418 975.15188637 1120.31855307 974.29828529 1120.62028646 973.41881752 C1121.00781088 972.35066811 1121.39533529 971.28251869 1121.79460287 970.18200111 C1122.00602926 969.56065285 1122.21745565 968.93930458 1122.43528891 968.29912758 C1123.264742 965.8940822 1124.14714436 963.51208852 1125.03581381 961.12829018 C1126.92454144 956.05046958 1128.78076018 950.9614024 1130.62870932 945.8686161 C1132.31351639 941.22555136 1134.00441918 936.58471357 1135.69496298 931.94373512 C1136.5702006 929.54087961 1137.44513744 927.13791452 1138.31977987 924.7348423 C1142.13589148 914.25262352 1145.98024726 903.78093283 1149.83281088 893.31206703 C1157.11903139 873.51101574 1164.36775174 853.69638427 1171.60075521 833.87584877 C1171.84361258 833.21035515 1172.08646994 832.54486153 1172.33668661 831.85920143 C1174.52683133 825.85752085 1176.71676345 819.85576271 1178.90651083 813.85393715 C1183.73861413 800.60997044 1188.57497929 787.36756175 1193.41325521 774.12584877 C1193.80951101 773.04132423 1194.20576681 771.9567997 1194.61403036 770.83941078 C1199.45984293 757.57751649 1204.31106907 744.31764242 1209.17497396 731.06237221 C1212.92731018 720.83581283 1216.67103479 710.60611354 1220.41325521 700.37584877 C1220.73008261 699.50972969 1221.04691 698.64361061 1221.37333822 697.7512455 C1222.99022343 693.331052 1224.60702967 688.91082962 1226.22380209 684.49059486 C1229.0586899 676.74015948 1231.89425579 668.98997217 1234.72978354 661.23977089 C1236.29096977 656.9726408 1237.85211013 652.70549392 1239.41325521 648.43834877 C1240.038255 646.73001536 1240.663255 645.02168202 1241.28825521 643.31334877 C1241.75231771 642.04491127 1241.75231771 642.04491127 1242.22575521 640.75084877 C1273.16325521 556.18834877 1304.10075521 471.62584877 1335.03825521 387.06334877 C1335.34756475 386.21789497 1335.65687429 385.37244118 1335.97555685 384.50136757 C1336.60119794 382.79129754 1337.22685918 381.08123489 1337.85254049 379.37117958 C1339.40539642 375.1269776 1340.95791331 370.88265223 1342.50969076 366.6380558 C1345.43673324 358.63280877 1348.36735019 350.62891781 1351.30915976 342.62908363 C1352.69830967 338.85088031 1354.0856381 335.07200932 1355.47282553 331.2930851 C1356.13451205 329.49213159 1356.79709059 327.69150553 1357.4606185 325.89122963 C1358.38068681 323.39474002 1359.29767246 320.89713752 1360.21403646 318.39928627 C1360.48416052 317.66886116 1360.75428457 316.93843605 1361.0325942 316.18587685 C1362.60304034 311.89404481 1363.95915795 307.59748555 1365.16325521 303.18834877 C1362.18349318 303.64304287 1359.2044899 304.10201086 1356.22575521 304.56334877 C1355.39495443 304.6896769 1354.56415365 304.81600502 1353.70817709 304.94616127 C1348.89153077 305.69583385 1344.15225757 306.60242067 1339.40080404 307.68834877 C1323.25574013 311.29610555 1306.77240112 313.02118594 1290.35075521 314.81334877 C1289.40753408 314.91749092 1288.46431295 315.02163307 1287.49250937 315.12893105 C1262.55326353 317.86432181 1237.82225565 319.52903255 1212.72575521 319.37584877 C1210.29029039 319.36695491 1207.85482488 319.35824906 1205.41935873 319.34972572 C1156.895423 319.13402033 1109.20887086 314.52680948 1061.78825521 304.06334877 C1060.9087319 303.86992897 1060.02920858 303.67650917 1059.12303305 303.47722816 C1033.18769016 297.75611948 1007.4572532 291.3154521 982.16325521 283.18834877 C980.67037254 282.71320375 979.17736186 282.2384608 977.68425131 281.76403236 C928.71456755 266.18527513 880.61737748 248.31217399 832.71373129 229.74267006 C813.96264045 222.47412584 795.16162145 215.34247713 776.33740377 208.26568031 C771.04174914 206.27430416 765.74938706 204.2745541 760.46032858 202.26572609 C722.95749506 188.0246203 685.09813094 174.98614336 646.90690756 162.7161808 C642.64017141 161.34428925 638.37933369 159.95498734 634.12028646 158.55944252 C621.13099782 154.31638546 608.09672066 150.39848816 594.91716146 146.78991127 C590.69930817 145.63022623 586.51917121 144.38730229 582.3458724 143.07775307 C567.17040835 138.33335777 551.66910445 134.73328665 536.2363143 130.93662453 C531.66562617 129.81111284 527.1002534 128.66880107 522.54216146 127.49303627 C479.31067471 116.3545665 435.29004754 108.70454397 391.26121664 101.51859474 C387.01077777 100.82454942 382.76219416 100.12381075 378.51896811 99.3868351 C366.71344443 97.34417868 354.87168429 95.79177124 342.97575521 94.37584877 C341.92510885 94.24995369 340.87446249 94.12405861 339.79197836 93.99434853 C310.63683812 90.51970374 281.40823062 87.77937773 252.16325521 85.18834877 C251.2117861 85.10369362 250.26031698 85.01903847 249.28001547 84.93181801 C225.26207798 82.80719528 201.18907092 81.51850398 177.11623144 80.19799995 C175.50083672 80.10932612 173.88545696 80.02037945 172.27009344 79.93113899 C150.2417827 78.71422177 128.22042833 77.71121667 106.16325521 77.18834877 C104.80420883 77.15571938 104.80420883 77.15571938 103.41770697 77.1224308 C70.44003747 76.33776521 37.4737662 76.02560272 4.48722982 76.05797768 C-1.36323793 76.06368426 -7.21366026 76.06026321 -13.06412649 76.05454445 C-54.60478804 76.02004199 -96.15423105 76.3422386 -137.64924479 78.43834877 Z " fill="#FEFEFD" transform="translate(2316.836744785309,172.8116512298584)"/>
<path d="M0 0 C0.12528076 0.71728271 0.25056152 1.43456543 0.37963867 2.17358398 C2.56429659 14.64248192 4.7704137 27.09834996 7.3125 39.5 C9.72599588 51.3005128 11.86409045 63.14670862 14 75 C17.10894075 92.27681951 17.10894075 92.27681951 20.5 109.5 C23.05677986 121.93123999 25.27783872 134.4222905 27.52371216 146.91259766 C29.71089717 159.07233388 31.93118124 171.21509442 34.54101562 183.29296875 C35.91537834 189.83708732 36.56757973 196.32961059 37 203 C26.9196145 204.02549376 16.84620436 204.96894632 6.73323059 205.60935974 C-10.40307852 206.71473815 -27.40615163 208.63284634 -44.45117188 210.67095947 C-48.18107671 211.11551445 -51.91187067 211.55247586 -55.64257812 211.99023438 C-62.10508184 212.74963113 -68.56671449 213.51610681 -75.02777672 214.28766727 C-79.45319206 214.81607871 -83.87905016 215.34061103 -88.30517578 215.86303711 C-90.51205402 216.12475501 -92.71892313 216.38654997 -94.92578125 216.6484375 C-95.88989426 216.76174911 -96.85400726 216.87506073 -97.84733582 216.99180603 C-106.61434006 218.03722931 -115.3418741 219.31987771 -124.05859375 220.72265625 C-125.28690918 220.92004395 -126.51522461 221.11743164 -127.78076172 221.32080078 C-128.45032898 221.42869934 -129.11989624 221.5365979 -129.80975342 221.64776611 C-132.21027424 222.03381615 -134.61121808 222.41716547 -137.01220703 222.80029297 C-183.29800912 230.19555687 -229.52259319 237.97825471 -275.42926025 247.46948242 C-281.17211938 248.65462289 -286.9174076 249.82795957 -292.66230774 251.00315857 C-297.43803133 251.98021613 -302.21338516 252.95894943 -306.98754883 253.94360352 C-314.82336951 255.55670645 -322.6594211 257.14435375 -330.52734375 258.59375 C-337.07852762 259.80682555 -343.56948596 261.19773602 -350.0625 262.6875 C-361.42920824 265.25721489 -372.82947077 267.62174008 -384.25 269.9375 C-397.18551044 272.56288507 -410.07215128 275.3278104 -422.93652344 278.28491211 C-434.09499084 280.83351295 -445.29289837 283.17574458 -456.5 285.5 C-468.77435721 288.04668415 -481.03089778 290.63575212 -493.25 293.4375 C-511.99178252 297.72834555 -530.80634361 301.6750198 -549.6171875 305.64990234 C-556.08962029 307.01804775 -562.56046776 308.39360462 -569.03125 309.76953125 C-596.66179155 315.64130407 -624.31049844 321.41270009 -652 327 C-653.79781921 327.36285095 -653.79781921 327.36285095 -655.63195801 327.73303223 C-689.34055241 334.53295977 -723.0634363 341.24320527 -756.85128784 347.63996887 C-761.70121234 348.55922501 -766.54760591 349.49407532 -771.390625 350.44921875 C-787.19457361 353.56332663 -803.05804936 356.2364088 -818.95239258 358.84022522 C-824.42253327 359.73727452 -829.88966362 360.65114382 -835.35546875 361.57421875 C-850.22793511 364.08252578 -865.09997448 366.51351111 -880.02856445 368.67016602 C-885.95823709 369.53115212 -891.8584457 370.47181443 -897.75 371.5625 C-905.23677266 372.94437398 -912.75918 373.92346612 -920.31079102 374.87963867 C-926.28277338 375.63794679 -932.23759059 376.46026236 -938.1875 377.375 C-941.79117069 377.91998738 -945.39555114 378.46018625 -949 379 C-950.0729834 379.16193848 -951.1459668 379.32387695 -952.25146484 379.49072266 C-974.0744982 382.74928396 -995.97261785 385.3472207 -1017.89151764 387.86133194 C-1020.14318469 388.11991088 -1022.39469633 388.3798069 -1024.6461792 388.63998413 C-1043.38788931 390.80210591 -1062.13684534 392.72264529 -1080.9309082 394.37011719 C-1086.96031129 394.89935123 -1092.98084303 395.49073348 -1099 396.125 C-1105.48289267 396.79160364 -1111.9502984 397.27028679 -1118.45825195 397.6081543 C-1123.10377203 397.85953873 -1127.72744411 398.22704986 -1132.35874939 398.66845703 C-1161.19161526 401.41075598 -1190.1341961 402.82231503 -1219.0625 404.125 C-1220.04835964 404.16943489 -1221.03421928 404.21386978 -1222.04995346 404.25965118 C-1292.93796004 407.42315536 -1364.11332182 407.32904714 -1435 404 C-1436.13826233 403.94672546 -1437.27652466 403.89345093 -1438.44927979 403.83856201 C-1479.97240971 401.86548496 -1521.48614808 398.91476408 -1562.80419922 394.30688477 C-1564.22882057 394.14841518 -1565.65346193 393.99012537 -1567.078125 393.83203125 C-1567.75880035 393.75632904 -1568.43947571 393.68062683 -1569.14077759 393.60263062 C-1573.43919346 393.13611108 -1577.73221635 392.79629768 -1582.046875 392.5234375 C-1589.0188931 392.05688818 -1595.90217631 391.13695756 -1602.81265259 390.13082886 C-1606.71082312 389.56352064 -1610.61123371 389.01207338 -1614.51171875 388.4609375 C-1615.75933235 388.28433846 -1615.75933235 388.28433846 -1617.03215027 388.10417175 C-1626.61357107 386.75758849 -1636.21223087 385.54746947 -1645.8097229 384.32199097 C-1673.02033687 380.83780452 -1673.02033687 380.83780452 -1685.3125 378.75 C-1686.22427002 378.59909912 -1687.13604004 378.44819824 -1688.07543945 378.29272461 C-1690.0649255 377.93541026 -1692.03661647 377.48047205 -1694 377 C-1694.33 376.34 -1694.66 375.68 -1695 375 C-1694.30223953 374.90421661 -1693.60447906 374.80843323 -1692.88557434 374.70974731 C-1686.25249713 373.79901638 -1679.61956125 372.88726348 -1672.9867754 371.97441292 C-1669.578254 371.50534361 -1666.16968251 371.03664526 -1662.76098633 370.56884766 C-1658.82617466 370.02883014 -1654.89159909 369.48710382 -1650.95703125 368.9453125 C-1649.15465752 368.698311 -1649.15465752 368.698311 -1647.31587219 368.44631958 C-1633.93972197 366.60151351 -1620.61089666 364.47102833 -1607.28125 362.3203125 C-1606.50297348 362.1947485 -1605.72469696 362.06918449 -1604.9228363 361.93981552 C-1600.80065884 361.27453498 -1596.67860885 360.60847013 -1592.55664062 359.94189453 C-1589.20012654 359.39927213 -1585.8433514 358.85831075 -1582.48632812 358.31884766 C-1565.25758547 355.5496718 -1548.05605784 352.74887005 -1530.93359375 349.37335205 C-1526.55517667 348.5279361 -1522.15317363 347.82702854 -1517.75 347.125 C-1503.80699765 344.84705052 -1489.91497661 342.2957298 -1476.02099609 339.73925781 C-1472.27113193 339.04930524 -1468.52037364 338.36430324 -1464.76953125 337.6796875 C-1446.39033865 334.31500054 -1428.07028081 330.70094808 -1409.78515625 326.859375 C-1408.40938919 326.57051422 -1408.40938919 326.57051422 -1407.00582886 326.27581787 C-1402.43797817 325.31621409 -1397.87077464 324.35370301 -1393.3046875 323.38574219 C-1384.95221964 321.62155004 -1376.59553463 319.91009025 -1368.20584106 318.33132935 C-1351.16927444 315.12229307 -1334.24032563 311.44984443 -1317.30639648 307.74414062 C-1313.05233529 306.81325719 -1308.79703312 305.88819297 -1304.54136944 304.96466732 C-1286.37526812 301.01976365 -1268.25593705 296.94772076 -1250.20507812 292.50268555 C-1243.92894743 290.96435578 -1237.62608564 289.56279621 -1231.3125 288.1875 C-1198.91909873 281.0497904 -1166.74941267 272.97570315 -1134.5793457 264.90283203 C-1131.84329656 264.2163324 -1129.10721382 263.5299669 -1126.37109375 262.84375 C-1125.70264498 262.67610012 -1125.03419621 262.50845024 -1124.34549141 262.33572006 C-1112.40845938 259.34298026 -1100.45930664 256.40236203 -1088.5 253.5 C-1085.31114609 252.72547363 -1082.12234301 251.95073834 -1078.93359375 251.17578125 C-1078.1849707 250.9938472 -1077.43634766 250.81191315 -1076.66503906 250.62446594 C-1051.72111293 244.60061603 -1051.72111293 244.60061603 -1026.9453125 237.93237305 C-1019.51765997 235.82851141 -1012.0391572 233.92045192 -1004.5625 232 C-1003.88464447 231.82584564 -1003.20678894 231.65169128 -1002.50839233 231.47225952 C-999.83408127 230.7852765 -997.15974985 230.09837291 -994.4853363 229.41178894 C-987.04207032 227.49957735 -979.6109739 225.54215483 -972.18164062 223.57666016 C-968.28866957 222.54765415 -964.39421335 221.52429227 -960.5 220.5 C-959.79260178 220.31368515 -959.08520355 220.1273703 -958.35636902 219.93540955 C-954.65355563 218.96035906 -950.95034543 217.98704312 -947.24536133 217.02026367 C-936.28808885 214.15834508 -925.3522208 211.21788023 -914.41796875 208.26953125 C-913.61107227 208.05198559 -912.8041758 207.83443993 -911.97282791 207.61030197 C-904.36426574 205.55880201 -896.75603395 203.50607857 -889.14819336 201.4519043 C-884.13427468 200.09824802 -879.12003614 198.74578242 -874.10546875 197.39453125 C-873.27433941 197.17056797 -872.44321007 196.94660469 -871.58689499 196.71585464 C-858.38270126 193.15986739 -845.1631362 189.66490411 -831.93588829 186.1957798 C-817.9680607 182.53133861 -804.02537589 178.78087989 -790.09393311 174.98013306 C-768.81987669 169.17829832 -747.52526586 163.46519452 -726.19178772 157.88621521 C-716.8934793 155.45239182 -707.60425584 152.98429332 -698.31460571 150.51766968 C-695.18473644 149.68676634 -692.05466995 148.85660958 -688.92456055 148.02661133 C-679.56070213 145.54292312 -670.19798365 143.05521274 -660.84011841 140.54902649 C-636.14165183 133.93519294 -611.40457483 127.52133948 -586.57885742 121.40039062 C-576.76947513 118.9772906 -566.99430834 116.48962547 -557.26914978 113.7469635 C-550.75707184 111.91495897 -544.204299 110.2687331 -537.63586426 108.65252686 C-532.50143726 107.38146311 -527.37305986 106.0861823 -522.24340057 104.79603958 C-518.09400164 103.7530397 -513.94386757 102.71296902 -509.79381943 101.67255592 C-506.23706746 100.78075896 -502.68053846 99.88809299 -499.12451172 98.9934082 C-484.9704112 95.43291024 -470.81832233 91.89250675 -456.57330322 88.70970154 C-448.23400834 86.84432254 -439.9413713 84.80463911 -431.64724731 82.74914551 C-415.57252148 78.77135639 -399.46213771 75.05505152 -383.2734375 71.57421875 C-376.56359148 70.1308524 -369.87279754 68.61521427 -363.1875 67.0625 C-362.12974365 66.81790039 -361.0719873 66.57330078 -359.98217773 66.32128906 C-354.31650971 65.00915922 -348.65489014 63.68128544 -342.99609375 62.33984375 C-311.81160313 55.01464122 -280.38402001 48.77913278 -248.9944458 42.40509033 C-247.08331709 42.01692247 -245.17227186 41.62834364 -243.26123047 41.23974609 C-203.94689399 33.24682448 -164.57008131 25.62590355 -125 19 C-124.3028186 18.88311829 -123.60563721 18.76623657 -122.8873291 18.64581299 C-113.68717326 17.10350986 -104.48541685 15.57101586 -95.28253174 14.04508972 C-90.89274101 13.31651077 -86.50439519 12.57995163 -82.1171875 11.8359375 C-71.10370957 9.97149199 -60.084467 8.24237303 -49.01953125 6.7109375 C-44.14978198 6.03189467 -39.29174143 5.28321008 -34.43286133 4.53076172 C-28.6034689 3.62946742 -22.77095922 2.74953303 -16.9375 1.875 C-15.1440918 1.60236328 -15.1440918 1.60236328 -13.31445312 1.32421875 C-12.16783203 1.15277344 -11.02121094 0.98132813 -9.83984375 0.8046875 C-8.29864868 0.57241455 -8.29864868 0.57241455 -6.72631836 0.33544922 C-4 0 -4 0 0 0 Z " fill="#C60C30" transform="translate(1829,284)"/>
<path d="M0 0 C0.91294327 -0.00428009 1.82588654 -0.00856018 2.76649475 -0.01296997 C5.71156774 -0.02292592 8.65647591 -0.02302674 11.6015625 -0.01953125 C13.11570236 -0.01812637 13.11570236 -0.01812637 14.66043091 -0.01669312 C49.76107344 0.05395153 83.59737271 3.55595508 117.2265625 14.16796875 C118.01272949 14.4112793 118.79889648 14.65458984 119.60888672 14.90527344 C141.80628663 21.86743072 171.19638159 33.84173896 183.2265625 55.16796875 C181.58083017 55.19565397 179.93495181 55.2146646 178.2890625 55.23046875 C177.37253906 55.24207031 176.45601562 55.25367188 175.51171875 55.265625 C172.2265625 55.16796875 172.2265625 55.16796875 168.30078125 54.6796875 C161.54869379 53.88868635 154.76670495 53.92469548 147.9765625 53.91796875 C146.91609207 53.91645813 146.91609207 53.91645813 145.834198 53.91491699 C133.75649683 53.92650673 122.08172664 54.78027761 110.2265625 57.16796875 C109.46327637 57.31782227 108.69999023 57.46767578 107.91357422 57.62207031 C88.13230412 61.60453589 68.98630123 69.40480006 53.2265625 82.16796875 C52.68290039 82.60093262 52.13923828 83.03389648 51.57910156 83.47998047 C28.75079626 101.76936171 14.91201988 126.23775405 2.2265625 152.16796875 C3.14580946 152.15537301 4.06505642 152.14277727 5.01215935 152.12979984 C16.22834668 152.04538191 27.35434307 152.57570047 38.54736328 153.25366211 C40.53681121 153.37066499 42.52628343 153.48725556 44.51577759 153.60346985 C49.87122769 153.91748065 55.22631894 154.23725897 60.58135843 154.55818629 C66.21199336 154.89466787 71.84293746 155.22589651 77.47384644 155.55775452 C86.92366758 156.11540709 96.37328051 156.67647697 105.82275391 157.23999023 C119.11393822 158.03259328 132.40549504 158.81880492 145.69712853 159.60383403 C156.06378746 160.21636343 166.43033496 160.83077496 176.796875 161.4453125 C177.90024405 161.51068986 179.0036131 161.57606721 180.14041758 161.6434257 C186.50362865 162.02053841 192.86678292 162.39858568 199.22985458 162.77804375 C201.14936405 162.89240021 203.06888984 163.00648293 204.98843384 163.12025833 C215.40648512 163.73801683 225.81895972 164.39074332 236.2265625 165.16796875 C236.38463379 164.44230713 236.54270508 163.71664551 236.70556641 162.96899414 C242.20228749 138.34874345 253.6741611 115.16595017 270.2265625 96.16796875 C270.76667969 95.54277344 271.30679688 94.91757813 271.86328125 94.2734375 C281.54251639 83.86277401 293.99080955 76.92984942 307.2265625 72.16796875 C309.03640625 71.51634766 309.03640625 71.51634766 310.8828125 70.8515625 C322.97161718 67.20714344 340.13747481 65.13827285 352.2265625 69.16796875 C352.36231689 70.30524414 352.49807129 71.44251953 352.63793945 72.61425781 C353.15495459 76.93867759 353.67595183 81.26261073 354.19799805 85.58642578 C354.4210462 87.43818848 354.64309276 89.29007216 354.86401367 91.14208984 C356.14870903 101.90543732 357.55160897 112.63622661 359.19223022 123.35142517 C360.11584485 129.38405584 360.93243939 135.42146909 361.6640625 141.48046875 C362.76190838 150.49862292 363.906987 159.51011517 365.07421875 168.51953125 C365.33923657 170.56857786 365.60411587 172.61764234 365.86899376 174.66670704 C366.050683 176.07214832 366.23241666 177.47758385 366.41419411 178.88301373 C367.35478331 186.15598099 368.29063504 193.42955654 369.2265625 200.703125 C369.72647006 204.58472871 370.22650062 208.46631656 370.7265625 212.34790039 C371.06012264 214.93804046 371.39345567 217.52820979 371.7265625 220.1184082 C373.73830227 235.75948845 375.77604608 251.3965429 377.87597656 267.02601624 C379.12202545 276.31402674 380.2940336 285.61000719 381.4453125 294.91015625 C382.26610873 301.51713838 383.11456468 308.1205115 383.96740723 314.72341919 C384.22450826 316.71455951 384.4809093 318.70579018 384.73730469 320.69702148 C385.52524945 326.80283136 386.32248407 332.90702011 387.1484375 339.0078125 C387.28894531 340.05445068 387.42945312 341.10108887 387.57421875 342.17944336 C387.83331638 344.1039665 388.09605181 346.02800516 388.36328125 347.95141602 C388.53537109 349.23423462 388.53537109 349.23423462 388.7109375 350.54296875 C388.81116211 351.27257813 388.91138672 352.0021875 389.01464844 352.75390625 C389.29056866 355.89710806 389.25821167 359.01456025 389.2265625 362.16796875 C378.94503851 362.28669539 368.73797299 361.93685955 358.4765625 361.35546875 C357.69254059 361.31228516 356.90851868 361.26910156 356.10073853 361.22460938 C341.25907899 360.40531905 326.43545884 359.36404129 311.61108398 358.28076172 C301.11471953 357.51394634 290.61769733 356.7736954 280.11416626 356.11132812 C278.10360574 355.98453895 276.093182 355.85558657 274.08276367 355.7265625 C271.7560219 355.58210432 269.4284508 355.45008884 267.10009766 355.33447266 C264.82698642 355.20275967 262.56029511 354.96072156 260.30078125 354.6796875 C255.46272305 355.44812114 253.30302548 358.54897688 250.2265625 362.16796875 C249.61643311 362.85479736 249.00630371 363.54162598 248.37768555 364.24926758 C246.64341777 366.20788003 244.93404433 368.18602307 243.2265625 370.16796875 C241.83072917 371.73046875 240.43489583 373.29296875 239.0390625 374.85546875 C236.98419868 377.21395361 235.08500551 379.65166981 233.2265625 382.16796875 C234.24254517 382.31153809 234.24254517 382.31153809 235.27905273 382.45800781 C238.91125444 383.33288916 242.06528264 384.86674131 245.38671875 386.52734375 C246.08139755 386.86839645 246.77607635 387.20944916 247.49180603 387.56083679 C248.98457905 388.29415076 250.47612567 389.02996555 251.96655273 389.76803589 C255.89227685 391.7117604 259.82686227 393.63734587 263.76171875 395.5625 C264.55542877 395.95119766 265.34913879 396.33989532 266.16690063 396.7403717 C274.97481305 401.04207626 283.86781491 405.15445172 292.78149414 409.23144531 C293.8564917 409.72483398 294.93148926 410.21822266 296.0390625 410.7265625 C296.97363281 411.15251709 297.90820312 411.57847168 298.87109375 412.01733398 C301.2265625 413.16796875 301.2265625 413.16796875 304.2265625 415.16796875 C304.5546875 417.46972656 304.5546875 417.46972656 304.4765625 420.37109375 C304.44949219 421.44939453 304.42242188 422.52769531 304.39453125 423.63867188 C304.10413331 429.74040538 303.69700577 435.82763566 303.2265625 441.91796875 C303.13117187 443.19929688 303.03578125 444.480625 302.9375 445.80078125 C302.7044616 448.9234958 302.46741541 452.0458489 302.2265625 455.16796875 C295.06064618 455.24897346 287.98123167 455.04424462 280.8359375 454.51171875 C278.88932701 454.37494176 276.94271229 454.2382249 274.99609375 454.1015625 C271.99059904 453.88594136 268.98523859 453.66860069 265.97998047 453.44970703 C260.24132195 453.0344899 254.50255879 452.65228612 248.75827026 452.32342529 C246.46447928 452.18257775 244.17734684 452.00166351 241.88696289 451.81494141 C232.21865155 451.30566106 226.82067283 453.79347133 219.1640625 459.54296875 C218.1318457 460.27451172 217.09962891 461.00605469 216.03613281 461.75976562 C213.07622976 463.86561816 210.15012877 466.01210719 207.2265625 468.16796875 C205.81924192 469.17454938 204.40947622 470.17773027 202.99609375 471.17578125 C200.72839349 472.7784962 198.47073386 474.39332303 196.22265625 476.0234375 C192.40778855 478.75402729 188.50795717 481.34053566 184.59375 483.92578125 C180.42060377 486.6917334 176.29387926 489.52540824 172.1640625 492.35546875 C171.36742188 492.90138672 170.57078125 493.44730469 169.75 494.00976562 C168.09916527 495.1414286 166.44845131 496.27326775 164.79785156 497.40527344 C160.38044449 500.43353769 155.95955594 503.45671248 151.5390625 506.48046875 C149.93097431 507.58070684 148.32289994 508.68096513 146.71484375 509.78125 C145.55208333 510.57682292 144.38932292 511.37239583 143.2265625 512.16796875 C148.63949018 511.53041925 153.98352835 510.73186492 159.34375 509.75 C160.10583771 509.61213074 160.86792542 509.47426147 161.65310669 509.33221436 C163.28711456 509.03650982 164.9209712 508.73996863 166.5546875 508.44265747 C169.14511355 507.97256542 171.73646663 507.50792465 174.328125 507.04467773 C181.99327155 505.67223967 189.65490278 504.28976736 197.29954529 502.80682373 C213.12659108 499.73815147 228.40378 497.2206143 244.60351562 498.03710938 C247.1812521 498.16570829 249.75588828 498.24355049 252.3359375 498.30859375 C271.66178033 498.88184826 290.95634451 500.65565855 310.2265625 502.16796875 C308.993552 506.18641217 307.53720482 509.65534217 305.390625 513.265625 C304.54395264 514.70131836 304.54395264 514.70131836 303.68017578 516.16601562 C303.0767334 517.17728516 302.47329102 518.18855469 301.8515625 519.23046875 C300.59029846 521.36668742 299.3298996 523.50341712 298.0703125 525.640625 C297.43222656 526.72102051 296.79414063 527.80141602 296.13671875 528.91455078 C293.16574953 533.97476752 290.25549047 539.0690675 287.3515625 544.16796875 C286.83416504 545.07554932 286.31676758 545.98312988 285.78369141 546.91821289 C284.59700636 549.00091227 283.41122584 551.08411896 282.2265625 553.16796875 C267.39469981 553.4562771 252.70030939 552.84414808 237.90673828 551.87939453 C237.19396729 551.83348175 236.48119629 551.78756897 235.74682617 551.74026489 C233.79992701 551.61378746 231.85332018 551.48283245 229.90673828 551.3515625 C226.00140503 551.15673627 222.13592828 551.13772638 218.2265625 551.16796875 C218.59305908 551.60963379 218.95955566 552.05129883 219.3371582 552.50634766 C225.61378297 560.07824221 231.87740524 567.65258694 237.9140625 575.41796875 C241.85237719 580.48161893 245.92838326 585.39977896 250.10009766 590.2722168 C253.91475271 594.74843155 257.5538747 599.34679315 261.15649414 603.99462891 C263.80981464 607.40624523 266.5345811 610.73221307 269.35131836 614.01000977 C279.26401559 625.58557717 282.49175041 636.66327774 281.46923828 652.02294922 C278.27427402 680.26334758 262.30411362 706.39073929 240.30859375 723.91796875 C235.14668431 727.68635891 229.7807984 731.00241731 224.2265625 734.16796875 C223.41574219 734.6475 222.60492187 735.12703125 221.76953125 735.62109375 C216.88669853 738.33881141 216.88669853 738.33881141 214.33984375 737.6796875 C211.20757963 735.43904754 209.19558092 732.45016877 206.9765625 729.35546875 C205.91385187 727.90544945 204.84998804 726.45627483 203.78515625 725.0078125 C203.21522949 724.22905762 202.64530273 723.45030273 202.05810547 722.64794922 C198.77147219 718.19771983 195.4005606 713.81174721 192.0390625 709.41796875 C187.22975422 703.11764062 182.44171831 696.80387104 177.69921875 690.453125 C174.21950978 685.81300939 170.6848412 681.2144299 167.1640625 676.60546875 C162.38108882 670.34212911 157.65001012 664.05672064 153.046875 657.66015625 C150.58963436 654.29595125 148.0470723 651.00044305 145.49853516 647.70507812 C141.38108981 642.37970483 137.30283779 637.02489837 133.2265625 631.66796875 C128.00544084 624.80956156 122.77440783 617.95937245 117.51171875 611.1328125 C115.93357904 609.08527739 114.35775135 607.0361542 112.78515625 604.984375 C104.03352344 593.570322 95.15607001 582.27025896 86.06103516 571.12744141 C82.58796425 566.86545643 79.16881566 562.56669704 75.7890625 558.23046875 C66.35315474 546.14591556 56.48793679 534.40428933 46.55322266 522.72851562 C44.73457414 520.58924413 42.92119446 518.44553871 41.1081543 516.30151367 C40.18951253 515.21534437 39.27040675 514.12956735 38.35083008 513.04418945 C36.05170849 510.33009051 33.75856382 507.61132757 31.4765625 504.8828125 C26.03955626 498.39525627 20.46093324 492.07879389 14.7109375 485.8671875 C12.68034377 483.66099211 10.6891521 481.43429246 8.7265625 479.16796875 C4.467102 474.2594476 0.05019939 469.49525183 -4.3515625 464.71484375 C-6.58192328 462.2884073 -8.80120192 459.85184581 -11.0234375 457.41796875 C-12.41467727 455.9041426 -13.80606891 454.39045519 -15.19882202 452.87802124 C-16.21676345 451.77252386 -17.23392789 450.6663103 -18.25015259 449.55923462 C-29.50005884 437.33012472 -41.21358285 425.57227217 -52.97338867 413.83764648 C-55.6918403 411.12494928 -58.40569543 408.40770439 -61.11830044 405.68916225 C-63.24161798 403.56221163 -65.36733518 401.43767207 -67.49376106 399.31382942 C-68.49547389 398.31277526 -69.49646797 397.31100126 -70.49667168 396.30843925 C-75.56279506 391.23296766 -80.66313469 386.26910092 -86.10682678 381.59877014 C-88.12471227 379.86639597 -90.06527005 378.0631457 -91.9921875 376.23046875 C-93.04986328 375.22886719 -93.04986328 375.22886719 -94.12890625 374.20703125 C-95.55859375 372.84765625 -96.98828125 371.48828125 -98.41796875 370.12890625 C-102.53334046 366.23171695 -106.70947701 362.43092608 -110.99169922 358.71777344 C-113.22208792 356.77772034 -115.40421763 354.78746572 -117.5859375 352.79296875 C-121.8530265 348.94091576 -126.25447 345.29859026 -130.72265625 341.68359375 C-134.29401104 338.73871221 -137.78538795 335.71058613 -141.2734375 332.66796875 C-147.34547239 327.37883491 -153.51207709 322.23230438 -159.7734375 317.16796875 C-160.99803823 316.16224003 -162.22195029 315.15567239 -163.4453125 314.1484375 C-170.71545771 308.17746177 -178.07053978 302.36726618 -185.62719727 296.76293945 C-190.78117621 292.93525527 -195.84685858 289.00450949 -200.8984375 285.04296875 C-209.12649464 278.60733432 -217.56183993 272.5307683 -226.10791016 266.52832031 C-228.60564535 264.76940689 -231.09607258 263.00049979 -233.5859375 261.23046875 C-234.38193359 260.67415771 -235.17792969 260.11784668 -235.99804688 259.54467773 C-237.1030957 258.75685913 -237.1030957 258.75685913 -238.23046875 257.953125 C-238.89022705 257.487854 -239.54998535 257.02258301 -240.22973633 256.54321289 C-241.7734375 255.16796875 -241.7734375 255.16796875 -242.7734375 252.16796875 C-232.47529765 235.52955623 -210.53505824 222.81154385 -191.9609375 218.35546875 C-160.69578602 211.68179476 -131.20684352 221.11172986 -103.7734375 236.16796875 C-102.45195754 236.87264835 -101.13033999 237.57706997 -99.80859375 238.28125 C-89.99025356 243.58662796 -80.82986507 249.66008361 -71.7734375 256.16796875 C-71.0215918 256.70583008 -70.26974609 257.24369141 -69.49511719 257.79785156 C-58.60430197 265.61701421 -48.09233083 273.79943751 -37.85839844 282.46020508 C-36.37022703 283.67914641 -34.84824786 284.85728446 -33.30566406 286.0065918 C-27.03203568 290.73434596 -22.85742629 295.63122677 -18.6484375 302.23046875 C-17.3581468 304.18710598 -16.06643259 306.14280509 -14.7734375 308.09765625 C-14.11730469 309.09893555 -13.46117188 310.10021484 -12.78515625 311.13183594 C-9.49309164 316.10029656 -6.06850443 320.97465397 -2.6484375 325.85546875 C2.17695263 332.77031652 6.97594943 339.70153506 11.7265625 346.66796875 C16.51965928 353.6963006 21.36185399 360.68902306 26.2265625 367.66796875 C36.7201352 382.72821202 47.09218306 397.86345442 57.2265625 413.16796875 C56.57756136 405.31710359 55.37979114 397.60852481 54.046875 389.84765625 C53.83344452 388.59018585 53.62001404 387.33271545 53.40011597 386.03713989 C52.94948758 383.38612735 52.4976183 380.73536647 52.04345703 378.08496094 C51.46984782 374.73722228 50.9003581 371.38880033 50.33232498 368.04011154 C48.27976781 355.94373804 46.20484735 343.85647061 43.90185547 331.80517578 C42.42511758 323.85129251 41.15828066 315.86018436 39.8515625 307.87695312 C39.47801714 305.59871554 39.10292256 303.32074301 38.7265625 301.04296875 C38.60435333 300.30331375 38.48214417 299.56365875 38.35623169 298.80158997 C37.29186051 292.42686463 36.09763382 286.08077704 34.86279297 279.73706055 C34.04598108 275.1549527 33.5104176 270.56698316 33.046875 265.9375 C31.94356521 262.21251599 30.13172654 260.72050598 27.2265625 258.16796875 C26.73317383 257.72654541 26.23978516 257.28512207 25.73144531 256.83032227 C24.10026347 255.38126019 22.44868297 253.95935285 20.7890625 252.54296875 C20.17998047 252.02154297 19.57089844 251.50011719 18.94335938 250.96289062 C14.22303437 246.95085693 9.38384283 243.1142737 4.48754883 239.32055664 C-0.40552441 235.50890118 -5.10955857 231.50310461 -9.7980957 227.4440918 C-13.90669632 223.89235361 -18.09126979 220.45909485 -22.3515625 217.08984375 C-26.87005491 213.50420139 -31.31412458 209.82673181 -35.7734375 206.16796875 C-37.60653912 204.66768558 -39.43987177 203.16768467 -41.2734375 201.66796875 C-151.2734375 111.66796875 -151.2734375 111.66796875 -154.0078125 109.4296875 C-155.8918456 107.88893162 -157.77732162 106.34993885 -159.6640625 104.8125 C-164.75660093 100.65915923 -169.80738366 96.47188208 -174.7734375 92.16796875 C-170.10966197 76.77424811 -162.06122084 64.42279506 -150.7734375 53.16796875 C-150.04511719 52.38035156 -149.31679687 51.59273437 -148.56640625 50.78125 C-117.14362207 17.37632359 -65.42587407 6.04910576 -21.70922852 1.47753906 C-20.06175712 1.30381817 -18.4148856 1.1227467 -16.77130127 0.91545105 C-11.16268699 0.22885496 -5.64766415 0.00807605 0 0 Z " fill="#AFB6BB" transform="translate(2830.7734375,1071.83203125)"/>
<path d="M0 0 C0.20979492 1.26046143 0.20979492 1.26046143 0.42382812 2.54638672 C3.35363759 20.07107499 6.44139183 37.55455665 9.8125 55 C13.07343972 71.8796704 16.10977525 88.79197555 19.06286621 105.72805786 C22.06954193 122.95692453 25.25294267 140.14516469 28.61328125 157.30859375 C28.77485214 158.1405275 28.93642303 158.97246124 29.10289001 159.8296051 C29.40199108 161.36876894 29.70414635 162.9073439 30.01002502 164.44517517 C30.6465301 167.72749955 31 170.63707395 31 174 C29.83766846 174.13575439 28.67533691 174.27150879 27.4777832 174.41137695 C18.1830859 175.49877701 8.88949115 176.59542759 -0.40234375 177.70703125 C-1.29853928 177.81348465 -2.1947348 177.91993805 -3.11808777 178.02961731 C-10.88807986 178.96231059 -18.63629256 180.02791781 -26.375 181.19140625 C-31.18079732 181.89884464 -35.99517687 182.52951393 -40.8125 183.15234375 C-41.61198059 183.25575577 -42.41146118 183.35916779 -43.23516846 183.4657135 C-44.89542349 183.68036132 -46.55568151 183.89498597 -48.21594238 184.10958862 C-59.50419394 185.57030762 -70.77420105 187.04590088 -82 188.9375 C-95.99653545 191.29082407 -110.08086174 193.01674544 -124.15820312 194.80639648 C-133.80389494 196.03621113 -143.43017881 197.33434416 -153.04237366 198.8037262 C-164.00288293 200.47184005 -174.98772643 201.96783832 -185.97070312 203.47949219 C-189.73074805 203.9973485 -193.49038532 204.51809293 -197.25 205.0390625 C-212.48615215 207.14397298 -227.73113173 209.14713628 -243 211 C-243.85579651 211.10405151 -244.71159302 211.20810303 -245.59332275 211.31530762 C-251.37308823 212.01591076 -257.15461368 212.70066537 -262.9375 213.375 C-264.27223862 213.53074493 -264.27223862 213.53074493 -265.63394165 213.68963623 C-287.86219464 216.27358564 -310.1219783 218.54049206 -332.39099121 220.74151611 C-334.73903674 220.97414543 -337.08685461 221.20889355 -339.43457031 221.44482422 C-377.88935568 225.29220504 -416.48239276 228.33162995 -455.10095215 229.8828125 C-458.23834688 230.00963464 -461.37550467 230.14166794 -464.51269531 230.2734375 C-534.26967117 233.15346407 -604.25216291 233.24357826 -673.97029114 229.38250732 C-678.90775112 229.10959068 -683.84536028 228.86343208 -688.78515625 228.63671875 C-766.05707144 224.87706063 -845.18889111 216.56576527 -921.06152344 201.50390625 C-929.3352176 199.87797332 -937.66005154 198.60330464 -946.00415039 197.39453125 C-947.01727295 197.24113281 -948.03039551 197.08773437 -949.07421875 196.9296875 C-949.97744873 196.79804199 -950.88067871 196.66639648 -951.8112793 196.53076172 C-954 196 -954 196 -956 194 C-955.27901123 193.9906543 -954.55802246 193.98130859 -953.81518555 193.97167969 C-923.47899606 193.49632961 -893.24658771 191.26359789 -863 189 C-861.94391541 188.92136719 -860.88783081 188.84273437 -859.79974365 188.76171875 C-817.25527142 185.57511125 -774.90482695 180.43176793 -732.6875 174.3125 C-731.72773254 174.17419769 -730.76796509 174.03589539 -729.77911377 173.8934021 C-719.1615428 172.35380483 -708.61831697 170.59741049 -698.09092712 168.52894592 C-691.52422761 167.25208453 -684.93983501 166.18661049 -678.328125 165.171875 C-663.14394199 162.81096609 -648.10109805 159.75971307 -633.04308701 156.71350861 C-630.71709812 156.24334944 -628.39078143 155.77484542 -626.06436157 155.30682373 C-594.51687007 148.9587802 -563.05817298 142.41177555 -531.81860352 134.6739502 C-527.49114158 133.60484557 -523.15899498 132.55701226 -518.82348633 131.52099609 C-499.86510575 126.98626464 -480.97097101 122.22366374 -462.09248352 117.36841202 C-459.64940294 116.74020381 -457.20612385 116.11277215 -454.76281738 115.48544312 C-432.43402316 109.74999684 -410.15266429 103.87887241 -387.9541626 97.65565491 C-381.34165134 95.80568515 -374.7034565 94.05730139 -368.0625 92.3125 C-350.65837524 87.72319214 -333.34824586 82.79059556 -316.02758789 77.89770508 C-303.62695628 74.39809157 -291.21381253 70.95855425 -278.76690674 67.62712097 C-270.91721927 65.52380804 -263.08074046 63.37587575 -255.25 61.203125 C-254.09788528 60.88348785 -252.94577057 60.56385071 -251.75874329 60.23452759 C-249.39254707 59.57794999 -247.0263617 58.92133328 -244.66018677 58.26467896 C-219.49611983 51.28868271 -194.29660166 44.47993159 -169 38 C-167.74805847 37.67906372 -166.49611694 37.35812744 -165.20623779 37.02746582 C-155.71253536 34.59435642 -146.21643769 32.17072489 -136.71888351 29.75269699 C-134.54242217 29.19830583 -132.36617365 28.64308629 -130.18997192 28.087677 C-113.16291774 23.74424739 -96.11338484 19.55485585 -78.97338867 15.67501831 C-75.14326983 14.80550523 -71.31674144 13.92080641 -67.49020386 13.03569031 C-32.71289769 4.99757041 -32.71289769 4.99757041 -16.625 1.875 C-15.60535156 1.67511475 -14.58570313 1.47522949 -13.53515625 1.26928711 C-8.92770372 0.40458874 -4.70510649 -0.0806978 0 0 Z " fill="#C60C30" transform="translate(1886,585)"/>
<path d="M0 0 C2.4389566 3.85061446 2.63669614 8.01719635 3.078125 12.44140625 C3.16987 13.2950325 3.26161499 14.14865875 3.35614014 15.02815247 C3.555509 16.88965362 3.75142887 18.75152661 3.94433594 20.6137085 C4.47330905 25.71679911 5.02759213 30.8171671 5.578125 35.91796875 C5.69297241 36.9885553 5.80781982 38.05914185 5.92614746 39.16217041 C7.07804657 49.85038459 8.34435306 60.52408087 9.62042236 71.19805908 C12.63659307 96.44242332 15.37557435 121.71216168 18 147 C62.44193672 163.76450731 106.90244946 180.47882903 151.38134766 197.14501953 C161.92171428 201.09450383 172.46092599 205.04706786 183 209 C179.8779068 211.08139546 177.66318293 211.74076238 174.04750061 212.64517212 C172.18204338 213.11628166 172.18204338 213.11628166 170.27890015 213.59690857 C168.89828321 213.93923369 167.51763645 214.2814385 166.13696289 214.62353516 C164.68477749 214.98786594 163.23271847 215.35270074 161.78077698 215.71800232 C157.83588487 216.70886054 153.88917571 217.69229195 149.94203877 218.6741643 C145.81367034 219.70216474 141.68678412 220.73608389 137.55967712 221.76913452 C130.62781062 223.50323199 123.69475842 225.23252325 116.76098633 226.95898438 C108.74269033 228.9555467 100.72630683 230.9596445 92.71090895 232.96780741 C85.00356791 234.89860769 77.29490817 236.8240912 69.58563042 238.74714279 C66.30338987 239.56598401 63.02162304 240.38668649 59.74022102 241.20888138 C55.87619835 242.1768013 52.01104403 243.14006422 48.14496422 244.09973335 C46.7255702 244.4528591 45.30657378 244.80758741 43.88800812 245.16402626 C41.95292068 245.64996754 40.01623943 246.12954891 38.07948303 246.60879517 C36.99566377 246.87904825 35.9118445 247.14930134 34.79518223 247.42774391 C32 248 32 248 28 248 C28.15686279 248.71889404 28.31372559 249.43778809 28.4753418 250.1784668 C28.97425792 252.86156297 29.23090231 255.42243092 29.39453125 258.14453125 C29.46051514 259.18432129 29.52649902 260.22411133 29.59448242 261.29541016 C29.70240112 263.03636963 29.70240112 263.03636963 29.8125 264.8125 C30.56861313 276.32423191 31.46603789 287.81822367 32.44769287 299.31280518 C34.47902763 323.13406992 36.3598901 346.96701892 38.21035767 370.80291748 C38.52506919 374.85537677 38.84200215 378.90765219 39.16098022 382.95977783 C40.81290439 403.96404478 42.45016205 424.93162716 43 446 C39.7339971 443.43766984 37.03297111 441.04286244 34.5 437.75 C30.94968519 433.20345749 27.33696485 428.71685961 23.6875 424.25 C19.11883699 418.64300448 14.61597806 412.9905486 10.16479492 407.29003906 C6.66277027 402.81624841 3.09214568 398.40164329 -0.5 394 C-4.54975959 389.03761852 -8.55785296 384.04831033 -12.5 379 C-18.55913545 371.24563103 -24.7773288 363.62331935 -31 356 C-37.68097011 347.81522419 -44.3336976 339.6159627 -50.83642578 331.28857422 C-54.87581692 326.12802212 -59.01158649 321.04885708 -63.15527344 315.97192383 C-67.19564996 311.01278828 -71.16236567 306.00068303 -75.09960938 300.95947266 C-78.70628182 296.34991086 -82.39549829 291.81573921 -86.125 287.3046875 C-87.80535128 285.23925572 -89.42007447 283.142774 -91 281 C-98.36978459 281.73240095 -105.47514527 283.34716871 -112.6875 285 C-114.04817708 285.30924479 -115.40885417 285.61848958 -116.76953125 285.92773438 C-128.16328527 288.52971014 -139.51618466 291.29468892 -150.86605835 294.08081055 C-162.62381347 296.96583701 -174.40389085 299.70110062 -186.22265625 302.32714844 C-198.22504654 305.01124037 -210.16747691 307.9287675 -222.10351562 310.89257812 C-230.25978993 312.90848101 -238.41329663 314.75074995 -246.66870117 316.31616211 C-250.09391847 317.01927927 -253.44221184 317.88316337 -256.8125 318.8125 C-264.10850651 320.80798896 -271.44909011 322.5829677 -278.8125 324.3125 C-279.97692627 324.59134033 -281.14135254 324.87018066 -282.34106445 325.1574707 C-283.97628052 325.53778442 -283.97628052 325.53778442 -285.64453125 325.92578125 C-286.62784424 326.15692627 -287.61115723 326.38807129 -288.62426758 326.6262207 C-291 327 -291 327 -293 326 C-292.20078125 325.07960938 -291.4015625 324.15921875 -290.578125 323.2109375 C-283.01978245 314.50137803 -275.49629001 305.76298984 -268 297 C-261.31098326 289.18069397 -254.60251244 281.37934454 -247.85791016 273.60791016 C-242.20992892 267.09645732 -236.60318688 260.54999602 -231 254 C-224.31098326 246.18069397 -217.60251244 238.37934454 -210.85791016 230.60791016 C-205.70838251 224.67111522 -200.59299766 218.70546545 -195.48388672 212.73388672 C-192.99104476 209.82105954 -190.49537292 206.91065889 -188 204 C-187.01561157 202.85157401 -186.03123662 201.70313647 -185.046875 200.5546875 C-180.03125 194.703125 -175.015625 188.8515625 -170 183 C-171.54455581 178.10580508 -174.40082885 174.75330778 -177.625 170.875 C-178.7283894 169.5223215 -179.82995001 168.1681492 -180.9296875 166.8125 C-181.46303711 166.15507813 -181.99638672 165.49765625 -182.54589844 164.8203125 C-184.35484302 162.55579087 -186.06477638 160.23280166 -187.75 157.875 C-191.64055368 152.43633016 -195.68963835 147.1253256 -199.75 141.8125 C-204.52659817 135.56119578 -209.29119441 129.30255517 -214 123 C-218.69231549 116.72170942 -223.43286706 110.48121336 -228.1875 104.25 C-234.49522387 95.98315393 -240.75714549 87.68508964 -246.9765625 79.3515625 C-247.66492187 78.43117188 -248.35328125 77.51078125 -249.0625 76.5625 C-249.784375 75.59570312 -250.50625 74.62890625 -251.25 73.6328125 C-253.51221321 70.62533747 -255.81694174 67.65209226 -258.125 64.6796875 C-259.21929321 63.26320923 -259.21929321 63.26320923 -260.33569336 61.81811523 C-261.80716366 59.91460925 -263.28444882 58.01558262 -264.76782227 56.12133789 C-265.44385498 55.24469482 -266.1198877 54.36805176 -266.81640625 53.46484375 C-267.42943604 52.677146 -268.04246582 51.88944824 -268.67407227 51.07788086 C-270 49 -270 49 -270 46 C-265.05482684 47.63176131 -260.11105017 49.26766693 -255.16845703 50.90722656 C-253.49108926 51.46302168 -251.8133622 52.01773383 -250.13525391 52.57128906 C-234.02873853 57.88576763 -234.02873853 57.88576763 -226.30566406 61.08300781 C-221.63569581 62.94031412 -216.83768594 64.43885384 -212.0625 66 C-209.65711952 66.79426413 -207.2521939 67.58990669 -204.84765625 68.38671875 C-204.21751617 68.5955217 -203.5873761 68.80432465 -202.93814087 69.01945496 C-195.2741619 71.5645971 -187.63697493 74.18766745 -180 76.8125 C-179.26920227 77.06359528 -178.53840454 77.31469055 -177.78546143 77.57339478 C-174.79291571 78.60171607 -171.80046949 79.63032574 -168.80822754 80.65953064 C-163.50759284 82.48263271 -158.20540373 84.30115316 -152.90234375 86.1171875 C-152.15647507 86.37276932 -151.41060638 86.62835114 -150.64213562 86.89167786 C-146.94970327 88.15680516 -143.25663775 89.4200197 -139.56225586 90.67944336 C-132.74259798 93.00752198 -125.93909565 95.36906789 -119.1640625 97.82421875 C-117.35627319 98.4725769 -117.35627319 98.4725769 -115.51196289 99.1340332 C-113.27476845 99.93887851 -111.04184083 100.7557239 -108.81420898 101.58666992 C-107.83524658 101.93705322 -106.85628418 102.28743652 -105.84765625 102.6484375 C-105.00211182 102.95958496 -104.15656738 103.27073242 -103.28540039 103.59130859 C-100.43537696 104.10096987 -99.3846725 103.57335308 -97 102 C-92.24952701 97.71900424 -87.8364227 93.05211187 -83.6875 88.1875 C-80.47761059 84.42865088 -77.01209591 80.97257866 -73.5 77.5 C-70.07154341 74.10994673 -66.67739215 70.74805942 -63.5625 67.0625 C-59.686001 62.48648238 -55.3747532 58.35013799 -51.11572266 54.13525391 C-47.54318081 50.58558242 -44.15403123 46.96851023 -40.90234375 43.12109375 C-37.67567789 39.52339444 -34.19523768 36.17621145 -30.75976562 32.77929688 C-27.29597232 29.33947446 -24.02867516 25.81437244 -20.87109375 22.08984375 C-17.86676523 18.73427849 -14.63215791 15.61187321 -11.4284668 12.44799805 C-7.41623648 8.46634196 -3.62502416 4.33981766 0 0 Z " fill="#FEFEFD" transform="translate(3279,568)"/>
</svg>
