<?xml version="1.0" encoding="utf-8"?>
<!-- Generator: Adobe Illustrator 25.4.1, SVG Export Plug-In . SVG Version: 6.00 Build 0)  -->
<svg version="1.0" id="katman_1" xmlns="http://www.w3.org/2000/svg" xmlns:xlink="http://www.w3.org/1999/xlink" x="0px" y="0px"
	 viewBox="0 0 841.9 595.3" style="enable-background:new 0 0 841.9 595.3;" xml:space="preserve">
<style type="text/css">
	.st0{fill:none;}
	.st1{fill:#1F3D87;}
	.st2{fill:url(#SVGID_1_);}
	.st3{fill:#D7D2CB;}
	.st4{fill:#FFD103;}
	.st5{fill:#F6A117;}
	.st6{fill:#F08119;}
	.st7{fill:url(#SVGID_00000093162185931275157180000011502747591011022466_);}
	.st8{fill:#FFFFFF;}
</style>
<g>
	<polygon class="st0" points="170.8,47.6 670.8,47.6 670.8,547.6 170.8,547.6 	"/>
	<g transform="translate(20 84.996)">
		<path class="st1" d="M574.6,103.7c-63-63-161.1-74.2-236.6-27.1l0,0c-20.8,13.8-38.9,31.4-53.2,51.9c-0.1,0.1-0.1,0.1-0.2,0.2
			h-39.5l-74.4,168.4h96.5c14,26,35.1,47.5,60.9,61.8c49.3,27.1,109.4,24.8,156.5-5.9c5.4-3.6,7.9-10.3,6.1-16.5
			c-1.8-6.3-7.5-10.6-14-10.7c-1.5,0-2.9,0.2-4.3,0.6c-9.6,2.9-19.6,4.4-29.7,4.3c-28.9,0.1-56.5-12.2-75.8-33.7h90.2l15.5-21.6
			l60.1,0c0,0-1.8,4.7-2.8,6.9l-6.5,14.6h98.4l2.1-7.7C642,223.1,623.2,152.3,574.6,103.7z M613.9,286.7h-74.4
			c3.1-7,5.6-14.2,7.6-21.6h-79.9l-15.4,21.6h-71.6l107-149.9l0,0c-14.1-5.8-29.2-8.7-44.5-8.6c-1.9,0-3.9,0-5.8,0.1
			c-58.1,2.9-104.4,49.5-104.4,106.4c0,3.7,0.2,7.4,0.6,11.1h63.2l-18.8,26.5c-5.9,8-13.8,14.4-25.8,14.4h-5.2
			c18.9,32.6,54.9,54.6,96.2,54.6c11.1,0,22.1-1.6,32.7-4.8c0.4-0.1,0.9-0.2,1.3-0.2c1.9,0.1,3.5,1.4,4,3.2c0.5,1.8-0.2,3.8-1.8,4.8
			c-34.2,22.3-76.4,28.8-115.7,17.8c-39.3-11-72-38.5-89.6-75.4h-86.9L252,139.2h37.7C315.7,105.3,355.8,85,398.5,84
			c1,0,2.1,0,3.1,0c60.3,0,110.8,36.1,131.3,89.1L495.9,225h56.4c-0.2-50.3-25.5-97.3-67.3-125.3s-94.9-33.3-141.5-14.3
			c63.2-39.4,144.1-36.1,203.8,8.4C607,138.3,633.5,214.8,613.9,286.7z M404.1,235.3h-61c0-0.2,0-0.4,0-0.6
			c0-51.2,41.5-93.3,94.5-96c1.8-0.1,3.5-0.1,5.3-0.1c9.4,0,18.7,1.2,27.8,3.6L404.1,235.3z M536.3,186.5c2.7,9.2,4.4,18.6,5.1,28.1
			h-25.2L536.3,186.5z"/>
		
			<linearGradient id="SVGID_1_" gradientUnits="userSpaceOnUse" x1="-17.9768" y1="510.7624" x2="-17.9768" y2="509.7624" gradientTransform="matrix(276.7725 0 0 -228.6273 5457.3633 116832.2812)">
			<stop  offset="0.217" style="stop-color:#FFD103"/>
			<stop  offset="0.296" style="stop-color:#FFD723"/>
			<stop  offset="0.474" style="stop-color:#FFE980"/>
			<stop  offset="0.707" style="stop-color:#FFFFFF"/>
		</linearGradient>
		<path class="st2" d="M343.5,85.5c57.2-23.4,122.8-9.7,165.8,34.5s55,110.2,30.2,166.7h74.4c19.6-71.8-6.8-148.4-66.6-192.8
			C487.6,49.4,406.7,46.1,343.5,85.5"/>
		<path class="st3" d="M532.9,173.1l-14.3,20.1c-13.7-14.1-32.6-22.1-52.3-22c-1.2,0-2.4,0-3.7,0.1l24.6-34.5
			C505.6,144.3,521.5,156.9,532.9,173.1z M547.1,265.1c3.5-12.9,5.2-26.1,5.2-39.5c0-0.2,0-0.4,0-0.6h-15.5
			c3.6,13.2,3.4,27-0.5,40.1L547.1,265.1z"/>
		<path class="st4" d="M479,344.3c-43.8,28.6-99.9,30.7-145.8,5.5l0,0c-11.3-14.3-19.7-30.7-24.6-48.2c15.8-0.7,38.8,0.6,55.7,7.9
			c21,20.5,49.1,31.9,78.4,31.8c11.1,0,22.1-1.6,32.7-4.8c0.4-0.1,0.9-0.2,1.3-0.2c1.9,0.1,3.5,1.4,4,3.2S480.6,343.3,479,344.3z
			 M333.2,245.8c-0.4-3.7-0.6-7.4-0.6-11.1c0-56.9,46.3-103.5,104.4-106.4c-67.3,2.7-122.5,52.9-131.9,117.5L333.2,245.8z"/>
		<path class="st5" d="M346.7,286.7h-41.2c0.8,5,1.9,10,3.3,14.9l0,0c15.8-0.7,38.8,0.6,55.7,7.9C357.5,302.7,351.5,295,346.7,286.7
			z"/>
		<path class="st6" d="M273.7,286.7c5.1,10.7,11.6,20.8,19.3,29.9c4-6.2,9.4-11.3,15.7-15c-1.4-4.9-2.5-9.9-3.3-14.9H273.7z"/>
		
			<linearGradient id="SVGID_00000136377187370878904800000017702805562839351954_" gradientUnits="userSpaceOnUse" x1="-18.4558" y1="510.2962" x2="-17.4558" y2="510.2962" gradientTransform="matrix(266.1014 0 0 -265.8454 5177.9634 135876.75)">
			<stop  offset="0" style="stop-color:#F6A117"/>
			<stop  offset="0.134" style="stop-color:#F7A614"/>
			<stop  offset="0.289" style="stop-color:#FAB511"/>
			<stop  offset="0.453" style="stop-color:#FFCD03"/>
			<stop  offset="0.478" style="stop-color:#FFD103"/>
		</linearGradient>
		<path style="fill:url(#SVGID_00000136377187370878904800000017702805562839351954_);" d="M487.3,136.7
			c-14.1-5.8-29.2-8.7-44.5-8.6c-1.9,0-3.9,0-5.8,0.1c-67.3,2.7-122.5,52.9-131.9,117.5h-38.3l47.2-106.6h-24.4
			C315.7,105.3,355.8,85,398.5,84c1,0,2.1,0,3.1,0c60.3,0,110.9,36.1,131.3,89.1l0,0C521.5,156.9,505.6,144.3,487.3,136.7z
			 M308.7,301.6L308.7,301.6c-6.3,3.7-11.7,8.9-15.7,15c11.3,13.4,24.9,24.7,40.3,33.2C321.9,335.5,313.6,319.1,308.7,301.6
			L308.7,301.6z"/>
		<path class="st8" d="M539.4,244.2c0,7.1-1,14.1-3.1,20.9h-69.1l-15.4,21.6h-71.6l82.4-115.5c1.2-0.1,2.4-0.1,3.7-0.1
			c19.7,0,38.5,7.9,52.3,22L495.9,225h41C538.5,231.2,539.4,237.7,539.4,244.2L539.4,244.2z M252,139.2l-65.2,147.5h165
			c12,0,19.9-6.4,25.8-14.4l18.8-26.5H266.8l47.2-106.6H252z"/>
	</g>
</g>
</svg>
