<?xml version="1.0" encoding="UTF-8"?>
<svg version="1.1" xmlns="http://www.w3.org/2000/svg" width="3000" height="1675">
<path d="M0 0 C0 0.66 0 1.32 0 2 C-0.88233307 2.17158127 -1.76466614 2.34316254 -2.67373657 2.51994324 C-95.76756477 20.64778454 -190.54919956 39.22139256 -276 82 C-276.80646973 82.39928711 -277.61293945 82.79857422 -278.44384766 83.20996094 C-311.72878296 99.76984461 -344.30053817 123.94173419 -357.09765625 160.1015625 C-361.36431462 175.46153262 -359.97308234 192.03398418 -355 207 C-354.59910156 208.216875 -354.19820312 209.43375 -353.78515625 210.6875 C-348.25144854 225.82900747 -339.08563012 239.51141774 -329 252 C-328.19046875 253.01320313 -327.3809375 254.02640625 -326.546875 255.0703125 C-320.1280406 262.9107126 -313.07638736 270.13216969 -305.9375 277.3125 C-305.02782471 278.23144043 -304.11814941 279.15038086 -303.1809082 280.09716797 C-297.83683489 285.41674261 -292.32683619 290.34690425 -286.42456055 295.04077148 C-284.16050348 296.87030104 -282.00978308 298.77242641 -279.875 300.75 C-273.65597514 306.32947975 -266.9426506 311.28411902 -260.26513672 316.29541016 C-258.14878365 317.88803541 -256.04444775 319.49533559 -253.94140625 321.10546875 C-223.59014824 344.11522945 -190.84185903 364.38807518 -157.85791016 383.35644531 C-155.12508052 384.92806748 -152.39627147 386.50647391 -149.66796875 388.0859375 C-137.77383582 394.94957292 -125.7366842 401.52854282 -113.64086914 408.02880859 C-110.79394065 409.56495813 -107.95756714 411.11974734 -105.12280273 412.67822266 C-92.16773464 419.79373738 -79.11010454 426.67141953 -65.9375 433.375 C-64.94285736 433.88213531 -63.94821472 434.38927063 -62.9234314 434.91177368 C-32.75738639 450.28292887 -2.39255322 465.28323526 28.40478516 479.35253906 C32.43562139 481.19961789 36.45822815 483.06399139 40.48046875 484.9296875 C111.87897486 518.00902491 184.68892295 548.46432821 259.5625 572.8125 C260.46973816 573.10763489 261.37697632 573.40276978 262.31170654 573.70684814 C267.20266672 575.29289701 272.1014302 576.84955207 277.01251221 578.37213135 C278.73541613 578.91641513 280.44684887 579.49675966 282.15576172 580.08349609 C294.52435421 584.07285656 308.21158941 580.53477369 320.79296875 578.62890625 C322.40495332 578.38848021 324.01698987 578.14840254 325.6290741 577.90864563 C329.92627165 577.2675998 334.2222601 576.61880165 338.51787567 575.96724701 C341.20626639 575.55965479 343.89488731 575.15361049 346.58355713 574.74786377 C491.18692223 554.69478911 491.18692223 554.69478911 672.35693359 468.23583984 C685.98433154 449.21155557 691.06159741 428.32879526 687.30859375 405.14453125 C686.45268319 400.68904126 685.31305758 396.34114996 684 392 C683.80164551 391.34402832 683.60329102 390.68805664 683.39892578 390.01220703 C678.69014122 375.08419869 671.10344433 360.58610818 662.11914062 347.81030273 C661 346 661 346 661 344 C660.34 344 659.68 344 659 344 C658.15115234 342.45699219 658.15115234 342.45699219 657.28515625 340.8828125 C651.06152159 330.00851973 642.1609266 320.46011584 634 311 C633.36191406 310.26007813 632.72382813 309.52015625 632.06640625 308.7578125 C630.38877309 306.82834064 628.69746304 304.91204076 627 303 C626.31550781 302.22269531 625.63101562 301.44539063 624.92578125 300.64453125 C620.1051445 295.21816004 615.10259661 290.06368502 609.87109375 285.03125 C608 283 608 283 608 281 C607.42797852 280.75467529 606.85595703 280.50935059 606.26660156 280.2565918 C603.61263203 278.78524527 601.85500817 277.06447599 599.734375 274.89453125 C598.92613281 274.07533203 598.11789062 273.25613281 597.28515625 272.41210938 C596.44855469 271.55423828 595.61195312 270.69636719 594.75 269.8125 C589.59072713 264.54388618 584.43298798 259.37977256 578.83154297 254.57983398 C576.04246898 252.17406249 573.37348763 249.64441147 570.6875 247.125 C565.8935086 242.66495644 560.97489004 238.43690447 555.8671875 234.3359375 C551.98491387 231.17299522 548.21645924 227.88427851 544.43334961 224.60400391 C539.5193319 220.37536413 534.44719573 216.37373804 529.26635742 212.47705078 C527.80919235 211.36241494 526.39921418 210.18656764 525 209 C525 208.34 525 207.68 525 207 C598.04320573 212.07974332 671.64636966 232.52438318 738 263 C738.97130859 263.44311523 739.94261719 263.88623047 740.94335938 264.34277344 C783.48722091 283.84797988 823.15583008 309.75195223 858 341 C858.55494141 341.49709473 859.10988281 341.99418945 859.68164062 342.50634766 C871.02404224 352.71518185 882.18553302 363.29729105 892 375 C892.79277344 375.90363281 893.58554688 376.80726563 894.40234375 377.73828125 C902.23051762 386.71158711 909.18568358 396.24224723 916 406 C916.45793945 406.65258789 916.91587891 407.30517578 917.38769531 407.97753906 C924.32735983 417.92318224 930.30941167 428.29707605 936 439 C936.34772461 439.64485352 936.69544922 440.28970703 937.05371094 440.95410156 C953.2032505 471.06314557 963.82425882 504.95310042 967 539 C967.16628906 540.65902344 967.16628906 540.65902344 967.3359375 542.3515625 C971.18793218 586.80566332 962.18492212 630.85980967 943 671 C942.60586914 671.8254834 942.21173828 672.6509668 941.80566406 673.50146484 C926.60896029 704.8122421 904.09682067 732.07268535 879.625 756.5625 C878.75617188 757.44357422 877.88734375 758.32464844 876.9921875 759.23242188 C870.97619658 765.26176189 864.65919963 770.69725676 858 776 C856.67154293 777.09671339 855.34570214 778.19660976 854.0234375 779.30078125 C844.67780556 787.03956297 835.01244866 794.15115668 825 801 C824.08299316 801.63518555 824.08299316 801.63518555 823.14746094 802.28320312 C779.63074473 832.40832428 730.74830743 854.44409452 681 872 C680.35389771 872.22860718 679.70779541 872.45721436 679.04211426 872.69274902 C657.58606318 880.26967262 635.90981124 886.74450034 613.92572021 892.61058044 C612.19445731 893.07301546 610.46456507 893.54061527 608.73614502 894.01356506 C604.32912137 895.20125925 599.95529745 896.22061206 595.4597168 897.01586914 C586.1234299 898.49690686 586.1234299 898.49690686 578.54541016 903.59985352 C576.85533896 906.88933577 575.79524061 909.99911256 574.8125 913.5625 C573.98252062 916.00895292 573.1491564 918.45425998 572.3125 920.8984375 C571.92835937 922.10467773 571.54421875 923.31091797 571.1484375 924.55371094 C569.52567764 929.42337043 567.4779899 934.03925933 565.3125 938.6875 C564.7565918 939.90566406 564.7565918 939.90566406 564.18945312 941.1484375 C561.03025198 948.04123999 557.70294893 954.83963425 554.23730469 961.58300781 C552.78413044 964.4216868 551.3503027 967.26990429 549.9140625 970.1171875 C526.70191351 1015.83869263 497.29243605 1058.16756055 464.07373047 1097.17480469 C461.25765184 1100.48680269 458.51914293 1103.84736317 455.8125 1107.25 C450.01474818 1114.37770206 443.60530076 1120.9396463 437.27001953 1127.58642578 C435.1994744 1129.78791096 433.16179496 1132.01646043 431.12867737 1134.25244141 C423.11464128 1143.03824739 414.71682259 1151.43467474 406.29882812 1159.83154297 C403.73711354 1162.3878593 401.18083894 1164.94952929 398.625 1167.51171875 C396.97427914 1169.16177933 395.3232484 1170.81152998 393.671875 1172.4609375 C392.91960632 1173.21523041 392.16733765 1173.96952332 391.39227295 1174.74667358 C387.28391758 1178.83707877 383.08869959 1182.7610185 378.68621826 1186.53396606 C376.51533995 1188.42137373 374.50243809 1190.43594843 372.5 1192.5 C369.84959431 1195.23195663 367.11561232 1197.79641054 364.2421875 1200.2890625 C359.92407922 1204.0359818 355.76992046 1207.93850983 351.625 1211.875 C346.33126264 1216.88117068 341.00467675 1221.83423918 335.56640625 1226.68359375 C330.45348523 1231.29845245 325.44357772 1236.02588037 320.42089844 1240.73852539 C318.52825135 1242.50653567 316.62985679 1244.26758796 314.72753906 1246.02514648 C306.02257537 1254.08351662 297.50548666 1262.3081782 289.11816406 1270.6965332 C287.1102101 1272.70227359 285.09432344 1274.69981686 283.078125 1276.69726562 C276.62324527 1283.12489893 270.43061438 1289.55963151 264.80322266 1296.73535156 C263.04268142 1298.94639685 261.18752021 1301.00623548 259.25 1303.0625 C244.37028109 1319.72067137 233.17483763 1339.28895025 225 1360 C224.61199219 1360.98097656 224.22398437 1361.96195313 223.82421875 1362.97265625 C221.9014448 1368.48856761 220.89271733 1373.57518535 220.29296875 1379.37890625 C220.15979248 1380.53600098 220.02661621 1381.6930957 219.8894043 1382.88525391 C219.63405198 1385.2146434 219.42672627 1387.54990694 219.27270508 1389.88818359 C218.38614899 1397.8606913 218.38614899 1397.8606913 214.72827148 1400.8671875 C211.54920765 1402.4880237 208.34213418 1403.75019109 205 1405 C203.15771034 1405.82401268 201.31560577 1406.64860412 199.48178101 1407.49128723 C196.7618621 1408.73696975 194.02339589 1409.93930669 191.2857666 1411.14544678 C188.97807339 1412.16219768 186.67198014 1413.18250716 184.36621094 1414.20361328 C181.00981099 1415.68968656 177.65282608 1417.17442669 174.29541016 1418.65820312 C165.10869324 1422.71938925 155.92926659 1426.79700924 146.75 1430.875 C145.3307724 1431.50532135 145.3307724 1431.50532135 143.88287354 1432.14837646 C130.38405718 1438.14469761 116.90312676 1444.17953724 103.4375 1450.25 C86.61444605 1457.83393612 69.7613166 1465.34789735 52.89257812 1472.82958984 C43.6141922 1476.94507936 34.33826803 1481.06611429 25.0625 1485.1875 C24.09309479 1485.61818787 23.12368958 1486.04887573 22.12490845 1486.49261475 C10.9082206 1491.4765314 -0.30354843 1496.47075805 -11.5 1501.5 C-25.85949962 1507.94952487 -40.23850242 1514.35533659 -54.63085938 1520.73120117 C-56.54038354 1521.57726841 -58.44988904 1522.42337778 -60.359375 1523.26953125 C-61.28443848 1523.67940781 -62.20950195 1524.08928436 -63.16259766 1524.51158142 C-67.91010254 1526.6181379 -72.64960427 1528.74023301 -77.37408447 1530.89794922 C-79.18026449 1531.72273898 -80.98899811 1532.54192983 -82.79785156 1533.36083984 C-84.85686591 1534.29427224 -86.91134699 1535.23780528 -88.95996094 1536.19384766 C-89.83942383 1536.59007324 -90.71888672 1536.98629883 -91.625 1537.39453125 C-92.35976562 1537.73331299 -93.09453125 1538.07209473 -93.8515625 1538.42114258 C-99.39724878 1539.91532692 -104.70624699 1536.45116911 -109.61328125 1534.1328125 C-110.86942986 1533.54739433 -110.86942986 1533.54739433 -112.1509552 1532.95014954 C-114.87378581 1531.67999172 -117.59308591 1530.40245386 -120.3125 1529.125 C-122.20072391 1528.24296016 -124.08923452 1527.36153381 -125.97802734 1526.48071289 C-129.68333429 1524.75252632 -133.38767665 1523.02230036 -137.09130859 1521.29052734 C-142.75621189 1518.6441246 -148.43623904 1516.03224488 -154.125 1513.4375 C-164.23945155 1508.81390656 -174.33990066 1504.1602503 -184.4375 1499.5 C-185.26276184 1499.11919281 -186.08802368 1498.73838562 -186.93829346 1498.34603882 C-196.47560129 1493.94460467 -206.00881707 1489.53450251 -215.53515625 1485.109375 C-231.09810201 1477.88148754 -246.66235462 1470.66253647 -262.3125 1463.625 C-279.33583468 1455.96901592 -296.27022739 1448.12682027 -313.1484375 1440.15625 C-315.99472956 1438.8123684 -318.84107596 1437.46860205 -321.6875 1436.125 C-322.40072418 1435.78825256 -323.11394836 1435.45150513 -323.8487854 1435.10455322 C-335.03755791 1429.82535809 -346.27684593 1424.66752669 -357.5508728 1419.57330322 C-368.08095868 1414.81289374 -378.55408635 1409.94220889 -389 1405 C-400.83911551 1399.39885284 -412.72361497 1393.91172439 -424.65881348 1388.51846313 C-436.77973276 1383.03958119 -448.83435172 1377.42680482 -460.86181641 1371.74584961 C-461.50625702 1371.44201355 -462.15069763 1371.13817749 -462.81466675 1370.82513428 C-464.54992116 1370.00673587 -466.28427251 1369.18642346 -468.01855469 1368.3659668 C-470.65318094 1367.1588972 -473.29849164 1366.04706954 -476 1365 C-474.70426824 1361.11280471 -472.37310319 1359.89247867 -469.125 1357.6875 C-467.83877904 1356.79189172 -466.55368226 1355.89466747 -465.26953125 1354.99609375 C-464.2323999 1354.27268799 -464.2323999 1354.27268799 -463.17431641 1353.53466797 C-459.34429283 1350.83137488 -455.5808079 1348.0383541 -451.8125 1345.25 C-451.01158936 1344.65864258 -450.21067871 1344.06728516 -449.38549805 1343.45800781 C-446.92298923 1341.63958496 -444.46140559 1339.81991581 -442 1338 C-432.63681218 1331.07897104 -423.26507443 1324.17364891 -413.8125 1317.375 C-407.49875889 1312.83372905 -401.25399557 1308.21163636 -395.04711914 1303.52563477 C-389.24631275 1299.15758799 -383.36239195 1294.91005357 -377.46704102 1290.67089844 C-365.69346478 1283.67665035 -365.69346478 1283.67665035 -357.61108398 1274.20141602 C-342.99505778 1176.19093932 -374.6847485 1077.82012752 -432.60791016 998.87988281 C-438.91558341 990.04406323 -438.91558341 990.04406323 -446.09375 981.95703125 C-448.19314493 979.80170982 -449.46437975 977.58245912 -451 975 C-452.61685721 972.98378183 -454.24831213 971.01546405 -455.9375 969.0625 C-456.42130127 968.49821289 -456.90510254 967.93392578 -457.40356445 967.35253906 C-458.42466727 966.16182711 -459.44707003 964.97222883 -460.47070312 963.78369141 C-461.93407329 962.07689344 -463.38325009 960.35918295 -464.828125 958.63671875 C-476.83694685 944.36950908 -489.83967193 931.0724286 -503 917.875 C-503.53652191 917.33579926 -504.07304382 916.79659851 -504.62582397 916.24105835 C-510.02132917 910.82509568 -515.43283838 905.47872243 -521.24755859 900.50732422 C-524.01273892 898.12891472 -526.65274664 895.61977812 -529.3125 893.125 C-534.12889801 888.64454854 -539.06852978 884.39041747 -544.19921875 880.26953125 C-546.72784783 878.22053056 -549.21120853 876.13124299 -551.68457031 874.01660156 C-565.78132681 861.94169263 -565.78132681 861.94169263 -581.03515625 851.4140625 C-583 850 -583 850 -585.234375 847.7109375 C-588.6297279 844.38272435 -592.31175322 841.7381043 -596.1875 839 C-597.82575607 837.83236123 -599.46377095 836.66438399 -601.1015625 835.49609375 C-601.92817383 834.90812012 -602.75478516 834.32014648 -603.60644531 833.71435547 C-605.75934655 832.17236521 -607.89519073 830.61090804 -610.0234375 829.03515625 C-630.12200668 814.20366251 -651.1900054 800.58457236 -672.23095703 787.13378906 C-674.11512927 785.92621303 -675.99354405 784.71003216 -677.87109375 783.4921875 C-679.12238093 782.68226865 -680.37368236 781.8723718 -681.625 781.0625 C-682.68976563 780.37285156 -683.75453125 779.68320312 -684.8515625 778.97265625 C-688.187068 776.88279239 -691.57046977 774.9307305 -695 773 C-693.67908291 769.94233658 -692.46795581 768.30979489 -689.71875 766.44140625 C-689.05117676 765.98000244 -688.38360352 765.51859863 -687.69580078 765.04321289 C-686.97118652 764.55457764 -686.24657227 764.06594238 -685.5 763.5625 C-683.94454184 762.49070091 -682.38987938 761.41774629 -680.8359375 760.34375 C-680.03381836 759.79203125 -679.23169922 759.2403125 -678.40527344 758.671875 C-674.60185517 756.02816729 -670.86667887 753.29251221 -667.125 750.5625 C-660.94926994 746.07337941 -654.69650643 741.71855255 -648.375 737.4375 C-642.46617745 733.43422782 -636.67717577 729.32553507 -631 725 C-624.54713766 720.08345637 -617.92434345 715.47271794 -611.20703125 710.92578125 C-605.73286171 707.21148205 -600.34546318 703.39693942 -595 699.5 C-588.06275609 694.44427497 -581.0201073 689.56824861 -573.91650391 684.74975586 C-568.19391809 680.85391803 -562.59188366 676.81963191 -557.03222656 672.69555664 C-552.45511974 669.30710291 -547.79270655 666.07824242 -543 663 C-546.1877368 659.73256978 -549.43960742 656.72982698 -553 653.875 C-562.11411562 646.49048102 -571.05404204 638.93401012 -579.73828125 631.046875 C-581.80673875 629.1749031 -583.89560914 627.3313661 -586 625.5 C-600.82353013 612.56256515 -615.10278309 599.0717661 -628.99169922 585.13867188 C-631.023262 583.10167579 -633.06021836 581.07018049 -635.09765625 579.0390625 C-636.41959207 577.71646683 -637.74121817 576.39356151 -639.0625 575.0703125 C-639.65740234 574.47743439 -640.25230469 573.88455627 -640.86523438 573.27371216 C-644.53834183 569.5803524 -648.02042373 565.76402688 -651.42044067 561.81767273 C-653.83382631 559.0404771 -656.35826097 556.3706385 -658.875 553.6875 C-663.33701824 548.89138606 -667.56785648 543.97158705 -671.66796875 538.859375 C-673.82711242 536.21198276 -676.04375688 533.63287033 -678.28979492 531.05981445 C-684.79684574 523.5929293 -690.77673496 515.81565853 -696.64208984 507.83837891 C-698.5703202 505.22788365 -700.53752665 502.64730724 -702.5 500.0625 C-713.12903285 485.83947763 -722.86730926 471.22881931 -732 456 C-732.71736328 454.80503906 -732.71736328 454.80503906 -733.44921875 453.5859375 C-741.16068315 440.66869461 -748.2166312 427.42541742 -755 414 C-755.40992188 413.19095215 -755.81984375 412.3819043 -756.2421875 411.54833984 C-763.16594777 397.7618088 -768.7077457 383.48070272 -774 369 C-774.32742188 368.11119141 -774.65484375 367.22238281 -774.9921875 366.30664062 C-783.8064908 342.10497452 -789.83353554 316.54310091 -793 291 C-793.11569336 290.07558105 -793.23138672 289.15116211 -793.35058594 288.19873047 C-802.78701877 208.91309382 -779.36880575 133.40762135 -730.65234375 70.9921875 C-718.03522488 55.28376002 -703.72340291 39.65786816 -687.84375 27.234375 C-685.75536276 25.59349931 -683.73205899 23.9311379 -681.71875 22.203125 C-663.91154229 7.06351061 -643.79088516 -5.57638725 -623.29931641 -16.74316406 C-621.18153089 -17.90077288 -619.07998748 -19.08313443 -616.98046875 -20.2734375 C-546.610554 -59.5478263 -462.74516575 -74.96522197 0 0 Z " fill="#031F2F" transform="translate(1420,104)"/>
<path d="M0 0 C0 0.66 0 1.32 0 2 C-0.88233307 2.17158127 -1.76466614 2.34316254 -2.67373657 2.51994324 C-95.76756477 20.64778454 -190.54919956 39.22139256 -276 82 C-276.80646973 82.39928711 -277.61293945 82.79857422 -278.44384766 83.20996094 C-311.72878296 99.76984461 -344.30053817 123.94173419 -357.09765625 160.1015625 C-361.36431462 175.46153262 -359.97308234 192.03398418 -355 207 C-354.59910156 208.216875 -354.19820312 209.43375 -353.78515625 210.6875 C-348.25144854 225.82900747 -339.08563012 239.51141774 -329 252 C-328.19046875 253.01320313 -327.3809375 254.02640625 -326.546875 255.0703125 C-320.1280406 262.9107126 -313.07638736 270.13216969 -305.9375 277.3125 C-305.02782471 278.23144043 -304.11814941 279.15038086 -303.1809082 280.09716797 C-297.83683489 285.41674261 -292.32683619 290.34690425 -286.42456055 295.04077148 C-284.16050348 296.87030104 -282.00978308 298.77242641 -279.875 300.75 C-273.65597514 306.32947975 -266.9426506 311.28411902 -260.26513672 316.29541016 C-258.14878365 317.88803541 -256.04444775 319.49533559 -253.94140625 321.10546875 C-223.59014824 344.11522945 -190.84185903 364.38807518 -157.85791016 383.35644531 C-155.12508052 384.92806748 -152.39627147 386.50647391 -149.66796875 388.0859375 C-137.77383582 394.94957292 -125.7366842 401.52854282 -113.64086914 408.02880859 C-110.79394065 409.56495813 -107.95756714 411.11974734 -105.12280273 412.67822266 C-92.16773464 419.79373738 -79.11010454 426.67141953 -65.9375 433.375 C-64.94285736 433.88213531 -63.94821472 434.38927063 -62.9234314 434.91177368 C-32.75738639 450.28292887 -2.39255322 465.28323526 28.40478516 479.35253906 C32.43562139 481.19961789 36.45822815 483.06399139 40.48046875 484.9296875 C111.87897486 518.00902491 184.68892295 548.46432821 259.5625 572.8125 C260.46973816 573.10763489 261.37697632 573.40276978 262.31170654 573.70684814 C267.20266672 575.29289701 272.1014302 576.84955207 277.01251221 578.37213135 C278.73541613 578.91641513 280.44684887 579.49675966 282.15576172 580.08349609 C294.52435421 584.07285656 308.21158941 580.53477369 320.79296875 578.62890625 C322.40495332 578.38848021 324.01698987 578.14840254 325.6290741 577.90864563 C329.92627165 577.2675998 334.2222601 576.61880165 338.51787567 575.96724701 C341.20626639 575.55965479 343.89488731 575.15361049 346.58355713 574.74786377 C491.18692223 554.69478911 491.18692223 554.69478911 672.35693359 468.23583984 C685.98433154 449.21155557 691.06159741 428.32879526 687.30859375 405.14453125 C686.45268319 400.68904126 685.31305758 396.34114996 684 392 C683.80164551 391.34402832 683.60329102 390.68805664 683.39892578 390.01220703 C678.69014122 375.08419869 671.10344433 360.58610818 662.11914062 347.81030273 C661 346 661 346 661 344 C660.34 344 659.68 344 659 344 C658.15115234 342.45699219 658.15115234 342.45699219 657.28515625 340.8828125 C651.06152159 330.00851973 642.1609266 320.46011584 634 311 C633.36191406 310.26007813 632.72382813 309.52015625 632.06640625 308.7578125 C630.38877309 306.82834064 628.69746304 304.91204076 627 303 C626.31550781 302.22269531 625.63101562 301.44539063 624.92578125 300.64453125 C620.1051445 295.21816004 615.10259661 290.06368502 609.87109375 285.03125 C608 283 608 283 608 281 C607.42797852 280.75467529 606.85595703 280.50935059 606.26660156 280.2565918 C603.61263203 278.78524527 601.85500817 277.06447599 599.734375 274.89453125 C598.92613281 274.07533203 598.11789062 273.25613281 597.28515625 272.41210938 C596.44855469 271.55423828 595.61195312 270.69636719 594.75 269.8125 C589.59072713 264.54388618 584.43298798 259.37977256 578.83154297 254.57983398 C576.04246898 252.17406249 573.37348763 249.64441147 570.6875 247.125 C565.8935086 242.66495644 560.97489004 238.43690447 555.8671875 234.3359375 C551.98491387 231.17299522 548.21645924 227.88427851 544.43334961 224.60400391 C539.5193319 220.37536413 534.44719573 216.37373804 529.26635742 212.47705078 C527.80919235 211.36241494 526.39921418 210.18656764 525 209 C525 208.34 525 207.68 525 207 C598.04320573 212.07974332 671.64636966 232.52438318 738 263 C738.97130859 263.44311523 739.94261719 263.88623047 740.94335938 264.34277344 C783.48722091 283.84797988 823.15583008 309.75195223 858 341 C858.55494141 341.49709473 859.10988281 341.99418945 859.68164062 342.50634766 C871.02404224 352.71518185 882.18553302 363.29729105 892 375 C892.79277344 375.90363281 893.58554688 376.80726563 894.40234375 377.73828125 C902.23051762 386.71158711 909.18568358 396.24224723 916 406 C916.45793945 406.65258789 916.91587891 407.30517578 917.38769531 407.97753906 C924.32735983 417.92318224 930.30941167 428.29707605 936 439 C936.34772461 439.64485352 936.69544922 440.28970703 937.05371094 440.95410156 C953.2032505 471.06314557 963.82425882 504.95310042 967 539 C967.16628906 540.65902344 967.16628906 540.65902344 967.3359375 542.3515625 C971.18793218 586.80566332 962.18492212 630.85980967 943 671 C942.60586914 671.8254834 942.21173828 672.6509668 941.80566406 673.50146484 C926.60896029 704.8122421 904.09682067 732.07268535 879.625 756.5625 C878.75617188 757.44357422 877.88734375 758.32464844 876.9921875 759.23242188 C870.97619658 765.26176189 864.65919963 770.69725676 858 776 C856.67154293 777.09671339 855.34570214 778.19660976 854.0234375 779.30078125 C844.67780556 787.03956297 835.01244866 794.15115668 825 801 C824.08299316 801.63518555 824.08299316 801.63518555 823.14746094 802.28320312 C779.63074473 832.40832428 730.74830743 854.44409452 681 872 C680.35389771 872.22860718 679.70779541 872.45721436 679.04211426 872.69274902 C657.58606318 880.26967262 635.90981124 886.74450034 613.92572021 892.61058044 C612.19445731 893.07301546 610.46456507 893.54061527 608.73614502 894.01356506 C604.32912137 895.20125925 599.95529745 896.22061206 595.4597168 897.01586914 C586.1234299 898.49690686 586.1234299 898.49690686 578.54541016 903.59985352 C576.85533896 906.88933577 575.79524061 909.99911256 574.8125 913.5625 C573.98252062 916.00895292 573.1491564 918.45425998 572.3125 920.8984375 C571.92835937 922.10467773 571.54421875 923.31091797 571.1484375 924.55371094 C569.52567764 929.42337043 567.4779899 934.03925933 565.3125 938.6875 C564.7565918 939.90566406 564.7565918 939.90566406 564.18945312 941.1484375 C561.03025198 948.04123999 557.70294893 954.83963425 554.23730469 961.58300781 C552.78413044 964.4216868 551.3503027 967.26990429 549.9140625 970.1171875 C526.70191351 1015.83869263 497.29243605 1058.16756055 464.07373047 1097.17480469 C461.25765184 1100.48680269 458.51914293 1103.84736317 455.8125 1107.25 C450.01474818 1114.37770206 443.60530076 1120.9396463 437.27001953 1127.58642578 C435.1994744 1129.78791096 433.16179496 1132.01646043 431.12867737 1134.25244141 C423.11464128 1143.03824739 414.71682259 1151.43467474 406.29882812 1159.83154297 C403.73711354 1162.3878593 401.18083894 1164.94952929 398.625 1167.51171875 C396.97427914 1169.16177933 395.3232484 1170.81152998 393.671875 1172.4609375 C392.91960632 1173.21523041 392.16733765 1173.96952332 391.39227295 1174.74667358 C387.28391758 1178.83707877 383.08869959 1182.7610185 378.68621826 1186.53396606 C376.51533995 1188.42137373 374.50243809 1190.43594843 372.5 1192.5 C369.84959431 1195.23195663 367.11561232 1197.79641054 364.2421875 1200.2890625 C359.92407922 1204.0359818 355.76992046 1207.93850983 351.625 1211.875 C346.33126264 1216.88117068 341.00467675 1221.83423918 335.56640625 1226.68359375 C330.45348523 1231.29845245 325.44357772 1236.02588037 320.42089844 1240.73852539 C318.52825135 1242.50653567 316.62985679 1244.26758796 314.72753906 1246.02514648 C306.02257537 1254.08351662 297.50548666 1262.3081782 289.11816406 1270.6965332 C287.1102101 1272.70227359 285.09432344 1274.69981686 283.078125 1276.69726562 C276.62324527 1283.12489893 270.43061438 1289.55963151 264.80322266 1296.73535156 C263.04268142 1298.94639685 261.18752021 1301.00623548 259.25 1303.0625 C244.37028109 1319.72067137 233.17483763 1339.28895025 225 1360 C224.61199219 1360.98097656 224.22398437 1361.96195313 223.82421875 1362.97265625 C221.9014448 1368.48856761 220.89271733 1373.57518535 220.29296875 1379.37890625 C220.15979248 1380.53600098 220.02661621 1381.6930957 219.8894043 1382.88525391 C219.63405198 1385.2146434 219.42672627 1387.54990694 219.27270508 1389.88818359 C218.38614899 1397.8606913 218.38614899 1397.8606913 214.72827148 1400.8671875 C211.54920765 1402.4880237 208.34213418 1403.75019109 205 1405 C203.15771034 1405.82401268 201.31560577 1406.64860412 199.48178101 1407.49128723 C196.7618621 1408.73696975 194.02339589 1409.93930669 191.2857666 1411.14544678 C188.97807339 1412.16219768 186.67198014 1413.18250716 184.36621094 1414.20361328 C181.00981099 1415.68968656 177.65282608 1417.17442669 174.29541016 1418.65820312 C165.10869324 1422.71938925 155.92926659 1426.79700924 146.75 1430.875 C145.3307724 1431.50532135 145.3307724 1431.50532135 143.88287354 1432.14837646 C130.38405718 1438.14469761 116.90312676 1444.17953724 103.4375 1450.25 C86.61444605 1457.83393612 69.7613166 1465.34789735 52.89257812 1472.82958984 C43.6141922 1476.94507936 34.33826803 1481.06611429 25.0625 1485.1875 C24.09309479 1485.61818787 23.12368958 1486.04887573 22.12490845 1486.49261475 C10.9082206 1491.4765314 -0.30354843 1496.47075805 -11.5 1501.5 C-25.85949962 1507.94952487 -40.23850242 1514.35533659 -54.63085938 1520.73120117 C-56.54038354 1521.57726841 -58.44988904 1522.42337778 -60.359375 1523.26953125 C-61.28443848 1523.67940781 -62.20950195 1524.08928436 -63.16259766 1524.51158142 C-67.91010254 1526.6181379 -72.64960427 1528.74023301 -77.37408447 1530.89794922 C-79.18026449 1531.72273898 -80.98899811 1532.54192983 -82.79785156 1533.36083984 C-84.85686591 1534.29427224 -86.91134699 1535.23780528 -88.95996094 1536.19384766 C-89.83942383 1536.59007324 -90.71888672 1536.98629883 -91.625 1537.39453125 C-92.35976562 1537.73331299 -93.09453125 1538.07209473 -93.8515625 1538.42114258 C-99.39724878 1539.91532692 -104.70624699 1536.45116911 -109.61328125 1534.1328125 C-110.86942986 1533.54739433 -110.86942986 1533.54739433 -112.1509552 1532.95014954 C-114.87378581 1531.67999172 -117.59308591 1530.40245386 -120.3125 1529.125 C-122.20072391 1528.24296016 -124.08923452 1527.36153381 -125.97802734 1526.48071289 C-129.68333429 1524.75252632 -133.38767665 1523.02230036 -137.09130859 1521.29052734 C-142.75621189 1518.6441246 -148.43623904 1516.03224488 -154.125 1513.4375 C-164.23945155 1508.81390656 -174.33990066 1504.1602503 -184.4375 1499.5 C-185.26276184 1499.11919281 -186.08802368 1498.73838562 -186.93829346 1498.34603882 C-196.47560129 1493.94460467 -206.00881707 1489.53450251 -215.53515625 1485.109375 C-231.09810201 1477.88148754 -246.66235462 1470.66253647 -262.3125 1463.625 C-279.33583468 1455.96901592 -296.27022739 1448.12682027 -313.1484375 1440.15625 C-315.99472956 1438.8123684 -318.84107596 1437.46860205 -321.6875 1436.125 C-322.40072418 1435.78825256 -323.11394836 1435.45150513 -323.8487854 1435.10455322 C-335.03755791 1429.82535809 -346.27684593 1424.66752669 -357.5508728 1419.57330322 C-368.08095868 1414.81289374 -378.55408635 1409.94220889 -389 1405 C-400.83911551 1399.39885284 -412.72361497 1393.91172439 -424.65881348 1388.51846313 C-436.77973276 1383.03958119 -448.83435172 1377.42680482 -460.86181641 1371.74584961 C-461.50625702 1371.44201355 -462.15069763 1371.13817749 -462.81466675 1370.82513428 C-464.54992116 1370.00673587 -466.28427251 1369.18642346 -468.01855469 1368.3659668 C-470.65318094 1367.1588972 -473.29849164 1366.04706954 -476 1365 C-474.70426824 1361.11280471 -472.37310319 1359.89247867 -469.125 1357.6875 C-467.83877904 1356.79189172 -466.55368226 1355.89466747 -465.26953125 1354.99609375 C-464.2323999 1354.27268799 -464.2323999 1354.27268799 -463.17431641 1353.53466797 C-459.34429283 1350.83137488 -455.5808079 1348.0383541 -451.8125 1345.25 C-451.01158936 1344.65864258 -450.21067871 1344.06728516 -449.38549805 1343.45800781 C-446.92298923 1341.63958496 -444.46140559 1339.81991581 -442 1338 C-432.63681218 1331.07897104 -423.26507443 1324.17364891 -413.8125 1317.375 C-407.49875889 1312.83372905 -401.25399557 1308.21163636 -395.04711914 1303.52563477 C-389.24631275 1299.15758799 -383.36239195 1294.91005357 -377.46704102 1290.67089844 C-365.69346478 1283.67665035 -365.69346478 1283.67665035 -357.61108398 1274.20141602 C-342.99505778 1176.19093932 -374.6847485 1077.82012752 -432.60791016 998.87988281 C-438.91558341 990.04406323 -438.91558341 990.04406323 -446.09375 981.95703125 C-448.19314493 979.80170982 -449.46437975 977.58245912 -451 975 C-452.61685721 972.98378183 -454.24831213 971.01546405 -455.9375 969.0625 C-456.42130127 968.49821289 -456.90510254 967.93392578 -457.40356445 967.35253906 C-458.42466727 966.16182711 -459.44707003 964.97222883 -460.47070312 963.78369141 C-461.93407329 962.07689344 -463.38325009 960.35918295 -464.828125 958.63671875 C-476.83694685 944.36950908 -489.83967193 931.0724286 -503 917.875 C-503.53652191 917.33579926 -504.07304382 916.79659851 -504.62582397 916.24105835 C-510.02132917 910.82509568 -515.43283838 905.47872243 -521.24755859 900.50732422 C-524.01273892 898.12891472 -526.65274664 895.61977812 -529.3125 893.125 C-534.12889801 888.64454854 -539.06852978 884.39041747 -544.19921875 880.26953125 C-546.72784783 878.22053056 -549.21120853 876.13124299 -551.68457031 874.01660156 C-565.78132681 861.94169263 -565.78132681 861.94169263 -581.03515625 851.4140625 C-583 850 -583 850 -585.234375 847.7109375 C-588.6297279 844.38272435 -592.31175322 841.7381043 -596.1875 839 C-597.82575607 837.83236123 -599.46377095 836.66438399 -601.1015625 835.49609375 C-601.92817383 834.90812012 -602.75478516 834.32014648 -603.60644531 833.71435547 C-605.75934655 832.17236521 -607.89519073 830.61090804 -610.0234375 829.03515625 C-630.12200668 814.20366251 -651.1900054 800.58457236 -672.23095703 787.13378906 C-674.11512927 785.92621303 -675.99354405 784.71003216 -677.87109375 783.4921875 C-679.12238093 782.68226865 -680.37368236 781.8723718 -681.625 781.0625 C-682.68976563 780.37285156 -683.75453125 779.68320312 -684.8515625 778.97265625 C-688.187068 776.88279239 -691.57046977 774.9307305 -695 773 C-693.67908291 769.94233658 -692.46795581 768.30979489 -689.71875 766.44140625 C-689.05117676 765.98000244 -688.38360352 765.51859863 -687.69580078 765.04321289 C-686.97118652 764.55457764 -686.24657227 764.06594238 -685.5 763.5625 C-683.94454184 762.49070091 -682.38987938 761.41774629 -680.8359375 760.34375 C-680.03381836 759.79203125 -679.23169922 759.2403125 -678.40527344 758.671875 C-674.60185517 756.02816729 -670.86667887 753.29251221 -667.125 750.5625 C-660.94926994 746.07337941 -654.69650643 741.71855255 -648.375 737.4375 C-642.46617745 733.43422782 -636.67717577 729.32553507 -631 725 C-624.54713766 720.08345637 -617.92434345 715.47271794 -611.20703125 710.92578125 C-605.73286171 707.21148205 -600.34546318 703.39693942 -595 699.5 C-588.06275609 694.44427497 -581.0201073 689.56824861 -573.91650391 684.74975586 C-568.19391809 680.85391803 -562.59188366 676.81963191 -557.03222656 672.69555664 C-552.45511974 669.30710291 -547.79270655 666.07824242 -543 663 C-546.1877368 659.73256978 -549.43960742 656.72982698 -553 653.875 C-562.11411562 646.49048102 -571.05404204 638.93401012 -579.73828125 631.046875 C-581.80673875 629.1749031 -583.89560914 627.3313661 -586 625.5 C-600.82353013 612.56256515 -615.10278309 599.0717661 -628.99169922 585.13867188 C-631.023262 583.10167579 -633.06021836 581.07018049 -635.09765625 579.0390625 C-636.41959207 577.71646683 -637.74121817 576.39356151 -639.0625 575.0703125 C-639.65740234 574.47743439 -640.25230469 573.88455627 -640.86523438 573.27371216 C-644.53834183 569.5803524 -648.02042373 565.76402688 -651.42044067 561.81767273 C-653.83382631 559.0404771 -656.35826097 556.3706385 -658.875 553.6875 C-663.33701824 548.89138606 -667.56785648 543.97158705 -671.66796875 538.859375 C-673.82711242 536.21198276 -676.04375688 533.63287033 -678.28979492 531.05981445 C-684.79684574 523.5929293 -690.77673496 515.81565853 -696.64208984 507.83837891 C-698.5703202 505.22788365 -700.53752665 502.64730724 -702.5 500.0625 C-713.12903285 485.83947763 -722.86730926 471.22881931 -732 456 C-732.71736328 454.80503906 -732.71736328 454.80503906 -733.44921875 453.5859375 C-741.16068315 440.66869461 -748.2166312 427.42541742 -755 414 C-755.40992188 413.19095215 -755.81984375 412.3819043 -756.2421875 411.54833984 C-763.16594777 397.7618088 -768.7077457 383.48070272 -774 369 C-774.32742188 368.11119141 -774.65484375 367.22238281 -774.9921875 366.30664062 C-783.8064908 342.10497452 -789.83353554 316.54310091 -793 291 C-793.11569336 290.07558105 -793.23138672 289.15116211 -793.35058594 288.19873047 C-802.78701877 208.91309382 -779.36880575 133.40762135 -730.65234375 70.9921875 C-718.03522488 55.28376002 -703.72340291 39.65786816 -687.84375 27.234375 C-685.75536276 25.59349931 -683.73205899 23.9311379 -681.71875 22.203125 C-663.91154229 7.06351061 -643.79088516 -5.57638725 -623.29931641 -16.74316406 C-621.18153089 -17.90077288 -619.07998748 -19.08313443 -616.98046875 -20.2734375 C-546.610554 -59.5478263 -462.74516575 -74.96522197 0 0 Z M-489.95019531 -22.75585938 C-492.85316598 -22.03639114 -495.76249177 -21.36220641 -498.6796875 -20.703125 C-524.95985517 -14.65467679 -550.57876363 -5.3826668 -575 6 C-576.91268006 6.86996836 -578.82544219 7.7397563 -580.73828125 8.609375 C-594.35712381 14.88305714 -607.27729025 22.07241788 -620 30 C-620.61407715 30.3825293 -621.2281543 30.76505859 -621.86083984 31.15917969 C-648.63723409 48.03064908 -674.65662188 69.84358597 -694 95 C-694.44520996 95.56348145 -694.89041992 96.12696289 -695.34912109 96.70751953 C-735.55486008 147.60034368 -752.32487873 211.70311321 -745.12402344 275.94726562 C-744.53997343 280.32382831 -743.82090925 284.66202398 -743 289 C-742.77521973 290.21792236 -742.77521973 290.21792236 -742.54589844 291.46044922 C-741.64809215 296.22682844 -740.63754442 300.95811257 -739.53710938 305.68164062 C-739.00058812 307.99746147 -738.4924196 310.31841349 -737.984375 312.640625 C-729.29435049 350.99659527 -711.63632777 388.64953022 -691 422 C-690.30438965 423.13381104 -690.30438965 423.13381104 -689.59472656 424.29052734 C-675.42656072 447.33154254 -659.48464457 469.35323886 -642 490 C-641.31260742 490.81259277 -641.31260742 490.81259277 -640.61132812 491.64160156 C-634.19872035 499.20914584 -627.67326382 506.66062091 -621 514 C-619.45717564 515.70728787 -617.9155139 517.41562707 -616.375 519.125 C-615.63894531 519.9396875 -614.90289063 520.754375 -614.14453125 521.59375 C-611.51036929 524.54938527 -608.94937761 527.56410149 -606.41015625 530.6015625 C-605.09431517 532.23471676 -605.09431517 532.23471676 -603 532 C-602.74041504 532.58483154 -602.48083008 533.16966309 -602.21337891 533.7722168 C-600.91356092 536.15870354 -599.51043278 537.73302211 -597.5859375 539.64453125 C-596.90660156 540.32193359 -596.22726562 540.99933594 -595.52734375 541.69726562 C-594.46193359 542.74430664 -594.46193359 542.74430664 -593.375 543.8125 C-592.34439453 544.84213867 -592.34439453 544.84213867 -591.29296875 545.89257812 C-587.25593826 549.89552487 -583.10225412 553.70249445 -578.79931641 557.41674805 C-576.42282048 559.50787099 -574.20776023 561.73257057 -572 564 C-568.4882345 567.54918157 -564.90991099 570.91968457 -561.1171875 574.1640625 C-558.59400545 576.3520617 -556.14445481 578.61293113 -553.6875 580.875 C-549.22477168 584.94540056 -544.63742 588.80176909 -539.9375 592.59375 C-536.63645806 595.297795 -533.41254385 598.08132861 -530.1875 600.875 C-523.85214429 606.3435674 -517.33414411 611.53842205 -510.71923828 616.66308594 C-509.0548865 617.95731916 -507.39893288 619.26141966 -505.74609375 620.5703125 C-490.47983844 632.65827669 -475.08872429 644.48528045 -458.90625 655.328125 C-450.49279882 661.01440237 -450.49279882 661.01440237 -449 664 C-449.67546875 664.21914063 -450.3509375 664.43828125 -451.046875 664.6640625 C-454.89026579 666.40273928 -457.93091041 668.79697526 -461.25 671.375 C-466.88322961 675.67630167 -472.56850134 679.87295094 -478.375 683.9375 C-484.28458809 688.07855495 -490.15791038 692.26420167 -496 696.5 C-502.50043428 701.21061167 -509.03864183 705.86297821 -515.60546875 710.48046875 C-520.7656672 714.11454566 -525.8892894 717.79671401 -531 721.5 C-537.50058483 726.21040657 -544.0386388 730.86297608 -550.60546875 735.48046875 C-556.52439154 739.64887833 -562.39222571 743.88550657 -568.25415039 748.13354492 C-574.15647843 752.40512665 -580.10106506 756.61397946 -586.06030273 760.80566406 C-591.7502847 764.81195166 -597.39088938 768.88099868 -603 773 C-599.37891579 775.94630653 -595.67326076 778.72380285 -591.875 781.4375 C-590.97744995 782.07884888 -590.97744995 782.07884888 -590.06176758 782.7331543 C-585.77910421 785.77745717 -581.44614391 788.74095955 -577.09350586 791.68408203 C-567.82638694 797.956196 -558.89440899 804.55078483 -550.05859375 811.41357422 C-546.67239431 814.02310031 -543.24077314 816.57117654 -539.8125 819.125 C-517.10975226 836.10234676 -495.27918354 854.20790321 -474.55761719 873.55566406 C-473.06233924 874.94219452 -471.55101072 876.31135441 -470.0390625 877.6796875 C-462.86814095 884.17004625 -455.97370699 890.92085736 -449.125 897.75 C-448.23296875 898.63743896 -447.3409375 899.52487793 -446.421875 900.43920898 C-441.95537743 904.91618539 -437.62604702 909.45006972 -433.50634766 914.24853516 C-431.43591119 916.65587895 -429.27942998 918.98034769 -427.125 921.3125 C-423.08843523 925.74361621 -419.22891798 930.27429634 -415.46875 934.94140625 C-413.65109128 937.19334735 -411.81911904 939.4276326 -409.96875 941.65234375 C-402.13663235 951.10660937 -394.91002183 960.85495719 -388 971 C-387.43104004 971.83225098 -386.86208008 972.66450195 -386.27587891 973.52197266 C-378.38781595 985.09443541 -370.85658213 996.78718748 -364 1009 C-363.50145508 1009.87962402 -363.00291016 1010.75924805 -362.48925781 1011.66552734 C-350.67327879 1032.60028166 -340.79787246 1054.25566063 -333 1077 C-332.43309448 1078.6240979 -332.43309448 1078.6240979 -331.85473633 1080.28100586 C-328.57588877 1089.85048164 -325.87591787 1099.49737237 -323.4375 1109.3125 C-323.14527054 1110.48196167 -323.14527054 1110.48196167 -322.84713745 1111.67504883 C-319.37139439 1125.66851758 -316.65742438 1139.66646256 -315 1154 C-314.91566711 1154.67875183 -314.83133423 1155.35750366 -314.7444458 1156.05682373 C-312.95670514 1170.59227732 -312.67966869 1184.99198836 -312.75 1199.625 C-312.75310181 1200.77330292 -312.75620361 1201.92160583 -312.75939941 1203.10470581 C-312.81127808 1219.47114327 -312.95442188 1235.73971323 -315 1252 C-315.13422363 1253.08313477 -315.26844727 1254.16626953 -315.40673828 1255.28222656 C-316.28320742 1262.12897438 -317.32296904 1268.93254055 -318.48193359 1275.73681641 C-318.99015421 1278.93798361 -319.372592 1282.13530225 -319.73828125 1285.35546875 C-320.97873032 1294.59936322 -322.28237508 1301.66110685 -329.91772461 1307.59838867 C-333.06074384 1309.7399057 -336.28137791 1311.69347821 -339.58349609 1313.57910156 C-343.41642125 1315.83285226 -346.96614196 1318.45414318 -350.5625 1321.0625 C-351.96965924 1322.05708985 -353.37851462 1323.04928436 -354.7890625 1324.0390625 C-355.48418945 1324.52793945 -356.17931641 1325.01681641 -356.89550781 1325.52050781 C-358.2985026 1326.50683594 -359.7014974 1327.49316406 -361.10449219 1328.47949219 C-370.77775399 1335.28261604 -380.40001128 1342.15115813 -389.9765625 1349.08984375 C-393.63931125 1351.74318049 -397.31669482 1354.37528253 -401 1357 C-398.28920419 1360.33103596 -394.6604737 1361.68581201 -390.81640625 1363.3359375 C-390.0981517 1363.65128448 -389.37989716 1363.96663147 -388.63987732 1364.29153442 C-387.0920193 1364.97049935 -385.54281823 1365.64640903 -383.99243164 1366.31958008 C-379.8647866 1368.11238722 -375.74727125 1369.92818832 -371.62890625 1371.7421875 C-370.3868895 1372.2883371 -370.3868895 1372.2883371 -369.11978149 1372.84552002 C-362.03381763 1375.96805308 -355.00920109 1379.20843797 -348 1382.5 C-337.43399275 1387.45148926 -326.79814331 1392.22270098 -316.125 1396.9375 C-304.88117849 1401.90499707 -293.68634397 1406.95662405 -282.5625 1412.1875 C-271.84011347 1417.22918236 -261.06651408 1422.14134268 -250.24438477 1426.96557617 C-240.63637735 1431.25310022 -231.06405386 1435.61539683 -221.5 1440 C-210.85361144 1444.87978147 -200.19377504 1449.72471738 -189.5 1454.5 C-178.80621771 1459.27528585 -168.14661892 1464.12071039 -157.5 1469 C-146.26882698 1474.14656636 -135.0244071 1479.26127372 -123.75 1484.3125 C-122.56083984 1484.84552734 -121.37167969 1485.37855469 -120.14648438 1485.92773438 C-118.00519967 1486.88538182 -115.86213456 1487.83906456 -113.71679688 1488.78759766 C-112.06868232 1489.52308803 -110.4271217 1490.27385819 -108.79882812 1491.05224609 C-106.40164878 1492.17663736 -104.50742973 1493.01371432 -101.83203125 1492.94140625 C-99.31185085 1491.64638818 -97.65489264 1489.97478225 -95.6875 1487.9375 C-94.50027344 1486.70966797 -94.50027344 1486.70966797 -93.2890625 1485.45703125 C-90.75536205 1482.7374108 -88.2903585 1479.97388809 -85.87109375 1477.15234375 C-83.66920171 1474.61947838 -81.39804174 1472.15667478 -79.125 1469.6875 C-75.83567762 1466.08608829 -72.67982364 1462.42692725 -69.625 1458.625 C-66.23612187 1454.42183313 -62.68740524 1450.43817428 -59 1446.5 C-54.59955699 1441.79591196 -50.44585831 1436.96979819 -46.41015625 1431.9453125 C-43.5096891 1428.40081942 -40.51127429 1424.95034644 -37.5 1421.5 C-33.05409793 1416.39714333 -28.6873579 1411.24708242 -24.42578125 1405.98828125 C-21.98108947 1402.97670442 -19.51666014 1399.98232073 -17.04760742 1396.99072266 C-2.11011116 1378.91034269 -2.11011116 1378.91034269 12.35546875 1360.453125 C14.29785265 1357.90705744 16.26267845 1355.379753 18.23828125 1352.859375 C25.53077161 1343.55243562 32.64173437 1334.13473712 39.625 1324.59375 C42.26587184 1320.98817612 44.94071492 1317.4104206 47.63574219 1313.84521484 C53.73801232 1305.77221157 59.61887995 1297.56126702 65.4140625 1289.265625 C67.06145559 1286.9122063 68.71746381 1284.5650341 70.375 1282.21875 C78.7929937 1270.28252421 86.97040609 1258.2005729 95 1246 C95.55042969 1245.1646875 96.10085938 1244.329375 96.66796875 1243.46875 C105.01000398 1230.78727127 113.09161202 1217.95603262 121 1205 C121.48791016 1204.20190918 121.97582031 1203.40381836 122.47851562 1202.58154297 C149.22458498 1158.7255896 173.7163631 1113.21762211 194 1066 C194.28294922 1065.34171204 194.56589844 1064.68342407 194.85742188 1064.00518799 C203.35704315 1044.18402839 211.02787092 1024.1570649 218.01705933 1003.75556946 C219.40271029 999.71336994 220.82250517 995.6857555 222.27734375 991.66796875 C226.91663136 978.80498378 230.70134324 965.82527184 234.08496094 952.578125 C234.8860245 949.44568433 235.69966545 946.31678228 236.51733398 943.18864441 C240.84681787 926.58245517 244.54974698 909.98915973 247.46191406 893.06640625 C247.97503503 890.1422686 248.52234461 887.22728421 249.0859375 884.3125 C251.72354769 870.60988286 253.67097908 856.89176608 255 843 C255.15879639 841.34508545 255.15879639 841.34508545 255.32080078 839.65673828 C259.04842753 798.10935487 259.48556439 754.39227818 254 713 C253.89065125 712.17207947 253.78130249 711.34415894 253.66864014 710.4911499 C249.28186821 677.72965317 243.38612912 644.47963055 232.67260742 613.11314392 C232 611 232 611 231.48854065 608.77882385 C230.36127325 604.22696832 230.36127325 604.22696832 227.44268799 600.71781921 C225.42785807 599.72947492 223.43411507 598.99359832 221.30078125 598.296875 C220.52696609 598.01230438 219.75315094 597.72773376 218.95588684 597.43453979 C216.41822894 596.5082856 213.86641987 595.6302999 211.3125 594.75 C209.52766464 594.10479936 207.74430806 593.45549426 205.96240234 592.80224609 C202.35055895 591.4793461 198.73439429 590.16954383 195.11474609 588.86816406 C188.04166273 586.30620292 181.08020563 583.48850532 174.125 580.625 C172.83904261 580.09872848 171.55299013 579.57268926 170.2668457 579.046875 C166.90300289 577.66970022 163.54192486 576.2859083 160.1817627 574.89978027 C157.88040163 573.95067646 155.57841574 573.00309906 153.27636719 572.05566406 C91.81379926 546.74754786 30.76653802 520.49375469 -29.02978516 491.43652344 C-31.8929249 490.05178612 -34.76279933 488.68251708 -37.63671875 487.3203125 C-59.82376136 476.80388826 -81.88025884 465.93425508 -103.52050781 454.32958984 C-106.38351381 452.79434657 -109.25056671 451.26676381 -112.1171875 449.73828125 C-125.5271031 442.57015531 -138.83729013 435.2453856 -152.03564453 427.69482422 C-154.06894645 426.53231541 -156.1038639 425.37262906 -158.14013672 424.21533203 C-173.01631711 415.75994221 -187.6596391 407.0087226 -202.10498047 397.83642578 C-204.97272202 396.01730351 -207.84695124 394.20884477 -210.72265625 392.40234375 C-222.67613003 384.87293144 -234.40790176 377.0734776 -246 369 C-247.05598389 368.27031006 -247.05598389 368.27031006 -248.13330078 367.52587891 C-260.37995158 359.06283931 -272.22075033 350.09930182 -284 341 C-284.68255859 340.47486816 -285.36511719 339.94973633 -286.06835938 339.40869141 C-298.52136931 329.81729282 -310.38620696 319.58958452 -322 309 C-323.39798828 307.74123047 -323.39798828 307.74123047 -324.82421875 306.45703125 C-335.06956027 297.19957909 -345.19175849 287.65599889 -354 277 C-354.44778809 276.46600586 -354.89557617 275.93201172 -355.35693359 275.38183594 C-375.49251953 251.33224686 -392.439204 225.81309323 -400 195 C-400.33837891 193.72576172 -400.33837891 193.72576172 -400.68359375 192.42578125 C-406.23627395 168.03228274 -399.76529329 142.95434936 -387 122 C-381.97101631 114.41390596 -376.24684713 107.60441077 -370 101 C-369.27554687 100.21109375 -368.55109375 99.4221875 -367.8046875 98.609375 C-349.21786929 79.07746434 -324.85115526 65.92986741 -301 54 C-300.21753906 53.60216309 -299.43507813 53.20432617 -298.62890625 52.79443359 C-270.77261304 38.67658025 -240.43137889 28.35812877 -210.296875 20.41796875 C-206.95603875 19.53565462 -203.63655433 18.61015955 -200.328125 17.61328125 C-174.30725255 9.79161935 -147.53268877 4.13880849 -120.77929688 -0.51220703 C-116.61682384 -1.24276054 -112.46467616 -2.02587105 -108.3125 -2.8125 C-107.07113281 -3.04582031 -105.82976563 -3.27914062 -104.55078125 -3.51953125 C-103.70902344 -3.67808594 -102.86726563 -3.83664063 -102 -4 C-102.33 -4.66 -102.66 -5.32 -103 -6 C-105.91586727 -6.82823038 -108.79344834 -7.534632 -111.75 -8.1875 C-113.67863115 -8.62783134 -115.60700276 -9.06930051 -117.53515625 -9.51171875 C-118.57816895 -9.74938965 -119.62118164 -9.98706055 -120.69580078 -10.23193359 C-124.11634711 -11.02704507 -127.5252463 -11.86121582 -130.93359375 -12.70703125 C-145.98119956 -16.43471038 -161.04244802 -19.69025507 -176.28857422 -22.49316406 C-179.84837589 -23.1585835 -183.39158046 -23.8892691 -186.9375 -24.625 C-193.99471805 -26.04924582 -201.08843052 -27.15969617 -208.203125 -28.25 C-211.24086444 -28.7177193 -214.27054261 -29.2134757 -217.296875 -29.75 C-236.70135913 -33.18009685 -256.36671812 -35.19051317 -276.00341797 -36.75732422 C-278.04220104 -36.92243342 -280.08029197 -37.09627034 -282.11767578 -37.27783203 C-350.92259401 -43.30833873 -422.85157852 -39.71370012 -489.95019531 -22.75585938 Z " fill="#FEFEFE" transform="translate(1420,104)"/>
<path d="M0 0 C39.2329878 10.07761722 78.55123916 27.61931336 114 47 C115.06508789 47.57975586 116.13017578 48.15951172 117.22753906 48.75683594 C130.07998674 55.76759098 142.8635437 62.78956513 155 71 C155.99128906 71.6496875 156.98257813 72.299375 158.00390625 72.96875 C165.82003538 78.10477227 173.44352013 83.49186873 181 89 C181.64517578 89.46954102 182.29035156 89.93908203 182.95507812 90.42285156 C196.06168904 99.99977401 208.28516916 110.37979633 220.1875 121.40625 C222.85057379 123.86219583 225.54427626 126.27874593 228.25 128.6875 C234.62408169 134.41907426 240.59578881 140.39444245 246.17578125 146.90234375 C247.4196954 148.33271184 248.68934069 149.74100725 249.98046875 151.12890625 C257.25674798 158.96184072 263.63374279 167.42647074 270 176 C270.50966309 176.67949707 271.01932617 177.35899414 271.54443359 178.05908203 C308.84207159 228.02017352 329.19211783 290.45917597 320.3125 352.8125 C318.72243664 363.20541863 316.38953075 373.06156107 313 383 C312.64421875 384.18335938 312.2884375 385.36671875 311.921875 386.5859375 C301.71624365 419.71830408 282.12961579 448.87854416 258.69921875 474.078125 C256.19512409 476.78878029 253.75073155 479.5427361 251.3125 482.3125 C248.1117559 485.87580626 244.80115235 489.08780865 241.140625 492.171875 C238.65232957 494.29691562 236.27132626 496.52183699 233.875 498.75 C204.72302546 525.26270112 170.00459963 545.32329794 135 563 C134.10394043 563.45342773 133.20788086 563.90685547 132.28466797 564.37402344 C94.65579144 583.26089125 54.72170355 597.38698798 14.32226562 609.03417969 C11.24363987 609.92917112 8.17545782 610.85214596 5.109375 611.7890625 C4.17037354 612.07168945 3.23137207 612.35431641 2.26391602 612.64550781 C0.38327959 613.21406854 -1.49392077 613.79412434 -3.36743164 614.38574219 C-8.82912397 616.03856893 -14.19707327 617.23695378 -19.83566284 618.05526733 C-37.71654474 620.02692711 -37.71654474 620.02692711 -52.63134766 628.80664062 C-56.84198309 635.75693808 -58.91559078 643.37804759 -60.92919922 651.17822266 C-62.5820781 657.07748532 -65.06010567 662.51232671 -67.625 668.0625 C-68.34949341 669.68128052 -68.34949341 669.68128052 -69.08862305 671.33276367 C-79.57589502 694.62902026 -91.13563708 717.43894479 -104.375 739.29248047 C-106.00102334 742.00170505 -107.58418921 744.73181519 -109.15625 747.47265625 C-123.79473896 772.90110259 -140.92959141 796.90205325 -159 820 C-159.89219415 821.15083467 -160.78411363 822.30188232 -161.67578125 823.453125 C-166.65618219 829.86167714 -171.74634804 836.15269021 -177.02197266 842.32080078 C-179.84803098 845.625409 -182.59762393 848.97764122 -185.3125 852.375 C-190.17956361 858.36455756 -195.46910384 863.93265253 -200.76171875 869.54296875 C-203.76084826 872.72724029 -206.64423984 875.99605836 -209.49609375 879.3125 C-211.61534422 881.69046416 -213.88738163 883.89934641 -216.16099548 886.1285553 C-217.92634949 887.92505029 -219.56652194 889.77794128 -221.20141602 891.69311523 C-225.04948935 896.11658835 -229.12708537 900.27146593 -233.27734375 904.41015625 C-234.04752335 905.18129257 -234.81770294 905.95242889 -235.61122131 906.74693298 C-237.22941373 908.36580153 -238.84885212 909.98342551 -240.46948242 911.59985352 C-242.93067232 914.05568718 -245.38647809 916.51681365 -247.84179688 918.97851562 C-249.42415867 920.56021653 -251.00683067 922.14160717 -252.58984375 923.72265625 C-253.31405014 924.44888687 -254.03825653 925.17511749 -254.78440857 925.9233551 C-258.81665315 929.93737833 -262.93997732 933.78081987 -267.26185608 937.48204041 C-269.80620392 939.70407575 -272.13974768 942.08287413 -274.5 944.5 C-278.23002623 948.28680573 -282.06234079 951.87397309 -286.10546875 955.32421875 C-288.865228 957.76532539 -291.41210976 960.402906 -293.99609375 963.02734375 C-296.58246151 965.57337829 -299.3153528 967.92021557 -302.06640625 970.28515625 C-303.95494597 971.96004299 -305.73155648 973.69947587 -307.5 975.5 C-309.79015137 977.83123032 -312.13455601 980.00968564 -314.625 982.125 C-319.00840948 985.89439103 -323.04297422 989.98528687 -327.08056641 994.11767578 C-329.90516763 996.98779274 -332.78758595 999.7196067 -335.83984375 1002.34765625 C-340.45652783 1006.33906079 -344.75966856 1010.6127712 -349.0625 1014.9375 C-349.82626953 1015.69740234 -350.59003906 1016.45730469 -351.37695312 1017.24023438 C-355.57836432 1021.44883361 -359.6125321 1025.74410186 -363.49194336 1030.2512207 C-365.36314451 1032.42111124 -367.30602353 1034.52030107 -369.25 1036.625 C-388.33905831 1057.82066067 -405.01712175 1081.92569205 -414.25 1109.0625 C-414.50885986 1109.81942139 -414.76771973 1110.57634277 -415.03442383 1111.35620117 C-416.19161596 1114.90270642 -417.11909818 1118.2529686 -417.4765625 1121.97265625 C-417.88626725 1125.72828311 -418.37893872 1128.58226247 -420 1132 C-424.05130757 1135.25385191 -428.44873898 1137.0036399 -433.25830078 1138.89501953 C-437.46795861 1140.59162784 -441.5813964 1142.49256423 -445.71337891 1144.36889648 C-448.7867489 1145.76173225 -451.86575697 1147.1400319 -454.94915771 1148.51039124 C-464.16397849 1152.60585911 -473.33418771 1156.79623778 -482.5 1161 C-494.31045892 1166.41393686 -506.14456496 1171.76889816 -518.0078125 1177.06640625 C-527.52954785 1181.32502854 -537.01782242 1185.6541735 -546.5 1190 C-557.1465348 1194.87946916 -567.80622558 1199.72470356 -578.5 1204.5 C-589.38099914 1209.35901691 -600.22796097 1214.28846021 -611.0625 1219.25 C-632.56008326 1229.09010221 -632.56008326 1229.09010221 -639.8125 1232.375 C-640.58150635 1232.72594727 -641.3505127 1233.07689453 -642.14282227 1233.43847656 C-646.03879914 1235.19705549 -649.91003718 1236.72870857 -654 1238 C-649.89527697 1232.86909622 -645.33276811 1228.45093722 -640.46484375 1224.05834961 C-637.65348406 1221.52017086 -634.90071189 1218.9555542 -632.25 1216.25 C-630.0641601 1214.02242568 -627.81708672 1211.95639147 -625.4375 1209.9375 C-620.80263588 1205.95314313 -616.54794721 1201.60276504 -612.27514648 1197.23803711 C-609.44554587 1194.36648661 -606.58433864 1191.61055866 -603.50805664 1189.00366211 C-597.85266435 1184.07870363 -592.60250089 1178.74673326 -587.30859375 1173.44140625 C-586.19350989 1172.32699782 -585.07827778 1171.21273771 -583.96290588 1170.09861755 C-581.63746238 1167.77463979 -579.31381489 1165.44888536 -576.99145508 1163.12182617 C-574.03412097 1160.15879549 -571.07231872 1157.2002783 -568.10914516 1154.24308872 C-565.80889402 1151.94647368 -563.51105769 1149.64745434 -561.21391487 1147.34773064 C-560.12354703 1146.25670194 -559.0324532 1145.16639823 -557.94058037 1144.07687569 C-552.60562393 1138.75088854 -547.32444164 1133.41874141 -542.44532776 1127.66551208 C-539.46320757 1124.22908932 -536.14896307 1121.10884231 -532.89453125 1117.93359375 C-529.3605437 1114.45094743 -526.06510265 1110.82882797 -522.82128906 1107.07519531 C-519.68522086 1103.50192725 -516.39850185 1100.07193241 -513.125 1096.625 C-508.01796381 1091.22309083 -502.94697133 1085.80274104 -498.00390625 1080.25 C-496.6046469 1078.67890179 -495.19491548 1077.11709535 -493.77734375 1075.5625 C-489.91350533 1071.3208935 -486.16952894 1067.02532666 -482.5625 1062.5625 C-479.48663412 1058.75912497 -476.31246834 1055.09917348 -473 1051.5 C-468.96489979 1047.11105254 -465.16169696 1042.59137234 -461.41796875 1037.953125 C-458.64498456 1034.56641087 -455.79756864 1031.2506135 -452.9375 1027.9375 C-448.15939435 1022.39060654 -443.53892928 1016.74484408 -439 1011 C-438.06608361 1009.83515156 -437.13110918 1008.67115093 -436.1953125 1007.5078125 C-430.20317275 1000.05627185 -424.28567624 992.55454933 -418.48876953 984.94970703 C-416.75604465 982.68051371 -415.01654017 980.4165806 -413.27734375 978.15234375 C-404.65362527 966.90560365 -396.20177845 955.55806852 -388 944 C-387.45166504 943.22897949 -386.90333008 942.45795898 -386.33837891 941.66357422 C-339.80165016 876.10433715 -298.54324362 806.03703416 -269 731.125 C-268.69066528 730.34165283 -268.38133057 729.55830566 -268.06262207 728.7512207 C-264.29984795 719.19364365 -260.73066845 709.5836921 -257.359375 699.88110352 C-256.1649633 696.44728244 -254.92034022 693.03340064 -253.6647644 689.62153625 C-250.37156077 680.6596774 -247.86996695 671.52962899 -245.4296875 662.3046875 C-244.42431576 658.51810046 -243.33309161 654.7754265 -242.15844727 651.03857422 C-234.9932618 628.03131338 -231.1126085 604.01591982 -227.51489258 580.24072266 C-227.05161964 577.32489286 -226.52190223 574.43342964 -225.9609375 571.53515625 C-224.71465838 564.81755795 -224.0889146 558.04677035 -223.4375 551.25 C-223.24897461 549.36667969 -223.24897461 549.36667969 -223.05664062 547.4453125 C-222.6827325 543.63184111 -222.33445849 539.81712481 -222 536 C-221.89993652 534.88069092 -221.79987305 533.76138184 -221.69677734 532.6081543 C-220.72334873 520.19474708 -220.75730624 507.75718003 -220.75 495.3125 C-220.74899292 494.11947266 -220.74798584 492.92644531 -220.74694824 491.69726562 C-220.75853652 471.31280878 -221.64453285 451.24307395 -224 431 C-224.07496704 430.34076538 -224.14993408 429.68153076 -224.22717285 429.00231934 C-226.07038815 412.79412113 -228.60711549 396.79010158 -231.8515625 380.8046875 C-233.04838432 374.89323537 -234.04507576 368.95477587 -235 363 C-233.74678955 362.83395264 -232.4935791 362.66790527 -231.20239258 362.49682617 C-226.44395025 361.8660541 -221.68569587 361.23387321 -216.92749023 360.60131836 C-214.88847683 360.33044073 -212.84941611 360.05991899 -210.81030273 359.78979492 C-200.07573299 358.36752402 -189.34364604 356.92849026 -178.62109375 355.41796875 C-177.79325882 355.30293503 -176.96542389 355.18790131 -176.11250305 355.06938171 C-168.7803881 354.02592615 -161.53038852 352.62698229 -154.28515625 351.09765625 C-149.48503429 350.09471355 -144.67624605 349.14006485 -139.86523438 348.19091797 C-126.8741391 345.62184304 -113.92039364 342.90394701 -101 340 C-100.10297363 339.79906738 -99.20594727 339.59813477 -98.28173828 339.39111328 C-86.11698801 336.64480528 -74.17220215 333.42093143 -62.26806641 329.70556641 C-60.21697174 329.06749713 -58.16248621 328.44286662 -56.10546875 327.82421875 C-34.21822441 321.15491184 -12.9007071 313.31726382 8 304 C8.93183105 303.58637207 9.86366211 303.17274414 10.82373047 302.74658203 C54.00141697 283.39967211 98.04145258 253.95981206 115.8125 208.1875 C126.11841302 177.23494367 120.3108816 146.52898306 106.1875 117.8125 C91.73099696 89.47380783 70.75566879 65.53278001 48.35571289 43.2253418 C46.79910611 41.67415273 45.24799829 40.11760608 43.69726562 38.56054688 C38.30390847 33.1632287 32.82406214 27.9349289 27 23 C25.87000444 22.01557191 24.74106805 21.02992649 23.61328125 20.04296875 C17.20318827 14.48506808 10.713095 9.10881764 3.91137695 4.03393555 C2.5916687 3.04348304 1.29326983 2.02473373 0 1 C0 0.67 0 0.34 0 0 Z " fill="#A71930" transform="translate(2029,349)"/>
<path d="M0 0 C0.66 0 1.32 0 2 0 C2.4021875 1.91619141 2.4021875 1.91619141 2.8125 3.87109375 C5.28851378 15.52515425 7.9700238 27.11787399 10.8125 38.6875 C13.6752936 50.34346262 16.37133579 62.02526217 18.9375 73.75 C22.07118064 88.06188226 25.4399364 102.30641924 28.94311523 116.53222656 C29.12180145 117.26212296 29.30048767 117.99201935 29.48458862 118.74403381 C29.8378192 120.16919796 30.19934257 121.59233538 30.5696106 123.01316833 C31.40763242 126.27446307 32.03254462 129.31104389 32.38452148 132.67504883 C32.81808449 136.25316294 33.31347729 138.80768345 35 142 C39.73212678 145.62818712 44.92182215 147.64365654 50.4375 149.8125 C52.02351128 150.47962896 53.60738726 151.15185456 55.18920898 151.82885742 C58.48115249 153.23101707 61.78211139 154.60748986 65.09277344 155.96484375 C71.91818947 158.77560499 78.64242853 161.80782508 85.375 164.8324585 C88.33252033 166.15748372 91.2961517 167.46853501 94.25970459 168.77999878 C105.34659908 173.68812793 116.39397299 178.68271733 127.4375 183.6875 C128.7668457 184.28990509 128.7668457 184.28990509 130.12304688 184.90447998 C131.00154297 185.30257874 131.88003906 185.70067749 132.78515625 186.11083984 C134.53123689 186.90204717 136.27733048 187.6932259 138.0234375 188.484375 C138.87250671 188.86908966 139.72157593 189.25380432 140.59637451 189.650177 C148.57680962 193.26442979 156.56710508 196.85647888 164.5625 200.4375 C165.708396 200.95078857 166.85429199 201.46407715 168.03491211 201.99291992 C174.01917373 204.67120038 180.00704015 207.34123908 186 210 C186 210.33 186 210.66 186 211 C179.93780568 211.93948286 173.87529518 212.87690237 167.8125 213.8125 C166.9189682 213.9503894 166.0254364 214.08827881 165.10482788 214.23034668 C154.18982642 215.91304375 143.27281283 217.56508924 132.33544922 219.09692383 C127.26961285 219.80892258 122.22577246 220.60726104 117.18359375 221.47265625 C112.9621783 222.17190912 108.73196772 222.80568851 104.5 223.4375 C103.22576172 223.62783813 103.22576172 223.62783813 101.92578125 223.82202148 C97.50184341 224.48139021 93.07724895 225.13622091 88.65234375 225.7890625 C86.914024 226.04661526 85.17574204 226.30442326 83.4375 226.5625 C82.59864258 226.68657227 81.75978516 226.81064453 80.89550781 226.93847656 C75.72838586 227.71199781 70.5970073 228.58373811 65.484375 229.66796875 C61.97192548 230.1373999 58.5428998 230.04858407 55 230 C55.29132813 231.06992188 55.58265625 232.13984375 55.8828125 233.2421875 C60.26660368 249.52068963 63.97550932 265.94514637 67.65625 282.39453125 C68.22883833 284.95059441 68.80176 287.50658291 69.375 290.0625 C69.51902252 290.70509766 69.66304504 291.34769531 69.81143188 292.00976562 C72.11804553 302.28428809 74.55843245 312.52195861 77.0625 322.75 C79.62241931 333.20794226 82.10289547 343.6763904 84.4375 354.1875 C84.80790405 355.85280762 84.80790405 355.85280762 85.18579102 357.55175781 C86.241669 362.35304982 87.26913641 367.13597679 88 372 C84.45580438 369.32954705 81.72120866 366.62217832 79 363.125 C75.34618114 358.55772642 71.51304748 354.25369083 67.5 350 C62.89373951 345.10948406 58.57382684 340.09228354 54.375 334.84375 C51.53535544 331.44364928 48.53611901 328.22413555 45.5 325 C40.89422554 320.10900556 36.5738633 315.09232912 32.375 309.84375 C29.53535544 306.44364928 26.53611901 303.22413555 23.5 300 C18.89422554 295.10900556 14.5738633 290.09232912 10.375 284.84375 C7.5353545 281.44364815 4.53610629 278.224149 1.5 275 C-2.34157068 270.92022658 -6.05357043 266.81251744 -9.5625 262.4375 C-10.27277344 261.57511719 -10.98304688 260.71273438 -11.71484375 259.82421875 C-12.93431674 258.3170752 -14.14673994 256.80308411 -15.30517578 255.24853516 C-21.06250208 247.23088814 -21.06250208 247.23088814 -29.6796875 243.33203125 C-32.82537992 243.52180206 -35.77187141 243.86747786 -38.84765625 244.53930664 C-47.80235554 246.4559942 -56.943335 247.61213439 -66 248.9375 C-68.39585523 249.29021587 -70.79168843 249.64308143 -73.1875 249.99609375 C-74.35152344 250.16737793 -75.51554687 250.33866211 -76.71484375 250.51513672 C-81.14441912 251.16890728 -85.57237945 251.83313974 -90 252.5 C-95.43901142 253.31870375 -100.87889946 254.1309894 -106.3203125 254.93359375 C-107.98779541 255.17964355 -107.98779541 255.17964355 -109.68896484 255.43066406 C-111.97309522 255.76758709 -114.25727467 256.10417756 -116.54150391 256.44042969 C-122.47441104 257.31719741 -128.40337176 258.21415245 -134.328125 259.14453125 C-135.51003418 259.32959229 -136.69194336 259.51465332 -137.90966797 259.70532227 C-140.16963582 260.06054196 -142.42910521 260.41895201 -144.68798828 260.78100586 C-145.70618652 260.94093018 -146.72438477 261.10085449 -147.7734375 261.265625 C-148.66466309 261.40774414 -149.55588867 261.54986328 -150.47412109 261.69628906 C-153.00897985 262.00107973 -155.44956384 262.05386228 -158 262 C-153.26510162 252.92977271 -147.93588836 244.26158366 -142.57128906 235.55566406 C-139.82434417 231.08782393 -137.10042276 226.60598961 -134.375 222.125 C-133.79645264 221.17439697 -133.21790527 220.22379395 -132.62182617 219.24438477 C-129.31627359 213.81201417 -126.01432034 208.37746834 -122.71484375 202.94140625 C-122.35210358 202.34403152 -121.9893634 201.7466568 -121.6156311 201.13117981 C-119.78972323 198.12375901 -117.96594291 195.11508728 -116.14648438 192.10375977 C-112.96078019 186.8363927 -109.75627181 181.58585848 -106.44140625 176.3984375 C-105.91699951 175.56997314 -105.39259277 174.74150879 -104.85229492 173.88793945 C-103.90001689 172.38893958 -102.93614017 170.89721481 -101.95825195 169.41479492 C-100.26796972 166.74058249 -99.03693654 164.63666931 -98.8515625 161.44140625 C-100.57437295 157.77896907 -103.17381938 155.23275806 -106 152.375 C-107.20049435 151.12486606 -108.39839943 149.87224071 -109.59375 148.6171875 C-110.18027344 148.00198242 -110.76679687 147.38677734 -111.37109375 146.75292969 C-113.53321927 144.4261819 -115.52348174 141.98539796 -117.5 139.5 C-120.98562736 135.1429658 -124.67793667 131.05878467 -128.5 127 C-133.12294958 122.09039702 -137.46601179 117.05521457 -141.68359375 111.7890625 C-145.35986497 107.36265837 -149.30426372 103.19198888 -153.2265625 98.984375 C-157.53105514 94.36646239 -161.64312405 89.59238393 -165.73828125 84.7890625 C-171.32318933 78.24344569 -176.96553961 71.77960493 -182.77734375 65.43359375 C-188.52430675 59.14122477 -194.03090696 52.63842254 -199.57080078 46.16430664 C-203.35040272 41.74957324 -207.15573679 37.35863645 -211 33 C-210.01 32.505 -210.01 32.505 -209 32 C-206.6628418 32.87353516 -206.6628418 32.87353516 -203.69921875 34.2890625 C-202.59288086 34.81137451 -201.48654297 35.33368652 -200.34667969 35.87182617 C-199.45547424 36.29895401 -199.45547424 36.29895401 -198.54626465 36.73471069 C-195.34993984 38.26564889 -192.1407728 39.76931456 -188.93359375 41.27734375 C-188.26985748 41.59030899 -187.60612122 41.90327423 -186.92227173 42.22572327 C-180.40162307 45.29554293 -173.83252483 48.25286871 -167.25 51.1875 C-165.4484191 51.99202371 -163.64683914 52.7965495 -161.8453064 53.60118103 C-160.58643887 54.16338684 -159.32750633 54.72544707 -158.06851196 55.28736877 C-149.59974892 59.06864972 -141.14433083 62.87962965 -132.6875 66.6875 C-129.28908518 68.21749829 -125.89063591 69.74742008 -122.4921875 71.27734375 C-121.21127983 71.85403053 -121.21127983 71.85403053 -119.90449524 72.44236755 C-114.52332255 74.86485058 -109.14135838 77.28556602 -103.7587738 79.70491028 C-100.14500276 81.32922005 -96.53143759 82.95398753 -92.9178772 84.57876587 C-91.20815914 85.34736097 -89.49834383 86.11573979 -87.78842163 86.88388062 C-78.16845435 91.2055553 -68.56382462 95.55506631 -59 100 C-58.58705688 98.90691528 -58.58705688 98.90691528 -58.16577148 97.79174805 C-57.0609524 95.14596664 -55.81093619 92.79402959 -54.34765625 90.33203125 C-53.82461914 89.4488623 -53.30158203 88.56569336 -52.76269531 87.65576172 C-52.20163086 86.71748535 -51.64056641 85.77920898 -51.0625 84.8125 C-50.47694336 83.82781738 -49.89138672 82.84313477 -49.28808594 81.82861328 C-44.93179289 74.51888119 -40.51447072 67.24782253 -36.0625 59.99609375 C-26.45511206 44.3421206 -16.95530432 28.62122429 -7.5 12.875 C-6.85901367 11.80822021 -6.21802734 10.74144043 -5.55761719 9.64233398 C-4.97141602 8.66466064 -4.38521484 7.6869873 -3.78125 6.6796875 C-3.26626953 5.82101074 -2.75128906 4.96233398 -2.22070312 4.07763672 C-1.43666861 2.74320998 -0.69215675 1.3843135 0 0 Z " fill="#FEFEFE" transform="translate(1372,798)"/>
<path d="M0 0 C0.66 0.33 1.32 0.66 2 1 C-0.41556126 4.19199167 -2.68003538 6.74716687 -6 9 C-6.66 8.67 -7.32 8.34 -8 8 C-5.36 5.36 -2.72 2.72 0 0 Z " fill="#B53D50" transform="translate(1383,1578)"/>
</svg>
